<?xml version="1.0" encoding="UTF-8"?><svg id="Layer_1" xmlns="http://www.w3.org/2000/svg" viewBox="0 0 140 50"><defs><style>.cls-1{fill:#000;}.cls-1,.cls-2{stroke-width:0px;}.cls-2{fill:#fff;}</style></defs><path class="cls-1" d="M125.34,3H14.66c-.4,0-.8,0-1.2,0-.34,0-.67,0-1.01.01-.73.02-1.47.06-2.2.19-.74.13-1.42.35-2.09.69-.66.34-1.26.78-1.78,1.3-.53.52-.96,1.12-1.3,1.78-.34.67-.56,1.36-.69,2.09-.13.73-.18,1.47-.2,2.2-.01.34-.01.68-.02,1.01v25.43c0,.34,0,.67.02,1.01.02.74.06,1.47.2,2.2.13.74.35,1.43.69,2.1.33.66.77,1.26,1.3,1.78.52.53,1.12.96,1.78,1.3.67.34,1.35.56,2.09.69.73.13,1.47.17,2.2.19.34,0,.67.01,1.01.01.4,0,.8,0,1.2,0h110.68c.4,0,.8,0,1.19,0,.34,0,.68,0,1.01-.01.74-.02,1.48-.06,2.2-.19.74-.13,1.42-.35,2.1-.69.66-.33,1.26-.77,1.78-1.3.52-.52.96-1.12,1.3-1.78.34-.67.56-1.36.68-2.1.14-.73.18-1.47.2-2.2,0-.34,0-.67,0-1.01,0-.4,0-.8,0-1.2V13.49c0-.4,0-.8,0-1.2,0-.34,0-.68,0-1.01-.03-.74-.07-1.47-.2-2.2-.12-.74-.34-1.42-.68-2.09-.34-.66-.78-1.26-1.3-1.78-.52-.52-1.12-.96-1.78-1.3-.68-.34-1.36-.56-2.1-.69-.72-.13-1.46-.18-2.2-.19-.34,0-.68-.01-1.01-.01-.4,0-.8,0-1.19,0h0Z"/><path class="cls-2" d="M13.46,46.04c-.34,0-.66,0-.99-.01-.62-.02-1.34-.05-2.06-.18-.67-.12-1.27-.32-1.82-.6-.57-.29-1.09-.67-1.54-1.12-.46-.45-.83-.96-1.12-1.54-.29-.56-.48-1.15-.6-1.82-.13-.74-.17-1.49-.18-2.06,0-.23-.02-1-.02-1V12.29s0-.76.02-.98c.01-.58.05-1.33.18-2.06.12-.68.31-1.27.6-1.83.29-.58.67-1.09,1.12-1.54.46-.46.97-.83,1.54-1.12.57-.29,1.16-.48,1.82-.6.74-.13,1.49-.17,2.06-.18h.99s113.07-.01,113.07-.01h1c.56.03,1.32.06,2.04.19.66.12,1.26.31,1.84.6.56.29,1.08.67,1.53,1.12.45.45.83.97,1.13,1.55.28.56.48,1.16.59,1.81.13.69.17,1.41.19,2.08,0,.31,0,.65,0,.98,0,.41,0,.81,0,1.2v23.03c0,.4,0,.79,0,1.18,0,.36,0,.69,0,1.02-.02.65-.06,1.36-.19,2.04-.11.67-.31,1.27-.59,1.84-.3.57-.67,1.09-1.12,1.52-.45.46-.97.83-1.54,1.12-.57.29-1.15.48-1.84.6-.7.13-1.43.16-2.06.18-.32,0-.66.01-.99.01h-1.19s-111.88,0-111.88,0Z"/><path class="cls-1" d="M31.67,24.88c-.03-3.15,2.58-4.68,2.7-4.75-1.48-2.15-3.76-2.45-4.57-2.47-1.92-.2-3.78,1.15-4.76,1.15s-2.51-1.13-4.13-1.1c-2.09.03-4.05,1.24-5.12,3.12-2.21,3.83-.56,9.46,1.56,12.56,1.06,1.52,2.3,3.21,3.92,3.15,1.59-.07,2.18-1.01,4.1-1.01s2.45,1.01,4.11.97c1.7-.03,2.78-1.52,3.8-3.05,1.23-1.74,1.72-3.45,1.74-3.54-.04-.01-3.31-1.26-3.34-5.03Z"/><path class="cls-1" d="M28.55,15.62c.85-1.07,1.44-2.52,1.28-3.99-1.24.05-2.78.85-3.67,1.9-.79.92-1.49,2.43-1.31,3.85,1.39.1,2.81-.7,3.7-1.75Z"/><path class="cls-1" d="M50.71,32.86h-5.21l-1.25,3.69h-2.21l4.93-13.66h2.29l4.93,13.66h-2.24l-1.25-3.69ZM46.04,31.15h4.13l-2.03-5.99h-.06l-2.04,5.99Z"/><path class="cls-1" d="M64.86,31.57c0,3.1-1.66,5.08-4.16,5.08-1.42,0-2.55-.63-3.13-1.74h-.05v4.93h-2.04v-13.26h1.98v1.66h.04c.57-1.07,1.78-1.76,3.17-1.76,2.53,0,4.19,2,4.19,5.09ZM62.76,31.57c0-2.02-1.04-3.34-2.63-3.34s-2.61,1.35-2.61,3.34,1.05,3.35,2.61,3.35,2.63-1.32,2.63-3.35Z"/><path class="cls-1" d="M75.82,31.57c0,3.1-1.66,5.08-4.16,5.08-1.42,0-2.55-.63-3.13-1.74h-.05v4.93h-2.04v-13.26h1.98v1.66h.04c.57-1.07,1.78-1.76,3.17-1.76,2.53,0,4.2,2,4.2,5.09ZM73.72,31.57c0-2.02-1.04-3.34-2.63-3.34s-2.61,1.35-2.61,3.34,1.05,3.35,2.61,3.35,2.63-1.32,2.63-3.35Z"/><path class="cls-1" d="M83.07,32.74c.15,1.35,1.47,2.24,3.27,2.24s2.96-.89,2.96-2.11c0-1.06-.75-1.7-2.52-2.13l-1.77-.43c-2.51-.61-3.67-1.78-3.67-3.68,0-2.36,2.05-3.98,4.97-3.98s4.87,1.62,4.93,3.98h-2.06c-.12-1.36-1.25-2.19-2.9-2.19s-2.77.83-2.77,2.04c0,.97.72,1.53,2.48,1.97l1.51.37c2.8.66,3.97,1.79,3.97,3.79,0,2.56-2.03,4.16-5.27,4.16-3.03,0-5.08-1.56-5.21-4.03h2.09Z"/><path class="cls-1" d="M95.87,24.23v2.36h1.89v1.62h-1.89v5.49c0,.85.38,1.25,1.21,1.25.21,0,.54-.03.67-.05v1.61c-.23.06-.68.09-1.14.09-2.02,0-2.8-.76-2.8-2.69v-5.71h-1.45v-1.62h1.45v-2.36h2.05Z"/><path class="cls-1" d="M98.86,31.57c0-3.13,1.85-5.1,4.72-5.1s4.73,1.97,4.73,5.1-1.83,5.1-4.73,5.1-4.72-1.96-4.72-5.1ZM106.23,31.57c0-2.15-.99-3.42-2.64-3.42s-2.64,1.28-2.64,3.42.99,3.42,2.64,3.42,2.64-1.26,2.64-3.42Z"/><path class="cls-1" d="M110,26.59h1.95v1.7h.05c.31-1.13,1.22-1.8,2.4-1.8.29,0,.54.04.7.08v1.91c-.16-.07-.52-.12-.92-.12-1.32,0-2.13.89-2.13,2.29v5.91h-2.04v-9.96Z"/><path class="cls-1" d="M124.52,33.62c-.28,1.81-2.04,3.05-4.29,3.05-2.9,0-4.7-1.94-4.7-5.06s1.81-5.15,4.61-5.15,4.49,1.89,4.49,4.91v.7h-7.04v.12c0,1.7,1.07,2.82,2.68,2.82,1.14,0,2.03-.54,2.3-1.4h1.94ZM117.61,30.65h4.98c-.05-1.52-1.02-2.53-2.44-2.53s-2.43,1.02-2.54,2.53Z"/><path class="cls-1" d="M45.79,12.6c1.95,0,3.09,1.2,3.09,3.26s-1.13,3.3-3.09,3.3h-2.37v-6.56h2.37ZM44.44,18.24h1.24c1.37,0,2.16-.86,2.16-2.36s-.8-2.35-2.16-2.35h-1.24v4.71Z"/><path class="cls-1" d="M50.03,16.69c0-1.6.89-2.57,2.34-2.57s2.33.97,2.33,2.57-.89,2.57-2.33,2.57-2.34-.97-2.34-2.57ZM53.7,16.69c0-1.07-.48-1.7-1.33-1.7s-1.33.63-1.33,1.7.48,1.71,1.33,1.71,1.33-.63,1.33-1.71Z"/><path class="cls-1" d="M60.91,19.17h-1.01l-1.02-3.65h-.08l-1.02,3.65h-1l-1.37-4.95h.99l.89,3.78h.07l1.02-3.78h.94l1.02,3.78h.08l.88-3.78h.98l-1.36,4.95Z"/><path class="cls-1" d="M63.42,14.21h.94v.79h.07c.24-.55.73-.88,1.48-.88,1.11,0,1.71.66,1.71,1.84v3.21h-.98v-2.96c0-.8-.35-1.19-1.07-1.19s-1.18.48-1.18,1.26v2.9h-.98v-4.95Z"/><path class="cls-1" d="M69.19,12.28h.98v6.89h-.98v-6.89Z"/><path class="cls-1" d="M71.52,16.69c0-1.6.89-2.57,2.34-2.57s2.34.97,2.34,2.57-.89,2.57-2.34,2.57-2.34-.97-2.34-2.57ZM75.19,16.69c0-1.07-.48-1.7-1.33-1.7s-1.33.63-1.33,1.7.48,1.71,1.33,1.71,1.33-.63,1.33-1.71Z"/><path class="cls-1" d="M77.23,17.77c0-.89.66-1.41,1.84-1.48l1.34-.08v-.43c0-.52-.35-.82-1.01-.82-.55,0-.92.2-1.03.55h-.95c.1-.85.9-1.4,2.02-1.4,1.24,0,1.94.62,1.94,1.66v3.38h-.94v-.7h-.08c-.3.5-.84.78-1.49.78-.96,0-1.65-.58-1.65-1.48ZM80.41,17.34v-.41l-1.21.08c-.68.05-.99.28-.99.71s.39.71.92.71c.74,0,1.28-.47,1.28-1.08Z"/><path class="cls-1" d="M82.67,16.69c0-1.57.8-2.56,2.06-2.56.68,0,1.25.32,1.52.87h.07v-2.72h.98v6.89h-.94v-.78h-.08c-.3.54-.87.86-1.56.86-1.26,0-2.06-.99-2.06-2.56ZM83.68,16.69c0,1.05.5,1.68,1.32,1.68s1.33-.64,1.33-1.68-.51-1.68-1.33-1.68-1.32.64-1.32,1.68Z"/><path class="cls-1" d="M91.34,16.69c0-1.6.89-2.57,2.34-2.57s2.33.97,2.33,2.57-.89,2.57-2.33,2.57-2.34-.97-2.34-2.57ZM95.01,16.69c0-1.07-.48-1.7-1.33-1.7s-1.33.63-1.33,1.7.48,1.71,1.33,1.71,1.33-.63,1.33-1.71Z"/><path class="cls-1" d="M97.33,14.21h.94v.79h.07c.24-.55.73-.88,1.48-.88,1.11,0,1.71.66,1.71,1.84v3.21h-.98v-2.96c0-.8-.35-1.19-1.07-1.19s-1.18.48-1.18,1.26v2.9h-.98v-4.95Z"/><path class="cls-1" d="M107.06,12.98v1.26h1.07v.82h-1.07v2.55c0,.52.21.75.7.75.15,0,.24,0,.37-.02v.81c-.16.03-.34.05-.53.05-1.09,0-1.52-.38-1.52-1.34v-2.8h-.79v-.82h.79v-1.26h.98Z"/><path class="cls-1" d="M109.47,12.28h.97v2.73h.08c.24-.56.76-.89,1.51-.89,1.06,0,1.71.67,1.71,1.85v3.2h-.98v-2.96c0-.79-.37-1.19-1.06-1.19-.8,0-1.25.51-1.25,1.26v2.89h-.98v-6.89Z"/><path class="cls-1" d="M119.43,17.83c-.22.89-1.01,1.43-2.15,1.43-1.42,0-2.29-.97-2.29-2.56s.89-2.59,2.28-2.59,2.21.94,2.21,2.5v.34h-3.5v.05c.03.87.54,1.42,1.32,1.42.59,0,1-.21,1.18-.6h.94ZM115.99,16.23h2.5c-.02-.78-.5-1.28-1.22-1.28s-1.23.51-1.28,1.28Z"/></svg>