<?xml version="1.0" encoding="UTF-8"?><svg id="assets" xmlns="http://www.w3.org/2000/svg" viewBox="0 0 240 120"><defs><style>.cls-1{fill:#faf100;opacity:.7;}</style></defs><path class="cls-1" d="M136.64,46.14c-.3-1.25-26.43,1.51-47.6,8.94.63-.02-3.3,1.02-2.67,1-.09.15-.14.38-.27.45-.82.41-1.64.82-2.48,1.18-.6,1.63-8.65,6.45-9.93,9.93-.38,1.04.62,1.58,1.1,3.06-.09.57,3.77.44,12.62-.64,5.1-.62,16.8-2.87,21.8-4.31-.13-.11,7.85-3.03,7.72-3.14.18-.2,4.55-3.72,4.77-3.86,1.43-.93,3-1.68,4.21-2.93.12-.12.32-.15.48-.25,1.09-.64,2.25-1.16,3.26-1.95.45-.35,1.02-.36,1.56-.2.25.07.47.26.72.37.91.37,1.62.21,2.17-.52.44-.58.8-1.23,1.3-1.73.55-.55.49-1.38.97-1.92.75-.84.87-1.74.44-2.77-.09-.22-.14-.46-.18-.7Z"/><path class="cls-1" d="M136.93,46.81c-.02-.12-.47-2.16-.49-2.28-.3-1.13-.51-2.31-1.12-3.32-.39-.64-.49-1.34-.73-2.02-.27-.76-.63-1.48-.92-2.25-.49-1.34-.78-2.8-1.82-3.9-.12-.13-.24-.31-.25-.47-.08-.78-.59-1.3-1.05-1.86-.28-.34-.48-.76-.73-1.14-.44-.66-1.06-.97-1.86-.89-.27.03-.54.05-.91.08-.96.85-1.97,1.75-2.99,2.66-.54-.17-1.04-.37-1.56-.49-.66-.16-1.21.29-1.82.41-.71.14-1.45.11-2.17.16-.45.03-.98-.08-1.34.12-1.07.6-2.38.13-3.41.83-1.18.09-2.27.57-3.4.86-1.04.27-2.08.72-3.13.79-1.38.09-2.65.47-3.94.87-.26.08-.51.21-.77.23-.81.08-1.58.12-2.38.45-.81.33-1.76.36-2.6.69-1.11.43-2.22.72-3.43.64-.67-.04-1.1.34-1.25,1.16-.13.7-.5.89-1.11.9-.18,0-.36.04-.54.06-.33-.03-.65-.07-.98-.08-.37,0-.59.22-.68.58-.73.01-1.46.03-2.19.04-.09-.39-.32-.67-.73-.57-.93.21-1.83.54-2.79.65-.11.01-.19.26-.29.4-.35.04-.7.07-1.05.11q-.95-.07-1.28.88c-.6.04-1.2.07-1.81.11-.39.03-.61.28-.73.62-1.8-.21-3.61-.11-5.42-.07-1.19.38-2.43.67-3.56,1.18-.7.31-1.35.45-2.08.41-1.28-.08-2.51.06-3.64.75-.23.14-.5.3-.74.29-.85-.04-1.55.56-2.34.55-.86-.01-1.52.59-2.34.57-.82-.01-1.38.38-1.73,1.08-.18.36-.46.53-.84.57-.54.05-1.14-.02-1.6.19-.7.33-1.4.33-2.11.34-.72.02-1.45,0-2.17.02-.36,0-.79-.07-1.06.09-1,.62-2.11.36-3.17.49-.49.23-.97.48-1.46.69-.33.14-.67.31-1.01.32-.82.02-1.62.09-2.34.53-.93.02-1.72.34-2.45.94-.46.38-1.24.18-1.7.72-.38.45-.9.56-1.46.57-.26,0-.57.04-.77.19-.56.42-1.21.3-1.82.41-.81,0-1.63,0-2.44,0-.91,0-1.82.06-2.71-.05-.88-.11-1.53.53-2.35.54-.54,0-1.09,0-1.63.07-.23.03-.5.23-.62.44-.26.44-.64.56-1.11.64-.22.04-.41.3-.61.46-.26.02-.53.05-.79.07-.38.02-.68.16-.83.53-1.08.01-2.15,0-3.22.05-.24.01-.48.22-.51.53-.01.18,0,.35,0,.53-.02.36-.04.72-.06,1.08-.03.45-.06.9-.08,1.35-.02.38.12.7.38.97.02.9.1,1.79.41,2.66.24.67.33,1.4.48,2.1-.13.34.05.54.3.72.08,1.07.35,1.99,1.61,2.2.03,1.09.49,2.03,1.48,2.39,1.41.51,2.86,1.26,4.42.35.15-.09.34-.12.52-.13.81-.04,1.62-.07,2.37-.49.29-.16.71-.12,1.04.09.58.37,1.18.46,1.79.11.59-.34,1.24-.29,1.86-.27,1.03.04,1.96-.25,2.86-.71.4-.21.8-.42,1.22-.6.33-.14.7-.37,1.01-.33,1.06.17,1.92-.45,2.87-.67.71-.16,1.35-.55,2.03,0,.63,0,1.26.01,1.89.02.89-.62,1.9-.48,2.9-.48.46,0,.89-.05,1.32-.25.9-.42,1.93-.38,2.86-.77.99-.41,2.03-.74,3.15-.7.24,0,.49-.22.75-.29,1.21-.32,2.37-.88,3.68-.73.47.05.85-.24,1.27-.4.66-.26,1.26-.78,2.03-.68.87.11,1.58-.3,2.32-.62.41-.18.78-.46,1.26-.47.64-.01,1.28.04,1.9-.04.71-.1,1.39-.36,2.1-.47.62-.1,1.24-.12,1.84-.41.56-.27,1.22-.28,1.77-.64.37-.25.83-.55,1.23-.53,1.21.07,2.22-.72,3.44-.67.78.03,14.41-2.79,14.88-3.55.84-.03,10.96-3.29,11.8-3.31.02-.02,19.89-4.04,19.92-4.06,9.29-1.3,12.06-1.48,12.06-1.48Z"/><path class="cls-1" d="M224.02,50.37c-.1-.44-.17-.88-.26-1.32-.02-.36.01-.72-.06-1.06-.5-2.17-.8-4.36-1.12-6.56-.06-.43-.19-.91-.45-1.23-.44-.54-1-.99-1.53-1.45-.11-.1-.34-.1-.5-.08-.26.03-.52.11-.78.17-.27,0-.54,0-.8.03-.79.09-1.56.33-2.37,0-.27-.11-.76,0-1,.21-.59.49-1.29.58-1.98.73-.6.13-1.26.21-1.77.51-.56.33-1.14.48-1.75.6-.7.13-1.41.23-2.09.42-.2.06-.34.36-.5.56-1.6.31-3.2.61-4.79.92-1.79.28-3.57.56-5.36.83-.46.07-.84.29-1.22.54-.2.13-.53.19-.75.12-.54-.16-1.06-.18-1.6-.08-2.4.45-4.8.9-7.2,1.35-.35.06-.7.12-1.05.18-1.42.18-2.89.16-4.14,1.05-.2.15-.52.15-.78.2-.62.12-1.24.24-1.87.36-.71.13-1.42.31-2.14.36-.86.06-1.4.82-2.23.92-.18.02-.34.11-.52.17-.79.11-1.58.22-2.36.32-.53.07-1.03.18-1.48.51-.27.2-.63.29-.97.38-.68.18-1.37.33-2.06.5-1.26.21-2.52.41-3.78.62-.7.04-1.35.17-1.89.69-.17.16-.48.18-.72.26-1.05.19-2.11.36-3.16.6-.21.05-.36.35-.53.54-.52.07-1.04.15-1.57.22-.14-.09-.3-.28-.42-.27-.68.09-1.36.22-2.04.38-.11.03-.17.27-.26.42h0c-.89.18-1.77.36-2.66.54-.27.03-.54.04-.81.08-.39.06-.67.24-.74.66-.79.18-1.58.36-2.37.54-.7.71-1.64.68-2.52.86-.89.18-1.77.35-2.66.53-.61.65-1.47.64-2.25.87-.17.05-.36.1-.49.21-.66.57-1.49.61-2.28.79-.79.18-1.59.36-2.38.53-.63.63-1.49.59-2.27.79-.35.08-.73.17-1,.37,0,0-.01,0-.02.01-.99-.05-1.97,0-2.88.53-1.11,0-2.11.46-3.1.83-1.07.4-2.16.12-3.21.34-.26.06-.51.17-.76.28-.69.31-1.42.24-2.13.13-.08-.01-.15-.06-.22-.12-13.68,3.93-38.33,8.56-41.74,7.56-3.41-1,1.52-4.29,2.29-6.4-.07.03-.13.06-.19.09-.33.14.44-1.97.14-1.73-2.17,1.7-4.32,4.45-5.95,5.56-.86.59-1.47,1.28-1.92,2.19-.35.7-.45,1.41-.08,2.07.53.96.82,1.99,1.18,3,.45,1.26.86,2.54,1.28,3.81-.09.86.34,1.57.69,2.29.52,1.05,1.05,2.09,1.58,3.14.89,1.78,2,3.4,3.46,4.77,1.5,1.41,3.16,2.37,5.3,2.23.18-.01.36.01.54.01,1.58.02,2.49-.23,4.34-1.2.62.16,1.11-.22,1.64-.41.81.02,1.6.02,2.36-.36.38-.19.87-.22,1.31-.21.79.02,1.36-.32,1.86-.89.53-.6,1.12-1.15,1.68-1.73.55-.12,1.17-.01,1.59-.53.51-.05,1.02-.1,1.53-.15.62,0,1.23-.03,1.85-.02.67.02.9-.43,1.08-.95.44-.07.9-.07,1.3-.23.42-.16.81-.36,1.27-.36.63,0,1.2-.22,1.8-.41.92-.29,1.88-.44,2.83-.66.76-.18,1.6-.05,2.4-.06.42.53.6.6.94.37.35-.23.65-.51.73-.94.17-.35.47-.46.83-.48.26,0,.51-.05.77-.07.37-.02.73-.03,1.1-.05.43.05.86.06,1.27.01.49.73,9.64-1.13,9.95-1.39.78-.67,1.97-.44,2.64-1.27.97-.19,1.94-.39,2.91-.58,1.05-.21,2.15-.26,3.04-.99.13-.1.34-.12.52-.14,1-.1,1.86-.58,2.78-.94.69-.27,1.34-.46,1.78-1.11.14-.21.4-.42.63-.46.53-.1,1.02-.34,1.51-.57.55-.04,1.07-.17,1.57-.5.06-.04.14-.07.21-.11.09-.01.17-.05.26-.05.26-.01.69,1.46.87,1.29.1-.08.2-.14.3-.21.47-.01,1.01-.05,1.54.02.78.1,1.38-.24,2-.6.09,0,.18.01.26.02.66.04,1.07-1.56,1.29-2.21.45.07.9.13,1.35.22.28.06.57.08.77-.09.51-.44,1.13-.51,1.73-.69.21-.06.35-.36.52-.56.58-.15,1.17-.22,1.67-.63.18-.15.44-.22.69-.29l.33-.02c.28,0,.56,0,.84,0,.41.12.82.26,1.26.11.13.11.25.28.4.3.53.09,1.05.02,1.52-.26.13-.08.17-.28.26-.43.42-.08.84-.15,1.23-.34.33-.08.65-.19.95-.38.98-.03,1.8-.75,2.82-.64.54-.02,1.08-.04,1.62-.07.54.07,1.05.08,1.59-.12.91-.34,1.82-.8,2.8-.85,1.27-.07,2.53.9,3.78.77.62-.47,1.45-.18,2.06-.53.77-.44,1.58-.27,2.37-.39.4-.06.6-.35.63-.75,0-.09.01-.18.02-.27h0c.46,0,.91,0,1.04-.58.36,0,.73-.01,1.09-.02.53.74,1.06.75,1.64.03.27,0,.54,0,.81,0,.32,0,.57-.11.73-.35.1-.05.21-.11.31-.19,1.24-.01,2.5.13,3.67-.49.28-.15.69-.06,1.05-.06.53-.01,1.06.03,1.58-.04.21-.03.39-.3.58-.47h0c.36-.03.71-.05,1.07-.08.45,0,.9.01,1.35.03.36.01.63-.12.8-.43-.07-.18-.14-.36-.21-.53-.06-.14-.13-.28-.19-.43.22-.15.44-.29.67-.41.29-.15.71-.32.98-.23,1.09.38,2.07.03,3.07-.29.88.02,1.72-.08,2.44-.69.18-.15.49-.17.73-.25.68-.13,1.39-.2,2.04-.41.48-.15.88-.55,1.36-.72.48-.17.64-.53.82-.92.07-.14.23-.24.35-.36.34.09.7.29,1.03.26.97-.11,1.93-.31,2.9-.47.77-.74,1.78-.79,2.74-.95.93-.15,1.73-.57,2.3-1.26.53-.64,1.19-1.07,1.81-1.58.28-.23.49-.46.62-.82.15-.41.39-.81.66-1.16.47-.62.61-1.27.44-2.02Z"/><path class="cls-1" d="M112.61,66.48c-.01.15,0,.31,0,.46,0-.15,0-.31,0-.46Z"/><path class="cls-1" d="M112.42,68.4c.16-.33.2-.66.2-.98,0,.32-.04.65-.2.98Z"/><path class="cls-1" d="M167.14,64.99c-.15.07-.36.1-.45.22.1-.12.3-.15.45-.22.18.01.36,0,.53.04-.17-.04-.35-.03-.53-.04Z"/><path class="cls-1" d="M220.78,56.33h0c.15-.05.29-.12.44-.14-.15.02-.29.09-.44.14Z"/></svg>