<?xml version="1.0" encoding="UTF-8"?><svg id="Layer_1" xmlns="http://www.w3.org/2000/svg" xmlns:xlink="http://www.w3.org/1999/xlink" viewBox="0 0 305.53 80.87"><defs><style>.cls-1{fill:#e6f0fa;}.cls-2{fill:#8e8f95;}.cls-3{fill:#3592d0;}.cls-4{fill:url(#radial-gradient-3);}.cls-5{fill:url(#radial-gradient-2);}.cls-6{fill:url(#radial-gradient);}</style><radialGradient id="radial-gradient" cx="263.52" cy="39.08" fx="263.52" fy="39.08" r="14.73" gradientTransform="translate(1.62 -.22)" gradientUnits="userSpaceOnUse"><stop offset="0" stop-color="#f39200"/><stop offset="1" stop-color="#ea566a"/></radialGradient><radialGradient id="radial-gradient-2" cx="349.18" cy="249.88" fx="349.18" fy="249.88" r="14.73" gradientTransform="translate(696.83 -23.67) rotate(135)" xlink:href="#radial-gradient"/><radialGradient id="radial-gradient-3" cx="556.22" cy="456.92" fx="556.22" fy="456.92" r="14.73" gradientTransform="translate(-459.94 -23.67) rotate(45) scale(1 -1)" xlink:href="#radial-gradient"/></defs><g id="icon"><polygon id="outline" class="cls-3" points="2.48 3.14 2.48 78.27 25.35 78.27 25.35 71.74 9.01 71.74 9.01 9.67 71.07 9.67 71.07 71.74 54.74 71.74 54.74 78.27 77.61 78.27 77.61 3.14 2.48 3.14"/><path id="m" class="cls-1" d="m59.1,30.8c2.06,2.06,3.15,4.88,3.15,8.5v16.44h-6.53v-15.23c0-4.42-2.35-6.79-5.77-6.79-3.67,0-6.32,2.76-6.32,6.99v15.03h-6.53v-15.18c0-4.27-2.28-6.84-5.75-6.84-3.67,0-6.33,2.76-6.33,7.04v14.98h-6.53v-27.3h6.43v3.92c1.56-2.87,4.73-4.67,8.29-4.67,3.57.05,6.69,1.71,8.14,4.88,1.96-3.07,5.63-4.88,9.8-4.88,3.27,0,5.88,1.06,7.94,3.12"/></g><circle class="cls-2" cx="102.45" cy="41.04" r="4"/><circle class="cls-2" cx="127.62" cy="41.04" r="4"/><circle class="cls-2" cx="177.78" cy="41.04" r="4"/><circle class="cls-2" cx="202.96" cy="41.04" r="4"/><polygon class="cls-2" points="151.3 19.43 161.73 18.37 154.75 35.12 163.96 33.53 141.25 62.5 148.16 41.23 143.24 41.23 151.3 19.43"/><g><circle class="cls-6" cx="264.98" cy="24.04" r="14.74"/><circle class="cls-5" cx="283.63" cy="56.83" r="14.74"/><circle class="cls-4" cx="246.34" cy="56.83" r="14.74"/></g></svg>