<?xml version="1.0" encoding="UTF-8"?><svg id="Layer_1" xmlns="http://www.w3.org/2000/svg" viewBox="0 0 305.53 80.87"><defs><style>.cls-1{fill:#047cbf;}.cls-2{fill:#e6f0fa;}.cls-3{fill:#fff;}.cls-4{fill:#8e8f95;}.cls-5{fill:#3592d0;}</style></defs><g id="icon"><polygon id="outline" class="cls-5" points="2.48 3.14 2.48 78.27 25.35 78.27 25.35 71.74 9.01 71.74 9.01 9.67 71.07 9.67 71.07 71.74 54.74 71.74 54.74 78.27 77.61 78.27 77.61 3.14 2.48 3.14"/><path id="m" class="cls-2" d="m59.1,30.8c2.06,2.06,3.15,4.88,3.15,8.5v16.44h-6.53v-15.23c0-4.42-2.35-6.79-5.77-6.79-3.67,0-6.32,2.76-6.32,6.99v15.03h-6.53v-15.18c0-4.27-2.28-6.84-5.75-6.84-3.67,0-6.33,2.76-6.33,7.04v14.98h-6.53v-27.3h6.43v3.92c1.56-2.87,4.73-4.67,8.29-4.67,3.57.05,6.69,1.71,8.14,4.88,1.96-3.07,5.63-4.88,9.8-4.88,3.27,0,5.88,1.06,7.94,3.12"/></g><circle class="cls-4" cx="102.45" cy="41.04" r="4"/><circle class="cls-4" cx="127.62" cy="41.04" r="4"/><circle class="cls-4" cx="177.78" cy="41.04" r="4"/><circle class="cls-4" cx="202.96" cy="41.04" r="4"/><polygon class="cls-4" points="151.3 19.43 161.73 18.37 154.75 35.12 163.96 33.53 141.25 62.5 148.16 41.23 143.24 41.23 151.3 19.43"/><g><rect class="cls-1" x="227.49" y="2.94" width="74.99" height="74.99" rx="16" ry="16"/><g><path class="cls-3" d="m242.13,34.99c0-2.28-.03-4.56.02-6.83.01-.59.12-1.24.4-1.74.62-1.11,2.01-1.12,2.77-.1.42.56.51,1.2.5,1.89-.03,2.06-.01,4.11,0,6.17,0,.34.08.49.47.24,4.11-2.62,9.01-1.4,11.83,2.59.46.65.49.66.98-.09,1.21-1.86,2.89-2.99,5.02-3.56,2.8-.76,5.29-.12,7.45,1.67,2.6,2.14,3.63,5.06,3.21,8.32-.6,4.72-4.61,7.87-8.53,7.82-3.22-.05-5.63-1.4-7.32-4.09-.26-.42-.38-.6-.74-.07-1.28,1.89-2.9,3.29-5.19,3.9-3.79,1-7.43-.75-9.27-3.58-1.11-1.72-1.56-3.65-1.59-5.67-.04-2.28,0-4.56,0-6.83Zm28.99,7.15c.22-2.62-2.58-5.31-5.13-5.19-2.66.12-5.11,2.06-5.11,5.22,0,2.8,2.15,5.19,5.09,5.29,2.9.1,5.16-2.31,5.14-5.32Zm-25.35.06c-.22,2.92,2.09,5.25,5.01,5.25,3.29,0,5.07-2.78,5.06-5.26-.01-2.96-2.53-5.27-5.09-5.24-2.65.02-5.26,2.25-4.98,5.25Z"/><path class="cls-3" d="m273.78,49.83c-.03-.8.42-1.35.88-1.92,1.19-1.46,2.37-2.92,3.51-4.42.75-.97.72-1-.02-1.97-1.18-1.54-2.37-3.07-3.55-4.6-.14-.18-.3-.33-.41-.52-.77-1.27.05-2.72,1.56-2.85,1.01-.08,1.68.36,2.26,1.11,1.07,1.41,2.17,2.8,3.27,4.19.17.21.32.39.6,0,.85-1.16,1.76-2.27,2.67-3.39.42-.52.85-1.03,1.35-1.47.72-.65,1.85-.59,2.57.06.86.77,1,1.54.3,2.48-1.15,1.56-2.39,3.05-3.59,4.57-.14.17-.31.32-.44.5-.67.88-.69,1.12.03,2.02,1.07,1.34,2.17,2.66,3.25,4,.28.34.55.7.79,1.07.51.79.48,1.41-.07,2.13-.51.67-1.44.94-2.23.65-.88-.32-1.4-1.06-1.97-1.74-.92-1.11-1.83-2.22-2.75-3.33-.26-.31-.42-.37-.73.03-1.01,1.32-2.08,2.59-3.14,3.87-.28.34-.58.68-.92.96-.62.53-1.38.51-2.03.2-.65-.31-1.19-.83-1.19-1.66Z"/></g></g></svg>