<?xml version="1.0" encoding="UTF-8"?><svg id="Layer_1" xmlns="http://www.w3.org/2000/svg" viewBox="0 0 305.53 80.87"><defs><style>.cls-1{fill:#e6f0fa;}.cls-2{fill:#fff;}.cls-3{fill:#8e8f95;}.cls-4{fill:#3592d0;}.cls-5{fill:#0a77bd;}</style></defs><g id="icon"><polygon id="outline" class="cls-4" points="2.48 3.14 2.48 78.27 25.35 78.27 25.35 71.74 9.01 71.74 9.01 9.67 71.07 9.67 71.07 71.74 54.74 71.74 54.74 78.27 77.61 78.27 77.61 3.14 2.48 3.14"/><path id="m" class="cls-1" d="m59.1,30.8c2.06,2.06,3.15,4.88,3.15,8.5v16.44h-6.53v-15.23c0-4.42-2.35-6.79-5.77-6.79-3.67,0-6.32,2.76-6.32,6.99v15.03h-6.53v-15.18c0-4.27-2.28-6.84-5.75-6.84-3.67,0-6.33,2.76-6.33,7.04v14.98h-6.53v-27.3h6.43v3.92c1.56-2.87,4.73-4.67,8.29-4.67,3.57.05,6.69,1.71,8.14,4.88,1.96-3.07,5.63-4.88,9.8-4.88,3.27,0,5.88,1.06,7.94,3.12"/></g><circle class="cls-3" cx="102.45" cy="41.04" r="4"/><circle class="cls-3" cx="127.62" cy="41.04" r="4"/><circle class="cls-3" cx="177.78" cy="41.04" r="4"/><circle class="cls-3" cx="202.96" cy="41.04" r="4"/><polygon class="cls-3" points="151.3 19.43 161.73 18.37 154.75 35.12 163.96 33.53 141.25 62.5 148.16 41.23 143.24 41.23 151.3 19.43"/><g><rect class="cls-5" x="227.49" y="2.94" width="74.99" height="74.99" rx="16" ry="16"/><g><path class="cls-2" d="m288.3,38.64c-3.12-.01-6.23,0-9.35,0-.28,0-.57,0-.87,0,0-.2-.01-.37-.02-.53-.01-.17-.03-.34-.05-.51-.37-3.81-2.08-6.91-5.12-9.21-3.04-2.31-6.49-3.11-10.25-2.43-3.19.58-5.8,2.18-7.82,4.71-.46.58-.4,1.27.14,1.7.54.44,1.25.34,1.73-.22.16-.19.32-.38.49-.56,2.45-2.6,5.49-3.8,9.01-3.38,4.24.5,7.19,2.84,8.79,6.8.63,1.58.91,3.24.56,4.94-.18.89-.47,1.76-.71,2.64-.14.51.02.93.41,1.26.38.32.86.34,1.31.11.47-.23.58-.68.72-1.11.19-.59.35-1.19.52-1.76h9.48c0,.15.02.28.02.41,0,4.11,0,8.21,0,12.32,0,.93-.23,1.15-1.15,1.15-4.68,0-9.36,0-14.04,0-.19,0-.38,0-.61,0,.36-.65.7-1.23,1.01-1.83.99-1.92,1.97-3.85,2.93-5.78.23-.45.12-.94-.23-1.29-.65-.66-1.58-.45-2.02.47-1.45,3.09-3.08,6.09-4.81,9.02-1.08,1.84-2.2,3.66-3.32,5.52-.07-.09-.1-.12-.13-.17-1.03-1.69-2.08-3.37-3.08-5.07-.36-.61-.82-.88-1.52-.88-5.5.01-11,0-16.5,0-.89,0-1.14-.23-1.14-1.13,0-3.99,0-7.98,0-11.97,0-.26,0-.51,0-.81.19,0,.34,0,.49,0,1.92,0,3.83,0,5.75,0,.81,0,1.36-.48,1.37-1.18,0-.61-.5-1.23-1.33-1.22-2.4.02-4.8-.01-7.19-.01-1.06,0-1.5.46-1.5,1.54,0,4.55,0,9.1,0,13.65,0,2.2,1.38,3.57,3.59,3.57,5.23,0,10.45,0,15.68,0,.26,0,.46.02.62.29.97,1.62,1.96,3.23,2.96,4.83.94,1.52,2.85,1.54,3.81.02.97-1.54,1.93-3.09,2.86-4.66.23-.39.49-.48.9-.48,5.21.01,10.43.01,15.64,0,1.94,0,3.37-1.42,3.37-3.35,0-4.65,0-9.31,0-13.96,0-.96-.45-1.43-1.4-1.44Z"/><path class="cls-2" d="m287.35,23.55c-.52-.14-1.08-.12-1.63-.12-.31,0-.44-.11-.52-.38-.19-.63-.4-1.27-.61-1.89-.2-.59-.6-.87-1.2-.87-2.02,0-4.04,0-6.06,0-.6,0-1,.29-1.2.86-.16.47-.3.94-.46,1.41-.29.85-.29.83-1.17.86-.32,0-.46-.11-.57-.39-.66-1.63-1.35-3.24-2.01-4.87-.27-.67-.72-.95-1.44-.94-3.66.02-7.33.01-10.99,0-.64,0-1.06.27-1.3.85-.62,1.49-1.24,2.98-1.86,4.47-.37.88-.38.86-1.32.88-.26,0-.36-.1-.43-.33-.2-.66-.42-1.31-.65-1.97-.19-.54-.59-.84-1.14-.84-2.06,0-4.12,0-6.18,0-.54,0-.92.27-1.1.78-.16.44-.3.89-.45,1.33-.11.33-.15.78-.38.95-.24.17-.67.06-1.03.06-1.86.01-3.28,1.44-3.29,3.3,0,2.78,0,5.55,0,8.33,0,.19.02.4.09.57.24.63.76.79,1.38.79,3.13,0,6.26-.01,9.39-.02.31,0,.62,0,.96,0-.06.56-.12,1.06-.17,1.56-.13,1.6.22,3.14.71,4.64,1.16,3.56,2.86,6.87,4.63,10.15.31.57,1.08.74,1.64.39.61-.38.73-1.05.33-1.78-1.66-3.1-3.24-6.23-4.35-9.58-.66-2-.76-4-.14-6.03.32-1.04-.21-1.75-1.31-1.75-3.42,0-6.83,0-10.25,0-.15,0-.31,0-.45,0-.02-.07-.05-.11-.05-.14,0-2.41,0-4.82,0-7.23,0-.51.35-.8.86-.81.63,0,1.25,0,1.88,0,.61,0,1.01-.28,1.21-.86.23-.65.45-1.31.65-1.97.07-.23.18-.3.41-.3,1.28,0,2.55,0,3.83,0,.22,0,.32.07.39.28.19.61.39,1.21.59,1.82.23.73.62,1.02,1.37,1.03.9,0,1.8,0,2.7,0,.6,0,1.01-.27,1.24-.83.67-1.62,1.36-3.24,2.02-4.87.15-.36.33-.49.74-.49,2.95.02,5.89.02,8.84,0,.33,0,.48.11.6.41.67,1.65,1.37,3.29,2.05,4.94.21.51.57.82,1.12.83.99.02,1.98.02,2.97,0,.62,0,.99-.29,1.2-.88.22-.64.42-1.29.62-1.93.07-.22.16-.31.41-.31,1.28.01,2.55.01,3.83,0,.25,0,.33.09.39.31.19.64.39,1.27.61,1.89.22.64.61.91,1.29.92.56,0,1.12,0,1.68,0,.72,0,1.01.29,1.01,1.02,0,2.24,0,4.48,0,6.73,0,.14-.02.27-.03.44-.23,0-.43,0-.62,0-1.99,0-3.99,0-5.98,0-1.02,0-1.62.97-1.13,1.82.29.49.75.6,1.27.6,2.54,0,5.08,0,7.63,0,.78,0,1.28-.49,1.28-1.31.01-2.82.02-5.63,0-8.45,0-1.48-.93-2.71-2.35-3.1Z"/><path class="cls-2" d="m266.39,32.91c2.15.54,3.58,1.87,4.35,3.94.25.68.9,1,1.53.77.65-.23.95-.9.72-1.59-.45-1.32-1.19-2.46-2.21-3.41-3.05-2.82-7.53-3.08-10.83-.55-2.62,2.02-3.73,4.75-3.23,8.02.62,4.11,4.18,7.09,8.29,7.08,2.72.04,5.45-1.39,6.97-3.67.55-.83,1-1.71,1.19-2.7.14-.71-.42-1.35-1.15-1.36-.62,0-1,.31-1.21.96-.76,2.45-2.81,4.16-5.23,4.35-4.02.32-6.97-3.06-6.54-6.71.41-3.51,3.9-6,7.34-5.14Z"/></g></g></svg>