<?xml version='1.0'?>
<!--
Bitly Generated QR Code
v4
33x33
-->
<svg width='656' height='656'
xmlns='http://www.w3.org/2000/svg'
xmlns:xlink='http://www.w3.org/1999/xlink'>
	<g id='background' style='fill:#00000000' >
<rect x="0" y="0" width="656" height="656" />
</g>
<g id='pips' style='fill:#161616' >
<path d="M66.4,208L80,208L93.6,208A2.4,2.4,0,0,1,96,210.4L96,224L96,240L96,256L96,269.6A2.4,2.4,0,0,0,98.4,272L109.6,272A2.4,2.4,0,0,1,112,274.4L112,288L112,301.6A2.4,2.4,0,0,1,109.6,304L98.4,304A2.4,2.4,0,0,1,96,301.6L96,290.4A2.4,2.4,0,0,0,93.6,288L82.4,288A2.4,2.4,0,0,1,80,285.6L80,274.4A2.4,2.4,0,0,0,77.6,272L66.4,272A2.4,2.4,0,0,1,64,269.6L64,256L64,242.4A2.4,2.4,0,0,1,66.4,240L77.6,240A2.4,2.4,0,0,0,80,237.6L80,226.4A2.4,2.4,0,0,0,77.6,224L66.4,224A2.4,2.4,0,0,1,64,221.6L64,210.4A2.4,2.4,0,0,1,66.4,208M66.4,288L77.6,288A2.4,2.4,0,0,1,80,290.4L80,301.6A2.4,2.4,0,0,1,77.6,304L66.4,304A2.4,2.4,0,0,1,64,301.6L64,290.4A2.4,2.4,0,0,1,66.4,288M66.4,336L77.6,336A2.4,2.4,0,0,0,80,333.6L80,320L80,306.4A2.4,2.4,0,0,1,82.4,304L93.6,304A2.4,2.4,0,0,1,96,306.4L96,320L96,336L96,349.6A2.4,2.4,0,0,0,98.4,352L109.6,352A2.4,2.4,0,0,1,112,354.4L112,365.6A2.4,2.4,0,0,0,114.4,368L125.6,368A2.4,2.4,0,0,1,128,370.4L128,381.6A2.4,2.4,0,0,0,130.4,384L141.6,384A2.4,2.4,0,0,0,144,381.6L144,370.4A2.4,2.4,0,0,1,146.4,368L157.6,368A2.4,2.4,0,0,1,160,370.4L160,381.6A2.4,2.4,0,0,0,162.4,384L173.6,384A2.4,2.4,0,0,1,176,386.4L176,397.6A2.4,2.4,0,0,1,173.6,400L162.4,400A2.4,2.4,0,0,0,160,402.4L160,413.6A2.4,2.4,0,0,1,157.6,416L146.4,416A2.4,2.4,0,0,1,144,413.6L144,402.4A2.4,2.4,0,0,0,141.6,400L130.4,400A2.4,2.4,0,0,0,128,402.4L128,413.6A2.4,2.4,0,0,0,130.4,416L141.6,416A2.4,2.4,0,0,1,144,418.4L144,432L144,445.6A2.4,2.4,0,0,0,146.4,448L160,448L173.6,448A2.4,2.4,0,0,1,176,450.4L176,461.6A2.4,2.4,0,0,1,173.6,464L160,464L144,464L128,464L114.4,464A2.4,2.4,0,0,1,112,461.6L112,450.4A2.4,2.4,0,0,0,109.6,448L98.4,448A2.4,2.4,0,0,1,96,445.6L96,434.4A2.4,2.4,0,0,0,93.6,432L80,432L66.4,432A2.4,2.4,0,0,1,64,429.6L64,418.4A2.4,2.4,0,0,1,66.4,416L77.6,416A2.4,2.4,0,0,0,80,413.6L80,402.4A2.4,2.4,0,0,1,82.4,400L93.6,400A2.4,2.4,0,0,1,96,402.4L96,413.6A2.4,2.4,0,0,0,98.4,416L109.6,416A2.4,2.4,0,0,0,112,413.6L112,402.4A2.4,2.4,0,0,0,109.6,400L98.4,400A2.4,2.4,0,0,1,96,397.6L96,386.4A2.4,2.4,0,0,0,93.6,384L80,384L66.4,384A2.4,2.4,0,0,1,64,381.6L64,370.4A2.4,2.4,0,0,1,66.4,368L77.6,368A2.4,2.4,0,0,0,80,365.6L80,354.4A2.4,2.4,0,0,0,77.6,352L66.4,352A2.4,2.4,0,0,1,64,349.6L64,338.4A2.4,2.4,0,0,1,66.4,336M66.4,448L80,448L93.6,448A2.4,2.4,0,0,1,96,450.4L96,461.6A2.4,2.4,0,0,1,93.6,464L80,464L66.4,464A2.4,2.4,0,0,1,64,461.6L64,450.4A2.4,2.4,0,0,1,66.4,448M98.4,192L109.6,192A2.4,2.4,0,0,1,112,194.4L112,205.6A2.4,2.4,0,0,1,109.6,208L98.4,208A2.4,2.4,0,0,1,96,205.6L96,194.4A2.4,2.4,0,0,1,98.4,192M114.4,224L128,224L141.6,224A2.4,2.4,0,0,1,144,226.4L144,240L144,253.6A2.4,2.4,0,0,1,141.6,256L128,256L114.4,256A2.4,2.4,0,0,1,112,253.6L112,240L112,226.4A2.4,2.4,0,0,1,114.4,224M114.4,304L125.6,304A2.4,2.4,0,0,1,128,306.4L128,320L128,333.6A2.4,2.4,0,0,0,130.4,336L141.6,336A2.4,2.4,0,0,1,144,338.4L144,349.6A2.4,2.4,0,0,1,141.6,352L128,352L114.4,352A2.4,2.4,0,0,1,112,349.6L112,336L112,320L112,306.4A2.4,2.4,0,0,1,114.4,304M146.4,192L160,192L176,192L192,192L205.6,192A2.4,2.4,0,0,0,208,189.6L208,178.4A2.4,2.4,0,0,1,210.4,176L221.6,176A2.4,2.4,0,0,0,224,173.6L224,162.4A2.4,2.4,0,0,1,226.4,160L237.6,160A2.4,2.4,0,0,1,240,162.4L240,173.6A2.4,2.4,0,0,0,242.4,176L253.6,176A2.4,2.4,0,0,1,256,178.4L256,192L256,205.6A2.4,2.4,0,0,0,258.4,208L272,208L285.6,208A2.4,2.4,0,0,1,288,210.4L288,221.6A2.4,2.4,0,0,1,285.6,224L272,224L258.4,224A2.4,2.4,0,0,0,256,226.4L256,237.6A2.4,2.4,0,0,1,253.6,240L242.4,240A2.4,2.4,0,0,1,240,237.6L240,224L240,210.4A2.4,2.4,0,0,0,237.6,208L224,208L210.4,208A2.4,2.4,0,0,0,208,210.4L208,224L208,237.6A2.4,2.4,0,0,1,205.6,240L194.4,240A2.4,2.4,0,0,0,192,242.4L192,253.6A2.4,2.4,0,0,0,194.4,256L205.6,256A2.4,2.4,0,0,1,208,258.4L208,269.6A2.4,2.4,0,0,1,205.6,272L194.4,272A2.4,2.4,0,0,0,192,274.4L192,285.6A2.4,2.4,0,0,1,189.6,288L178.4,288A2.4,2.4,0,0,1,176,285.6L176,274.4A2.4,2.4,0,0,0,173.6,272L162.4,272A2.4,2.4,0,0,0,160,274.4L160,285.6A2.4,2.4,0,0,0,162.4,288L173.6,288A2.4,2.4,0,0,1,176,290.4L176,301.6A2.4,2.4,0,0,1,173.6,304L160,304L146.4,304A2.4,2.4,0,0,1,144,301.6L144,288L144,272L144,258.4A2.4,2.4,0,0,1,146.4,256L160,256L173.6,256A2.4,2.4,0,0,0,176,253.6L176,242.4A2.4,2.4,0,0,0,173.6,240L162.4,240A2.4,2.4,0,0,1,160,237.6L160,226.4A2.4,2.4,0,0,1,162.4,224L173.6,224A2.4,2.4,0,0,0,176,221.6L176,210.4A2.4,2.4,0,0,0,173.6,208L160,208L146.4,208A2.4,2.4,0,0,1,144,205.6L144,194.4A2.4,2.4,0,0,1,146.4,192M146.4,320L160,320L176,320L189.6,320A2.4,2.4,0,0,1,192,322.4L192,333.6A2.4,2.4,0,0,1,189.6,336L176,336L160,336L146.4,336A2.4,2.4,0,0,1,144,333.6L144,322.4A2.4,2.4,0,0,1,146.4,320M162.4,352L176,352L189.6,352A2.4,2.4,0,0,0,192,349.6L192,338.4A2.4,2.4,0,0,1,194.4,336L205.6,336A2.4,2.4,0,0,1,208,338.4L208,349.6A2.4,2.4,0,0,0,210.4,352L221.6,352A2.4,2.4,0,0,1,224,354.4L224,365.6A2.4,2.4,0,0,1,221.6,368L208,368L192,368L176,368L162.4,368A2.4,2.4,0,0,1,160,365.6L160,354.4A2.4,2.4,0,0,1,162.4,352M162.4,416L176,416L189.6,416A2.4,2.4,0,0,1,192,418.4L192,429.6A2.4,2.4,0,0,0,194.4,432L208,432L221.6,432A2.4,2.4,0,0,0,224,429.6L224,418.4A2.4,2.4,0,0,1,226.4,416L237.6,416A2.4,2.4,0,0,1,240,418.4L240,429.6A2.4,2.4,0,0,0,242.4,432L253.6,432A2.4,2.4,0,0,0,256,429.6L256,418.4A2.4,2.4,0,0,0,253.6,416L242.4,416A2.4,2.4,0,0,1,240,413.6L240,402.4A2.4,2.4,0,0,1,242.4,400L256,400L269.6,400A2.4,2.4,0,0,0,272,397.6L272,386.4A2.4,2.4,0,0,1,274.4,384L285.6,384A2.4,2.4,0,0,0,288,381.6L288,370.4A2.4,2.4,0,0,1,290.4,368L301.6,368A2.4,2.4,0,0,0,304,365.6L304,354.4A2.4,2.4,0,0,0,301.6,352L288,352L274.4,352A2.4,2.4,0,0,0,272,354.4L272,365.6A2.4,2.4,0,0,1,269.6,368L256,368L242.4,368A2.4,2.4,0,0,1,240,365.6L240,354.4A2.4,2.4,0,0,1,242.4,352L253.6,352A2.4,2.4,0,0,0,256,349.6L256,338.4A2.4,2.4,0,0,1,258.4,336L272,336L288,336L304,336L320,336L333.6,336A2.4,2.4,0,0,0,336,333.6L336,320L336,304L336,290.4A2.4,2.4,0,0,1,338.4,288L352,288L368,288L381.6,288A2.4,2.4,0,0,1,384,290.4L384,301.6A2.4,2.4,0,0,1,381.6,304L368,304L354.4,304A2.4,2.4,0,0,0,352,306.4L352,317.6A2.4,2.4,0,0,0,354.4,320L365.6,320A2.4,2.4,0,0,1,368,322.4L368,333.6A2.4,2.4,0,0,1,365.6,336L354.4,336A2.4,2.4,0,0,0,352,338.4L352,349.6A2.4,2.4,0,0,0,354.4,352L365.6,352A2.4,2.4,0,0,0,368,349.6L368,338.4A2.4,2.4,0,0,1,370.4,336L381.6,336A2.4,2.4,0,0,1,384,338.4L384,352L384,365.6A2.4,2.4,0,0,0,386.4,368L397.6,368A2.4,2.4,0,0,1,400,370.4L400,381.6A2.4,2.4,0,0,1,397.6,384L384,384L368,384L354.4,384A2.4,2.4,0,0,0,352,386.4L352,397.6A2.4,2.4,0,0,0,354.4,400L365.6,400A2.4,2.4,0,0,1,368,402.4L368,413.6A2.4,2.4,0,0,1,365.6,416L352,416L338.4,416A2.4,2.4,0,0,1,336,413.6L336,402.4A2.4,2.4,0,0,0,333.6,400L322.4,400A2.4,2.4,0,0,0,320,402.4L320,413.6A2.4,2.4,0,0,1,317.6,416L306.4,416A2.4,2.4,0,0,1,304,413.6L304,402.4A2.4,2.4,0,0,0,301.6,400L290.4,400A2.4,2.4,0,0,0,288,402.4L288,416L288,429.6A2.4,2.4,0,0,1,285.6,432L274.4,432A2.4,2.4,0,0,0,272,434.4L272,445.6A2.4,2.4,0,0,1,269.6,448L258.4,448A2.4,2.4,0,0,0,256,450.4L256,464L256,477.6A2.4,2.4,0,0,0,258.4,480L269.6,480A2.4,2.4,0,0,1,272,482.4L272,496L272,509.6A2.4,2.4,0,0,0,274.4,512L285.6,512A2.4,2.4,0,0,1,288,514.4L288,525.6A2.4,2.4,0,0,1,285.6,528L272,528L258.4,528A2.4,2.4,0,0,1,256,525.6L256,514.4A2.4,2.4,0,0,0,253.6,512L240,512L224,512L208,512L194.4,512A2.4,2.4,0,0,1,192,509.6L192,496L192,480L192,466.4A2.4,2.4,0,0,1,194.4,464L208,464L221.6,464A2.4,2.4,0,0,1,224,466.4L224,477.6A2.4,2.4,0,0,0,226.4,480L237.6,480A2.4,2.4,0,0,0,240,477.6L240,466.4A2.4,2.4,0,0,0,237.6,464L226.4,464A2.4,2.4,0,0,1,224,461.6L224,450.4A2.4,2.4,0,0,0,221.6,448L208,448L192,448L178.4,448A2.4,2.4,0,0,1,176,445.6L176,434.4A2.4,2.4,0,0,0,173.6,432L162.4,432A2.4,2.4,0,0,1,160,429.6L160,418.4A2.4,2.4,0,0,1,162.4,416M194.4,80L205.6,80A2.4,2.4,0,0,0,208,77.6L208,66.4A2.4,2.4,0,0,1,210.4,64L221.6,64A2.4,2.4,0,0,1,224,66.4L224,77.6A2.4,2.4,0,0,0,226.4,80L237.6,80A2.4,2.4,0,0,0,240,77.6L240,66.4A2.4,2.4,0,0,1,242.4,64L256,64L269.6,64A2.4,2.4,0,0,1,272,66.4L272,77.6A2.4,2.4,0,0,0,274.4,80L288,80L301.6,80A2.4,2.4,0,0,1,304,82.4L304,96L304,109.6A2.4,2.4,0,0,0,306.4,112L317.6,112A2.4,2.4,0,0,1,320,114.4L320,125.6A2.4,2.4,0,0,1,317.6,128L304,128L288,128L274.4,128A2.4,2.4,0,0,1,272,125.6L272,114.4A2.4,2.4,0,0,0,269.6,112L256,112L242.4,112A2.4,2.4,0,0,1,240,109.6L240,98.4A2.4,2.4,0,0,0,237.6,96L226.4,96A2.4,2.4,0,0,0,224,98.4L224,112L224,128L224,141.6A2.4,2.4,0,0,1,221.6,144L210.4,144A2.4,2.4,0,0,0,208,146.4L208,160L208,173.6A2.4,2.4,0,0,1,205.6,176L194.4,176A2.4,2.4,0,0,1,192,173.6L192,160L192,144L192,128L192,112L192,96L192,82.4A2.4,2.4,0,0,1,194.4,80M194.4,288L208,288L224,288L240,288L253.6,288A2.4,2.4,0,0,0,256,285.6L256,274.4A2.4,2.4,0,0,0,253.6,272L240,272L226.4,272A2.4,2.4,0,0,1,224,269.6L224,258.4A2.4,2.4,0,0,1,226.4,256L240,256L256,256L269.6,256A2.4,2.4,0,0,1,272,258.4L272,272L272,288L272,304L272,317.6A2.4,2.4,0,0,1,269.6,320L258.4,320A2.4,2.4,0,0,1,256,317.6L256,306.4A2.4,2.4,0,0,0,253.6,304L242.4,304A2.4,2.4,0,0,0,240,306.4L240,317.6A2.4,2.4,0,0,1,237.6,320L226.4,320A2.4,2.4,0,0,1,224,317.6L224,306.4A2.4,2.4,0,0,0,221.6,304L208,304L194.4,304A2.4,2.4,0,0,1,192,301.6L192,290.4A2.4,2.4,0,0,1,194.4,288M194.4,384L205.6,384A2.4,2.4,0,0,1,208,386.4L208,397.6A2.4,2.4,0,0,0,210.4,400L221.6,400A2.4,2.4,0,0,1,224,402.4L224,413.6A2.4,2.4,0,0,1,221.6,416L208,416L194.4,416A2.4,2.4,0,0,1,192,413.6L192,400L192,386.4A2.4,2.4,0,0,1,194.4,384M194.4,544L208,544L221.6,544A2.4,2.4,0,0,1,224,546.4L224,557.6A2.4,2.4,0,0,1,221.6,560L208,560L194.4,560A2.4,2.4,0,0,1,192,557.6L192,546.4A2.4,2.4,0,0,1,194.4,544M210.4,240L221.6,240A2.4,2.4,0,0,1,224,242.4L224,253.6A2.4,2.4,0,0,1,221.6,256L210.4,256A2.4,2.4,0,0,1,208,253.6L208,242.4A2.4,2.4,0,0,1,210.4,240M210.4,576L221.6,576A2.4,2.4,0,0,0,224,573.6L224,562.4A2.4,2.4,0,0,1,226.4,560L237.6,560A2.4,2.4,0,0,0,240,557.6L240,546.4A2.4,2.4,0,0,1,242.4,544L253.6,544A2.4,2.4,0,0,1,256,546.4L256,557.6A2.4,2.4,0,0,0,258.4,560L269.6,560A2.4,2.4,0,0,0,272,557.6L272,546.4A2.4,2.4,0,0,1,274.4,544L285.6,544A2.4,2.4,0,0,1,288,546.4L288,557.6A2.4,2.4,0,0,0,290.4,560L301.6,560A2.4,2.4,0,0,0,304,557.6L304,546.4A2.4,2.4,0,0,0,301.6,544L290.4,544A2.4,2.4,0,0,1,288,541.6L288,530.4A2.4,2.4,0,0,1,290.4,528L304,528L317.6,528A2.4,2.4,0,0,1,320,530.4L320,544L320,560L320,573.6A2.4,2.4,0,0,1,317.6,576L304,576L290.4,576A2.4,2.4,0,0,0,288,578.4L288,589.6A2.4,2.4,0,0,1,285.6,592L274.4,592A2.4,2.4,0,0,1,272,589.6L272,578.4A2.4,2.4,0,0,0,269.6,576L258.4,576A2.4,2.4,0,0,0,256,578.4L256,589.6A2.4,2.4,0,0,1,253.6,592L240,592L224,592L210.4,592A2.4,2.4,0,0,1,208,589.6L208,578.4A2.4,2.4,0,0,1,210.4,576M226.4,368L237.6,368A2.4,2.4,0,0,1,240,370.4L240,384L240,397.6A2.4,2.4,0,0,1,237.6,400L226.4,400A2.4,2.4,0,0,1,224,397.6L224,384L224,370.4A2.4,2.4,0,0,1,226.4,368M226.4,528L237.6,528A2.4,2.4,0,0,1,240,530.4L240,541.6A2.4,2.4,0,0,1,237.6,544L226.4,544A2.4,2.4,0,0,1,224,541.6L224,530.4A2.4,2.4,0,0,1,226.4,528M242.4,128L256,128L269.6,128A2.4,2.4,0,0,1,272,130.4L272,141.6A2.4,2.4,0,0,0,274.4,144L285.6,144A2.4,2.4,0,0,1,288,146.4L288,157.6A2.4,2.4,0,0,1,285.6,160L274.4,160A2.4,2.4,0,0,0,272,162.4L272,173.6A2.4,2.4,0,0,1,269.6,176L258.4,176A2.4,2.4,0,0,1,256,173.6L256,160L256,146.4A2.4,2.4,0,0,0,253.6,144L242.4,144A2.4,2.4,0,0,1,240,141.6L240,130.4A2.4,2.4,0,0,1,242.4,128M242.4,320L253.6,320A2.4,2.4,0,0,1,256,322.4L256,333.6A2.4,2.4,0,0,1,253.6,336L242.4,336A2.4,2.4,0,0,1,240,333.6L240,322.4A2.4,2.4,0,0,1,242.4,320M274.4,464L285.6,464A2.4,2.4,0,0,1,288,466.4L288,477.6A2.4,2.4,0,0,1,285.6,480L274.4,480A2.4,2.4,0,0,1,272,477.6L272,466.4A2.4,2.4,0,0,1,274.4,464M290.4,160L301.6,160A2.4,2.4,0,0,1,304,162.4L304,173.6A2.4,2.4,0,0,1,301.6,176L290.4,176A2.4,2.4,0,0,1,288,173.6L288,162.4A2.4,2.4,0,0,1,290.4,160M290.4,192L304,192L317.6,192A2.4,2.4,0,0,1,320,194.4L320,205.6A2.4,2.4,0,0,0,322.4,208L333.6,208A2.4,2.4,0,0,1,336,210.4L336,221.6A2.4,2.4,0,0,1,333.6,224L320,224L306.4,224A2.4,2.4,0,0,1,304,221.6L304,210.4A2.4,2.4,0,0,0,301.6,208L290.4,208A2.4,2.4,0,0,1,288,205.6L288,194.4A2.4,2.4,0,0,1,290.4,192M290.4,224L301.6,224A2.4,2.4,0,0,1,304,226.4L304,240L304,256L304,269.6A2.4,2.4,0,0,1,301.6,272L290.4,272A2.4,2.4,0,0,1,288,269.6L288,256L288,240L288,226.4A2.4,2.4,0,0,1,290.4,224M290.4,304L301.6,304A2.4,2.4,0,0,1,304,306.4L304,317.6A2.4,2.4,0,0,1,301.6,320L290.4,320A2.4,2.4,0,0,1,288,317.6L288,306.4A2.4,2.4,0,0,1,290.4,304M290.4,432L304,432L317.6,432A2.4,2.4,0,0,1,320,434.4L320,445.6A2.4,2.4,0,0,0,322.4,448L333.6,448A2.4,2.4,0,0,1,336,450.4L336,464L336,477.6A2.4,2.4,0,0,0,338.4,480L352,480L365.6,480A2.4,2.4,0,0,1,368,482.4L368,493.6A2.4,2.4,0,0,1,365.6,496L352,496L336,496L322.4,496A2.4,2.4,0,0,1,320,493.6L320,480L320,466.4A2.4,2.4,0,0,0,317.6,464L306.4,464A2.4,2.4,0,0,1,304,461.6L304,450.4A2.4,2.4,0,0,0,301.6,448L290.4,448A2.4,2.4,0,0,1,288,445.6L288,434.4A2.4,2.4,0,0,1,290.4,432M320,370.4L320,381.6A2.4,2.4,0,0,0,322.4,384L333.6,384A2.4,2.4,0,0,0,336,381.6L336,370.4A2.4,2.4,0,0,0,333.6,368L322.4,368A2.4,2.4,0,0,0,320,370.4M306.4,496L317.6,496A2.4,2.4,0,0,1,320,498.4L320,509.6A2.4,2.4,0,0,1,317.6,512L306.4,512A2.4,2.4,0,0,1,304,509.6L304,498.4A2.4,2.4,0,0,1,306.4,496M322.4,64L336,64L352,64L365.6,64A2.4,2.4,0,0,1,368,66.4L368,77.6A2.4,2.4,0,0,1,365.6,80L352,80L338.4,80A2.4,2.4,0,0,0,336,82.4L336,93.6A2.4,2.4,0,0,0,338.4,96L349.6,96A2.4,2.4,0,0,1,352,98.4L352,109.6A2.4,2.4,0,0,0,354.4,112L365.6,112A2.4,2.4,0,0,0,368,109.6L368,96L368,82.4A2.4,2.4,0,0,1,370.4,80L381.6,80A2.4,2.4,0,0,1,384,82.4L384,96L384,112L384,125.6A2.4,2.4,0,0,1,381.6,128L370.4,128A2.4,2.4,0,0,0,368,130.4L368,144L368,160L368,173.6A2.4,2.4,0,0,1,365.6,176L354.4,176A2.4,2.4,0,0,1,352,173.6L352,162.4A2.4,2.4,0,0,0,349.6,160L338.4,160A2.4,2.4,0,0,1,336,157.6L336,146.4A2.4,2.4,0,0,1,338.4,144L349.6,144A2.4,2.4,0,0,0,352,141.6L352,130.4A2.4,2.4,0,0,0,349.6,128L338.4,128A2.4,2.4,0,0,1,336,125.6L336,114.4A2.4,2.4,0,0,0,333.6,112L322.4,112A2.4,2.4,0,0,1,320,109.6L320,96L320,80L320,66.4A2.4,2.4,0,0,1,322.4,64M322.4,128L333.6,128A2.4,2.4,0,0,1,336,130.4L336,141.6A2.4,2.4,0,0,1,333.6,144L322.4,144A2.4,2.4,0,0,1,320,141.6L320,130.4A2.4,2.4,0,0,1,322.4,128M322.4,160L333.6,160A2.4,2.4,0,0,1,336,162.4L336,173.6A2.4,2.4,0,0,1,333.6,176L322.4,176A2.4,2.4,0,0,1,320,173.6L320,162.4A2.4,2.4,0,0,1,322.4,160M322.4,240L336,240L349.6,240A2.4,2.4,0,0,1,352,242.4L352,253.6A2.4,2.4,0,0,1,349.6,256L338.4,256A2.4,2.4,0,0,0,336,258.4L336,272L336,285.6A2.4,2.4,0,0,1,333.6,288L322.4,288A2.4,2.4,0,0,1,320,285.6L320,272L320,256L320,242.4A2.4,2.4,0,0,1,322.4,240M322.4,576L333.6,576A2.4,2.4,0,0,1,336,578.4L336,589.6A2.4,2.4,0,0,1,333.6,592L322.4,592A2.4,2.4,0,0,1,320,589.6L320,578.4A2.4,2.4,0,0,1,322.4,576M338.4,176L349.6,176A2.4,2.4,0,0,1,352,178.4L352,189.6A2.4,2.4,0,0,0,354.4,192L365.6,192A2.4,2.4,0,0,1,368,194.4L368,205.6A2.4,2.4,0,0,0,370.4,208L381.6,208A2.4,2.4,0,0,1,384,210.4L384,221.6A2.4,2.4,0,0,1,381.6,224L370.4,224A2.4,2.4,0,0,0,368,226.4L368,237.6A2.4,2.4,0,0,1,365.6,240L354.4,240A2.4,2.4,0,0,1,352,237.6L352,224L352,210.4A2.4,2.4,0,0,0,349.6,208L338.4,208A2.4,2.4,0,0,1,336,205.6L336,192L336,178.4A2.4,2.4,0,0,1,338.4,176M338.4,432L349.6,432A2.4,2.4,0,0,1,352,434.4L352,445.6A2.4,2.4,0,0,1,349.6,448L338.4,448A2.4,2.4,0,0,1,336,445.6L336,434.4A2.4,2.4,0,0,1,338.4,432M338.4,512L349.6,512A2.4,2.4,0,0,1,352,514.4L352,525.6A2.4,2.4,0,0,1,349.6,528L338.4,528A2.4,2.4,0,0,1,336,525.6L336,514.4A2.4,2.4,0,0,1,338.4,512M338.4,544L352,544L365.6,544A2.4,2.4,0,0,0,368,541.6L368,528L368,512L368,498.4A2.4,2.4,0,0,1,370.4,496L381.6,496A2.4,2.4,0,0,1,384,498.4L384,512L384,525.6A2.4,2.4,0,0,0,386.4,528L397.6,528A2.4,2.4,0,0,1,400,530.4L400,541.6A2.4,2.4,0,0,0,402.4,544L413.6,544A2.4,2.4,0,0,1,416,546.4L416,560L416,573.6A2.4,2.4,0,0,1,413.6,576L402.4,576A2.4,2.4,0,0,1,400,573.6L400,562.4A2.4,2.4,0,0,0,397.6,560L384,560L368,560L354.4,560A2.4,2.4,0,0,0,352,562.4L352,573.6A2.4,2.4,0,0,1,349.6,576L338.4,576A2.4,2.4,0,0,1,336,573.6L336,560L336,546.4A2.4,2.4,0,0,1,338.4,544M354.4,256L365.6,256A2.4,2.4,0,0,1,368,258.4L368,269.6A2.4,2.4,0,0,1,365.6,272L354.4,272A2.4,2.4,0,0,1,352,269.6L352,258.4A2.4,2.4,0,0,1,354.4,256M370.4,176L381.6,176A2.4,2.4,0,0,0,384,173.6L384,162.4A2.4,2.4,0,0,1,386.4,160L397.6,160A2.4,2.4,0,0,1,400,162.4L400,176L400,189.6A2.4,2.4,0,0,1,397.6,192L384,192L370.4,192A2.4,2.4,0,0,1,368,189.6L368,178.4A2.4,2.4,0,0,1,370.4,176M370.4,416L381.6,416A2.4,2.4,0,0,1,384,418.4L384,429.6A2.4,2.4,0,0,1,381.6,432L370.4,432A2.4,2.4,0,0,1,368,429.6L368,418.4A2.4,2.4,0,0,1,370.4,416M370.4,448L381.6,448A2.4,2.4,0,0,0,384,445.6L384,434.4A2.4,2.4,0,0,1,386.4,432L397.6,432A2.4,2.4,0,0,1,400,434.4L400,448L400,461.6A2.4,2.4,0,0,0,402.4,464L413.6,464A2.4,2.4,0,0,1,416,466.4L416,477.6A2.4,2.4,0,0,1,413.6,480L402.4,480A2.4,2.4,0,0,0,400,482.4L400,493.6A2.4,2.4,0,0,1,397.6,496L386.4,496A2.4,2.4,0,0,1,384,493.6L384,482.4A2.4,2.4,0,0,0,381.6,480L370.4,480A2.4,2.4,0,0,1,368,477.6L368,464L368,450.4A2.4,2.4,0,0,1,370.4,448M370.4,576L381.6,576A2.4,2.4,0,0,1,384,578.4L384,589.6A2.4,2.4,0,0,1,381.6,592L370.4,592A2.4,2.4,0,0,1,368,589.6L368,578.4A2.4,2.4,0,0,1,370.4,576M386.4,64L397.6,64A2.4,2.4,0,0,1,400,66.4L400,77.6A2.4,2.4,0,0,1,397.6,80L386.4,80A2.4,2.4,0,0,1,384,77.6L384,66.4A2.4,2.4,0,0,1,386.4,64M386.4,240L397.6,240A2.4,2.4,0,0,1,400,242.4L400,253.6A2.4,2.4,0,0,1,397.6,256L386.4,256A2.4,2.4,0,0,1,384,253.6L384,242.4A2.4,2.4,0,0,1,386.4,240M386.4,272L397.6,272A2.4,2.4,0,0,0,400,269.6L400,258.4A2.4,2.4,0,0,1,402.4,256L416,256L432,256L448,256L461.6,256A2.4,2.4,0,0,1,464,258.4L464,269.6A2.4,2.4,0,0,1,461.6,272L450.4,272A2.4,2.4,0,0,0,448,274.4L448,288L448,301.6A2.4,2.4,0,0,1,445.6,304L434.4,304A2.4,2.4,0,0,1,432,301.6L432,288L432,274.4A2.4,2.4,0,0,0,429.6,272L418.4,272A2.4,2.4,0,0,0,416,274.4L416,285.6A2.4,2.4,0,0,1,413.6,288L400,288L386.4,288A2.4,2.4,0,0,1,384,285.6L384,274.4A2.4,2.4,0,0,1,386.4,272M386.4,304L397.6,304A2.4,2.4,0,0,1,400,306.4L400,320L400,333.6A2.4,2.4,0,0,1,397.6,336L386.4,336A2.4,2.4,0,0,1,384,333.6L384,320L384,306.4A2.4,2.4,0,0,1,386.4,304M402.4,80L413.6,80A2.4,2.4,0,0,0,416,77.6L416,66.4A2.4,2.4,0,0,1,418.4,64L429.6,64A2.4,2.4,0,0,1,432,66.4L432,80L432,93.6A2.4,2.4,0,0,1,429.6,96L418.4,96A2.4,2.4,0,0,0,416,98.4L416,109.6A2.4,2.4,0,0,0,418.4,112L432,112L445.6,112A2.4,2.4,0,0,0,448,109.6L448,98.4A2.4,2.4,0,0,1,450.4,96L461.6,96A2.4,2.4,0,0,1,464,98.4L464,112L464,125.6A2.4,2.4,0,0,1,461.6,128L448,128L434.4,128A2.4,2.4,0,0,0,432,130.4L432,144L432,160L432,173.6A2.4,2.4,0,0,1,429.6,176L418.4,176A2.4,2.4,0,0,1,416,173.6L416,162.4A2.4,2.4,0,0,0,413.6,160L402.4,160A2.4,2.4,0,0,1,400,157.6L400,146.4A2.4,2.4,0,0,1,402.4,144L413.6,144A2.4,2.4,0,0,0,416,141.6L416,130.4A2.4,2.4,0,0,0,413.6,128L402.4,128A2.4,2.4,0,0,1,400,125.6L400,112L400,96L400,82.4A2.4,2.4,0,0,1,402.4,80M402.4,336L413.6,336A2.4,2.4,0,0,1,416,338.4L416,352L416,365.6A2.4,2.4,0,0,1,413.6,368L402.4,368A2.4,2.4,0,0,1,400,365.6L400,352L400,338.4A2.4,2.4,0,0,1,402.4,336M402.4,400L413.6,400A2.4,2.4,0,0,1,416,402.4L416,416L416,429.6A2.4,2.4,0,0,1,413.6,432L402.4,432A2.4,2.4,0,0,1,400,429.6L400,416L400,402.4A2.4,2.4,0,0,1,402.4,400M402.4,496L413.6,496A2.4,2.4,0,0,1,416,498.4L416,512L416,525.6A2.4,2.4,0,0,1,413.6,528L402.4,528A2.4,2.4,0,0,1,400,525.6L400,512L400,498.4A2.4,2.4,0,0,1,402.4,496M418.4,192L432,192L448,192L464,192L477.6,192A2.4,2.4,0,0,1,480,194.4L480,205.6A2.4,2.4,0,0,0,482.4,208L493.6,208A2.4,2.4,0,0,0,496,205.6L496,194.4A2.4,2.4,0,0,1,498.4,192L512,192L528,192L544,192L560,192L573.6,192A2.4,2.4,0,0,1,576,194.4L576,205.6A2.4,2.4,0,0,1,573.6,208L560,208L546.4,208A2.4,2.4,0,0,0,544,210.4L544,221.6A2.4,2.4,0,0,1,541.6,224L530.4,224A2.4,2.4,0,0,1,528,221.6L528,210.4A2.4,2.4,0,0,0,525.6,208L514.4,208A2.4,2.4,0,0,0,512,210.4L512,221.6A2.4,2.4,0,0,0,514.4,224L525.6,224A2.4,2.4,0,0,1,528,226.4L528,237.6A2.4,2.4,0,0,1,525.6,240L514.4,240A2.4,2.4,0,0,0,512,242.4L512,253.6A2.4,2.4,0,0,1,509.6,256L498.4,256A2.4,2.4,0,0,0,496,258.4L496,269.6A2.4,2.4,0,0,0,498.4,272L509.6,272A2.4,2.4,0,0,1,512,274.4L512,285.6A2.4,2.4,0,0,1,509.6,288L498.4,288A2.4,2.4,0,0,0,496,290.4L496,301.6A2.4,2.4,0,0,1,493.6,304L480,304L466.4,304A2.4,2.4,0,0,1,464,301.6L464,290.4A2.4,2.4,0,0,1,466.4,288L477.6,288A2.4,2.4,0,0,0,480,285.6L480,272L480,256L480,242.4A2.4,2.4,0,0,1,482.4,240L493.6,240A2.4,2.4,0,0,0,496,237.6L496,226.4A2.4,2.4,0,0,0,493.6,224L480,224L464,224L450.4,224A2.4,2.4,0,0,0,448,226.4L448,237.6A2.4,2.4,0,0,1,445.6,240L432,240L418.4,240A2.4,2.4,0,0,1,416,237.6L416,226.4A2.4,2.4,0,0,1,418.4,224L429.6,224A2.4,2.4,0,0,0,432,221.6L432,210.4A2.4,2.4,0,0,0,429.6,208L418.4,208A2.4,2.4,0,0,1,416,205.6L416,194.4A2.4,2.4,0,0,1,418.4,192M418.4,304L429.6,304A2.4,2.4,0,0,1,432,306.4L432,320L432,333.6A2.4,2.4,0,0,1,429.6,336L418.4,336A2.4,2.4,0,0,1,416,333.6L416,320L416,306.4A2.4,2.4,0,0,1,418.4,304M418.4,368L429.6,368A2.4,2.4,0,0,0,432,365.6L432,352L432,338.4A2.4,2.4,0,0,1,434.4,336L445.6,336A2.4,2.4,0,0,1,448,338.4L448,352L448,368L448,384L448,397.6A2.4,2.4,0,0,0,450.4,400L461.6,400A2.4,2.4,0,0,0,464,397.6L464,386.4A2.4,2.4,0,0,1,466.4,384L477.6,384A2.4,2.4,0,0,0,480,381.6L480,370.4A2.4,2.4,0,0,0,477.6,368L466.4,368A2.4,2.4,0,0,1,464,365.6L464,354.4A2.4,2.4,0,0,1,466.4,352L477.6,352A2.4,2.4,0,0,0,480,349.6L480,336L480,322.4A2.4,2.4,0,0,1,482.4,320L493.6,320A2.4,2.4,0,0,1,496,322.4L496,333.6A2.4,2.4,0,0,0,498.4,336L509.6,336A2.4,2.4,0,0,1,512,338.4L512,349.6A2.4,2.4,0,0,1,509.6,352L498.4,352A2.4,2.4,0,0,0,496,354.4L496,368L496,381.6A2.4,2.4,0,0,0,498.4,384L509.6,384A2.4,2.4,0,0,1,512,386.4L512,397.6A2.4,2.4,0,0,1,509.6,400L498.4,400A2.4,2.4,0,0,0,496,402.4L496,413.6A2.4,2.4,0,0,0,498.4,416L512,416L525.6,416A2.4,2.4,0,0,1,528,418.4L528,429.6A2.4,2.4,0,0,1,525.6,432L514.4,432A2.4,2.4,0,0,0,512,434.4L512,445.6A2.4,2.4,0,0,0,514.4,448L525.6,448A2.4,2.4,0,0,1,528,450.4L528,464L528,480L528,493.6A2.4,2.4,0,0,0,530.4,496L541.6,496A2.4,2.4,0,0,1,544,498.4L544,512L544,525.6A2.4,2.4,0,0,1,541.6,528L530.4,528A2.4,2.4,0,0,0,528,530.4L528,541.6A2.4,2.4,0,0,0,530.4,544L544,544L560,544L573.6,544A2.4,2.4,0,0,0,576,541.6L576,530.4A2.4,2.4,0,0,1,578.4,528L589.6,528A2.4,2.4,0,0,1,592,530.4L592,544L592,557.6A2.4,2.4,0,0,1,589.6,560L576,560L560,560L544,560L528,560L514.4,560A2.4,2.4,0,0,1,512,557.6L512,546.4A2.4,2.4,0,0,0,509.6,544L498.4,544A2.4,2.4,0,0,1,496,541.6L496,530.4A2.4,2.4,0,0,0,493.6,528L482.4,528A2.4,2.4,0,0,0,480,530.4L480,541.6A2.4,2.4,0,0,1,477.6,544L466.4,544A2.4,2.4,0,0,1,464,541.6L464,530.4A2.4,2.4,0,0,0,461.6,528L448,528L434.4,528A2.4,2.4,0,0,1,432,525.6L432,512L432,498.4A2.4,2.4,0,0,1,434.4,496L445.6,496A2.4,2.4,0,0,0,448,493.6L448,480L448,464L448,448L448,434.4A2.4,2.4,0,0,1,450.4,432L461.6,432A2.4,2.4,0,0,1,464,434.4L464,445.6A2.4,2.4,0,0,0,466.4,448L480,448L493.6,448A2.4,2.4,0,0,0,496,445.6L496,434.4A2.4,2.4,0,0,0,493.6,432L480,432L466.4,432A2.4,2.4,0,0,1,464,429.6L464,418.4A2.4,2.4,0,0,0,461.6,416L450.4,416A2.4,2.4,0,0,0,448,418.4L448,429.6A2.4,2.4,0,0,1,445.6,432L434.4,432A2.4,2.4,0,0,1,432,429.6L432,416L432,400L432,386.4A2.4,2.4,0,0,0,429.6,384L418.4,384A2.4,2.4,0,0,1,416,381.6L416,370.4A2.4,2.4,0,0,1,418.4,368M418.4,432L429.6,432A2.4,2.4,0,0,1,432,434.4L432,445.6A2.4,2.4,0,0,1,429.6,448L418.4,448A2.4,2.4,0,0,1,416,445.6L416,434.4A2.4,2.4,0,0,1,418.4,432M418.4,576L429.6,576A2.4,2.4,0,0,1,432,578.4L432,589.6A2.4,2.4,0,0,1,429.6,592L418.4,592A2.4,2.4,0,0,1,416,589.6L416,578.4A2.4,2.4,0,0,1,418.4,576M434.4,560L448,560L464,560L480,560L493.6,560A2.4,2.4,0,0,1,496,562.4L496,576L496,589.6A2.4,2.4,0,0,1,493.6,592L480,592L464,592L450.4,592A2.4,2.4,0,0,1,448,589.6L448,578.4A2.4,2.4,0,0,0,445.6,576L434.4,576A2.4,2.4,0,0,1,432,573.6L432,562.4A2.4,2.4,0,0,1,434.4,560M450.4,64L461.6,64A2.4,2.4,0,0,1,464,66.4L464,77.6A2.4,2.4,0,0,1,461.6,80L450.4,80A2.4,2.4,0,0,1,448,77.6L448,66.4A2.4,2.4,0,0,1,450.4,64M450.4,144L461.6,144A2.4,2.4,0,0,1,464,146.4L464,160L464,173.6A2.4,2.4,0,0,1,461.6,176L450.4,176A2.4,2.4,0,0,1,448,173.6L448,160L448,146.4A2.4,2.4,0,0,1,450.4,144M464,466.4L464,480L464,496L464,509.6A2.4,2.4,0,0,0,466.4,512L480,512L496,512L509.6,512A2.4,2.4,0,0,0,512,509.6L512,496L512,480L512,466.4A2.4,2.4,0,0,0,509.6,464L496,464L480,464L466.4,464A2.4,2.4,0,0,0,464,466.4M482.4,480L493.6,480A2.4,2.4,0,0,1,496,482.4L496,493.6A2.4,2.4,0,0,1,493.6,496L482.4,496A2.4,2.4,0,0,1,480,493.6L480,482.4A2.4,2.4,0,0,1,482.4,480M498.4,304L512,304L525.6,304A2.4,2.4,0,0,0,528,301.6L528,290.4A2.4,2.4,0,0,1,530.4,288L544,288L557.6,288A2.4,2.4,0,0,1,560,290.4L560,301.6A2.4,2.4,0,0,1,557.6,304L546.4,304A2.4,2.4,0,0,0,544,306.4L544,317.6A2.4,2.4,0,0,1,541.6,320L528,320L512,320L498.4,320A2.4,2.4,0,0,1,496,317.6L496,306.4A2.4,2.4,0,0,1,498.4,304M514.4,576L525.6,576A2.4,2.4,0,0,1,528,578.4L528,589.6A2.4,2.4,0,0,1,525.6,592L514.4,592A2.4,2.4,0,0,1,512,589.6L512,578.4A2.4,2.4,0,0,1,514.4,576M530.4,240L541.6,240A2.4,2.4,0,0,1,544,242.4L544,256L544,269.6A2.4,2.4,0,0,1,541.6,272L530.4,272A2.4,2.4,0,0,1,528,269.6L528,256L528,242.4A2.4,2.4,0,0,1,530.4,240M530.4,352L541.6,352A2.4,2.4,0,0,0,544,349.6L544,338.4A2.4,2.4,0,0,1,546.4,336L557.6,336A2.4,2.4,0,0,0,560,333.6L560,320L560,306.4A2.4,2.4,0,0,1,562.4,304L573.6,304A2.4,2.4,0,0,1,576,306.4L576,317.6A2.4,2.4,0,0,0,578.4,320L589.6,320A2.4,2.4,0,0,1,592,322.4L592,336L592,352L592,365.6A2.4,2.4,0,0,1,589.6,368L578.4,368A2.4,2.4,0,0,1,576,365.6L576,354.4A2.4,2.4,0,0,0,573.6,352L562.4,352A2.4,2.4,0,0,0,560,354.4L560,365.6A2.4,2.4,0,0,1,557.6,368L546.4,368A2.4,2.4,0,0,0,544,370.4L544,381.6A2.4,2.4,0,0,1,541.6,384L530.4,384A2.4,2.4,0,0,1,528,381.6L528,368L528,354.4A2.4,2.4,0,0,1,530.4,352M530.4,432L541.6,432A2.4,2.4,0,0,1,544,434.4L544,445.6A2.4,2.4,0,0,1,541.6,448L530.4,448A2.4,2.4,0,0,1,528,445.6L528,434.4A2.4,2.4,0,0,1,530.4,432M546.4,400L557.6,400A2.4,2.4,0,0,1,560,402.4L560,416L560,429.6A2.4,2.4,0,0,1,557.6,432L546.4,432A2.4,2.4,0,0,1,544,429.6L544,416L544,402.4A2.4,2.4,0,0,1,546.4,400M546.4,464L557.6,464A2.4,2.4,0,0,1,560,466.4L560,480L560,493.6A2.4,2.4,0,0,1,557.6,496L546.4,496A2.4,2.4,0,0,1,544,493.6L544,480L544,466.4A2.4,2.4,0,0,1,546.4,464M562.4,256L573.6,256A2.4,2.4,0,0,0,576,253.6L576,240L576,224L576,210.4A2.4,2.4,0,0,1,578.4,208L589.6,208A2.4,2.4,0,0,1,592,210.4L592,224L592,240L592,256L592,272L592,288L592,301.6A2.4,2.4,0,0,1,589.6,304L578.4,304A2.4,2.4,0,0,1,576,301.6L576,288L576,274.4A2.4,2.4,0,0,0,573.6,272L562.4,272A2.4,2.4,0,0,1,560,269.6L560,258.4A2.4,2.4,0,0,1,562.4,256M562.4,368L573.6,368A2.4,2.4,0,0,1,576,370.4L576,381.6A2.4,2.4,0,0,0,578.4,384L589.6,384A2.4,2.4,0,0,1,592,386.4L592,400L592,416L592,429.6A2.4,2.4,0,0,1,589.6,432L578.4,432A2.4,2.4,0,0,1,576,429.6L576,416L576,402.4A2.4,2.4,0,0,0,573.6,400L562.4,400A2.4,2.4,0,0,1,560,397.6L560,384L560,370.4A2.4,2.4,0,0,1,562.4,368M562.4,432L573.6,432A2.4,2.4,0,0,1,576,434.4L576,445.6A2.4,2.4,0,0,0,578.4,448L589.6,448A2.4,2.4,0,0,1,592,450.4L592,464L592,480L592,496L592,509.6A2.4,2.4,0,0,1,589.6,512L576,512L562.4,512A2.4,2.4,0,0,1,560,509.6L560,498.4A2.4,2.4,0,0,1,562.4,496L573.6,496A2.4,2.4,0,0,0,576,493.6L576,480L576,466.4A2.4,2.4,0,0,0,573.6,464L562.4,464A2.4,2.4,0,0,1,560,461.6L560,448L560,434.4A2.4,2.4,0,0,1,562.4,432M578.4,576L589.6,576A2.4,2.4,0,0,1,592,578.4L592,589.6A2.4,2.4,0,0,1,589.6,592L578.4,592A2.4,2.4,0,0,1,576,589.6L576,578.4A2.4,2.4,0,0,1,578.4,576Z" />
</g>
<g id='corners-outer-1' transform="translate(64, 64) scale(5.60, 5.60) " style='fill:#161616' >
<path d="M 17.14 0 H 4 C 1.79 0 0 1.79 0 4 V 16 C 0 18.21 1.79 20 4 20 H 16 C 18.21 20 20 18.21 20 16 V 2.86 C 20 1.28 18.72 0 17.14 0 Z M 17.14 5.71 V 13.14 C 17.14 15.35 15.35 17.14 13.14 17.14 H 6.86 C 4.65 17.14 2.86 15.35 2.86 13.14 V 6.86 C 2.86 4.65 4.65 2.86 6.86 2.86 H 14.29 C 15.86 2.86 17.14 4.14 17.14 5.71 Z" />
</g>
<g id='corners-inner-1' transform="translate(96, 96) scale(5.60, 5.60) " style='fill:#161616' >
<path d="M 5.64 0 H 3 C 1.34 0 0 1.34 0 3 V 5.46 C 0 7.12 1.34 8.46 3 8.46 H 5.46 C 7.12 8.46 8.46 7.12 8.46 5.46 V 2.82 C 8.46 1.26 7.2 0 5.64 0 Z" />
</g>
<g id='corners-outer-2' transform="translate(480, 64) scale(5.60, 5.60) " style='fill:#161616' >
<path d="M 17.14 0 H 4 C 1.79 0 0 1.79 0 4 V 16 C 0 18.21 1.79 20 4 20 H 16 C 18.21 20 20 18.21 20 16 V 2.86 C 20 1.28 18.72 0 17.14 0 Z M 17.14 5.71 V 13.14 C 17.14 15.35 15.35 17.14 13.14 17.14 H 6.86 C 4.65 17.14 2.86 15.35 2.86 13.14 V 6.86 C 2.86 4.65 4.65 2.86 6.86 2.86 H 14.29 C 15.86 2.86 17.14 4.14 17.14 5.71 Z" />
</g>
<g id='corners-inner-2' transform="translate(512, 96) scale(5.60, 5.60) " style='fill:#161616' >
<path d="M 5.64 0 H 3 C 1.34 0 0 1.34 0 3 V 5.46 C 0 7.12 1.34 8.46 3 8.46 H 5.46 C 7.12 8.46 8.46 7.12 8.46 5.46 V 2.82 C 8.46 1.26 7.2 0 5.64 0 Z" />
</g>
<g id='corners-outer-3' transform="translate(64, 480) scale(5.60, 5.60) " style='fill:#161616' >
<path d="M 17.14 0 H 4 C 1.79 0 0 1.79 0 4 V 16 C 0 18.21 1.79 20 4 20 H 16 C 18.21 20 20 18.21 20 16 V 2.86 C 20 1.28 18.72 0 17.14 0 Z M 17.14 5.71 V 13.14 C 17.14 15.35 15.35 17.14 13.14 17.14 H 6.86 C 4.65 17.14 2.86 15.35 2.86 13.14 V 6.86 C 2.86 4.65 4.65 2.86 6.86 2.86 H 14.29 C 15.86 2.86 17.14 4.14 17.14 5.71 Z" />
</g>
<g id='corners-inner-3' transform="translate(96, 512) scale(5.60, 5.60) " style='fill:#161616' >
<path d="M 5.64 0 H 3 C 1.34 0 0 1.34 0 3 V 5.46 C 0 7.12 1.34 8.46 3 8.46 H 5.46 C 7.12 8.46 8.46 7.12 8.46 5.46 V 2.82 C 8.46 1.26 7.2 0 5.64 0 Z" />
</g>
</svg>
