<?xml version="1.0" encoding="UTF-8"?><svg id="Layer_1" xmlns="http://www.w3.org/2000/svg" viewBox="0 0 305.53 80.87"><defs><style>.cls-1{fill:#e6f0fa;}.cls-2{fill:#f2ba41;}.cls-3{fill:#8e8f95;}.cls-4{fill:#dba93e;}.cls-5{fill:#109661;}.cls-6{fill:#3f72b8;}.cls-7{fill:#0f8b59;}.cls-8{fill:#3592d0;}.cls-9{fill:#396bb3;}</style></defs><g id="icon"><polygon id="outline" class="cls-8" points="2.48 3.14 2.48 78.27 25.35 78.27 25.35 71.74 9.01 71.74 9.01 9.67 71.07 9.67 71.07 71.74 54.74 71.74 54.74 78.27 77.61 78.27 77.61 3.14 2.48 3.14"/><path id="m" class="cls-1" d="m59.1,30.8c2.06,2.06,3.15,4.88,3.15,8.5v16.44h-6.53v-15.23c0-4.42-2.35-6.79-5.77-6.79-3.67,0-6.32,2.76-6.32,6.99v15.03h-6.53v-15.18c0-4.27-2.28-6.84-5.75-6.84-3.67,0-6.33,2.76-6.33,7.04v14.98h-6.53v-27.3h6.43v3.92c1.56-2.87,4.73-4.67,8.29-4.67,3.57.05,6.69,1.71,8.14,4.88,1.96-3.07,5.63-4.88,9.8-4.88,3.27,0,5.88,1.06,7.94,3.12"/></g><circle class="cls-3" cx="102.45" cy="41.04" r="4"/><circle class="cls-3" cx="127.62" cy="41.04" r="4"/><circle class="cls-3" cx="177.78" cy="41.04" r="4"/><circle class="cls-3" cx="202.96" cy="41.04" r="4"/><polygon class="cls-3" points="151.3 19.43 161.73 18.37 154.75 35.12 163.96 33.53 141.25 62.5 148.16 41.23 143.24 41.23 151.3 19.43"/><g><path class="cls-5" d="m244.45,67.71l-10.96-18.98,20.54-35.57,10.96,18.98-20.54,35.57Z"/><path class="cls-6" d="m244.45,67.71l10.96-18.98h41.08s-10.96,18.98-10.96,18.98h-41.08Z"/><path class="cls-2" d="m296.48,48.73h-21.92s-20.54-35.57-20.54-35.57h21.92l20.54,35.57Z"/><path class="cls-9" d="m264.98,48.73h-9.58l-10.96,18.98,20.54-18.98Z"/><path class="cls-4" d="m274.56,48.73h21.92s-26.71-8.29-26.71-8.29l4.79,8.29Z"/><path class="cls-7" d="m260.19,40.43l4.79-8.3-10.96-18.98,6.17,27.28Z"/></g></svg>