<svg xmlns="http://www.w3.org/2000/svg" xmlns:xlink="http://www.w3.org/1999/xlink" width="40" zoomAndPan="magnify" viewBox="0 0 30 30.000001" height="40" preserveAspectRatio="xMidYMid meet" version="1.0"><defs><clipPath id="428d73e501"><path d="M 0.484375 0.796875 L 29.515625 0.796875 L 29.515625 28.378906 L 0.484375 28.378906 Z M 0.484375 0.796875 " clip-rule="nonzero"/></clipPath><clipPath id="16f901393c"><path d="M 9 8 L 29.515625 8 L 29.515625 22 L 9 22 Z M 9 8 " clip-rule="nonzero"/></clipPath></defs><g clip-path="url(#428d73e501)"><path fill="#0099ee" d="M 28.878906 23.097656 C 28.699219 23.097656 28.546875 23.160156 28.421875 23.289062 C 28.296875 23.414062 28.230469 23.566406 28.230469 23.742188 L 28.230469 26.914062 L 12.675781 26.914062 L 12.675781 23.453125 C 12.675781 23.277344 12.609375 23.125 12.484375 22.996094 C 12.359375 22.871094 12.207031 22.808594 12.027344 22.808594 C 11.851562 22.808594 11.699219 22.871094 11.574219 22.996094 C 11.445312 23.125 11.382812 23.277344 11.382812 23.453125 L 11.382812 26.914062 L 1.785156 26.914062 L 1.785156 13.859375 L 5.996094 13.859375 C 6.175781 13.859375 6.328125 13.796875 6.453125 13.671875 C 6.578125 13.546875 6.640625 13.394531 6.640625 13.214844 C 6.640625 13.035156 6.578125 12.886719 6.453125 12.757812 C 6.328125 12.632812 6.175781 12.570312 5.996094 12.570312 L 1.785156 12.570312 L 1.785156 2.078125 L 14.839844 2.078125 L 14.839844 5.761719 C 14.839844 5.941406 14.902344 6.09375 15.027344 6.21875 C 15.152344 6.34375 15.304688 6.410156 15.484375 6.410156 C 15.660156 6.410156 15.8125 6.34375 15.941406 6.21875 C 16.066406 6.09375 16.128906 5.941406 16.128906 5.761719 L 16.128906 1.433594 C 16.128906 1.257812 16.066406 1.105469 15.941406 0.976562 C 15.8125 0.851562 15.660156 0.789062 15.484375 0.789062 L 1.140625 0.789062 C 0.960938 0.789062 0.808594 0.851562 0.683594 0.976562 C 0.554688 1.105469 0.492188 1.257812 0.492188 1.433594 L 0.492188 27.5625 C 0.492188 27.742188 0.554688 27.894531 0.683594 28.019531 C 0.808594 28.144531 0.960938 28.207031 1.140625 28.207031 L 28.878906 28.207031 C 29.058594 28.207031 29.210938 28.144531 29.335938 28.019531 C 29.460938 27.894531 29.527344 27.742188 29.527344 27.5625 L 29.527344 23.742188 C 29.527344 23.566406 29.460938 23.414062 29.335938 23.285156 C 29.207031 23.160156 29.054688 23.097656 28.878906 23.097656 Z M 28.878906 23.097656 " fill-opacity="1" fill-rule="nonzero"/></g><g clip-path="url(#16f901393c)"><path fill="#0099ee" d="M 28.878906 12.570312 L 16.128906 12.570312 L 16.128906 9.292969 C 16.128906 9.113281 16.066406 8.960938 15.941406 8.835938 C 15.8125 8.710938 15.660156 8.648438 15.484375 8.648438 C 15.304688 8.648438 15.152344 8.710938 15.027344 8.835938 C 14.902344 8.960938 14.839844 9.113281 14.839844 9.292969 L 14.839844 12.570312 L 10 12.570312 C 9.820312 12.570312 9.667969 12.632812 9.542969 12.757812 C 9.417969 12.886719 9.355469 13.035156 9.355469 13.214844 C 9.355469 13.394531 9.417969 13.546875 9.542969 13.671875 C 9.667969 13.796875 9.820312 13.859375 10 13.859375 L 11.398438 13.859375 L 11.398438 18.890625 C 11.398438 19.066406 11.464844 19.21875 11.589844 19.34375 C 11.714844 19.472656 11.867188 19.535156 12.046875 19.535156 C 12.222656 19.535156 12.375 19.472656 12.5 19.34375 C 12.628906 19.21875 12.691406 19.066406 12.691406 18.890625 L 12.691406 13.859375 L 28.230469 13.859375 L 28.230469 21.199219 C 28.230469 21.378906 28.296875 21.527344 28.421875 21.65625 C 28.546875 21.78125 28.699219 21.84375 28.878906 21.84375 C 29.054688 21.84375 29.207031 21.78125 29.332031 21.65625 C 29.460938 21.527344 29.523438 21.378906 29.523438 21.199219 L 29.523438 13.214844 C 29.523438 13.035156 29.460938 12.886719 29.332031 12.757812 C 29.207031 12.632812 29.054688 12.570312 28.878906 12.570312 Z M 28.878906 12.570312 " fill-opacity="1" fill-rule="nonzero"/></g></svg>