<svg xmlns="http://www.w3.org/2000/svg" xmlns:xlink="http://www.w3.org/1999/xlink" width="40" zoomAndPan="magnify" viewBox="0 0 30 30.000001" height="40" preserveAspectRatio="xMidYMid meet" version="1.0"><defs><clipPath id="6dc64619db"><path d="M 0.484375 3 L 22 3 L 22 29 L 0.484375 29 Z M 0.484375 3 " clip-rule="nonzero"/></clipPath><clipPath id="a02aae2b29"><path d="M 12 6 L 25.886719 6 L 25.886719 25 L 12 25 Z M 12 6 " clip-rule="nonzero"/></clipPath></defs><g clip-path="url(#6dc64619db)"><path fill="#0099ee" d="M 19.4375 28.914062 L 2.25 28.914062 C 1.285156 28.914062 0.484375 28.109375 0.484375 27.144531 L 0.484375 5.058594 C 0.484375 4.09375 1.285156 3.292969 2.25 3.292969 L 3.9375 3.292969 C 4.257812 3.292969 4.539062 3.574219 4.539062 3.894531 C 4.539062 4.214844 4.257812 4.496094 3.9375 4.496094 L 2.25 4.496094 C 1.929688 4.496094 1.6875 4.738281 1.6875 5.058594 L 1.6875 27.144531 C 1.6875 27.46875 1.929688 27.707031 2.25 27.707031 L 19.4375 27.707031 C 19.761719 27.707031 20 27.46875 20 27.144531 L 20 19.515625 C 20 19.195312 20.28125 18.914062 20.605469 18.914062 C 20.925781 18.914062 21.207031 19.195312 21.207031 19.515625 L 21.207031 27.144531 C 21.207031 28.148438 20.441406 28.914062 19.4375 28.914062 Z M 19.4375 28.914062 " fill-opacity="1" fill-rule="nonzero"/></g><path fill="#0099ee" d="M 20.605469 7.265625 C 20.28125 7.265625 20 6.984375 20 6.664062 L 20 5.058594 C 20 4.738281 19.761719 4.496094 19.4375 4.496094 L 17.753906 4.496094 C 17.429688 4.496094 17.148438 4.214844 17.148438 3.894531 C 17.148438 3.574219 17.429688 3.292969 17.753906 3.292969 L 19.4375 3.292969 C 20.402344 3.292969 21.207031 4.09375 21.207031 5.058594 L 21.207031 6.664062 C 21.207031 6.984375 20.964844 7.265625 20.605469 7.265625 Z M 20.605469 7.265625 " fill-opacity="1" fill-rule="nonzero"/><path fill="#0099ee" d="M 14.78125 6.945312 L 6.910156 6.945312 C 6.308594 6.945312 5.785156 6.464844 5.785156 5.820312 L 5.785156 2.851562 C 5.785156 2.246094 6.265625 1.726562 6.910156 1.726562 L 8.714844 1.726562 C 8.996094 0.800781 9.839844 0.117188 10.84375 0.117188 C 11.847656 0.117188 12.730469 0.800781 12.972656 1.726562 L 14.742188 1.726562 C 15.34375 1.726562 15.863281 2.207031 15.863281 2.851562 L 15.863281 5.820312 C 15.90625 6.464844 15.421875 6.945312 14.78125 6.945312 Z M 7.03125 5.742188 L 14.699219 5.742188 L 14.699219 2.929688 L 12.492188 2.929688 C 12.171875 2.929688 11.890625 2.648438 11.890625 2.328125 C 11.890625 1.765625 11.449219 1.324219 10.886719 1.324219 C 10.324219 1.324219 9.882812 1.765625 9.882812 2.328125 C 9.882812 2.648438 9.601562 2.929688 9.277344 2.929688 L 7.03125 2.929688 Z M 7.03125 5.742188 " fill-opacity="1" fill-rule="nonzero"/><path fill="#0099ee" d="M 8.394531 19.195312 L 4.339844 19.195312 L 4.339844 15.136719 L 8.394531 15.136719 Z M 5.542969 17.988281 L 7.191406 17.988281 L 7.191406 16.34375 L 5.542969 16.34375 Z M 5.542969 17.988281 " fill-opacity="1" fill-rule="nonzero"/><path fill="#0099ee" d="M 13.335938 17.75 L 10.765625 17.75 C 10.441406 17.75 10.164062 17.46875 10.164062 17.148438 C 10.164062 16.824219 10.441406 16.542969 10.765625 16.542969 L 13.335938 16.542969 C 13.65625 16.542969 13.9375 16.824219 13.9375 17.148438 C 13.9375 17.46875 13.65625 17.75 13.335938 17.75 Z M 13.335938 17.75 " fill-opacity="1" fill-rule="nonzero"/><path fill="#0099ee" d="M 8.394531 25.179688 L 4.339844 25.179688 L 4.339844 21.121094 L 8.394531 21.121094 Z M 5.542969 23.972656 L 7.191406 23.972656 L 7.191406 22.328125 L 5.542969 22.328125 Z M 5.542969 23.972656 " fill-opacity="1" fill-rule="nonzero"/><path fill="#0099ee" d="M 8.394531 13.210938 L 4.339844 13.210938 L 4.339844 9.15625 L 8.394531 9.15625 Z M 5.542969 12.007812 L 7.191406 12.007812 L 7.191406 10.359375 L 5.542969 10.359375 Z M 5.542969 12.007812 " fill-opacity="1" fill-rule="nonzero"/><path fill="#0099ee" d="M 16.75 10.601562 L 10.722656 10.601562 C 10.402344 10.601562 10.121094 10.320312 10.121094 10 C 10.121094 9.675781 10.402344 9.394531 10.722656 9.394531 L 16.75 9.394531 C 17.070312 9.394531 17.351562 9.675781 17.351562 10 C 17.351562 10.320312 17.109375 10.601562 16.75 10.601562 Z M 16.75 10.601562 " fill-opacity="1" fill-rule="nonzero"/><path fill="#0099ee" d="M 15.183594 12.929688 L 10.765625 12.929688 C 10.441406 12.929688 10.164062 12.648438 10.164062 12.328125 C 10.164062 12.007812 10.441406 11.726562 10.765625 11.726562 L 15.222656 11.726562 C 15.542969 11.726562 15.824219 12.007812 15.824219 12.328125 C 15.824219 12.648438 15.542969 12.929688 15.183594 12.929688 Z M 15.183594 12.929688 " fill-opacity="1" fill-rule="nonzero"/><g clip-path="url(#a02aae2b29)"><path fill="#0099ee" d="M 13.414062 24.253906 C 13.292969 24.253906 13.175781 24.214844 13.09375 24.132812 C 12.894531 24.015625 12.773438 23.734375 12.851562 23.492188 L 13.574219 20.441406 C 13.574219 20.359375 13.617188 20.277344 13.65625 20.238281 L 21.085938 9.355469 C 21.285156 9.074219 21.648438 8.996094 21.929688 9.195312 C 22.210938 9.394531 22.289062 9.757812 22.089844 10.039062 L 14.660156 20.882812 L 14.339844 22.285156 L 15.542969 21.484375 L 23.574219 9.71875 L 22.210938 8.792969 C 22.089844 8.714844 21.96875 8.550781 21.96875 8.390625 C 21.929688 8.230469 21.96875 8.070312 22.050781 7.949219 L 22.8125 6.785156 C 23.011719 6.503906 23.375 6.425781 23.65625 6.625 L 25.503906 7.910156 C 25.785156 8.109375 25.863281 8.472656 25.664062 8.753906 C 25.460938 9.035156 25.101562 9.113281 24.820312 8.914062 L 23.453125 7.992188 L 23.375 8.109375 L 24.738281 9.035156 C 24.859375 9.113281 24.980469 9.273438 24.980469 9.4375 C 25.019531 9.597656 24.980469 9.757812 24.902344 9.878906 L 16.46875 22.207031 C 16.425781 22.285156 16.386719 22.328125 16.304688 22.367188 L 13.738281 24.175781 C 13.65625 24.214844 13.535156 24.253906 13.414062 24.253906 Z M 13.414062 24.253906 " fill-opacity="1" fill-rule="nonzero"/></g></svg>