<?xml version="1.0" encoding="UTF-8"?><svg id="Layer_1" xmlns="http://www.w3.org/2000/svg" xmlns:xlink="http://www.w3.org/1999/xlink" viewBox="0 0 305.53 80.87"><defs><style>.cls-1{fill:url(#linear-gradient);}.cls-2{fill:#f7f4ec;}.cls-3{fill:#e6f0fa;}.cls-4{fill:#e7e4d7;}.cls-5{fill:#e85a4d;}.cls-6{fill:#b7b6ad;}.cls-7{fill:#b9b8ae;}.cls-8{fill:#8e8f95;}.cls-9{fill:#b3392f;}.cls-10{fill:#3592d0;}</style><linearGradient id="linear-gradient" x1="-5889.48" y1="-2553.39" x2="-5312.81" y2="-2553.39" gradientTransform="translate(575.24 169.49) scale(.06)" gradientUnits="userSpaceOnUse"><stop offset="0" stop-color="#f7f5ef"/><stop offset="1" stop-color="#e7e4d6"/></linearGradient></defs><g id="icon"><polygon id="outline" class="cls-10" points="2.48 3.14 2.48 78.27 25.35 78.27 25.35 71.74 9.01 71.74 9.01 9.67 71.07 9.67 71.07 71.74 54.74 71.74 54.74 78.27 77.61 78.27 77.61 3.14 2.48 3.14"/><path id="m" class="cls-3" d="m59.1,30.8c2.06,2.06,3.15,4.88,3.15,8.5v16.44h-6.53v-15.23c0-4.42-2.35-6.79-5.77-6.79-3.67,0-6.32,2.76-6.32,6.99v15.03h-6.53v-15.18c0-4.27-2.28-6.84-5.75-6.84-3.67,0-6.33,2.76-6.33,7.04v14.98h-6.53v-27.3h6.43v3.92c1.56-2.87,4.73-4.67,8.29-4.67,3.57.05,6.69,1.71,8.14,4.88,1.96-3.07,5.63-4.88,9.8-4.88,3.27,0,5.88,1.06,7.94,3.12"/></g><circle class="cls-8" cx="102.45" cy="41.04" r="4"/><circle class="cls-8" cx="127.62" cy="41.04" r="4"/><circle class="cls-8" cx="177.78" cy="41.04" r="4"/><circle class="cls-8" cx="202.96" cy="41.04" r="4"/><polygon class="cls-8" points="151.3 19.43 161.73 18.37 154.75 35.12 163.96 33.53 141.25 62.5 148.16 41.23 143.24 41.23 151.3 19.43"/><g><path class="cls-5" d="m289.98,18.8c2.69,0,4.9,2.2,4.9,4.9v1.42l-6.81,4.86-23.17,15.96-23.17-16.12v32.25h-1.74c-2.69,0-4.9-2.2-4.9-4.9V23.7c0-2.69,2.2-4.9,4.9-4.9l24.92,18.47,25.08-18.47h0s0,0,0,0Z"/><path class="cls-1" d="m239.98,18.8l24.92,18.47,25.08-18.47h-50Z"/><path class="cls-4" d="m241.73,29.82v32.25h46.35V29.98l-23.17,15.96-23.17-16.12Z"/><path class="cls-7" d="m241.73,62.07l23.17-16.12-.1-.07-23.07,15.84v.35Z"/><path class="cls-6" d="m288.07,29.98v32.09s-23.17-16.12-23.17-16.12l23.17-15.96Z"/><path class="cls-9" d="m294.88,25.12v32.05c-.11,3.56-1.65,4.83-6.79,4.89V29.98s6.79-4.86,6.79-4.86h0s0,0,0,0Z"/><path class="cls-1" d="m239.98,18.8l24.92,18.47,25.08-18.47h-50Z"/><path class="cls-1" d="m239.98,18.8l24.92,18.47,25.08-18.47h-50Z"/><path class="cls-1" d="m239.98,18.8l24.92,18.47,25.08-18.47h-50Z"/><path class="cls-1" d="m239.98,18.8l24.92,18.47,25.08-18.47h-50Z"/><path class="cls-1" d="m239.98,18.8l24.92,18.47,25.08-18.47h-50Z"/><path class="cls-1" d="m239.98,18.8l24.92,18.47,25.08-18.47h-50Z"/><path class="cls-1" d="m239.98,18.8l24.92,18.47,25.08-18.47h-50Z"/><path class="cls-2" d="m239.98,18.8l24.92,18.47,25.08-18.47h-50Z"/></g></svg>