<?xml version="1.0" encoding="UTF-8"?><svg id="Layer_1" xmlns="http://www.w3.org/2000/svg" viewBox="0 0 155 50"><defs><style>.cls-1{fill:#34a853;}.cls-1,.cls-2,.cls-3,.cls-4,.cls-5,.cls-6{stroke-width:0px;}.cls-2{fill:#000;}.cls-3{fill:#4285f4;}.cls-4{fill:#ea4335;}.cls-5{fill:#fbbc04;}.cls-6{fill:#fff;}</style></defs><rect class="cls-6" x="3.24" y="3" width="148.53" height="44.01" rx="5.5" ry="5.5"/><path class="cls-2" d="M146.26,3.88c2.55,0,4.62,2.07,4.62,4.62v33.01c0,2.55-2.07,4.62-4.62,4.62H8.74c-2.55,0-4.62-2.07-4.62-4.62V8.5c0-2.55,2.07-4.62,4.62-4.62h137.53M146.26,3H8.74c-3.03,0-5.5,2.48-5.5,5.5v33.01c0,3.03,2.48,5.5,5.5,5.5h137.53c3.03,0,5.5-2.48,5.5-5.5V8.5c0-3.03-2.48-5.5-5.5-5.5h0Z"/><path class="cls-2" d="M53.42,12.76c-.05-.16-.11-.3-.19-.42s-.18-.23-.3-.31c-.12-.09-.25-.15-.41-.2-.15-.05-.32-.07-.5-.07-.34,0-.64.09-.9.26s-.46.42-.6.74c-.14.32-.22.72-.22,1.19s.07.86.21,1.19c.14.33.34.58.6.75.26.17.57.26.92.26.32,0,.6-.06.82-.17.23-.11.4-.28.52-.49.12-.21.18-.46.18-.74l.29.04h-1.73v-1.07h2.81v.84c0,.59-.12,1.09-.37,1.52-.25.42-.59.75-1.03.98-.44.23-.94.34-1.5.34-.63,0-1.18-.14-1.66-.42-.48-.28-.85-.67-1.11-1.19s-.4-1.12-.4-1.83c0-.54.08-1.03.24-1.45.16-.43.38-.79.67-1.09.29-.3.62-.52,1-.68.38-.15.79-.23,1.23-.23.38,0,.73.06,1.06.17.33.11.62.27.87.47.25.2.46.44.62.71s.27.58.31.91h-1.44Z"/><path class="cls-2" d="M55.98,17.3v-6.71h4.52v1.17h-3.1v1.6h2.87v1.17h-2.87v1.6h3.11v1.17h-4.53Z"/><path class="cls-2" d="M61.38,11.76v-1.17h5.51v1.17h-2.05v5.54h-1.4v-5.54h-2.05Z"/><path class="cls-2" d="M71.35,10.59v6.71h-1.42v-6.71h1.42Z"/><path class="cls-2" d="M72.26,11.76v-1.17h5.51v1.17h-2.05v5.54h-1.4v-5.54h-2.05Z"/><path class="cls-2" d="M86.98,13.95c0,.73-.14,1.35-.41,1.87-.28.51-.65.9-1.13,1.17-.47.27-1.01.41-1.6.41s-1.13-.14-1.6-.41-.85-.66-1.12-1.18-.41-1.13-.41-1.86.14-1.35.41-1.87c.28-.51.65-.9,1.12-1.17.47-.27,1.01-.41,1.6-.41s1.12.14,1.6.41c.47.27.85.66,1.13,1.17.28.51.41,1.13.41,1.87ZM85.54,13.95c0-.47-.07-.87-.21-1.2-.14-.33-.34-.57-.59-.74-.26-.17-.55-.25-.9-.25s-.64.08-.9.25c-.26.17-.45.41-.59.74-.14.32-.21.72-.21,1.2s.07.87.21,1.2c.14.33.34.57.59.74.26.17.55.25.9.25s.64-.08.9-.25c.26-.17.45-.41.59-.74.14-.32.21-.72.21-1.2Z"/><path class="cls-2" d="M93.64,10.59v6.71h-1.22l-2.92-4.22h-.05v4.22h-1.42v-6.71h1.24l2.89,4.22h.06v-4.22h1.41Z"/><path class="cls-2" d="M78.2,26.93c-2.59,0-4.7,1.97-4.7,4.68s2.11,4.68,4.7,4.68,4.7-1.99,4.7-4.68-2.11-4.68-4.7-4.68ZM78.2,34.44c-1.42,0-2.64-1.17-2.64-2.84s1.22-2.84,2.64-2.84,2.64,1.15,2.64,2.84-1.22,2.84-2.64,2.84ZM67.95,26.93c-2.59,0-4.7,1.97-4.7,4.68s2.11,4.68,4.7,4.68,4.7-1.99,4.7-4.68-2.11-4.68-4.7-4.68ZM67.95,34.44c-1.42,0-2.64-1.17-2.64-2.84s1.22-2.84,2.64-2.84,2.64,1.15,2.64,2.84-1.22,2.84-2.64,2.84ZM55.76,28.36v1.99h4.75c-.14,1.12-.51,1.93-1.08,2.5-.69.69-1.77,1.45-3.67,1.45-2.92,0-5.21-2.36-5.21-5.28s2.29-5.28,5.21-5.28c1.58,0,2.73.62,3.58,1.42l1.4-1.4c-1.19-1.13-2.77-2-4.98-2-4.01,0-7.37,3.26-7.37,7.27s3.37,7.27,7.37,7.27c2.16,0,3.79-.71,5.07-2.04,1.31-1.31,1.72-3.16,1.72-4.64,0-.46-.04-.89-.11-1.24h-6.68ZM105.61,29.9c-.39-1.05-1.58-2.98-4.01-2.98s-4.41,1.9-4.41,4.68c0,2.62,1.99,4.68,4.64,4.68,2.14,0,3.39-1.31,3.9-2.07l-1.6-1.06c-.53.78-1.26,1.29-2.3,1.29s-1.79-.48-2.27-1.42l6.26-2.59-.21-.53ZM99.23,31.46c-.05-1.81,1.4-2.73,2.45-2.73.82,0,1.51.41,1.74.99l-4.18,1.74ZM94.14,36h2.06v-13.75h-2.06v13.75ZM90.78,27.97h-.07c-.46-.55-1.35-1.05-2.46-1.05-2.34,0-4.48,2.06-4.48,4.7s2.14,4.66,4.48,4.66c1.12,0,2-.5,2.46-1.06h.07v.67c0,1.79-.96,2.75-2.5,2.75-1.26,0-2.04-.9-2.36-1.67l-1.79.74c.51,1.24,1.88,2.77,4.15,2.77,2.41,0,4.45-1.42,4.45-4.87v-8.4h-1.95v.76ZM88.42,34.44c-1.42,0-2.61-1.19-2.61-2.82s1.19-2.85,2.61-2.85,2.5,1.21,2.5,2.85-1.1,2.82-2.5,2.82ZM115.24,22.25h-4.92v13.75h2.05v-5.21h2.87c2.28,0,4.51-1.65,4.51-4.27s-2.24-4.27-4.51-4.27ZM115.3,28.88h-2.92v-4.71h2.92c1.53,0,2.41,1.27,2.41,2.36s-.87,2.36-2.41,2.36ZM127.98,26.9c-1.49,0-3.03.65-3.66,2.11l1.82.76c.39-.76,1.11-1.01,1.88-1.01,1.06,0,2.14.64,2.16,1.77v.14c-.37-.21-1.17-.53-2.14-.53-1.96,0-3.96,1.08-3.96,3.1,0,1.84,1.61,3.03,3.42,3.03,1.38,0,2.14-.62,2.62-1.34h.07v1.06h1.98v-5.27c0-2.44-1.82-3.8-4.18-3.8ZM127.74,34.44c-.67,0-1.61-.34-1.61-1.17,0-1.06,1.17-1.47,2.18-1.47.9,0,1.33.19,1.88.46-.16,1.27-1.26,2.18-2.44,2.18ZM139.38,27.2l-2.35,5.96h-.07l-2.44-5.96h-2.21l3.66,8.33-2.09,4.64h2.14l5.64-12.97h-2.28ZM120.89,36h2.05v-13.75h-2.05v13.75Z"/><path class="cls-4" d="M26.03,24.37l-11.71,12.43s0,0,0,0c.36,1.35,1.59,2.34,3.06,2.34.58,0,1.13-.16,1.61-.44l.04-.02,13.18-7.61-6.17-6.72Z"/><path class="cls-5" d="M37.88,22.25h-.01s-5.69-3.31-5.69-3.31l-6.41,5.71,6.44,6.43,5.66-3.27c.99-.54,1.67-1.58,1.67-2.79s-.66-2.24-1.65-2.78Z"/><path class="cls-3" d="M14.32,13.2c-.07.26-.11.53-.11.81v21.97c0,.28.04.55.11.81l12.12-12.11-12.12-11.48Z"/><path class="cls-1" d="M26.12,25l6.06-6.06-13.17-7.64c-.48-.29-1.04-.45-1.63-.45-1.46,0-2.7,1-3.06,2.35,0,0,0,0,0,0l11.8,11.8Z"/></svg>