<?xml version="1.0" encoding="UTF-8"?><svg id="Layer_1" xmlns="http://www.w3.org/2000/svg" viewBox="0 0 305.53 80.87"><defs><style>.cls-1{fill:#e6f0fa;}.cls-2{fill:#fff;}.cls-3{fill:#8e8f95;}.cls-4{fill:#438ecc;}.cls-5{fill:#3592d0;}</style></defs><g id="icon"><polygon id="outline" class="cls-5" points="2.48 3.14 2.48 78.27 25.35 78.27 25.35 71.74 9.01 71.74 9.01 9.67 71.07 9.67 71.07 71.74 54.74 71.74 54.74 78.27 77.61 78.27 77.61 3.14 2.48 3.14"/><path id="m" class="cls-1" d="m59.1,30.8c2.06,2.06,3.15,4.88,3.15,8.5v16.44h-6.53v-15.23c0-4.42-2.35-6.79-5.77-6.79-3.67,0-6.32,2.76-6.32,6.99v15.03h-6.53v-15.18c0-4.27-2.28-6.84-5.75-6.84-3.67,0-6.33,2.76-6.33,7.04v14.98h-6.53v-27.3h6.43v3.92c1.56-2.87,4.73-4.67,8.29-4.67,3.57.05,6.69,1.71,8.14,4.88,1.96-3.07,5.63-4.88,9.8-4.88,3.27,0,5.88,1.06,7.94,3.12"/></g><circle class="cls-3" cx="102.45" cy="41.04" r="4"/><circle class="cls-3" cx="127.62" cy="41.04" r="4"/><circle class="cls-3" cx="177.78" cy="41.04" r="4"/><circle class="cls-3" cx="202.96" cy="41.04" r="4"/><polygon class="cls-3" points="151.3 19.43 161.73 18.37 154.75 35.12 163.96 33.53 141.25 62.5 148.16 41.23 143.24 41.23 151.3 19.43"/><g><rect class="cls-4" x="227.49" y="2.94" width="74.99" height="74.99" rx="16" ry="16"/><g><path class="cls-2" d="m267.43,13.18v54.51c-.32-.14-.57-.23-.79-.35-3.92-2.1-7.84-4.2-11.77-6.31-1.33-.71-2.65-1.44-3.99-2.12-.51-.26-.66-.62-.66-1.17.02-2.97,0-5.94,0-8.91,0-8.2.01-16.4-.02-24.6,0-.77.26-1.18.9-1.56,5-2.91,9.99-5.85,14.98-8.77.39-.23.8-.44,1.33-.72Z"/><path class="cls-2" d="m275.51,38.11c0-4.57,0-9.15,0-13.72,0-.19,0-.39,0-.58.02-.44-.21-.61-.63-.6-.61.01-1.22.01-1.82,0-.62-.02-.74-.12-.75-.72-.02-.95,0-1.9,0-2.85,0-.45.2-.67.66-.67,2.07,0,4.14,0,6.2,0,.39,0,.59.17.58.57,0,.19,0,.39,0,.58,0,9,0,18-.02,27-.01,4.89-.08,9.77-.13,14.66,0,.82-.04.86-.88.86-1.85,0-3.7,0-5.55,0-.79,0-.87-.09-.88-.89,0-.83,0-1.65,0-2.48,0-.78.1-.86.9-.87.51,0,1.02-.01,1.53,0,.42,0,.65-.15.63-.6,0-.1,0-.19,0-.29.06-6.47.13-12.94.19-19.4-.02,0-.03,0-.05,0Z"/></g></g></svg>