<?xml version="1.0" encoding="UTF-8"?><svg id="Layer_1" xmlns="http://www.w3.org/2000/svg" viewBox="0 0 305.53 80.87"><defs><style>.cls-1{fill:#e6f0fa;}.cls-2{fill:#f07f3c;}.cls-3{fill:#8e8f95;}.cls-4{fill:#3592d0;}</style></defs><g id="icon"><polygon id="outline" class="cls-4" points="2.48 3.14 2.48 78.27 25.35 78.27 25.35 71.74 9.01 71.74 9.01 9.67 71.07 9.67 71.07 71.74 54.74 71.74 54.74 78.27 77.61 78.27 77.61 3.14 2.48 3.14"/><path id="m" class="cls-1" d="m59.1,30.8c2.06,2.06,3.15,4.88,3.15,8.5v16.44h-6.53v-15.23c0-4.42-2.35-6.79-5.77-6.79-3.67,0-6.32,2.76-6.32,6.99v15.03h-6.53v-15.18c0-4.27-2.28-6.84-5.75-6.84-3.67,0-6.33,2.76-6.33,7.04v14.98h-6.53v-27.3h6.43v3.92c1.56-2.87,4.73-4.67,8.29-4.67,3.57.05,6.69,1.71,8.14,4.88,1.96-3.07,5.63-4.88,9.8-4.88,3.27,0,5.88,1.06,7.94,3.12"/></g><circle class="cls-3" cx="102.45" cy="41.04" r="4"/><circle class="cls-3" cx="127.62" cy="41.04" r="4"/><circle class="cls-3" cx="177.78" cy="41.04" r="4"/><circle class="cls-3" cx="202.96" cy="41.04" r="4"/><polygon class="cls-3" points="151.3 19.43 161.73 18.37 154.75 35.12 163.96 33.53 141.25 62.5 148.16 41.23 143.24 41.23 151.3 19.43"/><path class="cls-2" d="m281.85,29.18v-7.85c2.12-.99,3.47-3.11,3.49-5.45v-.18c0-3.34-2.71-6.05-6.04-6.05h-.18c-3.34,0-6.05,2.71-6.05,6.05v.18c.01,2.34,1.37,4.46,3.49,5.45v7.85c-2.98.46-5.79,1.69-8.14,3.58l-21.53-16.77c.15-.55.23-1.12.24-1.7,0-3.76-3.04-6.82-6.8-6.82-3.76,0-6.82,3.04-6.82,6.8,0,3.76,3.04,6.82,6.8,6.82,0,0,0,0,0,0,1.18,0,2.34-.32,3.35-.91l21.2,16.5c-3.9,5.89-3.79,13.56.26,19.34l-6.45,6.45c-.52-.17-1.06-.26-1.61-.26-3.09,0-5.59,2.51-5.59,5.59,0,3.09,2.5,5.59,5.59,5.59,3.09,0,5.59-2.5,5.59-5.59,0-.55-.1-1.09-.26-1.61l6.38-6.38c5.7,4.39,13.53,4.77,19.62.95,6.1-3.82,9.17-11.03,7.71-18.07-1.46-7.04-7.15-12.43-14.26-13.51m-2.64,25.82c-4.87.13-8.93-3.71-9.06-8.58-.13-4.87,3.71-8.93,8.58-9.06.16,0,.32,0,.47,0,4.75.17,8.51,4.06,8.52,8.82,0,4.75-3.76,8.65-8.51,8.82"/></svg>