<?xml version="1.0" encoding="UTF-8"?><svg id="Layer_1" xmlns="http://www.w3.org/2000/svg" viewBox="0 0 305.53 80.87"><defs><style>.cls-1{fill:#e6f0fa;}.cls-2{fill:#8e8f95;}.cls-3{fill:#dadada;}.cls-4{fill:#3592d0;}</style></defs><g id="icon"><polygon id="outline" class="cls-4" points="2.48 3.14 2.48 78.27 25.35 78.27 25.35 71.74 9.01 71.74 9.01 9.67 71.07 9.67 71.07 71.74 54.74 71.74 54.74 78.27 77.61 78.27 77.61 3.14 2.48 3.14"/><path id="m" class="cls-1" d="m59.1,30.8c2.06,2.06,3.15,4.88,3.15,8.5v16.44h-6.53v-15.23c0-4.42-2.35-6.79-5.77-6.79-3.67,0-6.32,2.76-6.32,6.99v15.03h-6.53v-15.18c0-4.27-2.28-6.84-5.75-6.84-3.67,0-6.33,2.76-6.33,7.04v14.98h-6.53v-27.3h6.43v3.92c1.56-2.87,4.73-4.67,8.29-4.67,3.57.05,6.69,1.71,8.14,4.88,1.96-3.07,5.63-4.88,9.8-4.88,3.27,0,5.88,1.06,7.94,3.12"/></g><circle class="cls-2" cx="102.45" cy="41.04" r="4"/><circle class="cls-2" cx="127.62" cy="41.04" r="4"/><circle class="cls-2" cx="177.78" cy="41.04" r="4"/><circle class="cls-2" cx="202.96" cy="41.04" r="4"/><polygon class="cls-2" points="151.3 19.43 161.73 18.37 154.75 35.12 163.96 33.53 141.25 62.5 148.16 41.23 143.24 41.23 151.3 19.43"/><g><path class="cls-3" d="m270.81,8.47c4.83,0,9.66,0,14.49,0,1.1,0,1.98.35,2.76,1.14,2.6,2.64,5.23,5.26,7.86,7.86.58.58.88,1.19.87,2.04-.03,3.24-.01,6.48-.01,9.73,0,.15,0,.31,0,.46.01.37-.1.57-.53.57-1.12-.02-2.24,0-3.36-.01-.63-.01-.77-.17-.78-.86-.01-2.05,0-4.09,0-6.14,0-.96-.04-1.92-.06-2.88-.65-.66-1.29-1.33-1.94-1.99-.3-.3-.59-.62-.9-.9-.4-.35-.78-.23-.92.31-.08.29-.07.61-.07.91,0,3.4,0,6.79,0,10.19,0,.31,0,.62,0,.93,0,.27-.12.43-.42.43-1.2,0-2.39,0-3.59,0-.42,0-.63-.24-.65-.65-.01-.27,0-.54,0-.81,0-4.82,0-9.65,0-14.47,0-.98-.1-1.09-1.07-1.19-.23-.02-.46,0-.69,0-8.42,0-16.84-.04-25.26.02-2.87.02-5.64.62-8.26,1.92-2.02,1-3.83,2.25-5.35,3.86-1.95,2.06-3.51,4.41-4.31,7.2-.29,1.02-.71,2.01-.72,3.1,0,.18-.17.35-.18.54-.02.41-.24.51-.61.5-1.12-.01-2.24,0-3.36-.01-.46,0-.63-.24-.58-.73.34-3.33,1.29-6.45,3.02-9.35,1.29-2.17,2.84-4.11,4.72-5.76,1.34-1.18,2.79-2.23,4.4-3.08,2.45-1.29,5.05-2.04,7.73-2.61.04,0,.08,0,.12,0,1.34-.08,2.68-.22,4.02-.23,4.56-.03,9.12-.01,13.68-.01h0Z"/><path class="cls-3" d="m258.84,72.4c-4.83,0-9.66-.02-14.49.01-1.04,0-1.85-.34-2.56-1.07-1.11-1.13-2.24-2.24-3.36-3.36-1.25-1.25-2.51-2.5-3.76-3.76-.4-.4-.83-.79-1.17-1.23-.32-.42-.56-.86-.55-1.46.04-3.36.02-6.72.02-10.07,0-.15-.04-.33.02-.46.07-.15.22-.36.34-.36,1.24-.03,2.47-.03,3.71-.02.36,0,.57.22.6.57.02.27,0,.54,0,.81,0,2.59.03,5.17-.02,7.76-.01.61.24,1.05.6,1.42.69.72,1.44,1.39,2.19,2.05.18.16.55.38.66.3.22-.13.36-.45.45-.71.07-.21.02-.46.02-.69,0-3.2-.01-6.41.01-9.61,0-.48-.19-.95-.03-1.45.1-.31.19-.47.52-.46,1.16,0,2.32-.01,3.48,0,.51.01.65.18.68.72.02.23,0,.46,0,.69,0,4.48,0,8.96,0,13.43,0,.35,0,.69,0,1.04,0,1.22.01,1.23,1.22,1.23,8.38,0,16.77,0,25.15,0,2.24,0,4.48-.24,6.58-.97,2.42-.84,4.66-2.05,6.6-3.83,1.45-1.33,2.69-2.79,3.71-4.45,1.07-1.73,1.78-3.61,2.18-5.6.1-.48.16-.97.24-1.46.11-.66.28-.81.99-.82,1.04,0,2.09-.01,3.13,0,.46,0,.67.24.63.7-.24,2.32-.77,4.55-1.69,6.71-.7,1.63-1.55,3.15-2.57,4.58-1.16,1.63-2.55,3.04-4.08,4.34-1.71,1.46-3.62,2.55-5.65,3.47-1.7.77-3.49,1.25-5.34,1.56-2.36.4-4.72.44-7.1.43-3.79-.01-7.57,0-11.36,0Z"/><path class="cls-3" d="m265.16,30.25c-4.44,0-8.88,0-13.32,0-.32,0-.74.17-.95-.2-.23-.39.03-.76.23-1.07,1.42-2.15,3.38-3.39,6.02-3.39,5.1,0,10.2,0,15.29,0,.27,0,.55.05.81-.02.2-.05.45-.2.52-.37.35-.84.67-1.69.94-2.56.2-.62-.07-.93-.75-.94-.97-.02-1.93,0-2.9,0-4.83,0-9.65-.02-14.48,0-2.43.01-4.61.77-6.56,2.29-1.87,1.46-2.96,3.33-3.54,5.57-.16.6-.22.68-.84.69-1.08.02-2.16.02-3.24,0-.7-.01-.82-.23-.68-.94.24-1.2.54-2.38,1.07-3.47.64-1.29,1.34-2.56,2.33-3.66,1.51-1.68,3.26-3.02,5.34-3.91,1.23-.52,2.49-.87,3.83-1.07,1.69-.26,3.38-.17,5.06-.17,6.37-.02,12.74,0,19.12,0,1.31,0,1.39.08,1.39,1.35,0,3.55,0,7.1,0,10.65,0,.23.06.49-.03.69-.1.21-.31.44-.52.51-.28.09-.61.03-.92.03-4.4,0-8.81,0-13.21,0Z"/><path class="cls-3" d="m264.58,50.61c4.48,0,8.96,0,13.44,0,1.01,0,1.17.27.67,1.16-.82,1.46-2.04,2.45-3.6,3.04-.91.34-1.83.48-2.8.48-4.94-.02-9.89-.01-14.83-.01-.31,0-.63-.04-.92.02-.2.04-.46.19-.53.36-.35.84-.67,1.69-.95,2.56-.2.62.06.93.74.96.5.02,1,0,1.51,0,5.37,0,10.74.03,16.1-.01,2.83-.02,5.3-1.08,7.29-3.09,1.31-1.31,2.16-2.93,2.59-4.75.15-.64.21-.7.83-.71,1.08-.01,2.16-.02,3.24,0,.71.01.73.11.62.91-.51,3.57-2.33,6.42-4.98,8.77-1.89,1.67-4.15,2.69-6.59,3.27-.81.19-1.66.26-2.5.27-7.57.02-15.14.02-22.71.01-1.03,0-1.28-.26-1.28-1.3,0-3.55,0-7.1,0-10.65,0-.08,0-.15,0-.23.05-.9.19-1.04,1.1-1.04,4.52,0,9.04,0,13.55,0h0Z"/><path class="cls-3" d="m252.02,40.37c.09,1.24-.17,2.38-.75,3.44-.75,1.35-1.9,2.1-3.41,2.45-1.19.27-2.35.26-3.5-.04-1-.26-1.9-.72-2.57-1.59-1.01-1.3-1.39-2.81-1.33-4.37.06-1.69.49-3.33,1.81-4.54.62-.57,1.39-.89,2.23-1.1.76-.19,1.51-.26,2.27-.2,1.14.09,2.24.34,3.21,1.04.74.54,1.26,1.22,1.57,2.04.35.93.6,1.89.48,2.88Zm-5.81-2.71c-.57-.01-1.08.15-1.36.68-.65,1.22-.64,2.51-.2,3.77.25.72,1.27,1.2,2,1.07.74-.14,1.29-.8,1.42-1.61.12-.75.04-1.5-.01-2.25-.07-1.02-.82-1.66-1.84-1.65Z"/><path class="cls-3" d="m255.01,40.36c0-1.58,0-3.16,0-4.74,0-.9.09-.98.99-.99,1.58,0,3.16-.02,4.74,0,.88.01,1.75.2,2.49.68,1.38.9,1.58,2.96.5,4.19-.42.47-.43.53,0,.9,1.28,1.06,1.22,2.42.74,3.76-.25.69-.91,1.27-1.67,1.51-.79.25-1.61.47-2.43.51-1.5.08-3,.03-4.51.02-.73,0-.86-.14-.86-.89-.01-1.66,0-3.31,0-4.97Zm4.51,3.06s0,.04.01.06c.37-.07.75-.11,1.11-.21.43-.12.57-.49.6-.88.03-.33-.31-.68-.72-.79-.29-.08-.59-.16-.88-.21-.87-.14-1.11.07-1.13.94,0,.23.01.46,0,.69-.02.32.16.4.43.39.19,0,.39,0,.58,0Zm-.14-4.41c.23,0,.47.03.69,0,.54-.08.75-.33.74-.82,0-.42-.21-.68-.69-.73-.42-.05-.85-.04-1.27,0-.12.01-.3.21-.32.35-.05.3-.03.62,0,.92.01.11.16.25.27.28.18.05.38.01.57.01Z"/><path class="cls-3" d="m267.75,40.43c0-1.7,0-3.39,0-5.09,0-.68.02-.7.72-.7,1.62,0,3.24-.05,4.86.02.74.03,1.5.23,2.21.49,1.62.58,1.78,2.52,1.32,3.56-.11.24-.22.49-.34.72-.12.23-.38.46-.36.67.02.2.35.34.5.55.79,1.08.85,2.25.42,3.48-.42,1.21-1.45,1.62-2.53,1.86-2.01.45-4.06.18-6.09.23-.55.01-.7-.19-.71-.81-.01-1.66,0-3.32,0-4.97h0Zm4.41,2.98s0,.04,0,.06c.33-.06.67-.1,1-.19.4-.12.66-.36.63-.83-.03-.45-.31-.7-.68-.83-.35-.12-.74-.18-1.11-.22-.41-.05-.79.21-.92.55-.1.26.1,1.29.28,1.41.06.04.14.06.21.06.19,0,.39,0,.58,0Zm.01-5.98h0c-.08,0-.15,0-.23,0-.91.02-1.19.54-.69,1.34.07.11.21.22.33.23.38.02.76.03,1.14-.02.34-.04.81-.58.81-.84,0-.32-.44-.67-.9-.7-.15-.01-.3,0-.46,0Z"/><path class="cls-3" d="m292.11,40.43c0-1.62,0-3.24,0-4.85,0-.84.09-.93.92-.94,1.47-.01,2.94-.08,4.39.02,1.11.08,2.27.17,3.17,1.06.39.38.71.74.85,1.29.4,1.59.44,3.1-.85,4.36-.46.46-.42.47-.09,1.06.51.94,1.01,1.88,1.48,2.84.27.55.07.91-.53.94-.73.03-1.47.03-2.2,0-.44-.02-.77-.22-.97-.66-.4-.86-.87-1.7-1.28-2.56-.15-.32-.34-.48-.7-.47-.46,0-.66.14-.67.59-.02.73,0,1.46,0,2.2-.01.77-.12.89-.84.91-.62.02-1.23.02-1.85,0-.67-.02-.81-.14-.81-.81-.01-1.66,0-3.31,0-4.97Zm4.52-.71c.12,0,.23,0,.35,0,.79-.03,1.15-.31,1.16-.96,0-.85-.17-1.01-1-1.27-.12-.04-.28.03-.41.01-1-.12-1.09-.06-1.1.89,0,.27.02.54,0,.81-.04.44.18.54.55.51.15-.01.31,0,.46,0Z"/><path class="cls-3" d="m280.29,40.31c0-1.62,0-3.24,0-4.86,0-.67.14-.81.82-.81,2.39-.01,4.78-.01,7.18,0,.57,0,.59.02.6.58.01.65,0,1.31,0,1.97,0,.35-.17.47-.49.47-1.23,0-2.47,0-3.7,0-.67,0-.71.07-.67.73.02.28.11.43.41.42.23,0,.46,0,.69,0,.85,0,1.7,0,2.55,0,.72,0,.93.2.98.94.03.46.02.93,0,1.39-.03.52-.18.66-.71.69-.31.02-.62,0-.93,0-.77,0-1.54,0-2.31,0-.68,0-.68.02-.67.73,0,.08,0,.15,0,.23-.02.3.13.41.41.4.27,0,.54,0,.81,0,1.08,0,2.16-.01,3.24,0,.63,0,.64.02.64.66,0,.46.02.93-.04,1.39-.11.75-.38.97-1.15.97-2.24,0-4.47,0-6.71,0-.08,0-.15,0-.23,0-.51-.05-.66-.2-.7-.71-.02-.23,0-.46,0-.69,0-1.5,0-3.01,0-4.51h0Z"/><path class="cls-3" d="m233.9,38.35c0-1.04-.01-2.08,0-3.13,0-.55.04-.58.6-.59.81-.01,1.62-.02,2.43,0,.53.02.69.17.69.7.01,2.16.02,4.32,0,6.48,0,.56-.07,1.16-.26,1.68-.48,1.33-1.42,2.27-2.78,2.7-1.52.48-3.02.26-4.48-.27-.73-.26-1.16-.86-1.55-1.48-.46-.73-.7-1.51-.68-2.38,0-.42.18-.53.56-.52.66.01,1.31,0,1.97,0,.35,0,.75-.07,1.02.08.19.1.18.54.29.81.19.46.53.73,1.05.73.48,0,.75-.21.93-.83.11-.4.19-.82.2-1.23.03-.93,0-1.85,0-2.78h0Z"/></g></svg>