<svg width="120" height="131" viewBox="0 0 120 131" fill="none" xmlns="http://www.w3.org/2000/svg">
<g clip-path="url(#clip0_2046_3614)">
<path d="M2.63486 130.675V122.461H4.22879C5.62754 122.461 6.50583 122.461 7.31906 124.247L10.1491 130.643H13.1743L9.66115 123.273C9.07563 122.137 8.68528 121.747 7.87205 121.423C10.019 121.065 11.678 119.475 11.678 117.202C11.678 112.787 8.16481 112.202 4.48902 112.202H0V130.675H2.63486ZM4.9119 120.156H2.63486V114.54H5.20466C7.64435 114.54 8.91298 115.611 8.91298 117.267C8.91298 119.053 7.41664 120.156 4.9119 120.156Z" fill="#2A303C"/>
<path d="M19.1272 112.202H16.4923V130.675H19.1272V112.202Z" fill="#2A303C"/>
<path d="M32.8869 131C33.9604 131 35.6844 130.935 37.1157 130.351L36.9531 127.786C36.0422 128.338 34.2531 128.695 32.9194 128.695C29.081 128.695 25.9582 125.805 25.9582 121.455C25.9582 117.105 28.7882 114.215 33.0496 114.215C34.4158 114.215 35.6844 114.572 36.8555 115.254L37.0832 112.689C35.7495 112.105 34.3507 111.91 32.9194 111.91C27.2919 111.91 23.1282 115.709 23.1282 121.39C23.1282 127.072 27.0317 131 32.8869 131Z" fill="#2A303C"/>
<path d="M48.3058 131C53.9333 131 57.2188 127.039 57.2188 121.455C57.2188 115.871 53.9333 111.91 48.3058 111.91C42.6783 111.91 39.3928 116.001 39.3928 121.455C39.3928 126.942 42.6783 131 48.3058 131ZM48.3058 128.662C44.0445 128.662 42.2229 125.124 42.2229 121.423C42.2229 117.754 44.2397 114.183 48.3058 114.183C52.372 114.15 54.3888 117.656 54.3888 121.423C54.3888 125.221 52.5671 128.662 48.3058 128.662Z" fill="#2A303C"/>
<path d="M63.074 130.675V122.267H71.9219V130.675H74.5568V112.202H71.9219V119.929H63.074V112.202H60.4066V130.675H63.074Z" fill="#2A303C"/>
<path d="M82.2336 131C85.8769 131 89.5201 129.994 89.5201 125.773C89.5201 123.143 87.8611 121.682 85.3889 121.195V121.13C87.5033 120.741 89.3575 119.247 89.3575 116.91C89.3575 113.403 86.56 111.878 83.2745 111.878C81.7131 111.878 79.859 112.235 78.6229 112.689L78.7855 115.059C79.8915 114.507 81.2252 114.053 82.8842 114.053C84.8034 114.053 86.5275 114.832 86.5275 116.975C86.5275 119.345 83.8601 119.994 81.9408 119.994H80.4445V122.169H82.071C84.4456 122.169 86.6901 122.948 86.6901 125.676C86.6901 128.046 84.1854 128.825 82.2011 128.825C80.6072 128.825 79.1108 128.305 78.1349 127.818L77.9723 130.286C79.1759 130.643 80.7698 131 82.2336 131Z" fill="#2A303C"/>
<path d="M98.7911 131C102.142 131 104.711 128.695 104.711 124.896C104.711 121.585 102.727 119.085 99.1489 119.085C97.62 119.085 96.3514 119.572 95.0827 120.773L95.0177 120.806C95.0827 117.267 96.7417 114.085 100.19 114.085C101.393 114.085 102.532 114.345 103.475 114.864L103.833 112.494C103.183 112.202 101.296 111.91 100.027 111.91C94.1719 111.91 92.5129 117.137 92.5129 122.169C92.578 126.357 93.6189 131 98.7911 131ZM98.6284 128.825C96.449 128.825 95.3755 126.682 95.3755 124.929C95.3755 122.851 96.6116 121.228 98.8236 121.228C101.036 121.228 101.914 123.208 101.914 124.929C101.914 126.942 100.873 128.825 98.6284 128.825Z" fill="#2A303C"/>
<path d="M113.689 131C118.796 131 119.967 125.481 119.967 121.455C119.967 117.429 118.796 111.91 113.689 111.91C108.582 111.91 107.411 117.429 107.411 121.455C107.444 125.513 108.582 131 113.689 131ZM113.689 128.825C110.567 128.825 110.241 123.955 110.209 121.585V121.423C110.209 119.085 110.632 114.02 113.689 114.02C116.747 114.02 117.17 119.085 117.17 121.423C117.17 123.76 116.877 128.825 113.689 128.825Z" fill="#2A303C"/>
<path d="M91.8949 18.6354C85.6818 15.259 75.4677 19.7717 68.0836 24.3819C61.1874 28.6999 53.8358 34.6411 46.8746 41.6213C43.9144 44.5757 41.1169 47.66 38.5471 50.6793C28.5606 37.3033 25.2101 27.7584 29.8293 23.343C37.7989 15.7135 46.289 13.0188 52.0792 11.8176C58.585 10.454 65.2535 10.1294 71.8244 10.941C72.3774 11.0059 72.5075 10.6164 72.0846 10.3566C66.6523 6.81784 55.2996 2.04535 48.5661 0.0973928C48.4685 0.0649269 47.948 -0.0974027 47.8179 0.0649269C47.6878 0.227257 47.8504 0.422052 47.9155 0.486984C49.3142 1.94795 53.7707 6.13605 50.5178 6.9477C49.607 7.17496 47.1348 7.88921 46.2565 8.14894C25.633 14.285 11.4828 33.2126 11.4503 54.7051C11.4503 71.0679 20.1681 87.0087 28.6257 91.0669C34.6111 93.9239 44.5325 89.6384 51.884 85.0607C54.5514 83.4049 57.2514 81.5219 59.9838 79.4116C62.7162 81.5219 65.4487 83.4049 68.0836 85.0607C75.4677 89.6709 82.6241 93.2746 89.3901 91.6838C97.1321 89.8657 108.55 73.5678 108.55 54.7051C108.55 41.5888 102.044 24.1222 91.8949 18.6354ZM23.6162 75.8079C23.421 76.5871 23.2909 77.3663 23.2259 78.1455C23.2259 78.1455 23.2259 78.1455 23.2259 78.1779C23.2259 78.1779 23.2259 78.1779 23.2259 78.1455C22.9006 77.6585 22.4452 76.8793 22.1849 76.3598C18.867 70.029 16.6225 62.6917 16.6225 54.5427C16.6225 46.8159 18.6718 39.1864 22.6078 32.5308C22.803 32.1737 23.3885 31.2647 23.4861 31.005C23.4536 31.8491 23.5186 32.6932 23.6813 33.5373C24.2993 36.4268 25.1126 38.1475 27.1294 41.9135C29.5365 46.3289 32.3015 50.5494 35.3918 54.5427C32.0413 58.8932 29.2438 63.1787 27.1294 67.172C25.2101 70.9056 24.2668 73.4379 23.6162 75.8079ZM29.0811 85.4503C25.2101 81.6193 29.3088 70.9056 38.417 58.7958C40.9868 61.8151 43.7518 64.8669 46.7119 67.8213C49.6721 70.7757 52.7298 73.5678 55.755 76.1326C46.7444 82.918 33.7653 90.028 29.0811 85.4503ZM50.5503 64.2825C47.395 61.1009 44.4674 57.8543 41.8651 54.7051C44.4674 51.5234 47.395 48.3093 50.5503 45.1276C64.3427 31.2322 81.6157 20.1289 89.0648 22.6937C98.4007 25.9078 86.6252 47.2379 69.645 64.315C66.4571 67.4967 63.2692 70.4186 60.1139 73.0483C56.9261 70.3861 53.7057 67.4642 50.5503 64.2825ZM88.4143 86.9113C83.1771 88.6644 72.8979 83.1452 63.8873 76.3274C66.945 73.7626 69.9702 70.9705 72.9629 67.9836C81.5506 59.3802 88.5769 50.1923 92.8382 42.1083C94.79 38.3747 95.7333 35.7125 96.3514 33.4074C96.5791 32.6283 96.7092 31.8166 96.7417 31.005C97.067 31.5893 97.5875 32.5958 98.0104 33.4074C101.328 40.0629 103.378 46.5886 103.378 54.77C103.345 71.0679 93.749 85.1256 88.4143 86.9113Z" fill="#2A303C"/>
</g>
<defs>
<clipPath id="clip0_2046_3614">
<rect width="120" height="131" fill="white"/>
</clipPath>
</defs>
</svg>
