<?xml version="1.0" encoding="UTF-8"?><svg id="Layer_1" xmlns="http://www.w3.org/2000/svg" viewBox="0 0 208 50"><defs><style>.cls-1{fill:#161616;}.cls-1,.cls-2{stroke-width:0px;}.cls-2{fill:#09e;}</style></defs><g id="logotype"><path class="cls-1" d="M77.52,19.48c1.15,1.15,1.76,2.71,1.76,4.73v9.15h-3.64v-8.48c0-2.46-1.31-3.78-3.21-3.78-2.04,0-3.52,1.54-3.52,3.89v8.37h-3.64v-8.45c0-2.38-1.27-3.81-3.2-3.81-2.04,0-3.53,1.54-3.53,3.92v8.34h-3.64v-15.19h3.58v2.18c.87-1.59,2.63-2.6,4.62-2.6,1.99.03,3.72.95,4.53,2.71,1.09-1.71,3.13-2.71,5.46-2.71,1.82,0,3.27.59,4.42,1.73"/><path class="cls-1" d="M93.27,22.48c-.84-.9-1.9-1.34-3.22-1.34s-2.38.45-3.22,1.34c-.81.9-1.23,1.99-1.23,3.27s.42,2.41,1.23,3.3c.84.9,1.9,1.34,3.22,1.34s2.38-.45,3.22-1.34c.84-.9,1.26-1.99,1.26-3.3s-.42-2.38-1.26-3.27M94.45,18.17h3.47v15.19h-3.47v-1.87c-1.32,1.48-2.97,2.24-4.95,2.24-2.18,0-3.97-.76-5.4-2.29-1.43-1.54-2.13-3.47-2.13-5.74s.7-4.17,2.13-5.65,3.25-2.24,5.4-2.24c1.93,0,3.58.76,4.95,2.29v-1.93Z"/><path class="cls-1" d="M112.1,28.91c.84-.87,1.26-1.96,1.26-3.27s-.42-2.38-1.26-3.22c-.84-.87-1.9-1.29-3.16-1.29s-2.35.42-3.19,1.29c-.84.84-1.26,1.9-1.26,3.22s.42,2.41,1.26,3.27c.84.87,1.9,1.29,3.19,1.29s2.32-.42,3.16-1.29M113.36,18.17h3.41v13.68c0,2.43-.78,4.36-2.32,5.79-1.54,1.43-3.55,2.15-6.04,2.15s-4.87-.73-6.91-2.18l1.48-2.77c1.71,1.2,3.5,1.79,5.34,1.79,3.11,0,4.92-1.82,4.92-4.42v-.9c-1.23,1.37-2.85,2.07-4.84,2.07-2.21,0-4.03-.73-5.46-2.21-1.43-1.48-2.13-3.33-2.13-5.57s.73-4.14,2.21-5.6c1.48-1.48,3.33-2.21,5.51-2.21,1.93,0,3.55.73,4.81,2.18v-1.82Z"/><path class="cls-1" d="M124.01,33.36h-3.67v-15.19h3.67v15.19ZM119.87,14.06c0-1.32,1.04-2.29,2.35-2.29s2.29.98,2.29,2.29-.98,2.29-2.29,2.29-2.35-.95-2.35-2.29"/><path class="cls-1" d="M129.07,31.46c-1.48-1.48-2.24-3.39-2.24-5.71s.76-4.23,2.27-5.71c1.51-1.48,3.47-2.24,5.88-2.24,3.11,0,5.82,1.51,7.05,4.17l-2.97,1.59c-.9-1.48-2.35-2.41-4.03-2.41-1.32,0-2.41.45-3.27,1.31-.87.87-1.29,1.96-1.29,3.27s.42,2.41,1.26,3.27c.84.87,1.9,1.32,3.19,1.32,1.68,0,3.33-.95,4.09-2.38l2.97,1.73c-1.32,2.43-4,4-7.11,4-2.35,0-4.28-.76-5.79-2.24"/><path class="cls-1" d="M149.31,29.08c.81.87,1.87,1.31,3.19,1.31s2.38-.45,3.19-1.31c.81-.9,1.23-1.99,1.23-3.3s-.42-2.41-1.23-3.27c-.81-.9-1.87-1.34-3.19-1.34s-2.38.45-3.19,1.34c-.81.9-1.23,1.99-1.23,3.27s.42,2.41,1.23,3.3M158.45,20.13c1.43,1.54,2.13,3.41,2.13,5.62s-.73,4.14-2.15,5.68c-1.43,1.54-3.22,2.29-5.37,2.29-1.93,0-3.58-.76-4.9-2.27v8.14h-3.67v-21.43h3.64v2.01c1.32-1.59,2.97-2.38,4.95-2.38,2.15,0,3.95.78,5.37,2.32"/><rect class="cls-1" x="163.46" y="12.1" width="3.64" height="21.27"/><path class="cls-1" d="M181.32,22.48c-.84-.9-1.9-1.34-3.22-1.34s-2.38.45-3.22,1.34c-.81.9-1.23,1.99-1.23,3.27s.42,2.41,1.23,3.3c.84.9,1.9,1.34,3.22,1.34s2.38-.45,3.22-1.34c.84-.9,1.26-1.99,1.26-3.3s-.42-2.38-1.26-3.27M182.49,18.17h3.47v15.19h-3.47v-1.87c-1.32,1.48-2.97,2.24-4.95,2.24-2.18,0-3.97-.76-5.4-2.29-1.43-1.54-2.13-3.47-2.13-5.74s.7-4.17,2.13-5.65,3.25-2.24,5.4-2.24c1.93,0,3.58.76,4.95,2.29v-1.93Z"/><path class="cls-1" d="M189.68,33.36v-15.19h3.58v2.13c.81-1.54,2.57-2.52,4.78-2.52,1.65,0,3.08.56,4.23,1.65,1.15,1.09,1.73,2.63,1.73,4.67v9.26h-3.66v-8.25c0-2.55-1.31-4-3.33-4-2.15,0-3.69,1.68-3.69,4.06v8.2h-3.64Z"/></g><g id="icon"><polygon id="outline" class="cls-2" points="4 4.09 4 45.91 16.73 45.91 16.73 42.27 7.64 42.27 7.64 7.73 42.18 7.73 42.18 42.27 33.09 42.27 33.09 45.91 45.82 45.91 45.82 4.09 4 4.09"/><path id="m" class="cls-1" d="M35.52,19.48c1.15,1.15,1.76,2.71,1.76,4.73v9.15h-3.64v-8.48c0-2.46-1.31-3.78-3.21-3.78-2.04,0-3.52,1.54-3.52,3.89v8.37h-3.64v-8.45c0-2.38-1.27-3.81-3.2-3.81-2.04,0-3.53,1.54-3.53,3.92v8.34h-3.64v-15.19h3.58v2.18c.87-1.59,2.63-2.6,4.62-2.6,1.99.03,3.72.95,4.53,2.71,1.09-1.71,3.13-2.71,5.46-2.71,1.82,0,3.27.59,4.42,1.73"/></g></svg>