<?xml version="1.0" encoding="UTF-8"?><svg id="Layer_1" xmlns="http://www.w3.org/2000/svg" viewBox="0 0 305.53 80.87"><defs><style>.cls-1{fill:#e6f0fa;}.cls-2{fill:#fff;}.cls-3{fill:#8e8f95;}.cls-4{fill:#224f9e;}.cls-5{fill:#3592d0;}</style></defs><g id="icon"><polygon id="outline" class="cls-5" points="2.48 3.14 2.48 78.27 25.35 78.27 25.35 71.74 9.01 71.74 9.01 9.67 71.07 9.67 71.07 71.74 54.74 71.74 54.74 78.27 77.61 78.27 77.61 3.14 2.48 3.14"/><path id="m" class="cls-1" d="m59.1,30.8c2.06,2.06,3.15,4.88,3.15,8.5v16.44h-6.53v-15.23c0-4.42-2.35-6.79-5.77-6.79-3.67,0-6.32,2.76-6.32,6.99v15.03h-6.53v-15.18c0-4.27-2.28-6.84-5.75-6.84-3.67,0-6.33,2.76-6.33,7.04v14.98h-6.53v-27.3h6.43v3.92c1.56-2.87,4.73-4.67,8.29-4.67,3.57.05,6.69,1.71,8.14,4.88,1.96-3.07,5.63-4.88,9.8-4.88,3.27,0,5.88,1.06,7.94,3.12"/></g><circle class="cls-3" cx="102.45" cy="41.04" r="4"/><circle class="cls-3" cx="127.62" cy="41.04" r="4"/><circle class="cls-3" cx="177.78" cy="41.04" r="4"/><circle class="cls-3" cx="202.96" cy="41.04" r="4"/><polygon class="cls-3" points="151.3 19.43 161.73 18.37 154.75 35.12 163.96 33.53 141.25 62.5 148.16 41.23 143.24 41.23 151.3 19.43"/><g><rect class="cls-2" x="227.49" y="2.94" width="74.99" height="74.99" rx="16" ry="16"/><g><path class="cls-4" d="m271.55,54.09c-4.67,0-9.34,0-14,0-.26,0-.51-.04-.76-.08-.65-.11-1.27-.33-1.87-.6-.45-.2-.87-.48-1.26-.8-.34-.27-.7-.53-.99-.84-.35-.38-.59-.84-.8-1.31-.18-.4-.32-.82-.42-1.25-.11-.47-.24-.94-.25-1.43,0-.36-.08-.73-.07-1.09.03-.85.16-1.69.51-2.47.05-.11.09-.22.14-.34.23-.62.67-1.08,1.16-1.5.25-.21.48-.45.76-.62.41-.26.84-.49,1.29-.69.36-.17.75-.3,1.14-.4.33-.09.68-.13,1.03-.19.24-.04.48-.05.72-.09.04,0,.08-.09.1-.14.13-.43.17-.89.31-1.33.13-.39.25-.79.41-1.17.38-.91.86-1.77,1.44-2.57.25-.35.53-.67.89-.94.32-.24.61-.53.95-.76.17-.11.33-.22.51-.32.78-.43,1.61-.78,2.47-.97.52-.11,1.06-.23,1.61-.2.34.02.69,0,1.03,0,.9,0,1.75.24,2.59.55.55.2,1.05.5,1.55.78.28.16.53.37.78.58.34.29.68.59.99.91.32.32.61.66.91,1,.14.16.17.17.37.09.34-.13.68-.26,1.02-.38.51-.17,1.03-.28,1.57-.33.31-.03.62-.06.93-.07.64,0,1.26.12,1.87.27,1,.26,1.92.72,2.74,1.34.44.34.82.76,1.17,1.21.35.45.68.91.93,1.42.27.57.43,1.18.56,1.8.1.46.07.92.08,1.38,0,.24,0,.23.27.32.75.26,1.49.55,2.13,1.03.62.46,1.13,1.01,1.52,1.68.22.38.43.77.56,1.2.12.43.24.85.23,1.31,0,.17-.03.35.06.52.04.09-.06.23-.06.35,0,.53-.13,1.04-.27,1.55-.09.35-.26.68-.44,1-.24.42-.52.82-.84,1.19-.45.54-1.06.79-1.68,1.04-.33.13-.69.23-1.04.32-.13.03-.27.02-.41.02-4.71,0-9.42,0-14.13,0h0Z"/><path class="cls-4" d="m247.98,51.95c-.48,0-.96.02-1.44,0-1.03-.05-2.03-.19-2.96-.71-.5-.28-.98-.56-1.42-.93-.42-.35-.84-.7-1.19-1.12-.47-.58-.89-1.19-1.13-1.9-.1-.3-.11-.63-.19-.94-.16-.64-.07-1.28-.07-1.92,0-.29.09-.58.15-.87.08-.37.16-.73.25-1.1.16-.69.5-1.3.94-1.85.26-.33.53-.65.86-.91.58-.45,1.2-.81,1.88-1.08.57-.23,1.15-.44,1.77-.51.17-.02.24-.12.23-.31-.02-.27.03-.53-.05-.81-.05-.18.03-.4.06-.59.13-.94.23-1.89.71-2.75.33-.59.59-1.22,1.01-1.75.16-.2.29-.43.47-.61.4-.41.77-.86,1.25-1.18.24-.16.47-.31.72-.45.34-.19.67-.39,1.03-.54.38-.16.79-.26,1.18-.38.09-.03.18-.06.27-.07.34-.06.69-.14,1.03-.17.59-.05,1.17,0,1.75.09.57.09,1.13.22,1.67.43.38.14.76.25,1.14.39.15.06.25.03.33-.1.25-.37.5-.74.77-1.09.26-.34.54-.67.82-.99.15-.18.33-.33.49-.5.49-.5,1.06-.89,1.65-1.24.28-.16.57-.3.85-.47.73-.43,1.53-.65,2.34-.87.45-.12.92-.23,1.4-.2.27.02.54-.09.8-.06.67.06,1.34.09,2.01.21.87.17,1.68.46,2.48.8.41.17.82.34,1.2.57.5.3.96.66,1.43.99.49.34.89.78,1.28,1.21.35.39.67.81.91,1.29.17.34.39.65.56.98.3.6.58,1.22.81,1.85.22.58.34,1.18.48,1.78.04.16-.04.27-.21.27-.26,0-.52,0-.78,0-.24,0-.48,0-.72.08-.33.11-.68.12-1.02.24-.24.08-.48.17-.7.29-.14.08-.23.06-.32-.04-.34-.38-.67-.77-1.02-1.14-.22-.24-.45-.47-.71-.66-.76-.57-1.57-1.06-2.47-1.37-.56-.2-1.15-.34-1.75-.45-.24-.04-.48-.06-.72-.08-.13,0-.26-.05-.4-.06-.16-.01-.34-.06-.49,0-.31.1-.62.07-.93.07-.49,0-.97.08-1.45.15-.4.06-.79.15-1.18.27-1.02.32-1.97.79-2.82,1.44-.38.3-.81.55-1.13.94-.44.55-.96,1.03-1.32,1.65-.28.49-.62.94-.8,1.49-.08.24-.23.45-.32.69-.19.54-.39,1.08-.54,1.64-.06.22-.17.34-.37.38-.54.13-1.04.37-1.55.57-.72.29-1.4.64-2.04,1.07-.47.32-.94.65-1.32,1.08-.76.86-1.32,1.81-1.63,2.94-.24.88-.25,1.75-.21,2.62.04.82.16,1.64.42,2.41.19.57.39,1.15.75,1.65.08.11.05.17-.09.18-.69.03-1.39.06-2.08.08-.22,0-.44,0-.66,0h0Z"/></g></g></svg>