<?xml version="1.0" encoding="UTF-8"?><svg id="Layer_1" xmlns="http://www.w3.org/2000/svg" viewBox="0 0 305.53 80.87"><defs><style>.cls-1{fill:#e6f0fa;}.cls-2{fill:#fff;}.cls-3{fill:#8e8f95;}.cls-4{fill:#3592d0;}</style></defs><g id="icon"><polygon id="outline" class="cls-4" points="2.48 3.14 2.48 78.27 25.35 78.27 25.35 71.74 9.01 71.74 9.01 9.67 71.07 9.67 71.07 71.74 54.74 71.74 54.74 78.27 77.61 78.27 77.61 3.14 2.48 3.14"/><path id="m" class="cls-1" d="m59.1,30.8c2.06,2.06,3.15,4.88,3.15,8.5v16.44h-6.53v-15.23c0-4.42-2.35-6.79-5.77-6.79-3.67,0-6.32,2.76-6.32,6.99v15.03h-6.53v-15.18c0-4.27-2.28-6.84-5.75-6.84-3.67,0-6.33,2.76-6.33,7.04v14.98h-6.53v-27.3h6.43v3.92c1.56-2.87,4.73-4.67,8.29-4.67,3.57.05,6.69,1.71,8.14,4.88,1.96-3.07,5.63-4.88,9.8-4.88,3.27,0,5.88,1.06,7.94,3.12"/></g><circle class="cls-3" cx="102.45" cy="41.04" r="4"/><circle class="cls-3" cx="127.62" cy="41.04" r="4"/><circle class="cls-3" cx="177.78" cy="41.04" r="4"/><circle class="cls-3" cx="202.96" cy="41.04" r="4"/><polygon class="cls-3" points="151.3 19.43 161.73 18.37 154.75 35.12 163.96 33.53 141.25 62.5 148.16 41.23 143.24 41.23 151.3 19.43"/><g><rect class="cls-2" x="227.49" y="2.94" width="74.99" height="74.99" rx="16" ry="16"/><path d="m279.45,24.09c-3.7-5.38-10.8-7.31-16.31-4.35-1.18.64-2.2,1.58-3.34,2.4-.47-1.15-1.17-2.19-2.61-2.41-.61-.09-1.22-.2-1.83-.2-2.39-.02-4.78-.01-7.17,0-.2,0-.41.04-.63.06v8.64c1.03,0,1.99,0,2.95,0,1.3,0,1.35.05,1.35,1.37,0,10.66,0,21.33,0,31.99v.91h8.74v-13.83c.85.43,1.61.81,2.36,1.2,2.34,1.22,4.86,1.58,7.41,1.16,4.76-.79,8.11-3.54,10.22-7.84,1.59-3.23,2.04-6.66,1.77-10.23-.25-3.21-1.06-6.2-2.9-8.88Zm-4.97,10.23c0,2.6-.51,4.59-1.77,6.41-2.26,3.28-8.72,3.85-11.01-.94-1.6-3.35-1.68-6.72-.1-10.08,1.18-2.51,3.29-3.56,5.98-3.57,2.73,0,4.63,1.33,5.83,3.71.77,1.53,1.14,3.17,1.06,4.47Z"/></g></svg>