<svg xmlns="http://www.w3.org/2000/svg" xmlns:xlink="http://www.w3.org/1999/xlink" width="40" zoomAndPan="magnify" viewBox="0 0 30 30.000001" height="40" preserveAspectRatio="xMidYMid meet" version="1.0"><defs><clipPath id="2673edf501"><path d="M 0.484375 0 L 22 0 L 22 29.03125 L 0.484375 29.03125 Z M 0.484375 0 " clip-rule="nonzero"/></clipPath></defs><g clip-path="url(#2673edf501)"><path fill="#0099ee" d="M 13.585938 -0.0117188 C 13.558594 -0.00390625 13.53125 0 13.507812 0.0078125 L 2.609375 0.0078125 C 1.402344 0.0078125 0.398438 0.992188 0.398438 2.195312 L 0.398438 26.441406 C 0.398438 27.863281 1.578125 29.023438 3.003906 29.023438 L 19.242188 29.023438 C 20.667969 29.023438 21.84375 27.863281 21.84375 26.441406 L 21.84375 8.328125 C 21.863281 8.242188 21.863281 8.15625 21.84375 8.070312 L 21.84375 7.894531 C 21.851562 7.726562 21.785156 7.5625 21.667969 7.441406 L 14.414062 0.1875 C 14.292969 0.0664062 14.128906 0.00390625 13.960938 0.0078125 L 13.765625 0.0078125 C 13.707031 -0.00390625 13.644531 -0.0117188 13.585938 -0.0117188 Z M 2.609375 1.269531 L 13.015625 1.269531 L 13.015625 6.535156 C 13.015625 7.800781 14.050781 8.839844 15.320312 8.839844 L 20.585938 8.839844 L 20.585938 26.441406 C 20.585938 27.179688 19.988281 27.761719 19.242188 27.761719 L 3.003906 27.761719 C 2.257812 27.761719 1.660156 27.179688 1.660156 26.441406 L 1.660156 2.195312 C 1.660156 1.675781 2.078125 1.269531 2.609375 1.269531 Z M 14.277344 1.863281 L 19.992188 7.578125 L 15.320312 7.578125 C 14.734375 7.578125 14.277344 7.121094 14.277344 6.535156 Z M 6.078125 13.886719 L 6.078125 15.148438 L 16.167969 15.148438 L 16.167969 13.886719 Z M 6.078125 16.410156 L 6.078125 17.667969 L 16.167969 17.667969 L 16.167969 16.410156 Z M 6.078125 18.929688 L 6.078125 20.191406 L 16.167969 20.191406 L 16.167969 18.929688 Z M 6.078125 21.453125 L 6.078125 22.714844 L 11.753906 22.714844 L 11.753906 21.453125 Z M 6.078125 21.453125 " fill-opacity="1" fill-rule="nonzero"/></g></svg>