<?xml version="1.0" encoding="UTF-8"?><svg id="Layer_1" xmlns="http://www.w3.org/2000/svg" viewBox="0 0 305.53 80.87"><defs><style>.cls-1{fill:#e6f0fa;}.cls-2{fill:#fff;}.cls-3{fill:#8e8f95;}.cls-4{fill:#3592d0;}.cls-5{fill:#19a1dc;fill-rule:evenodd;}</style></defs><g id="icon"><polygon id="outline" class="cls-4" points="2.48 3.14 2.48 78.27 25.35 78.27 25.35 71.74 9.01 71.74 9.01 9.67 71.07 9.67 71.07 71.74 54.74 71.74 54.74 78.27 77.61 78.27 77.61 3.14 2.48 3.14"/><path id="m" class="cls-1" d="m59.1,30.8c2.06,2.06,3.15,4.88,3.15,8.5v16.44h-6.53v-15.23c0-4.42-2.35-6.79-5.77-6.79-3.67,0-6.32,2.76-6.32,6.99v15.03h-6.53v-15.18c0-4.27-2.28-6.84-5.75-6.84-3.67,0-6.33,2.76-6.33,7.04v14.98h-6.53v-27.3h6.43v3.92c1.56-2.87,4.73-4.67,8.29-4.67,3.57.05,6.69,1.71,8.14,4.88,1.96-3.07,5.63-4.88,9.8-4.88,3.27,0,5.88,1.06,7.94,3.12"/></g><circle class="cls-3" cx="102.45" cy="41.04" r="4"/><circle class="cls-3" cx="127.62" cy="41.04" r="4"/><circle class="cls-3" cx="177.78" cy="41.04" r="4"/><circle class="cls-3" cx="202.96" cy="41.04" r="4"/><polygon class="cls-3" points="151.3 19.43 161.73 18.37 154.75 35.12 163.96 33.53 141.25 62.5 148.16 41.23 143.24 41.23 151.3 19.43"/><g><rect class="cls-2" x="227.49" y="2.94" width="74.99" height="74.99" rx="16" ry="16"/><path class="cls-5" d="m272.14,37.49c-.43,0-.73.15-.93.45-.2.31-.3.74-.3,1.3s.1.99.3,1.3c.2.31.5.45.93.45s.73-.15.93-.45c.2-.31.31-.75.31-1.3s-.1-.99-.31-1.3c-.2-.3-.51-.45-.93-.45Zm12.92-.02c-.43,0-.73.17-.93.47-.13.2-.22.46-.26.76h2.31c-.02-.3-.08-.56-.22-.76-.2-.3-.48-.47-.91-.47Zm-25.96,0c-.43,0-.73.17-.93.47-.13.2-.22.46-.26.76h2.31c-.02-.3-.08-.56-.21-.76-.2-.3-.48-.47-.91-.47Zm-8.19,2.12c-.2.14-.29.34-.29.63,0,.18.03.32.1.42.04.07.06.09.19.19,0,0,.29.23.95.19.46-.03.87-.12.87-.12v-1.47s-.42-.07-.88-.07c-.66,0-.94.24-.94.23Zm29.97-13.42c-1.74,0-3.39.37-4.88,1.04-1.72-3.06-4.94-5.11-8.63-5.11-2.78,0-5.29,1.17-7.09,3.04-1.98-2.59-5.11-4.27-8.64-4.27-6,0-10.86,4.86-10.86,10.85,0,1.53.32,2.99.89,4.31-2.79,1.63-4.67,4.68-4.67,8.17,0,5.21,4.18,9.43,9.33,9.43.66,0,1.3-.07,1.92-.2,1.42,3.84,5.11,6.58,9.44,6.58s7.73-2.52,9.26-6.13c1.16.57,2.47.89,3.86.89,3.3,0,6.18-1.82,7.69-4.51.78.16,1.58.24,2.38.24,6.66,0,12.06-5.45,12.06-12.16s-5.4-12.16-12.06-12.16Zm-31.89,14.11c0,.98-.71,1.59-1.86,1.59-.56,0-1.1-.09-1.67-.39l-.07-.04c-.08-.05-.17-.09-.25-.16,0,0,0,0,0,0-.02-.02-.04-.04-.02-.12l.23-.63c.04-.11.12-.07.15-.05.03.02.05.03.07.05.03.02.07.04.11.07.67.42,1.28.43,1.48.43.5,0,.81-.26.81-.62v-.02c0-.39-.47-.53-1.03-.7l-.12-.04c-.76-.22-1.57-.53-1.57-1.49v-.02c0-.91.73-1.54,1.78-1.54h.11c.62,0,1.21.18,1.64.44.04.02.08.07.06.13-.02.06-.21.57-.23.63-.04.11-.15.04-.15.04-.38-.21-.96-.37-1.46-.37-.44,0-.73.24-.73.56v.02c0,.37.49.53,1.06.72l.1.03c.75.24,1.56.57,1.56,1.48v.02Zm4.7,1.28c-.08.02-.15.04-.23.06-.11.02-.5.1-.82.16-.32.05-.65.08-.98.08s-.6-.03-.86-.09c-.26-.06-.48-.15-.66-.29-.18-.13-.32-.3-.42-.51-.1-.2-.15-.45-.15-.74s.06-.53.17-.75c.11-.21.27-.39.47-.53.2-.14.42-.25.68-.31.25-.07.52-.1.8-.1.2,0,.37,0,.51.01,0,0,.26.02.53.06v-.14c0-.43-.09-.64-.27-.77-.18-.14-.45-.21-.8-.21,0,0-.79-.01-1.41.33-.03.02-.05.03-.05.03,0,0-.08.03-.11-.05l-.23-.62c-.04-.09.03-.13.03-.13.29-.23,1-.36,1-.36.23-.05.63-.08.87-.08.65,0,1.15.15,1.49.45.34.3.52.78.52,1.43v2.96s0,.09-.07.11Zm2.18.09c0,.05-.04.1-.09.1h-.86c-.05,0-.09-.04-.09-.1v-6.92c0-.05.04-.1.09-.1h.86c.05,0,.09.04.09.1v6.92Zm5.37-2.24v.02c-.01.08-.1.08-.1.08h-3.24c.02.49.14.84.38,1.08.23.23.61.38,1.11.38.7,0,1.04-.13,1.27-.22l.06-.02s.09-.03.12.06l.21.59c.04.1,0,.14-.03.16-.2.11-.7.32-1.63.32-.45,0-.85-.06-1.18-.19-.33-.13-.6-.31-.81-.54-.21-.23-.37-.51-.47-.82-.1-.31-.15-.66-.15-1.03s.05-.72.14-1.03c.09-.32.24-.6.44-.84.2-.24.45-.43.75-.57.3-.14.67-.21,1.07-.21.35,0,.66.07.93.19.2.09.41.24.61.47.13.14.33.45.41.76.19.68.11,1.27.1,1.38Zm2.69,2.46c-.56,0-1.1-.09-1.67-.39l-.07-.04c-.08-.05-.17-.09-.25-.16,0,0,0,0,0,0,0,0,0,0,0,0-.02-.02-.04-.04-.02-.12l.23-.63c.03-.1.13-.07.15-.05l.04.02s.09.06.15.09c.67.42,1.28.43,1.48.43.5,0,.81-.26.81-.62v-.02c0-.39-.47-.53-1.03-.7l-.12-.04c-.76-.22-1.57-.53-1.57-1.49v-.02c0-.91.73-1.54,1.78-1.54h.11c.62,0,1.21.18,1.64.44.04.02.08.07.06.13-.02.06-.21.57-.23.63-.04.11-.15.04-.15.04-.38-.21-.96-.37-1.46-.37-.44,0-.73.24-.73.56v.02c0,.37.49.53,1.06.72l.1.03c.75.24,1.56.57,1.56,1.48v.02c0,.98-.71,1.59-1.86,1.59Zm5.78-5.06l-.12.67c-.02.1-.11.09-.11.09h-1.07l-.73,4.13c-.08.43-.17.79-.29,1.09-.11.3-.23.52-.42.73-.18.19-.37.34-.6.42-.23.08-.5.12-.8.12-.14,0-.29,0-.47-.04-.13-.03-.2-.05-.3-.09-.04-.01-.07-.07-.05-.13.02-.06.21-.59.24-.66.03-.08.12-.05.12-.05.06.02.1.04.18.06.08.02.18.03.26.03.14,0,.27-.02.38-.06.14-.05.21-.12.3-.23.09-.11.16-.26.23-.46.07-.2.14-.47.19-.8l.73-4.06h-.72c-.09,0-.11-.04-.11-.1l.12-.67c.02-.1.11-.09.11-.09h.74l.04-.22c.11-.65.33-1.15.65-1.47.32-.33.79-.49,1.37-.49.17,0,.32.01.44.03.12.02.22.04.32.08.02,0,.09.04.06.11l-.25.68c-.02.05-.04.08-.14.05-.03,0-.07-.02-.17-.04-.07-.02-.17-.03-.27-.03-.13,0-.25.02-.35.05-.1.03-.19.09-.27.17-.08.08-.18.2-.23.35-.1.29-.15.6-.17.7v.03s1.03,0,1.03,0c.09,0,.11.04.11.1Zm4.62,3.45c-.09.32-.24.6-.44.83-.2.23-.44.42-.74.55-.29.13-.64.2-1.03.2s-.73-.07-1.03-.2c-.29-.13-.54-.32-.74-.55-.2-.23-.34-.51-.44-.83-.09-.32-.14-.66-.14-1.03s.05-.71.14-1.03c.09-.32.24-.6.44-.83.2-.23.44-.42.74-.56.29-.14.64-.21,1.03-.21s.73.07,1.03.21c.29.14.54.33.74.56.19.23.34.51.44.83.09.32.14.66.14,1.03s-.05.71-.14,1.03Zm4.01-3.39c-.03.09-.19.53-.24.68-.02.06-.06.09-.12.09,0,0-.19-.04-.36-.04-.12,0-.28.01-.43.06-.15.05-.28.13-.4.24-.12.12-.21.28-.28.48-.07.2-.11.53-.11.85v2.42s-.01.05-.03.07c-.02.02-.04.03-.07.03h-.85c-.05,0-.1-.04-.1-.1v-4.83c0-.06.04-.1.09-.1h.83c.05,0,.09.04.09.1v.39c.12-.17.35-.31.55-.4.2-.09.43-.16.84-.13.21.01.49.07.54.09.02,0,.07.04.05.12Zm4.05,4.73c-.36.14-.87.24-1.36.24-.83,0-1.47-.24-1.89-.71-.42-.47-.64-1.11-.64-1.91,0-.37.05-.71.16-1.03.1-.32.26-.6.47-.83.21-.23.47-.42.77-.56.31-.14.66-.21,1.07-.21.27,0,.51.02.72.05.22.03.51.11.64.16.02,0,.08.04.06.11-.06.17-.11.3-.16.44l-.08.21c-.04.1-.11.07-.11.07-.32-.1-.62-.15-1.01-.15-.47,0-.83.16-1.06.47-.23.31-.37.72-.37,1.26,0,.6.15,1.04.41,1.31.26.27.63.41,1.1.41.19,0,.36-.01.52-.04.16-.02.31-.07.45-.13,0,0,.09-.04.12.06l.24.65c.03.08-.04.11-.04.11Zm4.8-2.2h0c0,.1-.09.1-.09.1h-3.24c.02.49.14.84.38,1.08.23.23.61.38,1.11.38.7,0,1.04-.13,1.27-.22l.06-.02s.09-.03.12.06l.21.59c.04.1,0,.14-.03.16-.2.11-.7.32-1.63.32-.45,0-.85-.06-1.18-.19-.33-.13-.6-.31-.81-.54-.21-.23-.37-.51-.47-.82-.1-.31-.15-.66-.15-1.03s.05-.72.14-1.03c.09-.32.24-.6.44-.84.2-.24.45-.43.75-.57.3-.14.67-.21,1.07-.21.35,0,.66.07.93.19.2.09.41.24.61.47.13.14.33.45.42.76.19.68.11,1.28.1,1.38Z"/></g></svg>