<?xml version="1.0" encoding="UTF-8"?><svg id="Layer_1" xmlns="http://www.w3.org/2000/svg" viewBox="0 0 305.53 80.87"><defs><style>.cls-1{fill:#e6f0fa;}.cls-2{fill:#fff;}.cls-3{fill:#8e8f95;}.cls-4{fill:#3592d0;}.cls-5{fill:#79ba4c;}</style></defs><g id="icon"><polygon id="outline" class="cls-4" points="2.48 3.14 2.48 78.27 25.35 78.27 25.35 71.74 9.01 71.74 9.01 9.67 71.07 9.67 71.07 71.74 54.74 71.74 54.74 78.27 77.61 78.27 77.61 3.14 2.48 3.14"/><path id="m" class="cls-1" d="m59.1,30.8c2.06,2.06,3.15,4.88,3.15,8.5v16.44h-6.53v-15.23c0-4.42-2.35-6.79-5.77-6.79-3.67,0-6.32,2.76-6.32,6.99v15.03h-6.53v-15.18c0-4.27-2.28-6.84-5.75-6.84-3.67,0-6.33,2.76-6.33,7.04v14.98h-6.53v-27.3h6.43v3.92c1.56-2.87,4.73-4.67,8.29-4.67,3.57.05,6.69,1.71,8.14,4.88,1.96-3.07,5.63-4.88,9.8-4.88,3.27,0,5.88,1.06,7.94,3.12"/></g><circle class="cls-3" cx="102.45" cy="41.04" r="4"/><circle class="cls-3" cx="127.62" cy="41.04" r="4"/><circle class="cls-3" cx="177.78" cy="41.04" r="4"/><circle class="cls-3" cx="202.96" cy="41.04" r="4"/><polygon class="cls-3" points="151.3 19.43 161.73 18.37 154.75 35.12 163.96 33.53 141.25 62.5 148.16 41.23 143.24 41.23 151.3 19.43"/><g><rect class="cls-5" x="227.49" y="2.94" width="74.99" height="74.99" rx="16" ry="16"/><path class="cls-2" d="m256.41,36.49v-.09c-.86,0-1.72.01-2.58,0-4.51-.07-7.96,1.95-10.56,5.5-5.29,7.23-4.11,17.19,2.69,23.16,6.42,5.63,16.63,5.31,22.92-.8,3.88-3.76,5.45-8.29,4.01-13.64-.56-2.07-1.26-4.11-1.77-6.2-1.07-4.37.74-7.47,5.09-8.73,1.54-.44,3.19-.54,4.71-1.03,1.71-.56,3.58-1.08,4.95-2.16,4.25-3.36,5.33-9.69,2.73-14.45-2.68-4.93-8.46-7.36-13.75-5.77-5.93,1.77-8.74,6.44-7.96,13.11.17,1.49.28,3,.23,4.5-.13,3.42-2.2,5.77-5.57,6.28-1.69.25-3.42.22-5.13.32Z"/></g></svg>