<?xml version="1.0" encoding="UTF-8"?><svg id="Layer_1" xmlns="http://www.w3.org/2000/svg" viewBox="0 0 305.53 80.87"><defs><style>.cls-1{fill:#f9af36;}.cls-2{fill:#e6f0fa;}.cls-3{fill:#fff;}.cls-4{fill:#8e8f95;}.cls-5{fill:#07467f;}.cls-6{fill:#3592d0;}</style></defs><g id="icon"><polygon id="outline" class="cls-6" points="2.48 3.14 2.48 78.27 25.35 78.27 25.35 71.74 9.01 71.74 9.01 9.67 71.07 9.67 71.07 71.74 54.74 71.74 54.74 78.27 77.61 78.27 77.61 3.14 2.48 3.14"/><path id="m" class="cls-2" d="m59.1,30.8c2.06,2.06,3.15,4.88,3.15,8.5v16.44h-6.53v-15.23c0-4.42-2.35-6.79-5.77-6.79-3.67,0-6.32,2.76-6.32,6.99v15.03h-6.53v-15.18c0-4.27-2.28-6.84-5.75-6.84-3.67,0-6.33,2.76-6.33,7.04v14.98h-6.53v-27.3h6.43v3.92c1.56-2.87,4.73-4.67,8.29-4.67,3.57.05,6.69,1.71,8.14,4.88,1.96-3.07,5.63-4.88,9.8-4.88,3.27,0,5.88,1.06,7.94,3.12"/></g><circle class="cls-4" cx="102.45" cy="41.04" r="4"/><circle class="cls-4" cx="127.62" cy="41.04" r="4"/><circle class="cls-4" cx="177.78" cy="41.04" r="4"/><circle class="cls-4" cx="202.96" cy="41.04" r="4"/><polygon class="cls-4" points="151.3 19.43 161.73 18.37 154.75 35.12 163.96 33.53 141.25 62.5 148.16 41.23 143.24 41.23 151.3 19.43"/><g><rect class="cls-3" x="227.49" y="2.94" width="74.99" height="74.99" rx="16" ry="16"/><g><path class="cls-1" d="m261.18,26.96c.35-.02.7-.07,1.05-.07,2.5,0,4.99-.03,7.49.01.89.02,1.18-.29,1.17-1.17-.04-2.46.01-4.93-.03-7.39-.01-.87.27-1.2,1.16-1.19,2.66.04,5.33.04,8,0,.87-.01,1.2.31,1.19,1.18-.03,2.46.02,4.93-.02,7.39-.01.88.31,1.19,1.18,1.17,2.16-.04,4.32,0,6.48-.02.81-.01,1.16.25,1.14,1.11-.04,2.02-.05,4.05,0,6.07.02.91-.35,1.16-1.2,1.15-2.16-.04-4.32.01-6.48-.02-.84-.01-1.12.3-1.12,1.13.03,3.78-.01,7.56.03,11.34.04,3.05,1.4,4.39,4.44,4.35,1.39-.02,2.78-.26,4.23-.41,0,.06.07.25.07.45,0,2.26,0,4.52.01,6.78,0,.63-.2,1.03-.84,1.18-4.18,1-8.35,1.21-12.45-.3-3.71-1.37-5.78-4.44-5.8-8.42-.02-4.89,0-9.79,0-14.68,0-1.4-.01-1.5-1.4-1.38-1.39.12-2.11-.37-2.68-1.65-1.06-2.38-2.8-4.28-4.92-5.81-.26-.19-.51-.39-.76-.58.02-.08.04-.15.07-.23Z"/><path class="cls-5" d="m252.04,60.83c-3.62-.02-7-.74-9.79-3.21-.73-.64-1.33-1.42-1.99-2.14-.45-.49-.34-.88.17-1.26,1.05-.79,2.07-1.63,3.15-2.38.21-.15.75-.08.98.09.53.4.95.95,1.44,1.41,2.8,2.59,7.57,3.11,10.86,1.2,1.93-1.12,2.69-3.17,1.89-5.1-.49-1.17-1.43-1.92-2.58-2.28-2.22-.68-4.5-1.18-6.72-1.84-1.42-.42-2.85-.88-4.17-1.52-5.47-2.64-5.21-10.41-1.02-13.65,3.02-2.34,6.46-3.09,10.18-2.82,2.84.21,5.42,1.1,7.5,3.12.6.58,1.08,1.29,1.59,1.95.39.49.32.89-.24,1.25-1.03.65-2.05,1.31-3.03,2.02-.59.42-.92.39-1.39-.22-2.37-3.07-6.31-3.95-9.79-2.26-2.2,1.07-3.1,3.34-1.85,4.94.5.63,1.26,1.2,2.01,1.45,2.17.71,4.43,1.15,6.61,1.85,1.85.59,3.75,1.19,5.42,2.14,2.75,1.56,3.71,4.21,3.68,7.29-.05,5.88-4.42,8.85-9.48,9.65-1.13.18-2.28.21-3.42.31Z"/></g></g></svg>