<?xml version="1.0" encoding="UTF-8"?><svg id="Layer_1" xmlns="http://www.w3.org/2000/svg" viewBox="0 0 305.53 80.87"><defs><style>.cls-1{fill:#e6f0fa;}.cls-2{fill:#8e8f95;}.cls-3{fill:#92ccb0;}.cls-4{fill:#1e905b;}.cls-5{fill:#20a567;}.cls-6{fill:#3592d0;}.cls-7{fill:#fff;fill-rule:evenodd;}</style></defs><g id="icon"><polygon id="outline" class="cls-6" points="2.48 3.14 2.48 78.27 25.35 78.27 25.35 71.74 9.01 71.74 9.01 9.67 71.07 9.67 71.07 71.74 54.74 71.74 54.74 78.27 77.61 78.27 77.61 3.14 2.48 3.14"/><path id="m" class="cls-1" d="m59.1,30.8c2.06,2.06,3.15,4.88,3.15,8.5v16.44h-6.53v-15.23c0-4.42-2.35-6.79-5.77-6.79-3.67,0-6.32,2.76-6.32,6.99v15.03h-6.53v-15.18c0-4.27-2.28-6.84-5.75-6.84-3.67,0-6.33,2.76-6.33,7.04v14.98h-6.53v-27.3h6.43v3.92c1.56-2.87,4.73-4.67,8.29-4.67,3.57.05,6.69,1.71,8.14,4.88,1.96-3.07,5.63-4.88,9.8-4.88,3.27,0,5.88,1.06,7.94,3.12"/></g><circle class="cls-2" cx="102.45" cy="41.04" r="4"/><circle class="cls-2" cx="127.62" cy="41.04" r="4"/><circle class="cls-2" cx="177.78" cy="41.04" r="4"/><circle class="cls-2" cx="202.96" cy="41.04" r="4"/><polygon class="cls-2" points="151.3 19.43 161.73 18.37 154.75 35.12 163.96 33.53 141.25 62.5 148.16 41.23 143.24 41.23 151.3 19.43"/><g><path class="cls-5" d="m284.99,65.13c0,1.74-1.41,3.16-3.16,3.16h-33.69c-1.74,0-3.16-1.41-3.16-3.16V15.82c0-1.74,1.41-3.16,3.15-3.16h21.63l15.23,15.53v36.94Z"/><path class="cls-4" d="m271.44,27.79l13.55,12.95v-12.64h-12c-.52,0-1.04-.12-1.5-.38l-.05.06Z"/><path class="cls-3" d="m284.99,28.17h-12.04c-1.74,0-3.16-1.41-3.16-3.16v-12.43l15.19,15.59Z"/><path class="cls-7" d="m275.35,58.04h-20.82v-18.05h20.82v18.05Zm-9.12-15.45v3.16h6.56v-3.16h-6.56Zm0,5.15v3.02h6.56v-3.03l-6.56.02Zm0,4.94v2.8h6.56v-2.81l-6.56.02Zm-2.57,2.78v-2.8h-6.55v2.8h6.55Zm0-4.74v-3h-6.55v3.02l6.55-.02Zm0-4.94v-3.19h-6.55v3.16l6.55.03Z"/></g></svg>