<?xml version="1.0" encoding="UTF-8"?><svg id="Layer_1" xmlns="http://www.w3.org/2000/svg" viewBox="0 0 305.53 80.87"><metadata><?xpacket begin="﻿" id="W5M0MpCehiHzreSzNTczkc9d"?>
<x:xmpmeta xmlns:x="adobe:ns:meta/" x:xmptk="Adobe XMP Core 7.1-c000 79.4d2f597, 2021/09/01-20:51:22        ">
   <rdf:RDF xmlns:rdf="http://www.w3.org/1999/02/22-rdf-syntax-ns#">
      <rdf:Description rdf:about=""
            xmlns:xmp="http://ns.adobe.com/xap/1.0/"
            xmlns:xmpMM="http://ns.adobe.com/xap/1.0/mm/"
            xmlns:stEvt="http://ns.adobe.com/xap/1.0/sType/ResourceEvent#">
         <xmp:Rating>2</xmp:Rating>
         <xmp:MetadataDate>2023-02-03T15:34:41+01:00</xmp:MetadataDate>
         <xmpMM:InstanceID>xmp.iid:14bf9280-9ced-464a-b177-cd0c57efe3cd</xmpMM:InstanceID>
         <xmpMM:DocumentID>xmp.did:14bf9280-9ced-464a-b177-cd0c57efe3cd</xmpMM:DocumentID>
         <xmpMM:OriginalDocumentID>xmp.did:14bf9280-9ced-464a-b177-cd0c57efe3cd</xmpMM:OriginalDocumentID>
         <xmpMM:History>
            <rdf:Seq>
               <rdf:li>
                  <rdf:Description>
                     <stEvt:action>saved</stEvt:action>
                     <stEvt:instanceID>xmp.iid:14bf9280-9ced-464a-b177-cd0c57efe3cd</stEvt:instanceID>
                     <stEvt:when>2023-02-03T15:34:41+01:00</stEvt:when>
                     <stEvt:softwareAgent>Adobe Bridge 2023</stEvt:softwareAgent>
                     <stEvt:changed>/metadata</stEvt:changed>
                  </rdf:Description>
               </rdf:li>
            </rdf:Seq>
         </xmpMM:History>
      </rdf:Description>
   </rdf:RDF>
</x:xmpmeta>
                                                                                                    
                                                                                                    
                                                                                                    
                                                                                                    
                                                                                                    
                                                                                                    
                                                                                                    
                                                                                                    
                                                                                                    
                                                                                                    
                                                                                                    
                                                                                                    
                                                                                                    
                                                                                                    
                                                                                                    
                                                                                                    
                                                                                                    
                                                                                                    
                                                                                                    
                                                                                                    
                           
<?xpacket end="w"?></metadata>
<defs><style>.cls-1{fill:#e6f0fa;}.cls-2{fill:#fff;}.cls-3{fill:#8e8f95;}.cls-4{fill:#3592d0;}.cls-5{fill:#3ab07c;}.cls-5,.cls-6,.cls-7,.cls-8{fill-rule:evenodd;}.cls-6{fill:#44c0eb;}.cls-7{fill:#e11f5b;}.cls-8{fill:#ecb22c;}</style></defs><g id="icon"><polygon id="outline" class="cls-4" points="2.48 3.14 2.48 78.27 25.35 78.27 25.35 71.74 9.01 71.74 9.01 9.67 71.07 9.67 71.07 71.74 54.74 71.74 54.74 78.27 77.61 78.27 77.61 3.14 2.48 3.14"/><path id="m" class="cls-1" d="m59.1,30.8c2.06,2.06,3.15,4.88,3.15,8.5v16.44h-6.53v-15.23c0-4.42-2.35-6.79-5.77-6.79-3.67,0-6.32,2.76-6.32,6.99v15.03h-6.53v-15.18c0-4.27-2.28-6.84-5.75-6.84-3.67,0-6.33,2.76-6.33,7.04v14.98h-6.53v-27.3h6.43v3.92c1.56-2.87,4.73-4.67,8.29-4.67,3.57.05,6.69,1.71,8.14,4.88,1.96-3.07,5.63-4.88,9.8-4.88,3.27,0,5.88,1.06,7.94,3.12"/></g><circle class="cls-3" cx="102.45" cy="41.04" r="4"/><circle class="cls-3" cx="127.62" cy="41.04" r="4"/><circle class="cls-3" cx="177.78" cy="41.04" r="4"/><circle class="cls-3" cx="202.96" cy="41.04" r="4"/><polygon class="cls-3" points="151.3 19.43 161.73 18.37 154.75 35.12 163.96 33.53 141.25 62.5 148.16 41.23 143.24 41.23 151.3 19.43"/><g><rect class="cls-2" x="227.49" y="2.94" width="74.99" height="74.99" rx="16" ry="16"/><g id="_1935826086000"><g id="_1935826084528"><path class="cls-7" d="m252.13,46.31c0,2.58-2.09,4.67-4.67,4.67s-4.67-2.09-4.67-4.67,2.09-4.67,4.67-4.67h4.67v4.67Zm2.33,0c0-2.58,2.09-4.67,4.67-4.67s4.67,2.09,4.67,4.67v11.67c0,2.58-2.09,4.67-4.67,4.67s-4.67-2.09-4.67-4.67v-11.67Z"/><path class="cls-6" d="m259.13,27.56c-2.58,0-4.67-2.09-4.67-4.67s2.09-4.67,4.67-4.67,4.67,2.09,4.67,4.67v4.67h-4.67Zm0,2.37c2.58,0,4.67,2.09,4.67,4.67s-2.09,4.67-4.67,4.67h-11.71c-2.58,0-4.67-2.09-4.67-4.67s2.09-4.67,4.67-4.67h11.71Z"/><path class="cls-5" d="m277.84,34.6c0-2.58,2.09-4.67,4.67-4.67s4.67,2.09,4.67,4.67-2.09,4.67-4.67,4.67h-4.67v-4.67Zm-2.33,0c0,2.58-2.09,4.67-4.67,4.67s-4.67-2.09-4.67-4.67v-11.71c0-2.58,2.09-4.67,4.67-4.67s4.67,2.09,4.67,4.67v11.71Z"/><path class="cls-8" d="m270.84,53.31c2.58,0,4.67,2.09,4.67,4.67s-2.09,4.67-4.67,4.67-4.67-2.09-4.67-4.67v-4.67h4.67Zm0-2.33c-2.58,0-4.67-2.09-4.67-4.67s2.09-4.67,4.67-4.67h11.71c2.58,0,4.67,2.09,4.67,4.67s-2.09,4.67-4.67,4.67h-11.71Z"/></g></g></g></svg>