<?xml version="1.0" encoding="UTF-8"?><svg id="Layer_1" xmlns="http://www.w3.org/2000/svg" viewBox="0 0 305.53 80.87"><defs><style>.cls-1{fill:#e6f0fa;}.cls-2{fill:#fff;}.cls-3{fill:#8e8f95;}.cls-4{fill:#0a7bc0;}.cls-5{fill:#3592d0;}</style></defs><g id="icon"><polygon id="outline" class="cls-5" points="2.48 3.14 2.48 78.27 25.35 78.27 25.35 71.74 9.01 71.74 9.01 9.67 71.07 9.67 71.07 71.74 54.74 71.74 54.74 78.27 77.61 78.27 77.61 3.14 2.48 3.14"/><path id="m" class="cls-1" d="m59.1,30.8c2.06,2.06,3.15,4.88,3.15,8.5v16.44h-6.53v-15.23c0-4.42-2.35-6.79-5.77-6.79-3.67,0-6.32,2.76-6.32,6.99v15.03h-6.53v-15.18c0-4.27-2.28-6.84-5.75-6.84-3.67,0-6.33,2.76-6.33,7.04v14.98h-6.53v-27.3h6.43v3.92c1.56-2.87,4.73-4.67,8.29-4.67,3.57.05,6.69,1.71,8.14,4.88,1.96-3.07,5.63-4.88,9.8-4.88,3.27,0,5.88,1.06,7.94,3.12"/></g><circle class="cls-3" cx="102.45" cy="41.04" r="4"/><circle class="cls-3" cx="127.62" cy="41.04" r="4"/><circle class="cls-3" cx="177.78" cy="41.04" r="4"/><circle class="cls-3" cx="202.96" cy="41.04" r="4"/><polygon class="cls-3" points="151.3 19.43 161.73 18.37 154.75 35.12 163.96 33.53 141.25 62.5 148.16 41.23 143.24 41.23 151.3 19.43"/><g><rect class="cls-2" x="227.49" y="2.94" width="74.99" height="74.99" rx="16" ry="16"/><g id="xN2bW2.tif"><path class="cls-4" d="m238.79,61.05V19.84c.05-.18.11-.36.16-.54.77-3.03,3.31-5.05,6.42-5.05,13.08,0,26.17-.01,39.25,0,3.67,0,6.54,2.87,6.54,6.55.01,13.12,0,26.25,0,39.37,0,1.75-.67,3.25-1.87,4.51-1.02,1.07-2.31,1.62-3.72,1.95h-41.21c-.22-.06-.44-.12-.65-.18-1.76-.48-3.16-1.47-4.03-3.08-.39-.72-.6-1.54-.89-2.32Zm22.99-21.97c0-4.93,0-9.86,0-14.8,0-1.79-1.25-3.15-2.98-3.16-3.3-.04-6.6-.03-9.9,0-1.5.01-2.67,1.07-2.94,2.53-.07.35-.08.72-.08,1.07,0,9.54,0,19.08,0,28.63,0,.43.03.88.13,1.3.29,1.31,1.43,2.29,2.76,2.3,3.38.03,6.75.03,10.13,0,1.29-.01,2.19-.73,2.64-1.91.19-.48.23-1.04.24-1.56.02-4.8,0-9.6,0-14.4Zm22.55-6.49c0-2.71,0-5.42,0-8.13,0-2.11-1.25-3.35-3.37-3.35-2.96,0-5.91,0-8.87,0-2.1,0-3.41,1.23-3.43,3.33-.03,5.4-.03,10.81,0,16.21.01,2.06,1.34,3.3,3.41,3.3,2.98,0,5.95,0,8.93,0,2.07,0,3.33-1.27,3.33-3.34,0-2.67,0-5.35,0-8.02Z"/></g></g></svg>