<svg xmlns="http://www.w3.org/2000/svg" xmlns:xlink="http://www.w3.org/1999/xlink" width="40" zoomAndPan="magnify" viewBox="0 0 30 30.000001" height="40" preserveAspectRatio="xMidYMid meet" version="1.0"><defs><clipPath id="077b6f51d1"><path d="M 0.484375 4.425781 L 29.515625 4.425781 L 29.515625 27.652344 L 0.484375 27.652344 Z M 0.484375 4.425781 " clip-rule="nonzero"/></clipPath></defs><g clip-path="url(#077b6f51d1)"><path fill="#0099ee" d="M 28.0625 8.292969 L 21.976562 8.292969 L 21.773438 6.835938 L 21.613281 5.855469 C 21.550781 5.460938 21.339844 5.136719 21.011719 4.863281 C 20.675781 4.582031 20.316406 4.433594 19.921875 4.433594 L 10.03125 4.433594 C 9.632812 4.433594 9.269531 4.578125 8.9375 4.863281 C 8.605469 5.144531 8.429688 5.480469 8.371094 5.855469 L 8.210938 6.835938 L 7.992188 8.292969 L 1.9375 8.292969 C 1.132812 8.292969 0.484375 8.9375 0.484375 9.714844 L 0.484375 25.832031 C 0.484375 26.640625 1.132812 27.289062 1.9375 27.289062 L 28.0625 27.289062 C 28.867188 27.289062 29.515625 26.640625 29.515625 25.832031 L 29.515625 9.714844 C 29.515625 8.9375 28.867188 8.292969 28.0625 8.292969 Z M 27.761719 25.535156 L 2.222656 25.535156 L 2.222656 10.03125 L 7.992188 10.03125 C 8.859375 10.03125 9.609375 9.382812 9.730469 8.542969 L 9.933594 7.089844 L 10.09375 6.191406 L 19.890625 6.191406 L 20.035156 7.089844 L 20.253906 8.542969 C 20.382812 9.382812 21.140625 10.03125 21.976562 10.03125 L 27.761719 10.03125 Z M 27.761719 25.535156 " fill-opacity="1" fill-rule="nonzero"/></g><path fill="#0099ee" d="M 24.949219 14.15625 C 25.707031 14.15625 26.339844 13.507812 26.339844 12.75 C 26.339844 11.972656 25.722656 11.324219 24.949219 11.324219 C 24.175781 11.324219 23.558594 11.972656 23.558594 12.75 C 23.558594 13.507812 24.191406 14.15625 24.949219 14.15625 Z M 24.949219 14.15625 " fill-opacity="1" fill-rule="nonzero"/><path fill="#0099ee" d="M 14.976562 10.488281 C 13.191406 10.488281 11.640625 11.136719 10.363281 12.414062 C 9.082031 13.695312 8.433594 15.246094 8.433594 17.03125 C 8.433594 18.816406 9.082031 20.367188 10.363281 21.644531 C 11.640625 22.925781 13.191406 23.53125 14.976562 23.558594 C 18.515625 23.609375 21.5625 20.539062 21.519531 17.03125 C 21.496094 15.230469 20.871094 13.695312 19.589844 12.414062 C 18.3125 11.136719 16.777344 10.488281 14.976562 10.488281 Z M 18.359375 20.429688 C 17.425781 21.359375 16.304688 21.820312 14.976562 21.820312 C 13.664062 21.820312 12.542969 21.359375 11.609375 20.429688 C 10.675781 19.496094 10.21875 18.359375 10.21875 17.03125 C 10.21875 15.71875 10.675781 14.582031 11.609375 13.648438 C 12.542969 12.714844 13.664062 12.242188 14.976562 12.242188 C 16.304688 12.242188 17.425781 12.714844 18.359375 13.648438 C 19.289062 14.582031 19.765625 15.71875 19.765625 17.03125 C 19.765625 18.359375 19.289062 19.496094 18.359375 20.429688 Z M 18.359375 20.429688 " fill-opacity="1" fill-rule="nonzero"/></svg>