<?xml version="1.0" encoding="UTF-8"?><svg id="Layer_1" xmlns="http://www.w3.org/2000/svg" viewBox="0 0 305.53 80.87"><defs><style>.cls-1{fill:#04363d;}.cls-2{fill:#e6f0fa;}.cls-3{fill:#fff;}.cls-4{fill:#8e8f95;}.cls-5{fill:#3592d0;}</style></defs><g id="icon"><polygon id="outline" class="cls-5" points="2.48 3.14 2.48 78.27 25.35 78.27 25.35 71.74 9.01 71.74 9.01 9.67 71.07 9.67 71.07 71.74 54.74 71.74 54.74 78.27 77.61 78.27 77.61 3.14 2.48 3.14"/><path id="m" class="cls-2" d="m59.1,30.8c2.06,2.06,3.15,4.88,3.15,8.5v16.44h-6.53v-15.23c0-4.42-2.35-6.79-5.77-6.79-3.67,0-6.32,2.76-6.32,6.99v15.03h-6.53v-15.18c0-4.27-2.28-6.84-5.75-6.84-3.67,0-6.33,2.76-6.33,7.04v14.98h-6.53v-27.3h6.43v3.92c1.56-2.87,4.73-4.67,8.29-4.67,3.57.05,6.69,1.71,8.14,4.88,1.96-3.07,5.63-4.88,9.8-4.88,3.27,0,5.88,1.06,7.94,3.12"/></g><circle class="cls-4" cx="102.45" cy="41.04" r="4"/><circle class="cls-4" cx="127.62" cy="41.04" r="4"/><circle class="cls-4" cx="177.78" cy="41.04" r="4"/><circle class="cls-4" cx="202.96" cy="41.04" r="4"/><polygon class="cls-4" points="151.3 19.43 161.73 18.37 154.75 35.12 163.96 33.53 141.25 62.5 148.16 41.23 143.24 41.23 151.3 19.43"/><g><rect class="cls-3" x="227.49" y="2.94" width="74.99" height="74.99" rx="16" ry="16"/><g><path class="cls-1" d="m262.99,31.2v28.98c-.28.08-23.7.09-24.09,0,8.02-9.68,16.03-19.35,24.03-29.02.02.01.04.02.06.03Z"/><path class="cls-1" d="m291.09,20.69c-8,9.66-16.01,19.32-24,28.98-.04-.01-.05-.02-.06-.02,0,0-.02-.02-.02-.03,0-.07-.01-.15-.01-.22,0-9.57,0-19.14,0-28.69.03-.04.04-.05.05-.05,0,0,.02-.02.03-.02.11,0,.22-.02.33-.02,7.86,0,15.73,0,23.59,0,.02,0,.04.02.1.06Z"/><path class="cls-1" d="m291.1,60.24h-24.1c-.02-1.37.21-2.68.66-3.95.82-2.34,2.22-4.25,4.2-5.73,3.96-2.96,9.36-3.19,13.57-.57,4.37,2.72,5.8,7.29,5.67,10.25Z"/><path class="cls-1" d="m238.86,20.64h24.09c.19,2.6-1.08,6.81-4.67,9.56-3.94,3.02-9.35,3.33-13.59.75-2.13-1.29-3.71-3.07-4.75-5.33-.72-1.57-1.08-3.22-1.08-4.98Z"/></g></g></svg>