<?xml version="1.0" encoding="UTF-8"?><svg id="Layer_1" xmlns="http://www.w3.org/2000/svg" viewBox="0 0 305.53 80.87"><defs><style>.cls-1{fill:#e6f0fa;}.cls-2{fill:#fff;}.cls-3{fill:#8e8f95;}.cls-4{fill:#216db5;}.cls-5{fill:#3592d0;}</style></defs><g id="icon"><polygon id="outline" class="cls-5" points="2.48 3.14 2.48 78.27 25.35 78.27 25.35 71.74 9.01 71.74 9.01 9.67 71.07 9.67 71.07 71.74 54.74 71.74 54.74 78.27 77.61 78.27 77.61 3.14 2.48 3.14"/><path id="m" class="cls-1" d="m59.1,30.8c2.06,2.06,3.15,4.88,3.15,8.5v16.44h-6.53v-15.23c0-4.42-2.35-6.79-5.77-6.79-3.67,0-6.32,2.76-6.32,6.99v15.03h-6.53v-15.18c0-4.27-2.28-6.84-5.75-6.84-3.67,0-6.33,2.76-6.33,7.04v14.98h-6.53v-27.3h6.43v3.92c1.56-2.87,4.73-4.67,8.29-4.67,3.57.05,6.69,1.71,8.14,4.88,1.96-3.07,5.63-4.88,9.8-4.88,3.27,0,5.88,1.06,7.94,3.12"/></g><circle class="cls-3" cx="102.45" cy="41.04" r="4"/><circle class="cls-3" cx="127.62" cy="41.04" r="4"/><circle class="cls-3" cx="177.78" cy="41.04" r="4"/><circle class="cls-3" cx="202.96" cy="41.04" r="4"/><polygon class="cls-3" points="151.3 19.43 161.73 18.37 154.75 35.12 163.96 33.53 141.25 62.5 148.16 41.23 143.24 41.23 151.3 19.43"/><g><rect class="cls-2" x="227.49" y="2.94" width="74.99" height="74.99" rx="16" ry="16"/><g id="RI4k1U.tif"><path class="cls-4" d="m291.23,40.61c.43,6.51-5.51,14.02-11.37,15.55-1.45.38-2.91.88-4.39.99-1.42.1-2.91-.06-4.3-.4-2.91-.7-5.6-1.95-7.77-4.07-3.24-3.17-6.44-6.39-9.63-9.62-3.33-3.37-1.29-8.46,2.56-9.41,2.37-.59,4.46,0,6.21,1.78,2.52,2.57,5.1,5.09,7.63,7.66.61.62,1.25,1.02,2.16.8,1.85-.46,2.47-2.31,1.19-3.72-.9-.99-1.88-1.9-2.83-2.85-1.77-1.77-3.58-3.49-5.29-5.31-2.96-3.14-6.47-4.73-10.86-4.49-2.59.14-4.96.8-6.97,2.35-5.42,4.17-6.86,11.38-3.59,16.96,1.99,3.4,4.83,5.48,8.51,6.34,1.7.4,3.57.09,5.36.07.52,0,1.03-.2,1.54-.2,1.04,0,1.58.47,1.71,1.36.16,1.06-.17,1.68-1.21,2-2.76.84-5.52,1.01-8.38.27-3.88-1-7.06-3.07-9.43-6.18-1.98-2.59-3.2-5.58-3.35-8.98-.17-3.74.74-7.1,2.7-10.25,1.99-3.2,4.83-5.25,8.33-6.5,5.52-1.97,10.6-.96,15.37,2.21.29.19.55.44.79.68,3.38,3.37,6.76,6.72,10.11,10.12,1.32,1.34,2.1,2.9,1.65,4.86-.54,2.35-1.99,4-4.23,4.67-2.21.66-4.27-.04-5.92-1.66-2.5-2.44-4.94-4.93-7.41-7.39-.29-.29-.56-.6-.88-.85-.89-.68-2.05-.56-2.82.27-.7.76-.81,1.92-.09,2.68,1.71,1.81,3.49,3.54,5.24,5.31.49.5,1.03.95,1.45,1.5,1.87,2.45,4.13,4.39,7.05,5.46,3.61,1.31,7.15,1.19,10.59-.64,2.95-1.57,4.99-3.94,6.15-7.05,1.75-4.71.87-9.03-2.22-12.89-2.51-3.14-6.01-4.46-9.91-4.7-1.18-.07-2.39.35-3.59.53-1.62.24-2.56-.66-2.27-2.16.14-.71.58-1.13,1.25-1.3,1.97-.52,3.96-.87,6.01-.63,2.15.25,4.25.82,6.14,1.83,1.92,1.03,3.69,2.29,5.1,4.1,1.79,2.31,3.03,4.8,3.63,7.61.23,1.07.2,2.19.29,3.28Z"/></g></g></svg>