<svg xmlns="http://www.w3.org/2000/svg" xmlns:xlink="http://www.w3.org/1999/xlink" width="2384" zoomAndPan="magnify" viewBox="0 0 1788 470.25" height="627" preserveAspectRatio="xMidYMid meet" version="1.0"><defs><clipPath id="3986a8e052"><path d="M 1.421875 0 L 1785.828125 0 L 1785.828125 469.5 L 1.421875 469.5 Z M 1.421875 0 " clip-rule="nonzero"/></clipPath></defs><g clip-path="url(#3986a8e052)"><path fill="#ffffff" d="M 1363.746094 131.03125 C 1382.289062 131.03125 1398.347656 121.667969 1406.183594 107.136719 L 1388.460938 96.769531 C 1383.953125 105.289062 1374.089844 110.984375 1364.066406 110.984375 C 1356.390625 110.984375 1350.035156 108.320312 1345.023438 103.125 C 1340.011719 97.957031 1337.507812 91.417969 1337.507812 83.582031 C 1337.507812 75.746094 1340.011719 69.207031 1345.183594 64.035156 C 1350.355469 58.863281 1356.867188 56.175781 1364.726562 56.175781 C 1374.75 56.175781 1383.449219 61.6875 1388.78125 70.550781 L 1406.503906 61.027344 C 1399.144531 45.152344 1382.949219 36.128906 1364.386719 36.128906 C 1350.011719 36.128906 1338.304688 40.640625 1329.285156 49.5 C 1320.261719 58.363281 1315.753906 69.730469 1315.753906 83.605469 C 1315.753906 97.476562 1320.261719 108.84375 1329.125 117.707031 C 1338.144531 126.566406 1349.671875 131.078125 1363.722656 131.078125 Z M 1618.589844 131.191406 C 1630.457031 131.191406 1640.320312 126.679688 1648.179688 117.820312 L 1648.179688 129.027344 L 1668.910156 129.027344 L 1668.910156 38.269531 L 1648.179688 38.269531 L 1648.179688 49.796875 C 1640.003906 40.617188 1630.140625 36.082031 1618.589844 36.082031 C 1605.722656 36.082031 1594.855469 40.59375 1586.335938 49.457031 C 1577.816406 58.316406 1573.625 69.683594 1573.625 83.214844 C 1573.625 96.746094 1577.796875 108.273438 1586.335938 117.476562 C 1594.855469 126.679688 1605.5625 131.191406 1618.589844 131.191406 Z M 1602.714844 64.011719 C 1607.726562 58.660156 1614.082031 55.992188 1621.941406 55.992188 C 1629.796875 55.992188 1636.152344 58.660156 1641.164062 64.011719 C 1646.175781 69.367188 1648.679688 75.882812 1648.679688 83.558594 C 1648.679688 91.234375 1646.175781 97.933594 1641.164062 103.285156 C 1636.152344 108.640625 1629.796875 111.304688 1621.941406 111.304688 C 1614.082031 111.304688 1607.726562 108.640625 1602.714844 103.285156 C 1597.863281 97.933594 1595.355469 91.417969 1595.355469 83.558594 C 1595.355469 75.699219 1597.863281 69.34375 1602.714844 64.011719 Z M 1556.269531 2.003906 L 1534.539062 2.003906 L 1534.539062 129.027344 L 1556.269531 129.027344 Z M 1443.128906 117.660156 C 1450.988281 126.679688 1460.851562 131.191406 1472.378906 131.191406 C 1485.246094 131.191406 1495.929688 126.679688 1504.472656 117.476562 C 1512.992188 108.296875 1517.339844 96.929688 1517.339844 83.558594 C 1517.339844 70.1875 1513.171875 59.160156 1504.632812 49.957031 C 1496.113281 40.777344 1485.40625 36.082031 1472.535156 36.082031 C 1460.667969 36.082031 1450.804688 40.753906 1442.949219 50.296875 L 1442.949219 38.269531 L 1421.21875 38.269531 L 1421.21875 166.296875 L 1443.105469 166.296875 L 1443.105469 117.660156 Z M 1449.984375 64.171875 C 1454.835938 58.820312 1461.191406 56.152344 1469.027344 56.152344 C 1476.863281 56.152344 1483.242188 58.820312 1488.070312 64.171875 C 1492.921875 69.34375 1495.429688 75.882812 1495.429688 83.71875 C 1495.429688 91.554688 1492.921875 98.09375 1488.070312 103.445312 C 1483.21875 108.617188 1476.863281 111.304688 1469.027344 111.304688 C 1461.191406 111.304688 1454.816406 108.640625 1449.984375 103.445312 C 1445.132812 98.09375 1442.628906 91.578125 1442.628906 83.71875 C 1442.628906 75.859375 1445.132812 69.503906 1449.984375 64.171875 Z M 907.953125 79.207031 C 907.953125 64.992188 916.8125 55.8125 929 55.8125 C 940.527344 55.8125 948.109375 64.332031 948.109375 78.546875 L 948.109375 129.027344 L 969.820312 129.027344 L 969.820312 79.046875 C 969.820312 65.015625 978.613281 55.8125 990.820312 55.8125 C 1002.1875 55.8125 1010 63.671875 1010 78.363281 L 1010 129.003906 L 1031.707031 129.003906 L 1031.707031 74.355469 C 1031.707031 62.328125 1028.085938 52.964844 1021.230469 46.105469 C 1014.375 39.25 1005.695312 35.742188 994.828125 35.742188 C 980.957031 35.742188 968.769531 41.757812 962.234375 51.960938 C 957.382812 41.4375 947.019531 35.925781 935.171875 35.742188 C 923.304688 35.742188 912.78125 41.757812 907.589844 51.277344 L 907.589844 38.25 L 886.199219 38.25 L 886.199219 129.003906 L 907.929688 129.003906 L 907.929688 79.207031 Z M 1092.777344 131.191406 C 1104.644531 131.191406 1114.507812 126.679688 1122.367188 117.820312 L 1122.367188 129.027344 L 1143.09375 129.027344 L 1143.09375 38.269531 L 1122.367188 38.269531 L 1122.367188 49.796875 C 1114.1875 40.617188 1104.324219 36.082031 1092.777344 36.082031 C 1079.90625 36.082031 1069.042969 40.59375 1060.523438 49.457031 C 1052.003906 58.316406 1047.8125 69.683594 1047.8125 83.214844 C 1047.8125 96.746094 1051.980469 108.273438 1060.523438 117.476562 C 1069.042969 126.679688 1079.746094 131.191406 1092.777344 131.191406 Z M 1076.898438 64.011719 C 1081.910156 58.660156 1088.265625 55.992188 1096.125 55.992188 C 1103.984375 55.992188 1110.339844 58.660156 1115.351562 64.011719 C 1120.359375 69.367188 1122.867188 75.882812 1122.867188 83.558594 C 1122.867188 91.234375 1120.359375 97.933594 1115.351562 103.285156 C 1110.339844 108.640625 1103.984375 111.304688 1096.125 111.304688 C 1088.265625 111.304688 1081.910156 108.640625 1076.898438 103.285156 C 1072.046875 97.933594 1069.542969 91.417969 1069.542969 83.558594 C 1069.542969 75.699219 1072.046875 69.34375 1076.898438 64.011719 Z M 1712.847656 80.050781 C 1712.847656 65.835938 1722.027344 55.8125 1734.898438 55.8125 C 1746.925781 55.8125 1754.78125 64.515625 1754.78125 79.707031 L 1754.78125 129.003906 L 1776.628906 129.003906 L 1776.628906 73.695312 C 1776.628906 61.484375 1773.164062 52.304688 1766.332031 45.789062 C 1759.476562 39.273438 1750.957031 35.925781 1741.09375 35.925781 C 1727.882812 35.925781 1717.359375 41.777344 1712.507812 50.960938 L 1712.507812 38.25 L 1691.117188 38.25 L 1691.117188 129.003906 L 1712.847656 129.003906 L 1712.847656 80.027344 Z M 1205.734375 129.1875 C 1217.601562 129.1875 1227.28125 125.019531 1234.640625 116.816406 L 1234.640625 122.171875 C 1234.640625 137.707031 1223.773438 148.574219 1205.234375 148.574219 C 1194.207031 148.574219 1183.503906 145.066406 1173.320312 137.867188 L 1164.460938 154.40625 C 1176.667969 163.082031 1190.359375 167.433594 1205.734375 167.433594 C 1221.109375 167.433594 1232.636719 163.082031 1241.835938 154.5625 C 1251.039062 146.042969 1255.710938 134.515625 1255.710938 119.960938 L 1255.710938 38.269531 L 1235.324219 38.269531 L 1235.324219 49.136719 C 1227.804688 40.433594 1218.101562 36.105469 1206.578125 36.105469 C 1193.546875 36.105469 1182.523438 40.457031 1173.664062 49.320312 C 1164.800781 58 1160.449219 69.207031 1160.449219 82.738281 C 1160.449219 96.269531 1164.617188 107.136719 1173.160156 115.996094 C 1181.679688 124.859375 1192.546875 129.210938 1205.757812 129.210938 Z M 1189.859375 63.671875 C 1194.867188 58.5 1201.222656 55.992188 1208.898438 55.992188 C 1216.578125 55.992188 1222.773438 58.5 1227.785156 63.671875 C 1232.792969 68.683594 1235.300781 75.039062 1235.300781 82.898438 C 1235.300781 90.757812 1232.792969 97.273438 1227.785156 102.441406 C 1222.773438 107.613281 1216.417969 110.121094 1208.898438 110.121094 C 1201.382812 110.121094 1194.867188 107.613281 1189.859375 102.441406 C 1184.847656 97.273438 1182.339844 90.734375 1182.339844 82.898438 C 1182.339844 75.0625 1184.847656 68.683594 1189.859375 63.671875 Z M 1288.214844 27.40625 C 1296.074219 27.40625 1301.925781 21.730469 1301.925781 13.691406 C 1301.925781 5.648438 1296.074219 -0.0234375 1288.214844 -0.0234375 C 1280.355469 -0.0234375 1274.183594 5.832031 1274.183594 13.691406 C 1274.183594 21.550781 1280.195312 27.40625 1288.214844 27.40625 Z M 1277.007812 129.027344 L 1298.898438 129.027344 L 1298.898438 38.269531 L 1277.007812 38.269531 Z M 1774.191406 253.75 L 1785.304688 194.566406 L 1567.910156 194.566406 L 1555.609375 261.5625 L 1555.609375 261.609375 C 1554.949219 252.679688 1552.832031 244.5 1549.230469 237.140625 C 1542.511719 223.40625 1531.507812 212.882812 1516.226562 205.570312 C 1500.941406 198.257812 1482.195312 194.589844 1459.984375 194.589844 L 1250.972656 194.589844 L 1220.289062 361.566406 C 1218.832031 369.929688 1215.460938 377.378906 1210.199219 383.894531 C 1204.9375 390.40625 1198.355469 395.554688 1190.402344 399.292969 C 1182.476562 403.027344 1173.820312 404.917969 1164.484375 404.917969 C 1155.144531 404.917969 1147.351562 403.050781 1140.816406 399.292969 C 1134.277344 395.554688 1129.5625 390.40625 1126.648438 383.894531 C 1123.730469 377.378906 1122.980469 369.929688 1124.460938 361.566406 L 1155.144531 194.589844 L 640.148438 194.589844 L 640.148438 194.816406 L 558.351562 194.816406 L 519.992188 404.875 L 482.089844 194.816406 L 371.660156 194.816406 L 277.382812 367.605469 L 195.699219 367.605469 C 193.648438 373.277344 190.710938 378.425781 186.859375 383.050781 C 183.011719 387.695312 178.386719 391.683594 172.964844 394.988281 C 167.542969 398.3125 161.417969 400.839844 154.539062 402.617188 C 147.660156 404.394531 140.140625 405.285156 131.941406 405.285156 C 119.664062 405.285156 109.6875 402.664062 102.035156 397.445312 C 94.378906 392.230469 89.253906 384.347656 86.679688 373.824219 C 84.105469 363.300781 84.175781 350.085938 86.910156 334.164062 C 90.027344 317.714844 95.292969 303.546875 102.695312 291.632812 C 110.097656 279.742188 119.414062 270.582031 130.621094 264.160156 C 141.828125 257.757812 154.558594 254.546875 168.796875 254.546875 C 176.199219 254.546875 182.601562 255.527344 187.953125 257.460938 C 193.304688 259.398438 197.65625 262.222656 200.960938 265.890625 C 204.285156 269.558594 206.609375 273.910156 207.976562 278.96875 C 209.34375 284 209.730469 289.671875 209.136719 295.9375 L 290.457031 295.9375 C 291.914062 279.035156 290.113281 264.046875 285.035156 250.96875 C 279.953125 237.871094 272.097656 226.847656 261.414062 217.871094 C 250.730469 208.894531 237.632812 202.0625 222.074219 197.367188 C 206.519531 192.675781 188.957031 190.328125 169.367188 190.328125 C 143.421875 190.328125 118.957031 195.410156 95.953125 205.59375 C 72.945312 215.773438 53.402344 230.878906 37.296875 250.96875 C 21.214844 271.039062 10.441406 295.9375 4.976562 325.667969 C -0.492188 356.441406 1.351562 382.550781 10.464844 403.941406 C 19.574219 425.351562 34.289062 441.617188 54.632812 452.757812 C 74.949219 463.898438 99.164062 469.476562 127.25 469.476562 C 148.707031 469.476562 168 466.378906 185.152344 460.183594 C 202.304688 453.988281 217.222656 445.878906 229.910156 435.832031 C 237.953125 429.476562 245.035156 422.710938 251.1875 415.582031 L 224.058594 465.332031 L 311.253906 465.332031 L 337.972656 413.53125 L 436.078125 413.53125 L 443.753906 465.332031 L 611.015625 465.332031 L 625.773438 385.007812 L 702.195312 385.007812 C 725.066406 385.007812 745.703125 381.183594 764.175781 373.574219 C 782.625 365.964844 797.84375 355.074219 809.800781 340.953125 C 821.761719 326.804688 829.480469 309.972656 832.988281 290.425781 C 835.425781 277.007812 835.402344 264.796875 832.898438 253.75 L 882.121094 253.75 L 843.582031 465.105469 L 938.65625 465.105469 L 977.199219 253.75 L 1063.097656 253.75 L 1042.117188 367.878906 C 1038.425781 388.496094 1040.589844 406.285156 1048.609375 421.320312 C 1056.648438 436.332031 1069.566406 447.929688 1087.378906 456.0625 C 1105.191406 464.214844 1127.011719 468.269531 1152.796875 468.269531 C 1178.582031 468.269531 1201.679688 464.195312 1222.613281 456.0625 C 1243.546875 447.929688 1260.8125 436.332031 1274.386719 421.320312 C 1284.089844 410.589844 1291.265625 398.425781 1295.914062 384.828125 L 1281.175781 465.105469 L 1362.378906 465.105469 L 1378.871094 375.804688 L 1406.867188 375.804688 L 1443.015625 465.105469 L 1735.035156 465.105469 L 1746.148438 405.921875 L 1610.550781 405.921875 L 1618.726562 359.402344 L 1743.828125 359.402344 L 1754.941406 300.222656 L 1629.84375 300.222656 L 1638.019531 253.726562 L 1774.234375 253.726562 Z M 366.285156 358.605469 L 412.34375 269.308594 L 414.664062 269.308594 L 427.898438 358.605469 L 366.261719 358.605469 Z M 748.6875 290.449219 C 747.320312 298.195312 744.359375 304.867188 739.828125 310.449219 C 735.269531 316.03125 729.324219 320.359375 721.945312 323.386719 C 714.585938 326.417969 706.046875 327.945312 696.363281 327.945312 L 636.253906 327.945312 L 649.898438 253.75 L 717.367188 253.75 C 723.746094 254.320312 729.234375 255.707031 733.789062 257.871094 C 739.941406 260.832031 744.289062 265.046875 746.863281 270.5625 C 749.4375 276.074219 750.03125 282.703125 748.664062 290.449219 Z M 1469.347656 286.53125 C 1467.980469 294.277344 1465.066406 300.515625 1460.578125 305.210938 C 1456.089844 309.925781 1450.257812 313.367188 1443.0625 315.507812 C 1435.839844 317.648438 1427.480469 318.742188 1417.960938 318.742188 L 1389.488281 318.742188 L 1401.605469 253.226562 L 1430.238281 253.226562 C 1439.578125 253.226562 1447.410156 254.386719 1453.746094 256.710938 C 1460.078125 259.035156 1464.585938 262.65625 1467.320312 267.53125 C 1470.054688 272.40625 1470.738281 278.738281 1469.371094 286.507812 Z M 1522.214844 443.507812 C 1522.214844 443.507812 1488.980469 364.164062 1488.980469 364.164062 C 1505.746094 357.398438 1519.734375 347.855469 1530.894531 335.460938 C 1537.316406 328.308594 1542.511719 320.222656 1546.476562 311.292969 Z M 1522.214844 443.507812 " fill-opacity="1" fill-rule="nonzero"/></g></svg>