<?xml version="1.0" encoding="UTF-8"?>
<svg id="logos_1x1" data-name="logos 1x1" xmlns="http://www.w3.org/2000/svg" xmlns:xlink="http://www.w3.org/1999/xlink" version="1.1" viewBox="0 0 430 215">
  <defs>
    <style>
      .cls-1 {
        fill: url(#radial-gradient);
      }

      .cls-1, .cls-2, .cls-3, .cls-4, .cls-5 {
        stroke-width: 0px;
      }

      .cls-2 {
        fill: #000;
      }

      .cls-3 {
        fill: url(#radial-gradient-2);
      }

      .cls-4 {
        fill: url(#radial-gradient-3);
      }

      .cls-5 {
        fill: #e6f0fa;
      }
    </style>
    <radialGradient id="radial-gradient" cx="215.5" cy="946" fx="215.5" fy="946" r="11.2" gradientTransform="translate(-.8 -864.7)" gradientUnits="userSpaceOnUse">
      <stop offset="0" stop-color="#f39200"/>
      <stop offset="1" stop-color="#ea566a"/>
    </radialGradient>
    <radialGradient id="radial-gradient-2" cx="3262.4" cy="1580.5" fx="3262.4" fy="1580.5" r="11.3" gradientTransform="translate(3649.2 -1102.9) rotate(135)" gradientUnits="userSpaceOnUse">
      <stop offset="0" stop-color="#f39200"/>
      <stop offset="1" stop-color="#ea566a"/>
    </radialGradient>
    <radialGradient id="radial-gradient-3" cx="1252.4" cy="-429.6" fx="1252.4" fy="-429.6" r="11.2" gradientTransform="translate(-373.4 -1102.9) rotate(45) scale(1 -1)" gradientUnits="userSpaceOnUse">
      <stop offset="0" stop-color="#f39200"/>
      <stop offset="1" stop-color="#ea566a"/>
    </radialGradient>
  </defs>
  <rect class="cls-5" width="430" height="215"/>
  <path class="cls-2" d="M195.3,141.1h-3.3l-1.2-3.4h-5.5l-1.2,3.4h-3.3l6-15.7h2.6l5.9,15.7ZM189.9,134.9l-1.8-5.2-1.9,5.2h3.7Z"/>
  <path class="cls-2" d="M200.6,141.4c-2,0-3.6-.8-4.8-2.2l1.6-1.9c.4.5.9.9,1.5,1.2s1.1.4,1.7.4.8-.1,1.1-.3.5-.5.5-.8-.3-.8-.8-1c-.2,0-.6-.2-1.4-.5-.7-.2-1.2-.4-1.5-.6-1.3-.6-2-1.6-2-3s.4-1.8,1.2-2.5c.8-.6,1.8-1,3.1-1s3,.6,4.1,1.7l-1.5,1.9c-.8-.8-1.7-1.1-2.6-1.1s-.7,0-.9.3c-.2.2-.4.4-.4.7,0,.5.3.8,1,1.1,1.5.6,2.4.9,2.8,1.1,1.3.7,2,1.7,2,2.9s-.4,2-1.3,2.7c-.8.7-1.9,1.1-3.3,1.1h0Z"/>
  <path class="cls-2" d="M216.1,130.9v-1.4h2.9v11.6h-2.9v-1.3c-1,1.1-2.2,1.6-3.7,1.6s-3-.6-4.1-1.7-1.6-2.6-1.6-4.4.5-3.2,1.6-4.3c1.1-1.1,2.5-1.7,4.1-1.7s2.7.6,3.7,1.7h0ZM216.1,135.3c0-.9-.3-1.7-.9-2.4-.6-.6-1.4-1-2.3-1s-1.7.3-2.3,1c-.6.6-.9,1.4-.9,2.4s.3,1.7.9,2.4,1.4,1,2.3,1,1.7-.3,2.3-1c.6-.7.9-1.5.9-2.4Z"/>
  <path class="cls-2" d="M224.6,141.1h-3v-11.6h2.9v1.6c.3-.6.8-1.1,1.4-1.4s1.4-.5,2.2-.5c1.3,0,2.3.4,3.2,1.3.9.8,1.3,2,1.3,3.6v7.1h-3v-6.3c0-.9-.2-1.6-.7-2.1s-1-.8-1.8-.8-1.4.3-1.9.8c-.5.5-.7,1.2-.7,2.1v6.2h0Z"/>
  <path class="cls-2" d="M244.1,130.9v-1.4h2.9v11.6h-2.9v-1.3c-1,1.1-2.2,1.6-3.7,1.6s-3-.6-4.1-1.7-1.6-2.6-1.6-4.4.5-3.2,1.6-4.3c1.1-1.1,2.5-1.7,4.1-1.7s2.7.6,3.7,1.7h0ZM244.1,135.3c0-.9-.3-1.7-.9-2.4-.6-.6-1.4-1-2.3-1s-1.7.3-2.3,1c-.6.6-.9,1.4-.9,2.4s.3,1.7.9,2.4,1.4,1,2.3,1,1.7-.3,2.3-1c.6-.7.9-1.5.9-2.4Z"/>
  <path class="cls-2" d="M152.9,148.5h2.9c.9,0,1.6.3,2.1.8.5.5.7,1.2.7,1.9s-.2,1.4-.8,1.9c-.5.5-1.2.8-2.2.8h-1.6v3.4h-1.2v-8.8h0ZM154.1,152.8h1.7c.5,0,1-.1,1.3-.5.3-.3.5-.7.5-1.2s-.1-.8-.4-1.1c-.3-.3-.7-.4-1.2-.4h-1.8v3.2h0Z"/>
  <path class="cls-2" d="M161.1,157.3h-1.1v-6.4h1.1v.9c.4-.7,1-1.1,1.8-1.1s.5,0,.8,0v1.1c-.3,0-.6-.1-.8-.1-.5,0-.9.2-1.3.5s-.5.9-.5,1.5v3.4h0Z"/>
  <path class="cls-2" d="M167.2,157.4c-1,0-1.8-.3-2.4-1-.6-.6-.9-1.4-.9-2.4s.3-1.7.9-2.4c.6-.6,1.4-1,2.4-1s1.8.3,2.4,1c.6.6.9,1.4.9,2.4s-.3,1.7-.9,2.4c-.6.6-1.4,1-2.4,1ZM169.4,154.1c0-.6-.2-1.2-.6-1.6-.4-.4-.9-.7-1.6-.7s-1.1.2-1.6.7c-.4.4-.6,1-.6,1.6s.2,1.2.6,1.6c.4.4.9.7,1.6.7s1.1-.2,1.6-.7.6-1,.6-1.6Z"/>
  <path class="cls-2" d="M171.2,160c-.5,0-.9,0-1.1-.3l.2-.9c.3.1.6.2.8.2.7,0,1.1-.4,1.1-1.3v-6.8h1.1v6.7c0,.8-.2,1.4-.6,1.8s-.9.6-1.6.6h0ZM172.8,150c-.2,0-.4,0-.6-.2-.2-.1-.2-.4-.2-.6s0-.4.2-.6.4-.2.6-.2.4,0,.6.2c.2.1.2.3.2.6s0,.4-.2.6c-.2.1-.4.2-.6.2Z"/>
  <path class="cls-2" d="M181,154c0,0,0,.3,0,.6h-5.1c.1.6.3,1,.7,1.3s.9.5,1.5.5.8,0,1.2-.2c.4-.1.8-.3,1.1-.5l.5.9c-.3.3-.8.5-1.2.6s-1,.3-1.5.3-1.1,0-1.5-.3-.8-.4-1.1-.8c-.3-.3-.5-.7-.6-1.1-.1-.4-.2-.8-.2-1.2,0-.9.3-1.7.9-2.4.6-.6,1.4-.9,2.3-.9s1.6.3,2.2.9c.6.6.9,1.4.9,2.4h0ZM175.9,153.6h3.9c0-.5-.2-1-.6-1.3s-.8-.5-1.3-.5-1,.2-1.3.5-.6.8-.7,1.3h0Z"/>
  <path class="cls-2" d="M185.4,157.4c-1,0-1.8-.3-2.4-.9s-.9-1.4-.9-2.4.3-1.8.9-2.4c.6-.6,1.5-.9,2.5-.9s1.2.1,1.7.4.9.7,1.2,1.2l-.9.5c-.2-.4-.5-.6-.8-.9s-.7-.3-1.1-.3c-.6,0-1.2.2-1.6.6-.4.4-.6,1-.6,1.6s.2,1.2.6,1.6c.4.4.9.6,1.6.6s.8-.1,1.1-.3.6-.5.8-.8l.9.5c-.3.5-.7.9-1.2,1.2-.5.3-1.1.4-1.7.4h0s0,0,0,0Z"/>
  <path class="cls-2" d="M193.3,156l.4.9c-.5.4-1,.5-1.7.5s-1.2-.2-1.5-.6-.5-1-.5-1.8v-3.2h-1.1v-1h1.1v-2.3h1.1v2.3h2.3v1h-2.3v3.2c0,.8.4,1.3,1,1.3s.8-.1,1.1-.4h0Z"/>
  <path class="cls-2" d="M198.9,157.3h-1.2v-8.8h.6l3.8,5.6,3.8-5.6h.6v8.8h-1.2v-5.9l-3,4.4h-.3l-3-4.4v5.9h0Z"/>
  <path class="cls-2" d="M213.5,151.8v-.9h1.1v6.4h-1.1v-.9c-.6.7-1.3,1.1-2.2,1.1s-1.7-.3-2.3-1-.9-1.4-.9-2.4.3-1.7.9-2.4c.6-.6,1.4-.9,2.3-.9s1.7.4,2.2,1.1h0ZM213.5,154.1c0-.6-.2-1.2-.6-1.6-.4-.4-.9-.7-1.6-.7s-1.2.2-1.6.7-.6,1-.6,1.6.2,1.2.6,1.6c.4.4.9.7,1.6.7s1.2-.2,1.6-.7c.4-.4.6-1,.6-1.6h0Z"/>
  <path class="cls-2" d="M217.5,157.3h-1.1v-6.4h1.1v.9c.4-.7,1.1-1.1,2-1.1s1.3.2,1.8.7.7,1.1.7,2v3.9h-1.1v-3.5c0-.6-.1-1.1-.4-1.4s-.7-.5-1.2-.5-.9.2-1.3.5c-.3.4-.5.8-.5,1.4v3.5h0Z"/>
  <path class="cls-2" d="M228.7,151.8v-.9h1.1v6.4h-1.1v-.9c-.6.7-1.3,1.1-2.2,1.1s-1.7-.3-2.3-1-.9-1.4-.9-2.4.3-1.7.9-2.4c.6-.6,1.4-.9,2.3-.9s1.7.4,2.2,1.1h0ZM228.8,154.1c0-.6-.2-1.2-.6-1.6-.4-.4-.9-.7-1.6-.7s-1.2.2-1.6.7-.6,1-.6,1.6.2,1.2.6,1.6c.4.4.9.7,1.6.7s1.2-.2,1.6-.7c.4-.4.6-1,.6-1.6h0Z"/>
  <path class="cls-2" d="M236.6,151.7v-.8h1.1v5.7c0,1-.3,1.8-.9,2.4-.6.6-1.4.9-2.5.9s-2-.3-2.8-.9l.5-.9c.7.5,1.4.8,2.3.8s1.3-.2,1.7-.6c.4-.4.6-.9.6-1.5v-.5c-.6.7-1.3,1-2.2,1s-1.7-.3-2.3-.9c-.6-.6-.9-1.4-.9-2.4s.3-1.7.9-2.3c.6-.6,1.4-.9,2.3-.9s1.6.3,2.2,1h0ZM233,155.6c.4.4.9.6,1.6.6s1.1-.2,1.6-.6c.4-.4.6-.9.6-1.6s-.2-1.2-.6-1.6c-.4-.4-.9-.6-1.6-.6s-1.1.2-1.6.6c-.4.4-.6.9-.6,1.6s.2,1.2.6,1.6Z"/>
  <path class="cls-2" d="M245.5,154c0,0,0,.3,0,.6h-5.1c.1.6.3,1,.7,1.3s.9.5,1.5.5.8,0,1.2-.2.8-.3,1.1-.5l.5.9c-.3.3-.8.5-1.2.6s-1,.3-1.5.3-1.1,0-1.5-.3-.8-.4-1.1-.8c-.3-.3-.5-.7-.6-1.1-.1-.4-.2-.8-.2-1.2,0-.9.3-1.7.9-2.4.6-.6,1.4-.9,2.3-.9s1.6.3,2.2.9c.6.6.9,1.4.9,2.4h0ZM240.3,153.6h3.9c0-.5-.2-1-.6-1.3s-.8-.5-1.3-.5-1,.2-1.3.5-.6.8-.7,1.3h0Z"/>
  <path class="cls-2" d="M254.2,150.7c.8,0,1.4.2,1.8.8.5.5.7,1.1.7,2v3.8h-1.1v-3.6c0-.6-.1-1.1-.4-1.4s-.6-.5-1.1-.5-.9.2-1.2.5-.5.8-.5,1.4v3.6h-1.1v-3.6c0-.6-.1-1.1-.4-1.4s-.6-.5-1.1-.5-.9.2-1.2.5c-.3.4-.5.8-.5,1.4v3.6h-1.1v-6.4h1.1v.9c.2-.4.4-.6.8-.8s.7-.3,1.1-.3c.4,0,.8.1,1.2.3.4.2.6.5.8.9.2-.4.5-.6.9-.9s.9-.3,1.4-.3h0Z"/>
  <path class="cls-2" d="M264.3,154c0,0,0,.3,0,.6h-5.1c.1.6.3,1,.7,1.3s.9.5,1.5.5.8,0,1.2-.2.8-.3,1-.5l.5.9c-.3.3-.8.5-1.2.6s-1,.3-1.5.3-1.1,0-1.5-.3-.8-.4-1.1-.8-.5-.7-.6-1.1c-.1-.4-.2-.8-.2-1.2,0-.9.3-1.7.9-2.4.6-.6,1.4-.9,2.3-.9s1.6.3,2.2.9c.6.6.9,1.4.9,2.4h0ZM259.2,153.6h3.9c0-.5-.2-1-.6-1.3s-.8-.5-1.3-.5-1,.2-1.3.5-.6.8-.7,1.3h0Z"/>
  <path class="cls-2" d="M266.8,157.3h-1.1v-6.4h1.1v.9c.4-.7,1.1-1.1,2-1.1s1.3.2,1.8.7.7,1.1.7,2v3.9h-1.1v-3.5c0-.6-.1-1.1-.5-1.4s-.7-.5-1.2-.5-.9.2-1.3.5c-.3.4-.5.8-.5,1.4v3.5h0Z"/>
  <path class="cls-2" d="M276.7,156l.4.9c-.5.4-1,.5-1.7.5s-1.2-.2-1.5-.6-.5-1-.5-1.8v-3.2h-1.1v-1h1.1v-2.3h1.1v2.3h2.3v1h-2.3v3.2c0,.8.4,1.3,1,1.3s.8-.1,1.1-.4h0Z"/>
  <circle class="cls-1" cx="214.5" cy="70" r="11.3"/>
  <circle class="cls-3" cx="228.7" cy="95.1" r="11.3"/>
  <circle class="cls-4" cx="200.2" cy="95.1" r="11.3"/>
</svg>