<?xml version="1.0" encoding="UTF-8"?>
<svg id="logos_1x1" data-name="logos 1x1" xmlns="http://www.w3.org/2000/svg" version="1.1" viewBox="0 0 430 215">
  <defs>
    <style>
      .cls-1 {
        fill: #3270b7;
      }

      .cls-1, .cls-2, .cls-3, .cls-4 {
        stroke-width: 0px;
      }

      .cls-2 {
        fill: #e6f0fa;
      }

      .cls-3 {
        fill: #000;
      }

      .cls-4 {
        fill: #fff;
      }
    </style>
  </defs>
  <rect class="cls-2" width="430" height="215"/>
  <path class="cls-1" d="M232.2,108h-34.1c-4.7,0-8.4-3.8-8.4-8.4v-34.1c0-4.7,3.8-8.5,8.4-8.5h34.1c4.7,0,8.4,3.8,8.4,8.5v34.1c0,4.7-3.8,8.4-8.4,8.4"/>
  <path class="cls-4" d="M215.2,79.3c.8,0,1.6.3,2.3.7.7.4,1.1.3,1.4-.3.4-.6,0-.9-.4-1.2-1.3-1.2-3.8-1.6-5.5-.8-2,.9-3,2.5-3,4.7.1.8,0,1.7.5,2.3.6.9,1.5,1.8,2.4,2.4,1.5,1,4.2.7,5.4-.7.3-.4.3-1,.5-1.5-.5,0-1-.2-1.4-.1-.5.1-1,.6-1.5.8-1.8.7-4.4-1.4-4.3-3.2.2-1.8,1.6-3.1,3.5-3h0Z"/>
  <path class="cls-4" d="M209.1,94.7c-.6,0-1.1,0-1.7,0-1.7,0-3.4,0-5.2,0-1.6,0-2.2-.7-2.3-2.2,0-.5,0-1,0-1.5,0-2.1,0-3.8,0-5.8,0-.8,0-1-.3-1.3-.5-.5-1.7-.2-1.7.5,0,.3,0,.8,0,1.1,0,2.3,0,4.6,0,6.9,0,.6.2,1.3.4,1.9.5,1.5.9,1.9,2.4,1.9,1.2,0,2.5,0,3.7,0h3c.6,0,1,0,1.6,0,.6,0,.7-.3.7-.7,0-.5-.1-.8-.6-.8h0Z"/>
  <path class="cls-4" d="M197.9,76.7v3.2c0,.9.4,1.4,1.3,1.4,1.3,0,2.3,0,3.6,0,.6,0,1-.3,1-1s-.6-.9-1-.9c-1.1,0-1.3,0-2.1,0-.6,0-.9-.3-.9-.9,0-1.3,0-2.6,0-3.9,0-1.2.7-2,2-2,.9,0,1.8,0,2.7,0,3.8,0,3.9,0,5.6-3.3.5-.9,1-1.2,1.9-1.2,2.1,0,4.3,0,6.4,0,.8,0,1.4.2,1.7,1.1.1.4.4.7.5,1.1.7,1.6,1.8,2.4,3.6,2.3,1.6,0,3.1,0,4.7,0,1.1,0,1.4.4,1.5,1.5,0,.8,0,1.7,0,2.5,0,.3.3.8.5.9.6.2,1.3-.2,1.3-.8,0-1.2,0-2.5-.2-3.6-.4-1.4-1.4-2.1-2.9-2-1.5.1-3,0-4.4,0-1,0-1.6-.4-2-1.1-.3-.4-.5-.8-.6-1.3-.6-1.9-2-2.4-3.7-2.5-2.1,0-4.3,0-6.4,0-.5,0-.9.2-1.4.3-1.1.4-2,1-2.4,2.2-.4,1.6-1.5,2.1-3.2,1.9-1.1-.1-2.3,0-3.5,0-2.2,0-3.6,1.6-3.7,3.7,0,.8,0,1.7,0,2.5h0s0,0,0,0Z"/>
  <path class="cls-4" d="M232.5,87.1c0-2.1,0-4.1,0-6.2,0-.6-.1-1.3-.7-1.4-1.4-.1-3,0-3.9,0-.8,0-.9,1.7.2,1.7.5,0,1,0,1.5,0,.7,0,1,.3,1,1,0,3.4,0,6.9,0,10.3,0,1.7-.2,2-2,2-2.1,0-4.1,0-6.2,0-.3,0-.8.2-.8.7s.6.7.8.7c2.6,0,5.1,0,7.6,0,.5,0,1.1-.4,1.4-.7.8-.7,1-1.6,1-2.7,0-1.9,0-3.8,0-5.7h0Z"/>
  <path class="cls-4" d="M224.6,82.5c.2-2.9-1-5.2-3.1-6.9-1.9-1.6-4.1-2.3-6.7-2.3-3,0-7.2,2.6-8.4,6-1.2,3.2-.6,6.2,1.3,9,1.5,2.3,3.2,4.5,4.7,6.8.6.9,1.1,1.8,1.7,2.6.9,1.2,1.4,1.2,2.3-.1,2.1-3.1,4.2-6.2,6.4-9.2,1.3-1.8,1.9-3.7,1.8-5.9h0ZM216.4,94.6c-.2.3-.4.5-.7.7-.5.5-.9.4-1.2,0-.8-1.1-1.5-2.3-2.3-3.4-1-1.4-1.9-2.8-2.9-4.2-3-4.3-2-9.9,3.6-12,.8-.3,1.8-.2,2.7-.3,3.6,0,6.1,2.3,7.1,5.9.6,2.2-.1,4-1.1,5.7-1.6,2.7-3.4,5.2-5.1,7.7h0Z"/>
  <path class="cls-1" d="M222.7,81.2c-1-3.5-3.6-5.8-7.1-5.9-.9,0-1.9,0-2.7.3-5.5,2.1-6.5,7.7-3.6,12,1,1.4,1.9,2.8,2.9,4.2.8,1.1,1.5,2.3,2.3,3.4.3.5.8.6,1.2,0,.2-.2.5-.5.7-.7,1.7-2.6,3.6-5.1,5.1-7.7,1-1.7,1.8-3.5,1.1-5.7h0ZM216,85.6c.5-.2,1-.6,1.5-.8.4,0,.9,0,1.4.1-.1.5-.2,1.2-.5,1.5-1.2,1.3-3.9,1.7-5.4.7-.9-.7-1.8-1.5-2.4-2.4-.4-.6-.4-1.5-.5-2.3,0-2.2,1-3.8,3-4.7,1.7-.8,4.2-.5,5.5.8.4.3.8.7.4,1.2-.4.6-.8.7-1.4.3-.7-.4-1.5-.6-2.3-.7-1.9,0-3.3,1.2-3.5,3-.2,1.8,2.5,3.9,4.3,3.2h0Z"/>
  <path class="cls-3" d="M147.1,141.4c-2.3,0-4.2-.8-5.8-2.2-1.6-1.5-2.3-3.4-2.3-5.8s.8-4.3,2.4-5.9c1.6-1.6,3.5-2.3,5.8-2.3s2.7.3,3.9.9c1.2.6,2.1,1.4,2.9,2.4l-2.1,2.1c-1.2-1.5-2.7-2.3-4.5-2.3s-2.6.5-3.6,1.5c-1,1-1.4,2.2-1.4,3.7s.5,2.6,1.4,3.6c.9.9,2.1,1.4,3.6,1.4s3.4-.8,4.6-2.3l2.2,2c-.7,1-1.7,1.8-2.9,2.4s-2.6.9-4,.9h0s0,0,0,0Z"/>
  <path class="cls-3" d="M155.1,135.3c0-1.7.6-3.1,1.7-4.3,1.2-1.2,2.7-1.8,4.5-1.8s3.3.6,4.5,1.8c1.2,1.2,1.7,2.6,1.7,4.3s-.6,3.2-1.7,4.3c-1.2,1.2-2.7,1.8-4.5,1.8s-3.3-.6-4.5-1.8c-1.2-1.2-1.7-2.6-1.7-4.3ZM159,137.7c.6.6,1.4.9,2.3.9s1.6-.3,2.3-.9c.6-.7.9-1.4.9-2.4s-.3-1.7-.9-2.3c-.6-.6-1.4-.9-2.3-.9s-1.7.3-2.3.9c-.6.6-.9,1.4-.9,2.3s.3,1.7.9,2.4Z"/>
  <path class="cls-3" d="M183.6,129.2c1.4,0,2.5.4,3.4,1.3.9.9,1.3,2.1,1.3,3.6v7h-3v-6.4c0-.9-.2-1.5-.6-2s-1-.7-1.7-.7-1.4.3-1.8.8c-.5.5-.7,1.2-.7,2v6.4h-3v-6.4c0-.9-.2-1.5-.6-2s-1-.7-1.7-.7-1.3.3-1.8.8c-.5.5-.7,1.2-.7,2v6.3h-3v-11.6h2.9v1.7c.3-.6.8-1.1,1.4-1.4.6-.4,1.3-.5,2.1-.5.7,0,1.4.2,2,.5.6.4,1.1.9,1.4,1.5.4-.6,1-1.1,1.7-1.5.7-.4,1.5-.5,2.4-.5h0Z"/>
  <path class="cls-3" d="M197.5,129.2c1.6,0,3,.6,4.1,1.8,1.1,1.2,1.6,2.6,1.6,4.3s-.5,3.1-1.6,4.3c-1.1,1.2-2.4,1.8-4.1,1.8s-2.6-.5-3.6-1.6v6.1h-3v-16.4h3v1.4c1-1.1,2.2-1.7,3.7-1.7h0ZM197,138.7c.9,0,1.7-.3,2.3-.9.6-.6.9-1.4.9-2.4s-.3-1.7-.9-2.4c-.6-.6-1.4-.9-2.3-.9s-1.7.3-2.3.9c-.6.6-.9,1.4-.9,2.4s.3,1.7.9,2.4c.6.6,1.4.9,2.3.9Z"/>
  <path class="cls-3" d="M214.1,130.9v-1.4h2.9v11.6h-2.9v-1.3c-1,1.1-2.2,1.6-3.7,1.6s-3-.6-4.1-1.7-1.6-2.6-1.6-4.4.5-3.2,1.6-4.3c1.1-1.1,2.5-1.7,4.1-1.7s2.7.6,3.7,1.7h0ZM214.2,135.3c0-.9-.3-1.7-.9-2.4-.6-.6-1.4-1-2.3-1s-1.7.3-2.3,1c-.6.6-.9,1.4-.9,2.4s.3,1.7.9,2.4,1.4,1,2.3,1,1.7-.3,2.3-1c.6-.7.9-1.5.9-2.4h0Z"/>
  <path class="cls-3" d="M222.7,141.1h-3v-11.6h2.9v1.6c.3-.6.8-1.1,1.4-1.4s1.4-.5,2.2-.5c1.3,0,2.3.4,3.2,1.3.9.8,1.3,2,1.3,3.6v7.1h-3v-6.3c0-.9-.2-1.6-.6-2.1-.4-.5-1-.8-1.8-.8s-1.4.3-1.9.8-.7,1.2-.7,2.1v6.2h0Z"/>
  <path class="cls-3" d="M238.2,137.1l2.6-7.6h3.3l-4.7,12.2c-.6,1.5-1.2,2.6-2,3.3-.8.7-1.7,1.1-2.9,1.1s-1.6-.2-2.2-.6l.5-2.5c.5.3,1,.4,1.5.4.9,0,1.7-.6,2.2-1.8l.2-.5-5.1-11.5h3.5l3,7.6h0,0Z"/>
  <path class="cls-3" d="M250.6,141.4c-1.8,0-3.3-.6-4.4-1.7-1.1-1.1-1.7-2.6-1.7-4.4s.6-3.2,1.7-4.4c1.2-1.1,2.7-1.7,4.5-1.7s2.3.3,3.2.9,1.7,1.4,2.2,2.4l-2.4,1.3c-.7-1.2-1.7-1.8-3-1.8s-1.8.3-2.4.9c-.6.6-.9,1.4-.9,2.3s.3,1.8.9,2.4c.6.6,1.4.9,2.3.9s1.2-.2,1.7-.5c.6-.3.9-.8,1.2-1.3l2.4,1.4c-.5.9-1.2,1.7-2.2,2.2s-2.1.8-3.2.8h0Z"/>
  <path class="cls-3" d="M266.7,130.9v-1.4h2.9v11.6h-2.9v-1.3c-1,1.1-2.2,1.6-3.7,1.6s-3-.6-4.1-1.7-1.6-2.6-1.6-4.4.5-3.2,1.6-4.3c1.1-1.1,2.5-1.7,4.1-1.7s2.7.6,3.7,1.7h0ZM266.7,135.3c0-.9-.3-1.7-.9-2.4-.6-.6-1.4-1-2.3-1s-1.7.3-2.3,1c-.6.6-.9,1.4-.9,2.4s.3,1.7.9,2.4,1.4,1,2.3,1,1.7-.3,2.3-1c.6-.7.9-1.5.9-2.4h0Z"/>
  <path class="cls-3" d="M286.2,129.2c1.4,0,2.5.4,3.4,1.3.9.9,1.3,2.1,1.3,3.6v7h-3v-6.4c0-.9-.2-1.5-.6-2s-1-.7-1.7-.7-1.4.3-1.8.8-.7,1.2-.7,2v6.4h-3v-6.4c0-.9-.2-1.5-.6-2s-1-.7-1.7-.7-1.3.3-1.8.8c-.5.5-.7,1.2-.7,2v6.3h-3v-11.6h2.9v1.7c.3-.6.8-1.1,1.4-1.4.6-.4,1.3-.5,2.1-.5.7,0,1.4.2,2,.5.6.4,1.1.9,1.4,1.5.4-.6,1-1.1,1.7-1.5.7-.4,1.5-.5,2.4-.5h0Z"/>
  <path class="cls-3" d="M167.5,157.3v-8.8h1.2v8.8h-1.2Z"/>
  <path class="cls-3" d="M178,150.7c.8,0,1.4.2,1.9.8.5.5.7,1.1.7,2v3.8h-1.1v-3.6c0-.6-.1-1.1-.4-1.4-.3-.3-.6-.5-1.1-.5s-.9.2-1.2.5-.5.8-.5,1.4v3.6h-1.1v-3.6c0-.6-.1-1.1-.4-1.4s-.6-.5-1.1-.5-.9.2-1.2.5c-.3.4-.5.8-.5,1.4v3.6h-1.1v-6.4h1.1v.9c.2-.4.4-.6.8-.8s.7-.3,1.1-.3c.4,0,.8.1,1.2.3s.6.5.8.9c.2-.4.5-.6.9-.9s.9-.3,1.4-.3h0Z"/>
  <path class="cls-3" d="M187.3,151.8v-.9h1.1v6.4h-1.1v-.9c-.6.7-1.3,1.1-2.2,1.1s-1.7-.3-2.3-1c-.6-.6-.9-1.4-.9-2.4s.3-1.7.9-2.4c.6-.6,1.4-.9,2.3-.9s1.7.4,2.2,1.1h0ZM187.4,154.1c0-.6-.2-1.2-.6-1.6-.4-.4-.9-.7-1.6-.7s-1.2.2-1.6.7-.6,1-.6,1.6.2,1.2.6,1.6c.4.4.9.7,1.6.7s1.2-.2,1.6-.7c.4-.4.6-1,.6-1.6h0Z"/>
  <path class="cls-3" d="M195.2,151.7v-.8h1.1v5.7c0,1-.3,1.8-.9,2.4-.6.6-1.4.9-2.5.9s-2-.3-2.8-.9l.5-.9c.7.5,1.4.8,2.3.8s1.3-.2,1.7-.6c.4-.4.6-.9.6-1.5v-.5c-.6.7-1.3,1-2.2,1s-1.7-.3-2.3-.9c-.6-.6-.9-1.4-.9-2.4s.3-1.7.9-2.3c.6-.6,1.4-.9,2.3-.9s1.6.3,2.2,1h0ZM191.6,155.6c.4.4.9.6,1.6.6s1.1-.2,1.6-.6c.4-.4.6-.9.6-1.6s-.2-1.2-.6-1.6-.9-.6-1.6-.6-1.1.2-1.6.6c-.4.4-.6.9-.6,1.6s.2,1.2.6,1.6Z"/>
  <path class="cls-3" d="M204,154c0,0,0,.3,0,.6h-5.1c.1.6.3,1,.7,1.3.4.3.9.5,1.5.5s.8,0,1.2-.2c.4-.1.8-.3,1.1-.5l.5.9c-.3.3-.8.5-1.2.6s-1,.3-1.5.3-1.1,0-1.5-.3-.8-.4-1.1-.8-.5-.7-.6-1.1c-.1-.4-.2-.8-.2-1.2,0-.9.3-1.7.9-2.4.6-.6,1.4-.9,2.3-.9s1.6.3,2.2.9c.6.6.9,1.4.9,2.4h0ZM198.9,153.6h3.9c0-.5-.2-1-.6-1.3s-.8-.5-1.3-.5-1,.2-1.3.5-.6.8-.7,1.3h0Z"/>
  <path class="cls-3" d="M207.2,157.4c-.5,0-.9-.1-1.4-.4s-.8-.6-1-1l.8-.6c.2.3.4.6.7.8.3.2.6.3.9.3s.6,0,.8-.3.3-.4.3-.6c0-.3-.2-.6-.6-.8-.1,0-.4-.2-.8-.4-.4-.2-.6-.3-.8-.4-.6-.4-1-.9-1-1.6s.2-.9.6-1.3c.4-.3.9-.5,1.5-.5s.8,0,1.2.3c.4.2.6.4.9.8l-.7.7c-.4-.5-.8-.7-1.4-.7s-.5,0-.7.2c-.2.1-.2.3-.2.6,0,.3.2.6.5.8l.7.3c.4.1.7.3.9.4.7.4,1.1.9,1.1,1.6s-.2,1-.6,1.4c-.4.4-1,.6-1.7.6h0Z"/>
  <path class="cls-3" d="M219.7,155.4l1.4,1.2-.6.7-1.4-1.3c-.9.9-1.8,1.3-2.8,1.3s-1.5-.2-2.1-.8c-.6-.5-.8-1.1-.8-1.8,0-1.1.5-1.9,1.6-2.6-.4-.5-.5-1.1-.5-1.6s.2-1.1.7-1.6c.5-.4,1-.7,1.6-.7s1,.2,1.4.5c.4.4.6.8.6,1.3s-.2,1.1-.7,1.4c-.4.3-.8.6-1.4.8h-.2c.2.3.4.5.7.7l1.8,1.6c.3-.3.5-.7.9-1.2l.8.6c-.2.4-.5.9-.9,1.3h0ZM216.3,156.4c.7,0,1.3-.3,2-1l-2.1-1.8c-.3-.3-.5-.5-.7-.6-.7.5-1.1,1.1-1.1,1.8s.2.9.5,1.2c.4.3.8.5,1.3.5h0ZM216.7,149.2c-.4,0-.7.1-.9.4s-.4.6-.4,1,.1.9.4,1.2c.8-.4,1.2-.6,1.4-.8.3-.2.5-.5.5-.9s0-.5-.3-.7c-.2-.2-.4-.3-.7-.3h0Z"/>
  <path class="cls-3" d="M228.3,157.3h-3.1v-8.8h3.3c1.2,0,2.2.4,2.9,1.2.7.8,1.1,1.9,1.1,3.2s-.4,2.4-1.1,3.2c-.7.8-1.8,1.2-3,1.2h0ZM226.4,149.6v6.5h2c.9,0,1.6-.3,2.1-.9s.8-1.4.8-2.4-.3-1.7-.8-2.3c-.5-.6-1.2-.9-2.1-.9h-2Z"/>
  <path class="cls-3" d="M239.9,154c0,0,0,.3,0,.6h-5.1c.1.6.3,1,.7,1.3s.9.5,1.5.5.8,0,1.2-.2.8-.3,1.1-.5l.5.9c-.3.3-.8.5-1.2.6s-1,.3-1.5.3-1.1,0-1.5-.3-.8-.4-1.1-.8-.5-.7-.6-1.1c-.1-.4-.2-.8-.2-1.2,0-.9.3-1.7.9-2.4.6-.6,1.4-.9,2.3-.9s1.6.3,2.2.9c.6.6.9,1.4.9,2.4h0ZM234.8,153.6h3.9c0-.5-.2-1-.6-1.3s-.8-.5-1.3-.5-1,.2-1.3.5-.6.8-.7,1.3h0Z"/>
  <path class="cls-3" d="M243,157.4c-.5,0-.9-.1-1.4-.4s-.8-.6-1-1l.8-.6c.2.3.4.6.7.8.3.2.6.3.9.3s.6,0,.8-.3.3-.4.3-.6c0-.3-.2-.6-.6-.8-.1,0-.4-.2-.8-.4-.4-.2-.6-.3-.8-.4-.6-.4-1-.9-1-1.6s.2-.9.6-1.3c.4-.3.9-.5,1.5-.5s.8,0,1.2.3c.4.2.6.4.9.8l-.7.7c-.4-.5-.8-.7-1.4-.7s-.5,0-.7.2c-.2.1-.2.3-.2.6,0,.3.2.6.5.8l.7.3c.4.1.7.3.9.4.7.4,1.1.9,1.1,1.6s-.2,1-.6,1.4c-.4.4-1,.6-1.7.6h0Z"/>
  <path class="cls-3" d="M247.2,150c-.2,0-.4,0-.6-.2s-.2-.4-.2-.6,0-.4.2-.6.4-.2.6-.2.4,0,.6.2c.2.1.2.3.2.6s0,.4-.2.6c-.2.1-.4.2-.6.2ZM247.8,150.9v6.4h-1.1v-6.4h1.1Z"/>
  <path class="cls-3" d="M254.6,151.7v-.8h1.1v5.7c0,1-.3,1.8-.9,2.4-.6.6-1.4.9-2.5.9s-2-.3-2.8-.9l.5-.9c.7.5,1.4.8,2.3.8s1.3-.2,1.7-.6c.4-.4.6-.9.6-1.5v-.5c-.6.7-1.3,1-2.2,1s-1.7-.3-2.3-.9c-.6-.6-.9-1.4-.9-2.4s.3-1.7.9-2.3c.6-.6,1.4-.9,2.3-.9s1.6.3,2.2,1h0ZM250.9,155.6c.4.4.9.6,1.6.6s1.1-.2,1.6-.6c.4-.4.6-.9.6-1.6s-.2-1.2-.6-1.6c-.4-.4-.9-.6-1.6-.6s-1.1.2-1.6.6c-.4.4-.6.9-.6,1.6s.2,1.2.6,1.6Z"/>
  <path class="cls-3" d="M258.6,157.3h-1.1v-6.4h1.1v.9c.4-.7,1.1-1.1,2-1.1s1.3.2,1.8.7.7,1.1.7,2v3.9h-1.1v-3.5c0-.6-.1-1.1-.4-1.4-.3-.3-.7-.5-1.2-.5s-.9.2-1.3.5c-.3.4-.5.8-.5,1.4v3.5h0Z"/>
</svg>