<?xml version="1.0" encoding="UTF-8"?>
<svg id="logos_1x1" data-name="logos 1x1" xmlns="http://www.w3.org/2000/svg" xmlns:xlink="http://www.w3.org/1999/xlink" version="1.1" viewBox="0 0 430 215">
  <defs>
    <style>
      .cls-1 {
        fill: url(#linear-gradient);
      }

      .cls-1, .cls-2, .cls-3, .cls-4, .cls-5, .cls-6, .cls-7, .cls-8, .cls-9, .cls-10, .cls-11, .cls-12, .cls-13, .cls-14, .cls-15, .cls-16 {
        stroke-width: 0px;
      }

      .cls-2 {
        fill: #e6f0fa;
      }

      .cls-3 {
        fill: #e85a4d;
      }

      .cls-4 {
        fill: #e7e4d7;
      }

      .cls-5 {
        fill: #b3392f;
      }

      .cls-6 {
        fill: #000;
      }

      .cls-7 {
        fill: #f7f4ec;
      }

      .cls-8 {
        fill: url(#linear-gradient-4);
      }

      .cls-9 {
        fill: url(#linear-gradient-2);
      }

      .cls-10 {
        fill: url(#linear-gradient-3);
      }

      .cls-11 {
        fill: url(#linear-gradient-8);
      }

      .cls-12 {
        fill: url(#linear-gradient-7);
      }

      .cls-13 {
        fill: url(#linear-gradient-5);
      }

      .cls-14 {
        fill: url(#linear-gradient-6);
      }

      .cls-15 {
        fill: #b9b8ae;
      }

      .cls-16 {
        fill: #b7b6ad;
      }
    </style>
    <linearGradient id="linear-gradient" x1="-29623.9" y1="20454.8" x2="-29133.7" y2="20454.8" gradientTransform="translate(1788.3 -1157.6) scale(0)" gradientUnits="userSpaceOnUse">
      <stop offset="0" stop-color="#f7f5ef"/>
      <stop offset="1" stop-color="#e7e4d6"/>
    </linearGradient>
    <linearGradient id="linear-gradient-2" x1="-29623.9" y1="20454.8" x2="-29133.7" y2="20454.8" gradientTransform="translate(1788.3 -1157.6) scale(0)" gradientUnits="userSpaceOnUse">
      <stop offset="0" stop-color="#f7f5ef"/>
      <stop offset="1" stop-color="#e7e4d6"/>
    </linearGradient>
    <linearGradient id="linear-gradient-3" x1="-29623.9" y1="20454.8" x2="-29133.7" y2="20454.8" gradientTransform="translate(1788.3 -1157.6) scale(0)" gradientUnits="userSpaceOnUse">
      <stop offset="0" stop-color="#f7f5ef"/>
      <stop offset="1" stop-color="#e7e4d6"/>
    </linearGradient>
    <linearGradient id="linear-gradient-4" x1="-29623.9" y1="20454.8" x2="-29133.7" y2="20454.8" gradientTransform="translate(1788.3 -1157.6) scale(0)" gradientUnits="userSpaceOnUse">
      <stop offset="0" stop-color="#f7f5ef"/>
      <stop offset="1" stop-color="#e7e4d6"/>
    </linearGradient>
    <linearGradient id="linear-gradient-5" x1="-29623.9" y1="20454.8" x2="-29133.7" y2="20454.8" gradientTransform="translate(1788.3 -1157.6) scale(0)" gradientUnits="userSpaceOnUse">
      <stop offset="0" stop-color="#f7f5ef"/>
      <stop offset="1" stop-color="#e7e4d6"/>
    </linearGradient>
    <linearGradient id="linear-gradient-6" x1="-29623.9" y1="20454.8" x2="-29133.7" y2="20454.8" gradientTransform="translate(1788.3 -1157.6) scale(0)" gradientUnits="userSpaceOnUse">
      <stop offset="0" stop-color="#f7f5ef"/>
      <stop offset="1" stop-color="#e7e4d6"/>
    </linearGradient>
    <linearGradient id="linear-gradient-7" x1="-29623.9" y1="20454.8" x2="-29133.7" y2="20454.8" gradientTransform="translate(1788.3 -1157.6) scale(0)" gradientUnits="userSpaceOnUse">
      <stop offset="0" stop-color="#f7f5ef"/>
      <stop offset="1" stop-color="#e7e4d6"/>
    </linearGradient>
    <linearGradient id="linear-gradient-8" x1="-29623.9" y1="20454.8" x2="-29133.7" y2="20454.8" gradientTransform="translate(1788.3 -1157.6) scale(0)" gradientUnits="userSpaceOnUse">
      <stop offset="0" stop-color="#f7f5ef"/>
      <stop offset="1" stop-color="#e7e4d6"/>
    </linearGradient>
  </defs>
  <rect class="cls-2" width="430" height="215"/>
  <path class="cls-6" d="M192.1,139.1c-2.4,0-4.3-.8-5.9-2.3-1.5-1.5-2.3-3.5-2.3-5.8s.8-4.3,2.4-5.8c1.6-1.5,3.6-2.3,5.9-2.3s2.4.2,3.6.7,2.1,1.1,2.8,1.9l-2.1,2.2c-1.2-1.2-2.6-1.8-4.3-1.8s-2.7.5-3.6,1.4-1.4,2.2-1.4,3.6.5,2.6,1.4,3.6c1,1,2.2,1.5,3.6,1.5s1.6-.1,2.3-.5c.8-.3,1.4-.7,1.9-1.2v-2.1h-4.3v-2.8h7.2v6.5c-2,2.1-4.4,3.1-7.2,3.1h0s0,0,0,0Z"/>
  <path class="cls-6" d="M215.7,126.9c1.4,0,2.5.4,3.4,1.3.9.9,1.3,2.1,1.3,3.6v7h-3v-6.4c0-.9-.2-1.5-.6-2s-1-.7-1.7-.7-1.4.3-1.8.8c-.5.5-.7,1.2-.7,2v6.4h-3v-6.4c0-.9-.2-1.5-.6-2s-1-.7-1.7-.7-1.3.3-1.8.8c-.5.5-.7,1.2-.7,2v6.3h-3v-11.6h2.9v1.7c.3-.6.8-1.1,1.4-1.4.6-.4,1.3-.5,2.1-.5.7,0,1.4.2,2,.5.6.4,1.1.9,1.4,1.5.4-.6,1-1.1,1.7-1.5.7-.4,1.5-.5,2.4-.5h0Z"/>
  <path class="cls-6" d="M231.8,128.6v-1.4h2.9v11.6h-2.9v-1.3c-1,1.1-2.2,1.6-3.7,1.6s-3-.6-4.1-1.7-1.6-2.6-1.6-4.4.5-3.2,1.6-4.3c1.1-1.2,2.5-1.7,4.1-1.7s2.7.6,3.7,1.7h0ZM231.8,133c0-.9-.3-1.7-.9-2.4-.6-.6-1.4-1-2.3-1s-1.7.3-2.3,1c-.6.6-.9,1.4-.9,2.4s.3,1.7.9,2.4,1.4,1,2.3,1,1.7-.3,2.3-1c.6-.7.9-1.5.9-2.4h0Z"/>
  <path class="cls-6" d="M240.7,124.1c0,.5-.2,1-.5,1.3-.4.4-.8.5-1.3.5s-1-.2-1.3-.5c-.4-.4-.5-.8-.5-1.3s.2-.9.5-1.3c.4-.4.8-.5,1.3-.5s1,.2,1.3.5c.4.3.5.8.5,1.3ZM240.4,127.3v11.6h-3v-11.6s3,0,3,0Z"/>
  <path class="cls-6" d="M246.1,122.7v16.1h-3v-16.2s3,0,3,0Z"/>
  <path class="cls-6" d="M205.5,155h-5.5v-8.8h5.5v1.1h-4.3v2.6h4v1.1h-4v2.8h4.3v1.1h0Z"/>
  <path class="cls-6" d="M214.4,148.4c.8,0,1.4.2,1.9.8.5.5.7,1.1.7,2v3.8h-1.1v-3.6c0-.6-.1-1.1-.4-1.4-.3-.3-.6-.5-1.1-.5s-.9.2-1.2.5-.5.8-.5,1.4v3.6h-1.1v-3.6c0-.6-.1-1.1-.4-1.4s-.6-.5-1.1-.5-.9.2-1.2.5c-.3.4-.5.8-.5,1.4v3.6h-1.1v-6.4h1.1v.9c.2-.4.4-.6.8-.8s.7-.3,1.1-.3c.4,0,.8.1,1.2.3s.6.5.8.9c.2-.4.5-.6.9-.9s.9-.3,1.4-.3h0Z"/>
  <path class="cls-6" d="M223.7,149.6v-.9h1.1v6.4h-1.1v-.9c-.6.7-1.3,1.1-2.2,1.1s-1.7-.3-2.3-1c-.6-.6-.9-1.4-.9-2.4s.3-1.7.9-2.4c.6-.6,1.4-.9,2.3-.9s1.7.4,2.2,1.1h0ZM223.8,151.8c0-.6-.2-1.2-.6-1.6-.4-.4-.9-.7-1.6-.7s-1.2.2-1.6.7-.6,1-.6,1.6.2,1.2.6,1.6c.4.4.9.7,1.6.7s1.2-.2,1.6-.7c.4-.4.6-1,.6-1.6h0Z"/>
  <path class="cls-6" d="M227.2,147.7c-.2,0-.4,0-.6-.2s-.2-.4-.2-.6,0-.4.2-.6.4-.2.6-.2.4,0,.6.2c.2.1.2.3.2.6s0,.4-.2.6c-.2.1-.4.2-.6.2ZM227.7,148.6v6.4h-1.1v-6.4h1.1Z"/>
  <path class="cls-6" d="M230.6,146v9h-1.1v-9h1.1Z"/>
  <path class="cls-3" d="M236.5,61.9c2.3,0,4.2,1.9,4.2,4.2v1.2l-5.8,4.1-19.7,13.6-19.7-13.7v27.4h-1.5c-2.3,0-4.2-1.9-4.2-4.2v-28.4c0-2.3,1.9-4.2,4.2-4.2l21.2,15.7,21.3-15.7h0Z"/>
  <path class="cls-1" d="M194,61.9l21.2,15.7,21.3-15.7h-42.5Z"/>
  <path class="cls-4" d="M195.5,71.2v27.4h39.4v-27.3l-19.7,13.6-19.7-13.7h0Z"/>
  <path class="cls-15" d="M195.5,98.7l19.7-13.7h0c0,0-19.6,13.4-19.6,13.4,0,0,0,.3,0,.3Z"/>
  <path class="cls-16" d="M234.9,71.4v27.3l-19.7-13.7,19.7-13.6h0Z"/>
  <path class="cls-5" d="M240.6,67.2v27.2c0,3-1.4,4.1-5.8,4.2v-27.3l5.8-4.1h0Z"/>
  <path class="cls-9" d="M194,61.9l21.2,15.7,21.3-15.7h-42.5Z"/>
  <path class="cls-10" d="M194,61.9l21.2,15.7,21.3-15.7h-42.5Z"/>
  <path class="cls-8" d="M194,61.9l21.2,15.7,21.3-15.7h-42.5Z"/>
  <path class="cls-13" d="M194,61.9l21.2,15.7,21.3-15.7h-42.5Z"/>
  <path class="cls-14" d="M194,61.9l21.2,15.7,21.3-15.7h-42.5Z"/>
  <path class="cls-12" d="M194,61.9l21.2,15.7,21.3-15.7h-42.5Z"/>
  <path class="cls-11" d="M194,61.9l21.2,15.7,21.3-15.7h-42.5Z"/>
  <path class="cls-7" d="M194,61.9l21.2,15.7,21.3-15.7h-42.5Z"/>
</svg>