<?xml version="1.0" encoding="UTF-8"?>
<svg id="logos_1x1" data-name="logos 1x1" xmlns="http://www.w3.org/2000/svg" version="1.1" viewBox="0 0 430 215">
  <defs>
    <style>
      .cls-1 {
        fill: #e6f0fa;
      }

      .cls-1, .cls-2, .cls-3, .cls-4, .cls-5, .cls-6 {
        stroke-width: 0px;
      }

      .cls-2 {
        fill: #92ccb0;
      }

      .cls-3 {
        fill: #1e905b;
      }

      .cls-4 {
        fill: #000;
      }

      .cls-5 {
        fill: #20a567;
      }

      .cls-6 {
        fill: #fff;
        fill-rule: evenodd;
      }
    </style>
  </defs>
  <rect class="cls-1" width="430" height="215"/>
  <path class="cls-4" d="M145.5,139.6c-2.4,0-4.3-.8-5.9-2.3-1.5-1.5-2.3-3.5-2.3-5.8s.8-4.3,2.4-5.8c1.6-1.5,3.6-2.3,5.9-2.3s2.4.2,3.6.7,2.1,1.1,2.8,1.9l-2.1,2.2c-1.2-1.2-2.6-1.8-4.3-1.8s-2.7.5-3.6,1.4-1.4,2.2-1.4,3.6.5,2.6,1.4,3.6c1,1,2.2,1.5,3.6,1.5s1.6-.1,2.3-.5c.8-.3,1.4-.7,1.9-1.2v-2.1h-4.3v-2.8h7.2v6.5c-2,2.1-4.4,3.1-7.2,3.1h0s0,0,0,0Z"/>
  <path class="cls-4" d="M154.4,133.6c0-1.7.6-3.1,1.7-4.3,1.2-1.2,2.7-1.8,4.5-1.8s3.3.6,4.5,1.8c1.2,1.2,1.7,2.6,1.7,4.3s-.6,3.2-1.7,4.3c-1.2,1.2-2.7,1.8-4.5,1.8s-3.3-.6-4.5-1.8c-1.2-1.2-1.7-2.6-1.7-4.3ZM158.4,135.9c.6.6,1.4.9,2.3.9s1.6-.3,2.3-.9c.6-.7.9-1.4.9-2.4s-.3-1.7-.9-2.3c-.6-.6-1.4-.9-2.3-.9s-1.7.3-2.3.9c-.6.6-.9,1.4-.9,2.3s.3,1.7.9,2.4Z"/>
  <path class="cls-4" d="M168.3,133.6c0-1.7.6-3.1,1.7-4.3,1.2-1.2,2.7-1.8,4.5-1.8s3.3.6,4.5,1.8c1.2,1.2,1.7,2.6,1.7,4.3s-.6,3.2-1.7,4.3c-1.2,1.2-2.7,1.8-4.5,1.8s-3.3-.6-4.5-1.8c-1.2-1.2-1.7-2.6-1.7-4.3ZM172.2,135.9c.6.6,1.4.9,2.3.9s1.6-.3,2.3-.9c.6-.7.9-1.4.9-2.4s-.3-1.7-.9-2.3c-.6-.6-1.4-.9-2.3-.9s-1.7.3-2.3.9c-.6.6-.9,1.4-.9,2.3s.3,1.7.9,2.4Z"/>
  <path class="cls-4" d="M191.7,129.1v-1.3h2.8v10.4c0,1.9-.6,3.3-1.8,4.4-1.2,1.1-2.8,1.6-4.6,1.6s-3.8-.6-5.3-1.7l1.2-2.2c1.3.9,2.7,1.4,4.1,1.4s2-.3,2.6-.9,1-1.4,1-2.3v-.6c-.9,1-2.1,1.5-3.6,1.5s-3.1-.6-4.2-1.7-1.6-2.5-1.6-4.2.6-3.1,1.7-4.3,2.5-1.7,4.2-1.7,2.6.5,3.6,1.6h0s0,0,0,0ZM185.3,133.5c0,1,.3,1.8.9,2.4.6.6,1.4.9,2.3.9s1.7-.3,2.3-.9c.6-.6.9-1.4.9-2.4s-.3-1.7-.9-2.3-1.4-.9-2.3-.9-1.7.3-2.3.9-.9,1.4-.9,2.3Z"/>
  <path class="cls-4" d="M200.2,123.2v16.2h-3v-16.2h3Z"/>
  <path class="cls-4" d="M214.1,133.3c0,.4,0,.8-.1,1.3h-8.7c.4,1.6,1.6,2.5,3.4,2.5s2.6-.4,3.7-1.2l1.2,2.1c-1.5,1.1-3.2,1.6-5.1,1.6s-3.6-.6-4.7-1.8c-1.1-1.2-1.6-2.6-1.6-4.3s.6-3.2,1.7-4.4c1.1-1.1,2.6-1.7,4.4-1.7s3.1.5,4.2,1.6c1.1,1.1,1.6,2.5,1.6,4.2h0ZM208.3,130c-.8,0-1.4.2-1.9.6s-.9,1-1.1,1.8h5.9c-.1-.8-.5-1.3-1-1.8s-1.1-.6-1.9-.6Z"/>
  <path class="cls-4" d="M226.4,139.6c-1.2,0-2.4-.3-3.4-.8-1.1-.5-1.9-1.2-2.5-2.2l1.8-2.2c1.1,1.5,2.4,2.2,4.2,2.2s1.2-.1,1.6-.5c.4-.3.6-.7.6-1.2s-.5-1.2-1.4-1.6c-.1,0-.6-.3-1.6-.6-.7-.3-1.3-.6-1.8-.9-1.7-.9-2.5-2.2-2.5-3.9s.5-2.4,1.5-3.3c1-.9,2.3-1.3,3.9-1.3s3.8.7,5.2,2.1l-1.7,2.3c-.4-.4-.9-.8-1.6-1.1s-1.2-.4-1.9-.4-1.1.1-1.5.4-.5.6-.5,1.1.4,1.1,1.3,1.6l1.6.7c.9.4,1.5.6,1.9.8,1.8.9,2.7,2.2,2.7,3.9s-.5,2.6-1.6,3.4c-1.1.9-2.4,1.3-4.2,1.3h0Z"/>
  <path class="cls-4" d="M237.3,139.4h-3v-16.2h2.9v6.1c.3-.5.8-1,1.5-1.3.7-.3,1.4-.5,2.2-.5,1.2,0,2.3.4,3.2,1.3.9.8,1.3,2,1.3,3.6v7.1h-3v-6.3c0-.9-.2-1.6-.6-2.1s-1-.8-1.8-.8-1.4.3-1.9.8c-.5.5-.7,1.2-.7,2.1v6.2h0Z"/>
  <path class="cls-4" d="M259.2,133.3c0,.4,0,.8-.1,1.3h-8.7c.4,1.6,1.6,2.5,3.4,2.5s2.6-.4,3.7-1.2l1.2,2.1c-1.5,1.1-3.2,1.6-5.1,1.6s-3.6-.6-4.7-1.8c-1.1-1.2-1.6-2.6-1.6-4.3s.6-3.2,1.7-4.4c1.1-1.1,2.6-1.7,4.4-1.7s3.1.5,4.2,1.6c1.1,1.1,1.6,2.5,1.6,4.2h0ZM253.4,130c-.8,0-1.4.2-1.9.6s-.9,1-1.1,1.8h5.9c-.1-.8-.5-1.3-1-1.8-.5-.4-1.1-.6-1.9-.6h0Z"/>
  <path class="cls-4" d="M272.5,133.3c0,.4,0,.8-.1,1.3h-8.7c.4,1.6,1.5,2.5,3.4,2.5s2.6-.4,3.7-1.2l1.2,2.1c-1.5,1.1-3.2,1.6-5.1,1.6s-3.6-.6-4.7-1.8c-1.1-1.2-1.6-2.6-1.6-4.3s.6-3.2,1.7-4.4c1.1-1.1,2.6-1.7,4.4-1.7s3.1.5,4.2,1.6c1.1,1.1,1.6,2.5,1.6,4.2h0ZM266.7,130c-.8,0-1.4.2-1.9.6s-.9,1-1.1,1.8h5.9c-.1-.8-.5-1.3-1-1.8-.5-.4-1.1-.6-1.9-.6h0Z"/>
  <path class="cls-4" d="M281.8,136.4l.9,2.4c-1,.6-2.1.9-3.4.9s-2.3-.4-3-1.2-1-1.9-1-3.4v-4.8h-1.9v-2.5h1.9v-4.1h3v4.1h3.8v2.5h-3.8v4.6c0,1.4.5,2,1.6,2s1.2-.2,1.9-.6h0Z"/>
  <path class="cls-4" d="M288,139.7c-2,0-3.6-.8-4.8-2.2l1.6-1.9c.4.5.9.9,1.5,1.2.6.3,1.1.4,1.7.4s.8-.1,1.1-.3c.3-.2.5-.5.5-.8s-.3-.8-.8-1c-.2,0-.6-.2-1.4-.5-.7-.2-1.2-.4-1.5-.6-1.3-.6-2-1.6-2-3s.4-1.8,1.2-2.5c.8-.7,1.8-1,3.1-1s3,.6,4,1.7l-1.5,1.9c-.8-.8-1.7-1.1-2.6-1.1s-.7,0-.9.3c-.2.2-.4.4-.4.7,0,.5.3.8,1,1.1,1.5.6,2.5.9,2.8,1.1,1.3.7,2,1.7,2,2.9s-.4,2-1.3,2.7c-.8.7-1.9,1.1-3.3,1.1h0Z"/>
  <path class="cls-4" d="M181,155.7c-.6,0-1.2-.1-1.8-.5s-.9-.8-1.2-1.3l.9-.7c.5.9,1.2,1.4,2.1,1.4s.9-.1,1.2-.4.4-.6.4-.9-.3-.9-.9-1.2c-.1,0-.4-.2-.9-.4-.4-.2-.7-.4-1-.5-.9-.6-1.3-1.2-1.3-2.1s.2-1.2.7-1.7c.5-.5,1.1-.7,1.9-.7s2,.4,2.6,1.3l-.8.8c-.5-.6-1.1-.9-1.8-.9s-.7.1-1,.3c-.3.2-.4.5-.4.9s.2.8.8,1.1c.2.1.5.3,1,.5.5.2.9.4,1.1.6.9.5,1.3,1.2,1.3,2.1s-.3,1.4-.8,1.8c-.6.5-1.2.7-2.1.7h0s0,0,0,0Z"/>
  <path class="cls-4" d="M188.7,149c.9,0,1.7.3,2.3,1,.6.6.9,1.4.9,2.4s-.3,1.7-.9,2.4c-.6.6-1.4,1-2.3,1s-1.7-.4-2.3-1.1v3.6h-1.1v-9h1.1v1c.6-.8,1.4-1.1,2.3-1.1h0ZM190.8,152.3c0-.6-.2-1.2-.6-1.6-.4-.4-.9-.7-1.6-.7s-1.2.2-1.6.7-.6,1-.6,1.6.2,1.2.6,1.6c.4.4.9.7,1.6.7s1.2-.2,1.6-.7c.4-.4.6-1,.6-1.6Z"/>
  <path class="cls-4" d="M194.4,155.5h-1.1v-6.4h1.1v.9c.4-.7,1-1.1,1.8-1.1s.5,0,.8,0v1.1c-.3,0-.6-.1-.8-.1-.5,0-.9.2-1.3.5s-.5.9-.5,1.5v3.4h0Z"/>
  <path class="cls-4" d="M203.5,152.2c0,0,0,.3,0,.6h-5.1c.1.6.3,1,.7,1.3.4.3.9.5,1.5.5s.8,0,1.2-.2c.4-.1.8-.3,1.1-.5l.5.9c-.3.3-.8.5-1.2.6s-1,.3-1.5.3-1.1,0-1.5-.3-.8-.4-1.1-.8-.5-.7-.6-1.1c-.1-.4-.2-.8-.2-1.2,0-.9.3-1.7.9-2.4.6-.6,1.4-.9,2.3-.9s1.6.3,2.2.9c.6.6.9,1.4.9,2.4h0ZM198.4,151.8h3.9c0-.5-.2-1-.6-1.3s-.8-.5-1.3-.5-1,.2-1.3.5-.6.8-.7,1.3h0Z"/>
  <path class="cls-4" d="M209.9,150.1v-.9h1.1v6.4h-1.1v-.9c-.6.7-1.3,1.1-2.2,1.1s-1.7-.3-2.3-1c-.6-.6-.9-1.4-.9-2.4s.3-1.7.9-2.4c.6-.6,1.4-.9,2.3-.9s1.7.4,2.2,1.1h0ZM210,152.3c0-.6-.2-1.2-.6-1.6-.4-.4-.9-.7-1.6-.7s-1.2.2-1.6.7-.6,1-.6,1.6.2,1.2.6,1.6c.4.4.9.7,1.6.7s1.2-.2,1.6-.7c.4-.4.6-1,.6-1.6h0Z"/>
  <path class="cls-4" d="M217.8,150.1v-3.6h1.1v9h-1.1v-.9c-.6.7-1.3,1.1-2.2,1.1s-1.7-.3-2.3-1c-.6-.6-.9-1.4-.9-2.4s.3-1.7.9-2.4c.6-.6,1.4-1,2.3-1s1.7.4,2.2,1.1h0ZM217.9,152.3c0-.6-.2-1.2-.6-1.6-.4-.4-.9-.7-1.6-.7s-1.2.2-1.6.7-.6,1-.6,1.6.2,1.2.6,1.6c.4.4.9.7,1.6.7s1.2-.2,1.6-.7c.4-.4.6-1,.6-1.6Z"/>
  <path class="cls-4" d="M222.5,155.7c-.5,0-.9-.1-1.4-.4s-.8-.6-1-1l.8-.6c.2.3.4.6.7.8.3.2.6.3.9.3s.6,0,.8-.3.3-.4.3-.6c0-.3-.2-.6-.6-.8-.1,0-.4-.2-.8-.4-.4-.2-.6-.3-.8-.4-.6-.4-1-.9-1-1.6s.2-.9.6-1.3c.4-.3.9-.5,1.5-.5s.8,0,1.2.3c.4.2.6.4.9.8l-.7.7c-.4-.5-.8-.7-1.4-.7s-.5,0-.7.2c-.2.1-.2.3-.2.6,0,.3.2.6.5.8l.7.3c.4.1.7.3.9.4.7.4,1.1.9,1.1,1.6s-.2,1-.6,1.4c-.4.4-1,.6-1.7.6h0Z"/>
  <path class="cls-4" d="M227.3,155.5h-1.1v-9h1.1v3.4c.2-.3.5-.5.8-.7s.8-.3,1.2-.3c.7,0,1.3.2,1.8.7s.7,1.1.7,2v3.9h-1.1v-3.5c0-.6-.1-1.1-.4-1.4s-.7-.5-1.2-.5-.9.2-1.3.5c-.3.4-.5.8-.5,1.4v3.5h0Z"/>
  <path class="cls-4" d="M239.4,152.2c0,0,0,.3,0,.6h-5.1c.1.6.3,1,.7,1.3s.9.5,1.5.5.8,0,1.2-.2.8-.3,1.1-.5l.5.9c-.3.3-.8.5-1.2.6s-1,.3-1.5.3-1.1,0-1.5-.3-.8-.4-1.1-.8-.5-.7-.6-1.1c-.1-.4-.2-.8-.2-1.2,0-.9.3-1.7.9-2.4.6-.6,1.4-.9,2.3-.9s1.6.3,2.2.9c.6.6.9,1.4.9,2.4h0ZM234.3,151.8h3.9c0-.5-.2-1-.6-1.3s-.8-.5-1.3-.5-1,.2-1.3.5-.6.8-.7,1.3h0Z"/>
  <path class="cls-4" d="M246.7,152.2c0,0,0,.3,0,.6h-5.1c.1.6.3,1,.7,1.3s.9.5,1.5.5.8,0,1.2-.2.8-.3,1.1-.5l.5.9c-.3.3-.8.5-1.2.6s-1,.3-1.5.3-1.1,0-1.5-.3-.8-.4-1.1-.8-.5-.7-.6-1.1c-.1-.4-.2-.8-.2-1.2,0-.9.3-1.7.9-2.4.6-.6,1.4-.9,2.3-.9s1.6.3,2.2.9c.6.6.9,1.4.9,2.4h0ZM241.6,151.8h3.9c0-.5-.2-1-.6-1.3s-.8-.5-1.3-.5-1,.2-1.3.5-.6.8-.7,1.3h0Z"/>
  <path class="cls-4" d="M251.6,154.3l.4.9c-.5.4-1,.5-1.7.5s-1.2-.2-1.5-.6-.5-1-.5-1.8v-3.2h-1.1v-1h1.1v-2.3h1.1v2.3h2.3v1h-2.3v3.2c0,.8.4,1.3,1,1.3s.8-.1,1.1-.4h0Z"/>
  <path class="cls-5" d="M230.7,100.3c0,1.4-1.1,2.5-2.5,2.5h-26.5c-1.4,0-2.5-1.1-2.5-2.5v-38.8c0-1.4,1.1-2.5,2.5-2.5h17l12,12.2v29.1h0Z"/>
  <path class="cls-3" d="M220,70.8l10.7,10.2v-9.9h-9.4c-.4,0-.8,0-1.2-.3h0c0,0,0,0,0,0Z"/>
  <path class="cls-2" d="M230.7,71.2h-9.5c-1.4,0-2.5-1.1-2.5-2.5v-9.8l12,12.3h0Z"/>
  <path class="cls-6" d="M223.1,94.7h-16.4v-14.2h16.4v14.2ZM215.9,82.5v2.5h5.2v-2.5h-5.2ZM215.9,86.6v2.4h5.2v-2.4h-5.2ZM215.9,90.5v2.2h5.2v-2.2h-5.2ZM213.9,92.7v-2.2h-5.2v2.2h5.2ZM213.9,88.9v-2.4h-5.2v2.4h5.2ZM213.9,85v-2.5h-5.2v2.5h5.2Z"/>
</svg>