<?xml version="1.0" encoding="UTF-8"?>
<svg id="logos_1x1" data-name="logos 1x1" xmlns="http://www.w3.org/2000/svg" version="1.1" viewBox="0 0 430 215">
  <defs>
    <style>
      .cls-1 {
        fill: #e6f0fa;
      }

      .cls-1, .cls-2, .cls-3, .cls-4, .cls-5, .cls-6, .cls-7, .cls-8 {
        stroke-width: 0px;
      }

      .cls-2 {
        fill: #0f8b59;
      }

      .cls-3 {
        fill: #dba93e;
      }

      .cls-4 {
        fill: #3f72b8;
      }

      .cls-5 {
        fill: #000;
      }

      .cls-6 {
        fill: #396bb3;
      }

      .cls-7 {
        fill: #f2ba41;
      }

      .cls-8 {
        fill: #109661;
      }
    </style>
  </defs>
  <rect class="cls-1" width="430" height="215"/>
  <path class="cls-5" d="M154,132.8c-2.4,0-4.3-.8-5.9-2.3-1.5-1.5-2.3-3.5-2.3-5.8s.8-4.3,2.4-5.8c1.6-1.5,3.6-2.3,5.9-2.3s2.4.2,3.6.7,2.1,1.1,2.8,1.9l-2.1,2.2c-1.2-1.2-2.6-1.8-4.3-1.8s-2.7.5-3.6,1.4-1.4,2.2-1.4,3.6.5,2.6,1.4,3.6c1,1,2.2,1.5,3.6,1.5s1.6-.1,2.3-.5c.8-.3,1.4-.7,1.9-1.2v-2.1h-4.3v-2.8h7.2v6.5c-2,2.1-4.4,3.1-7.2,3.1h0s0,0,0,0Z"/>
  <path class="cls-5" d="M162.9,126.8c0-1.7.6-3.2,1.7-4.3,1.2-1.2,2.7-1.8,4.5-1.8s3.3.6,4.5,1.8c1.2,1.2,1.7,2.6,1.7,4.3s-.6,3.2-1.7,4.3c-1.2,1.2-2.7,1.8-4.5,1.8s-3.3-.6-4.5-1.8c-1.2-1.2-1.7-2.6-1.7-4.3ZM166.8,129.1c.6.6,1.4.9,2.3.9s1.6-.3,2.3-.9c.6-.7.9-1.4.9-2.4s-.3-1.7-.9-2.3c-.6-.6-1.4-.9-2.3-.9s-1.7.3-2.3.9c-.6.6-.9,1.4-.9,2.3s.3,1.7.9,2.4Z"/>
  <path class="cls-5" d="M176.8,126.8c0-1.7.6-3.2,1.7-4.3,1.2-1.2,2.7-1.8,4.5-1.8s3.3.6,4.5,1.8c1.2,1.2,1.7,2.6,1.7,4.3s-.6,3.2-1.7,4.3c-1.2,1.2-2.7,1.8-4.5,1.8s-3.3-.6-4.5-1.8c-1.2-1.2-1.7-2.6-1.7-4.3ZM180.7,129.1c.6.6,1.4.9,2.3.9s1.6-.3,2.3-.9c.6-.7.9-1.4.9-2.4s-.3-1.7-.9-2.3c-.6-.6-1.4-.9-2.3-.9s-1.7.3-2.3.9c-.6.6-.9,1.4-.9,2.3s.3,1.7.9,2.4Z"/>
  <path class="cls-5" d="M200.2,122.2v-1.3h2.8v10.4c0,1.9-.6,3.3-1.8,4.4-1.2,1.1-2.8,1.6-4.6,1.6s-3.8-.6-5.3-1.7l1.2-2.2c1.3.9,2.7,1.4,4.1,1.4s2-.3,2.6-.9,1-1.4,1-2.3v-.6c-.9,1-2.1,1.5-3.6,1.5s-3.1-.6-4.2-1.7-1.6-2.5-1.6-4.2.6-3.1,1.7-4.3,2.5-1.7,4.2-1.7,2.6.5,3.6,1.6h0s0,0,0,0ZM193.7,126.7c0,1,.3,1.8.9,2.3.6.6,1.4.9,2.3.9s1.7-.3,2.3-.9c.6-.6.9-1.4.9-2.3s-.3-1.7-.9-2.3c-.6-.6-1.4-.9-2.3-.9s-1.7.3-2.3.9-.9,1.4-.9,2.3Z"/>
  <path class="cls-5" d="M208.6,116.4v16.2h-3v-16.2h3Z"/>
  <path class="cls-5" d="M222.6,126.5c0,.4,0,.8-.1,1.3h-8.7c.4,1.6,1.6,2.5,3.4,2.5s2.6-.4,3.7-1.2l1.2,2.1c-1.5,1.1-3.2,1.6-5.1,1.6s-3.6-.6-4.7-1.8c-1.1-1.2-1.6-2.6-1.6-4.3s.6-3.2,1.7-4.3c1.1-1.2,2.6-1.7,4.4-1.7s3.1.5,4.2,1.6c1.1,1.1,1.6,2.5,1.6,4.2h0ZM216.8,123.2c-.8,0-1.4.2-1.9.7s-.9,1-1.1,1.8h5.9c-.1-.8-.5-1.3-1-1.8s-1.1-.7-1.9-.7Z"/>
  <path class="cls-5" d="M236.3,132.6h-6v-15.7h6.1c2.4,0,4.2.7,5.5,2.1,1.3,1.4,2,3.3,2,5.8s-.7,4.3-2.1,5.7c-1.4,1.4-3.2,2.1-5.6,2.1h0ZM233.4,119.9v9.7h3c1.3,0,2.4-.5,3.1-1.4.8-.9,1.1-2.1,1.1-3.5s-.4-2.5-1.1-3.4c-.8-.9-1.8-1.4-3.1-1.4h-3s0,0,0,0Z"/>
  <path class="cls-5" d="M249.2,132.6h-3v-11.6h2.9v1.6c.7-1.2,1.8-1.9,3.2-1.9s.9,0,1.4.3l-.3,2.9c-.5-.2-1-.2-1.4-.2-.9,0-1.6.3-2.1.9-.5.6-.8,1.5-.8,2.6v5.5h0s0,0,0,0Z"/>
  <path class="cls-5" d="M258.5,117.8c0,.5-.2,1-.5,1.3-.4.4-.8.5-1.3.5s-1-.2-1.3-.5c-.4-.4-.5-.8-.5-1.3s.2-.9.5-1.3c.4-.4.8-.5,1.3-.5s1,.2,1.3.5c.4.3.5.8.5,1.3ZM258.2,121v11.6h-3v-11.6s3,0,3,0Z"/>
  <path class="cls-5" d="M265.9,128.5l2.9-7.5h3.3l-5,11.6h-2.3l-5-11.6h3.3l2.9,7.5h0Z"/>
  <path class="cls-5" d="M284.2,126.5c0,.4,0,.8-.1,1.3h-8.7c.4,1.6,1.5,2.5,3.4,2.5s2.6-.4,3.7-1.2l1.2,2.1c-1.5,1.1-3.2,1.6-5.1,1.6s-3.6-.6-4.7-1.8c-1.1-1.2-1.6-2.6-1.6-4.3s.6-3.2,1.7-4.3c1.1-1.2,2.6-1.7,4.4-1.7s3.1.5,4.2,1.6c1.1,1.1,1.6,2.5,1.6,4.2h0ZM278.4,123.2c-.8,0-1.4.2-1.9.7s-.9,1-1.1,1.8h5.9c-.1-.8-.5-1.3-1-1.8-.5-.4-1.1-.7-1.9-.7h0Z"/>
  <path class="cls-5" d="M165.5,148.7h-1.2v-8.8h5.4v1.2h-4.2v2.6h3.6v1.2h-3.6v3.9h0Z"/>
  <path class="cls-5" d="M171.5,141.4c-.2,0-.4,0-.6-.2-.2-.1-.2-.4-.2-.6s0-.4.2-.6.4-.2.6-.2.4,0,.6.2c.2.1.2.3.2.6s0,.4-.2.6c-.2.1-.4.2-.6.2ZM172.1,142.3v6.4h-1.1v-6.4h1.1Z"/>
  <path class="cls-5" d="M175,139.7v9h-1.1v-9h1.1Z"/>
  <path class="cls-5" d="M182.7,145.4c0,0,0,.3,0,.6h-5.1c.1.6.3,1,.7,1.3s.9.5,1.5.5.8,0,1.2-.2c.4-.1.8-.3,1.1-.5l.5.9c-.3.3-.8.5-1.2.6s-1,.3-1.5.3-1.1,0-1.5-.3-.8-.4-1.1-.8-.5-.7-.6-1.1c-.1-.4-.2-.8-.2-1.2,0-.9.3-1.7.9-2.4.6-.6,1.4-.9,2.3-.9s1.6.3,2.2.9c.6.6.9,1.4.9,2.4h0ZM177.6,145h3.9c0-.5-.2-1-.6-1.3s-.8-.5-1.3-.5-1,.2-1.3.5-.6.8-.7,1.3h0Z"/>
  <path class="cls-5" d="M188.4,148.7h-1.2v-8.8h.6l3.8,5.6,3.8-5.6h.6v8.8h-1.2v-5.9l-3,4.4h-.3l-3-4.4v5.9h0Z"/>
  <path class="cls-5" d="M202.9,143.3v-.9h1.1v6.4h-1.1v-.9c-.6.7-1.3,1.1-2.2,1.1s-1.7-.3-2.3-1c-.6-.6-.9-1.4-.9-2.4s.3-1.7.9-2.4c.6-.6,1.4-.9,2.3-.9s1.7.4,2.2,1.1h0ZM203,145.5c0-.6-.2-1.2-.6-1.6-.4-.4-.9-.7-1.6-.7s-1.2.2-1.6.7-.6,1-.6,1.6.2,1.2.6,1.6c.4.4.9.7,1.6.7s1.2-.2,1.6-.7c.4-.4.6-1,.6-1.6h0Z"/>
  <path class="cls-5" d="M206.9,148.7h-1.1v-6.4h1.1v.9c.4-.7,1.1-1.1,2-1.1s1.3.2,1.8.7.7,1.1.7,2v3.9h-1.1v-3.5c0-.6-.1-1.1-.4-1.4-.3-.3-.7-.5-1.2-.5s-.9.2-1.3.5c-.3.4-.5.8-.5,1.4v3.5h0Z"/>
  <path class="cls-5" d="M218.2,143.3v-.9h1.1v6.4h-1.1v-.9c-.6.7-1.3,1.1-2.2,1.1s-1.7-.3-2.3-1c-.6-.6-.9-1.4-.9-2.4s.3-1.7.9-2.4c.6-.6,1.4-.9,2.3-.9s1.7.4,2.2,1.1h0ZM218.2,145.5c0-.6-.2-1.2-.6-1.6-.4-.4-.9-.7-1.6-.7s-1.2.2-1.6.7-.6,1-.6,1.6.2,1.2.6,1.6c.4.4.9.7,1.6.7s1.2-.2,1.6-.7c.4-.4.6-1,.6-1.6h0Z"/>
  <path class="cls-5" d="M226.1,143.2v-.8h1.1v5.7c0,1-.3,1.8-.9,2.4-.6.6-1.4.9-2.5.9s-2-.3-2.8-.9l.5-.9c.7.5,1.4.8,2.3.8s1.3-.2,1.7-.6c.4-.4.6-.9.6-1.5v-.5c-.6.7-1.3,1-2.2,1s-1.7-.3-2.3-.9c-.6-.6-.9-1.4-.9-2.4s.3-1.7.9-2.3c.6-.6,1.4-.9,2.3-.9s1.6.3,2.2,1h0ZM222.4,147.1c.4.4.9.6,1.6.6s1.1-.2,1.6-.6c.4-.4.6-.9.6-1.6s-.2-1.2-.6-1.6-.9-.6-1.6-.6-1.1.2-1.6.6c-.4.4-.6.9-.6,1.6s.2,1.2.6,1.6Z"/>
  <path class="cls-5" d="M234.9,145.4c0,0,0,.3,0,.6h-5.1c.1.6.3,1,.7,1.3.4.3.9.5,1.5.5s.8,0,1.2-.2.8-.3,1.1-.5l.5.9c-.3.3-.8.5-1.2.6s-1,.3-1.5.3-1.1,0-1.5-.3-.8-.4-1.1-.8-.5-.7-.6-1.1c-.1-.4-.2-.8-.2-1.2,0-.9.3-1.7.9-2.4.6-.6,1.4-.9,2.3-.9s1.6.3,2.2.9c.6.6.9,1.4.9,2.4h0ZM229.8,145h3.9c0-.5-.2-1-.6-1.3s-.8-.5-1.3-.5-1,.2-1.3.5-.6.8-.7,1.3h0Z"/>
  <path class="cls-5" d="M243.6,142.2c.8,0,1.4.2,1.9.8.5.5.7,1.1.7,2v3.8h-1.1v-3.6c0-.6-.1-1.1-.4-1.4-.3-.3-.6-.5-1.1-.5s-.9.2-1.2.5-.5.8-.5,1.4v3.6h-1.1v-3.6c0-.6-.1-1.1-.4-1.4s-.6-.5-1.1-.5-.9.2-1.2.5c-.3.4-.5.8-.5,1.4v3.6h-1.1v-6.4h1.1v.9c.2-.4.4-.6.8-.8s.7-.3,1.1-.3c.4,0,.8.1,1.2.3.4.2.6.5.8.9.2-.4.5-.6.9-.9s.9-.3,1.4-.3h0Z"/>
  <path class="cls-5" d="M253.8,145.4c0,0,0,.3,0,.6h-5.1c.1.6.3,1,.7,1.3s.9.5,1.5.5.8,0,1.2-.2.8-.3,1.1-.5l.5.9c-.3.3-.8.5-1.2.6s-1,.3-1.5.3-1.1,0-1.5-.3-.8-.4-1.1-.8-.5-.7-.6-1.1c-.1-.4-.2-.8-.2-1.2,0-.9.3-1.7.9-2.4.6-.6,1.4-.9,2.3-.9s1.6.3,2.2.9c.6.6.9,1.4.9,2.4h0ZM248.7,145h3.9c0-.5-.2-1-.6-1.3s-.8-.5-1.3-.5-1,.2-1.3.5-.6.8-.7,1.3h0Z"/>
  <path class="cls-5" d="M256.2,148.7h-1.1v-6.4h1.1v.9c.4-.7,1.1-1.1,2-1.1s1.3.2,1.8.7.7,1.1.7,2v3.9h-1.1v-3.5c0-.6-.1-1.1-.4-1.4-.3-.3-.7-.5-1.2-.5s-.9.2-1.3.5c-.3.4-.5.8-.5,1.4v3.5h0Z"/>
  <path class="cls-5" d="M266.1,147.4l.4.9c-.5.4-1,.5-1.7.5s-1.2-.2-1.5-.6c-.4-.4-.5-1-.5-1.8v-3.2h-1.1v-1h1.1v-2.3h1.1v2.3h2.3v1h-2.3v3.2c0,.8.4,1.3,1,1.3s.8-.1,1.1-.4h0Z"/>
  <path class="cls-5" d="M192.8,160.4l1.4,1.2-.6.7-1.4-1.3c-.9.9-1.8,1.3-2.8,1.3s-1.5-.2-2.1-.8c-.6-.5-.8-1.1-.8-1.8,0-1.1.5-1.9,1.6-2.6-.4-.5-.5-1.1-.5-1.6s.2-1.1.7-1.6c.5-.4,1-.7,1.6-.7s1,.2,1.4.5c.4.4.6.8.6,1.3s-.2,1.1-.7,1.4c-.4.3-.8.6-1.4.8h-.2c.2.3.4.5.7.7l1.8,1.6c.3-.3.5-.7.9-1.2l.8.6c-.2.4-.5.9-.9,1.3h0ZM189.4,161.4c.7,0,1.3-.3,2-1l-2.1-1.8c-.3-.3-.5-.5-.7-.6-.7.5-1.1,1.1-1.1,1.8s.2.9.5,1.2c.4.3.8.5,1.3.5h0ZM189.8,154.2c-.4,0-.7.1-.9.4s-.4.6-.4,1,.1.9.4,1.2c.8-.4,1.2-.6,1.4-.8.3-.2.5-.5.5-.9s0-.5-.3-.7c-.2-.2-.4-.3-.7-.3h0Z"/>
  <path class="cls-5" d="M200.5,162.4c-.6,0-1.2-.1-1.8-.5s-.9-.8-1.2-1.3l.9-.7c.5.9,1.2,1.4,2.1,1.4s.9-.1,1.2-.4.4-.6.4-.9-.3-.9-.9-1.2c-.1,0-.4-.2-.9-.4-.4-.2-.7-.4-1-.5-.9-.6-1.3-1.2-1.3-2.1s.2-1.2.7-1.7c.5-.5,1.1-.7,1.9-.7s2,.4,2.6,1.3l-.8.8c-.5-.6-1.1-.9-1.8-.9s-.7.1-1,.3c-.3.2-.4.5-.4.9s.2.8.8,1.1c.2.1.5.3,1,.5.5.2.9.4,1.1.6.9.5,1.3,1.2,1.3,2.1s-.3,1.4-.8,1.8c-.6.5-1.2.7-2.1.7h0s0,0,0,0Z"/>
  <path class="cls-5" d="M208.4,161.1l.4.9c-.5.4-1,.5-1.7.5s-1.2-.2-1.5-.6-.5-1-.5-1.8v-3.2h-1.1v-1h1.1v-2.3h1.1v2.3h2.3v1h-2.3v3.2c0,.8.4,1.3,1,1.3s.8-.1,1.1-.4h0Z"/>
  <path class="cls-5" d="M212.6,162.5c-1,0-1.8-.3-2.4-1-.6-.6-.9-1.4-.9-2.4s.3-1.7.9-2.4c.6-.6,1.4-1,2.4-1s1.8.3,2.4,1c.6.6.9,1.4.9,2.4s-.3,1.7-.9,2.4c-.6.6-1.4,1-2.4,1ZM214.8,159.1c0-.6-.2-1.2-.6-1.6-.4-.4-.9-.7-1.6-.7s-1.1.2-1.6.7c-.4.4-.6,1-.6,1.6s.2,1.2.6,1.6c.4.4.9.7,1.6.7s1.1-.2,1.6-.7.6-1,.6-1.6Z"/>
  <path class="cls-5" d="M218.5,162.3h-1.1v-6.4h1.1v.9c.4-.7,1-1.1,1.8-1.1s.5,0,.8,0v1.1c-.3,0-.6-.1-.8-.1-.5,0-.9.2-1.3.5s-.5.9-.5,1.5v3.4h0Z"/>
  <path class="cls-5" d="M226.7,156.9v-.9h1.1v6.4h-1.1v-.9c-.6.7-1.3,1.1-2.2,1.1s-1.7-.3-2.3-1c-.6-.6-.9-1.4-.9-2.4s.3-1.7.9-2.4c.6-.6,1.4-.9,2.3-.9s1.7.4,2.2,1.1h0ZM226.8,159.1c0-.6-.2-1.2-.6-1.6-.4-.4-.9-.7-1.6-.7s-1.2.2-1.6.7-.6,1-.6,1.6.2,1.2.6,1.6c.4.4.9.7,1.6.7s1.2-.2,1.6-.7c.4-.4.6-1,.6-1.6h0Z"/>
  <path class="cls-5" d="M234.6,156.8v-.8h1.1v5.7c0,1-.3,1.8-.9,2.4-.6.6-1.4.9-2.5.9s-2-.3-2.8-.9l.5-.9c.7.5,1.4.8,2.3.8s1.3-.2,1.7-.6c.4-.4.6-.9.6-1.5v-.5c-.6.7-1.3,1-2.2,1s-1.7-.3-2.3-.9c-.6-.6-.9-1.4-.9-2.4s.3-1.7.9-2.3c.6-.6,1.4-.9,2.3-.9s1.6.3,2.2,1h0ZM231,160.6c.4.4.9.6,1.6.6s1.1-.2,1.6-.6c.4-.4.6-.9.6-1.6s-.2-1.2-.6-1.6c-.4-.4-.9-.6-1.6-.6s-1.1.2-1.6.6c-.4.4-.6.9-.6,1.6s.2,1.2.6,1.6Z"/>
  <path class="cls-5" d="M243.4,159c0,0,0,.3,0,.6h-5.1c.1.6.3,1,.7,1.3s.9.5,1.5.5.8,0,1.2-.2.8-.3,1.1-.5l.5.9c-.3.3-.8.5-1.2.6s-1,.3-1.5.3-1.1,0-1.5-.3-.8-.4-1.1-.8-.5-.7-.6-1.1c-.1-.4-.2-.8-.2-1.2,0-.9.3-1.7.9-2.4.6-.6,1.4-.9,2.3-.9s1.6.3,2.2.9c.6.6.9,1.4.9,2.4h0ZM238.3,158.6h3.9c0-.5-.2-1-.6-1.3s-.8-.5-1.3-.5-1,.2-1.3.5-.6.8-.7,1.3h0Z"/>
  <path class="cls-8" d="M198.4,95.9l-8.8-15.3,16.5-28.6,8.8,15.3-16.5,28.6h0Z"/>
  <path class="cls-4" d="M198.4,95.9l8.8-15.3h33.1l-8.8,15.3h-33.1Z"/>
  <path class="cls-7" d="M240.3,80.7h-17.6l-16.5-28.6h17.6l16.5,28.6Z"/>
  <path class="cls-6" d="M214.9,80.7h-7.7l-8.8,15.3s16.5-15.3,16.5-15.3Z"/>
  <path class="cls-3" d="M222.6,80.7h17.6l-21.5-6.7,3.9,6.7Z"/>
  <path class="cls-2" d="M211.1,74l3.9-6.7-8.8-15.3,5,22h0Z"/>
</svg>