<?xml version="1.0" encoding="UTF-8"?>
<svg id="logos_1x1" data-name="logos 1x1" xmlns="http://www.w3.org/2000/svg" version="1.1" viewBox="0 0 430 215">
  <defs>
    <style>
      .cls-1 {
        fill: #e6f0fa;
      }

      .cls-1, .cls-2, .cls-3 {
        stroke-width: 0px;
      }

      .cls-2 {
        fill: #000;
      }

      .cls-3 {
        fill: #f07f3c;
      }
    </style>
  </defs>
  <rect class="cls-1" width="430" height="215"/>
  <path class="cls-2" d="M173,141.3h-3.1v-15.7h3.1v6.3h6.6v-6.3h3.1v15.7h-3.1v-6.4h-6.6v6.4Z"/>
  <path class="cls-2" d="M194.8,140.2c-.9.9-2.2,1.4-3.9,1.4s-3-.5-3.9-1.4c-.9-.9-1.4-2.2-1.4-3.8v-6.7h3v6.7c0,.7.2,1.3.6,1.8s1,.6,1.7.6,1.3-.2,1.7-.6.6-1,.6-1.8v-6.7h3v6.7c0,1.6-.5,2.9-1.4,3.8h0Z"/>
  <path class="cls-2" d="M205.3,129.4c1.6,0,3,.6,4.1,1.8,1.1,1.2,1.7,2.6,1.7,4.3s-.6,3.2-1.7,4.3c-1.1,1.1-2.5,1.7-4.1,1.7s-2.7-.6-3.6-1.7v1.4h-2.9v-16.2h3v5.9c1-1.1,2.1-1.6,3.5-1.6h0ZM201.6,135.5c0,.9.3,1.7.9,2.4.6.6,1.4.9,2.3.9s1.7-.3,2.3-.9c.6-.6.9-1.4.9-2.4s-.3-1.7-.9-2.4c-.6-.6-1.4-.9-2.3-.9s-1.7.3-2.3,1c-.6.6-.9,1.4-.9,2.3h0Z"/>
  <path class="cls-2" d="M216.9,141.6c-2,0-3.6-.8-4.8-2.2l1.6-1.9c.4.5.9.9,1.5,1.2.6.3,1.1.4,1.7.4s.8-.1,1.1-.3c.3-.2.5-.5.5-.8s-.3-.8-.8-1c-.2,0-.6-.2-1.4-.5-.7-.2-1.2-.4-1.5-.6-1.3-.6-2-1.6-2-3s.4-1.8,1.2-2.5c.8-.6,1.8-1,3.1-1s3,.6,4.1,1.7l-1.5,1.9c-.8-.8-1.7-1.1-2.6-1.1s-.7,0-.9.3c-.2.2-.4.4-.4.7,0,.5.3.8,1,1.1,1.5.6,2.4.9,2.8,1.1,1.3.7,2,1.7,2,2.9s-.4,2-1.3,2.7c-.8.7-1.9,1.1-3.3,1.1h0Z"/>
  <path class="cls-2" d="M230.3,129.4c1.6,0,3,.6,4.1,1.8,1.1,1.2,1.6,2.6,1.6,4.3s-.5,3.1-1.6,4.3c-1.1,1.2-2.4,1.8-4.1,1.8s-2.6-.5-3.6-1.6v6.1h-3v-16.4h3v1.4c1-1.1,2.2-1.7,3.7-1.7h0ZM229.7,138.8c.9,0,1.7-.3,2.3-.9.6-.6.9-1.4.9-2.4s-.3-1.7-.9-2.4-1.4-.9-2.3-.9-1.7.3-2.3.9c-.6.6-.9,1.4-.9,2.4s.3,1.7.9,2.4c.6.6,1.4.9,2.3.9Z"/>
  <path class="cls-2" d="M237.5,135.5c0-1.7.6-3.1,1.7-4.3,1.2-1.2,2.7-1.8,4.5-1.8s3.3.6,4.5,1.8c1.2,1.2,1.7,2.6,1.7,4.3s-.6,3.2-1.7,4.3-2.7,1.8-4.5,1.8-3.3-.6-4.5-1.8c-1.2-1.2-1.7-2.6-1.7-4.3ZM241.4,137.8c.6.6,1.4.9,2.3.9s1.6-.3,2.3-.9c.6-.7.9-1.4.9-2.4s-.3-1.7-.9-2.3c-.6-.6-1.4-.9-2.3-.9s-1.7.3-2.3.9c-.6.6-.9,1.4-.9,2.3s.3,1.7.9,2.4Z"/>
  <path class="cls-2" d="M259.3,138.2l.9,2.4c-1,.6-2.1.9-3.4.9s-2.3-.4-3-1.2-1-1.9-1-3.4v-4.8h-1.9v-2.5h1.9v-4.1h3v4.1h3.8v2.5h-3.8v4.6c0,1.4.5,2,1.6,2s1.2-.2,1.9-.6h0Z"/>
  <path class="cls-2" d="M205.3,157.6c-1.3,0-2.3-.4-3.2-1.3-.9-.9-1.3-1.9-1.3-3.2s.4-2.4,1.3-3.3c.9-.9,2-1.3,3.2-1.3s1.5.2,2.2.5c.7.3,1.2.8,1.6,1.4l-.9.7c-.8-1-1.7-1.5-2.9-1.5s-1.7.3-2.4,1-1,1.5-1,2.5.3,1.8.9,2.4c.6.6,1.4.9,2.4.9s1.1-.1,1.6-.4.9-.6,1.3-1.1l.9.7c-.4.6-1,1.1-1.6,1.4s-1.4.5-2.2.5h0Z"/>
  <path class="cls-2" d="M216.8,157.4h-1.5l-2.3-3.6h-1.2v3.6h-1.2v-8.8h3c.9,0,1.6.3,2,.8.5.5.7,1.1.7,1.8s-.2,1.1-.5,1.6-.9.8-1.5.9l2.4,3.7h0ZM213.6,149.8h-1.8v3h1.6c.6,0,1-.1,1.3-.4s.5-.6.5-1.1-.1-.8-.4-1.1-.6-.4-1.1-.4h0Z"/>
  <path class="cls-2" d="M219.4,157.4h-1.2v-8.8h.6l3.8,5.6,3.8-5.6h.6v8.8h-1.2v-5.9l-3,4.4h-.3l-3-4.4v5.9h0Z"/>
  <path class="cls-3" d="M227.1,74.1v-6c1.6-.8,2.7-2.4,2.7-4.2h0c0-2.7-2.1-4.8-4.6-4.8h-.1c-2.6,0-4.6,2.1-4.6,4.6h0c0,1.9,1.1,3.6,2.7,4.3v6c-2.3.3-4.4,1.3-6.2,2.8l-16.5-12.9c.1-.4.2-.9.2-1.3,0-2.9-2.3-5.2-5.2-5.2-2.9,0-5.2,2.3-5.2,5.2,0,2.9,2.3,5.2,5.2,5.2h0c.9,0,1.8-.2,2.6-.7l16.3,12.7c-3,4.5-2.9,10.4.2,14.8l-4.9,4.9c-.4-.1-.8-.2-1.2-.2-2.4,0-4.3,1.9-4.3,4.3s1.9,4.3,4.3,4.3,4.3-1.9,4.3-4.3,0-.8-.2-1.2l4.9-4.9c4.4,3.4,10.4,3.7,15.1.7,4.7-2.9,7-8.5,5.9-13.9-1.1-5.4-5.5-9.5-10.9-10.4M225.1,93.9c-3.7,0-6.9-2.8-6.9-6.6s2.9-6.8,6.6-6.9h.4c3.6.1,6.5,3.1,6.5,6.8,0,3.7-2.9,6.6-6.5,6.8"/>
</svg>