<?xml version="1.0" encoding="UTF-8"?>
<svg id="logos_1x1" data-name="logos 1x1" xmlns="http://www.w3.org/2000/svg" version="1.1" viewBox="0 0 430 215">
  <defs>
    <style>
      .cls-1 {
        fill: #e6f0fa;
      }

      .cls-1, .cls-2, .cls-3, .cls-4 {
        stroke-width: 0px;
      }

      .cls-2 {
        fill: #000;
      }

      .cls-3 {
        fill: #3d5ea9;
      }

      .cls-4 {
        fill: #fff;
      }
    </style>
  </defs>
  <rect class="cls-1" width="430" height="215"/>
  <path class="cls-2" d="M159.1,140.4c-1.9,0-3.6-.6-4.9-1.9l1.5-2.5c.9.9,1.9,1.4,3.1,1.4s1.6-.3,2.2-.9.8-1.4.8-2.4v-9.7h3.1v9.8c0,2-.6,3.6-1.7,4.6-1.1,1-2.5,1.5-4.2,1.5h0Z"/>
  <path class="cls-2" d="M167.1,134.3c0-1.7.6-3.1,1.7-4.3,1.2-1.2,2.7-1.8,4.5-1.8s3.3.6,4.5,1.8c1.2,1.2,1.7,2.6,1.7,4.3s-.6,3.2-1.7,4.3c-1.2,1.2-2.7,1.8-4.5,1.8s-3.3-.6-4.5-1.8c-1.2-1.2-1.7-2.6-1.7-4.3ZM171,136.7c.6.6,1.4.9,2.3.9s1.6-.3,2.3-.9c.6-.7.9-1.4.9-2.4s-.3-1.7-.9-2.3c-.6-.6-1.4-.9-2.3-.9s-1.7.3-2.3.9c-.6.6-.9,1.4-.9,2.3s.3,1.7.9,2.4Z"/>
  <path class="cls-2" d="M188.1,128.2c1.6,0,3,.6,4.1,1.8,1.1,1.2,1.7,2.6,1.7,4.3s-.6,3.2-1.7,4.3c-1.1,1.1-2.5,1.7-4.1,1.7s-2.7-.6-3.6-1.7v1.4h-2.9v-16.2h3v5.9c1-1.1,2.1-1.6,3.5-1.6h0ZM184.5,134.3c0,.9.3,1.7.9,2.4.6.6,1.4.9,2.3.9s1.7-.3,2.3-.9c.6-.6.9-1.4.9-2.4s-.3-1.7-.9-2.4c-.6-.6-1.4-.9-2.3-.9s-1.7.3-2.3,1c-.6.6-.9,1.4-.9,2.3h0Z"/>
  <path class="cls-2" d="M206.7,134.1v-9.7h3.1v15.7h-2.1l-8.1-9.6v9.6h-3.1v-15.7h2l8.3,9.7h0Z"/>
  <path class="cls-2" d="M216.2,125.4c0,.5-.2,1-.5,1.3-.4.4-.8.5-1.3.5s-1-.2-1.3-.5c-.4-.4-.5-.8-.5-1.3s.2-.9.5-1.3c.4-.4.8-.5,1.3-.5s1,.2,1.3.5c.4.3.5.8.5,1.3ZM215.9,128.5v11.6h-3v-11.6h3Z"/>
  <path class="cls-2" d="M232.6,128.2c1.4,0,2.5.4,3.4,1.3.9.9,1.3,2.1,1.3,3.6v7h-3v-6.4c0-.9-.2-1.5-.6-2s-1-.7-1.7-.7-1.4.3-1.8.8c-.5.5-.7,1.2-.7,2v6.4h-3v-6.4c0-.9-.2-1.5-.6-2s-1-.7-1.7-.7-1.3.3-1.8.8c-.5.5-.7,1.2-.7,2v6.3h-3v-11.6h2.9v1.7c.3-.6.8-1.1,1.4-1.4.6-.4,1.3-.5,2.1-.5.7,0,1.4.2,2,.5.6.4,1.1.9,1.4,1.5.4-.6,1-1.1,1.7-1.5.7-.4,1.5-.5,2.4-.5h0Z"/>
  <path class="cls-2" d="M246.4,128.2c1.6,0,3,.6,4.1,1.8,1.1,1.2,1.7,2.6,1.7,4.3s-.6,3.2-1.7,4.3c-1.1,1.1-2.5,1.7-4.1,1.7s-2.7-.6-3.6-1.7v1.4h-2.9v-16.2h3v5.9c1-1.1,2.1-1.6,3.5-1.6h0ZM242.7,134.3c0,.9.3,1.7.9,2.4.6.6,1.4.9,2.3.9s1.7-.3,2.3-.9c.6-.6.9-1.4.9-2.4s-.3-1.7-.9-2.4-1.4-.9-2.3-.9-1.7.3-2.3,1c-.6.6-.9,1.4-.9,2.3h0Z"/>
  <path class="cls-2" d="M263.3,139c-.9.9-2.2,1.4-3.9,1.4s-3-.5-3.9-1.4-1.4-2.2-1.4-3.8v-6.7h3v6.7c0,.7.2,1.3.6,1.8s1,.6,1.7.6,1.3-.2,1.7-.6.6-1,.6-1.8v-6.7h3v6.7c0,1.6-.5,2.9-1.4,3.8h0Z"/>
  <path class="cls-2" d="M271.1,140.4c-2,0-3.6-.8-4.8-2.2l1.6-1.9c.4.5.9.9,1.5,1.2.6.3,1.1.4,1.7.4s.8-.1,1.1-.3c.3-.2.5-.5.5-.8s-.3-.8-.8-1c-.2,0-.6-.2-1.4-.5-.7-.2-1.2-.4-1.5-.6-1.3-.6-2-1.6-2-3s.4-1.8,1.2-2.5c.8-.6,1.8-1,3.1-1s3,.6,4,1.7l-1.5,1.9c-.8-.8-1.7-1.1-2.6-1.1s-.7,0-.9.3c-.2.2-.4.4-.4.7,0,.5.3.8,1,1.1,1.5.6,2.5.9,2.8,1.1,1.3.7,2,1.7,2,2.9s-.4,2-1.3,2.7c-.8.7-1.9,1.1-3.3,1.1h0Z"/>
  <path class="cls-2" d="M155.2,156.4c-.6,0-1.2-.1-1.8-.5s-.9-.8-1.2-1.3l.9-.7c.5.9,1.2,1.4,2.1,1.4s.9-.1,1.2-.4.4-.6.4-.9-.3-.9-.9-1.2c-.1,0-.4-.2-.9-.4-.4-.2-.7-.4-1-.5-.9-.6-1.3-1.2-1.3-2.1s.2-1.2.7-1.7c.5-.5,1.1-.7,1.9-.7s1.9.4,2.6,1.3l-.8.8c-.5-.6-1.1-.9-1.8-.9s-.7.1-1,.3c-.3.2-.4.5-.4.9s.2.8.8,1.1c.2.1.5.3,1,.5.5.2.9.4,1.1.6.9.5,1.3,1.2,1.3,2.1s-.3,1.4-.8,1.8c-.6.5-1.2.7-2.1.7h0s0,0,0,0Z"/>
  <path class="cls-2" d="M162.4,156.4c-1,0-1.8-.3-2.4-.9s-.9-1.4-.9-2.4.3-1.8.9-2.4c.6-.6,1.5-.9,2.5-.9s1.2.1,1.7.4c.5.3.9.7,1.2,1.2l-.9.5c-.2-.4-.5-.6-.8-.9-.4-.2-.7-.3-1.1-.3-.6,0-1.2.2-1.6.6-.4.4-.6,1-.6,1.6s.2,1.2.6,1.6c.4.4.9.6,1.6.6s.8-.1,1.1-.3.6-.5.8-.8l.9.5c-.3.5-.7.9-1.2,1.2-.5.3-1.1.4-1.7.4h0s0,0,0,0Z"/>
  <path class="cls-2" d="M167.7,156.2h-1.1v-9h1.1v3.4c.2-.3.5-.5.8-.7s.8-.3,1.2-.3c.7,0,1.3.2,1.8.7s.7,1.1.7,2v3.9h-1.1v-3.5c0-.6-.1-1.1-.4-1.4s-.7-.5-1.2-.5-.9.2-1.3.5c-.3.4-.5.8-.5,1.4v3.5h0Z"/>
  <path class="cls-2" d="M179.9,152.9c0,0,0,.3,0,.6h-5.1c.1.6.3,1,.7,1.3s.9.5,1.5.5.8,0,1.2-.2c.4-.1.8-.3,1.1-.5l.5.9c-.3.3-.8.5-1.2.6s-1,.3-1.5.3-1.1,0-1.5-.3-.8-.4-1.1-.8-.5-.7-.6-1.1c-.1-.4-.2-.8-.2-1.2,0-.9.3-1.7.9-2.4.6-.6,1.4-.9,2.3-.9s1.6.3,2.2.9c.6.6.9,1.4.9,2.4h0ZM174.7,152.5h3.9c0-.5-.2-1-.6-1.3s-.8-.5-1.3-.5-1,.2-1.3.5-.6.8-.7,1.3h0Z"/>
  <path class="cls-2" d="M186.2,150.8v-3.6h1.1v9h-1.1v-.9c-.6.7-1.3,1.1-2.2,1.1s-1.7-.3-2.3-1c-.6-.6-.9-1.4-.9-2.4s.3-1.7.9-2.4c.6-.6,1.4-1,2.3-1s1.7.4,2.2,1.1h0ZM186.3,153.1c0-.6-.2-1.2-.6-1.6-.4-.4-.9-.7-1.6-.7s-1.2.2-1.6.7-.6,1-.6,1.6.2,1.2.6,1.6c.4.4.9.7,1.6.7s1.2-.2,1.6-.7c.4-.4.6-1,.6-1.6Z"/>
  <path class="cls-2" d="M191.8,156.4c-.8,0-1.5-.2-2-.7-.5-.5-.8-1.2-.8-2v-3.8h1.1v3.8c0,.5.1.9.4,1.2s.7.5,1.2.5.9-.1,1.2-.5.4-.7.4-1.2v-3.8h1.1v3.8c0,.9-.2,1.5-.7,2s-1.2.7-2,.7h0Z"/>
  <path class="cls-2" d="M197.4,147.2v9h-1.1v-9h1.1Z"/>
  <path class="cls-2" d="M199.7,149c-.2,0-.4,0-.6-.2s-.2-.4-.2-.6,0-.4.2-.6.4-.2.6-.2.4,0,.6.2c.2.1.2.3.2.6s0,.4-.2.6c-.2.1-.4.2-.6.2ZM200.3,149.9v6.4h-1.1v-6.4h1.1Z"/>
  <path class="cls-2" d="M203.2,156.2h-1.1v-6.4h1.1v.9c.4-.7,1.1-1.1,2-1.1s1.3.2,1.8.7.7,1.1.7,2v3.9h-1.1v-3.5c0-.6-.1-1.1-.4-1.4-.3-.3-.7-.5-1.2-.5s-.9.2-1.3.5c-.3.4-.5.8-.5,1.4v3.5h0Z"/>
  <path class="cls-2" d="M214.4,150.7v-.8h1.1v5.7c0,1-.3,1.8-.9,2.4-.6.6-1.4.9-2.5.9s-2-.3-2.8-.9l.5-.9c.7.5,1.4.8,2.3.8s1.3-.2,1.7-.6c.4-.4.6-.9.6-1.5v-.5c-.6.7-1.3,1-2.2,1s-1.7-.3-2.3-.9c-.6-.6-.9-1.4-.9-2.4s.3-1.7.9-2.3c.6-.6,1.4-.9,2.3-.9s1.6.3,2.2,1h0ZM210.8,154.6c.4.4.9.6,1.6.6s1.1-.2,1.6-.6c.4-.4.6-.9.6-1.6s-.2-1.2-.6-1.6-.9-.6-1.6-.6-1.1.2-1.6.6c-.4.4-.6.9-.6,1.6s.2,1.2.6,1.6Z"/>
  <path class="cls-2" d="M226.2,154.4l1.4,1.2-.6.7-1.4-1.3c-.9.9-1.8,1.3-2.8,1.3s-1.5-.2-2.1-.8c-.6-.5-.8-1.1-.8-1.8,0-1.1.5-1.9,1.6-2.6-.4-.5-.5-1.1-.5-1.6s.2-1.1.7-1.6c.5-.4,1-.7,1.6-.7s1,.2,1.4.5c.4.4.6.8.6,1.3s-.2,1.1-.7,1.4c-.4.3-.8.6-1.4.8h-.2c.2.3.4.5.7.7l1.8,1.6c.3-.3.5-.7.9-1.2l.8.6c-.2.4-.5.9-.9,1.3h0ZM222.9,155.4c.7,0,1.3-.3,2-1l-2.1-1.8c-.3-.3-.5-.5-.7-.6-.7.5-1.1,1.1-1.1,1.8s.2.9.5,1.2c.4.3.8.5,1.3.5h0ZM223.3,148.2c-.4,0-.7.1-.9.4s-.4.6-.4,1,.1.9.4,1.2c.8-.4,1.2-.6,1.4-.8.3-.2.5-.5.5-.9s0-.5-.3-.7c-.2-.2-.4-.3-.7-.3h0Z"/>
  <path class="cls-2" d="M236.5,151.4c.5.1.9.4,1.2.8.3.4.4.9.4,1.4s-.2,1.3-.7,1.8-1.1.8-2,.8h-3.6v-8.8h3.5c.8,0,1.4.2,1.8.7.4.4.6.9.6,1.5s-.1.8-.3,1.1-.5.6-.9.7h0,0ZM235.1,148.6h-2.1v2.4h2.1c.4,0,.8-.1,1-.4s.4-.6.4-.9-.1-.6-.4-.8c-.2-.2-.6-.3-1-.3h0ZM232.9,155.1h2.3c.5,0,.9-.1,1.2-.4.3-.3.5-.6.5-1.1s-.1-.8-.5-1.1c-.3-.3-.7-.4-1.3-.4h-2.2v3h0Z"/>
  <path class="cls-2" d="M242.5,156.4c-1,0-1.8-.3-2.4-1-.6-.6-.9-1.4-.9-2.4s.3-1.7.9-2.4c.6-.6,1.4-1,2.4-1s1.8.3,2.4,1c.6.6.9,1.4.9,2.4s-.3,1.7-.9,2.4c-.6.6-1.4,1-2.4,1ZM244.7,153c0-.6-.2-1.2-.6-1.6-.4-.4-.9-.7-1.6-.7s-1.1.2-1.6.7c-.4.4-.6,1-.6,1.6s.2,1.2.6,1.6c.4.4.9.7,1.6.7s1.1-.2,1.6-.7.6-1,.6-1.6Z"/>
  <path class="cls-2" d="M250.2,156.4c-1,0-1.8-.3-2.4-1-.6-.6-.9-1.4-.9-2.4s.3-1.7.9-2.4c.6-.6,1.4-1,2.4-1s1.8.3,2.4,1c.6.6.9,1.4.9,2.4s-.3,1.7-.9,2.4c-.6.6-1.4,1-2.4,1ZM252.4,153c0-.6-.2-1.2-.6-1.6-.4-.4-.9-.7-1.6-.7s-1.1.2-1.6.7c-.4.4-.6,1-.6,1.6s.2,1.2.6,1.6c.4.4.9.7,1.6.7s1.1-.2,1.6-.7.6-1,.6-1.6Z"/>
  <path class="cls-2" d="M260.5,156.2h-1.5l-2.4-3-.6.5v2.4h-1.1v-9h1.1v5.2l2.9-2.6h1.5l-3,2.7,3.1,3.7h0Z"/>
  <path class="cls-2" d="M262,149c-.2,0-.4,0-.6-.2s-.2-.4-.2-.6,0-.4.2-.6.4-.2.6-.2.4,0,.6.2c.2.1.2.3.2.6s0,.4-.2.6c-.2.1-.4.2-.6.2ZM262.5,149.9v6.4h-1.1v-6.4h1.1Z"/>
  <path class="cls-2" d="M265.4,156.2h-1.1v-6.4h1.1v.9c.4-.7,1.1-1.1,2-1.1s1.3.2,1.8.7.7,1.1.7,2v3.9h-1.1v-3.5c0-.6-.1-1.1-.4-1.4-.3-.3-.7-.5-1.2-.5s-.9.2-1.3.5c-.3.4-.5.8-.5,1.4v3.5h0Z"/>
  <path class="cls-2" d="M276.7,150.7v-.8h1.1v5.7c0,1-.3,1.8-.9,2.4-.6.6-1.5.9-2.5.9s-2-.3-2.8-.9l.5-.9c.7.5,1.5.8,2.3.8s1.3-.2,1.7-.6c.4-.4.6-.9.6-1.5v-.5c-.6.7-1.3,1-2.2,1s-1.7-.3-2.3-.9c-.6-.6-.9-1.4-.9-2.4s.3-1.7.9-2.3c.6-.6,1.4-.9,2.3-.9s1.6.3,2.2,1h0ZM273,154.6c.4.4.9.6,1.6.6s1.1-.2,1.6-.6c.4-.4.6-.9.6-1.6s-.2-1.2-.6-1.6c-.4-.4-.9-.6-1.6-.6s-1.1.2-1.6.6c-.4.4-.6.9-.6,1.6s.2,1.2.6,1.6Z"/>
  <path class="cls-3" d="M232.3,107h-34.1c-4.7,0-8.4-3.8-8.4-8.4v-34.1c0-4.7,3.8-8.5,8.4-8.5h34.1c4.7,0,8.4,3.8,8.4,8.5v34.1c0,4.7-3.8,8.4-8.4,8.4"/>
  <path class="cls-4" d="M215.7,72.2h-17.1v17c9.4,0,17.1-7.6,17.1-17Z"/>
  <path class="cls-4" d="M217.7,72.1v17.1h17c0-9.4-7.6-17.1-17-17.1Z"/>
</svg>