<?xml version="1.0" encoding="UTF-8"?>
<svg id="logos_1x1" data-name="logos 1x1" xmlns="http://www.w3.org/2000/svg" version="1.1" viewBox="0 0 430 215">
  <defs>
    <style>
      .cls-1 {
        fill: #e6f0fa;
      }

      .cls-1, .cls-2, .cls-3 {
        stroke-width: 0px;
      }

      .cls-2 {
        fill: #000;
      }

      .cls-3 {
        fill: #fff;
      }
    </style>
  </defs>
  <rect class="cls-1" width="430" height="215"/>
  <path class="cls-3" d="M232,109.3h-34.1c-4.7,0-8.4-3.8-8.4-8.4v-34.1c0-4.7,3.8-8.5,8.4-8.5h34.1c4.7,0,8.4,3.8,8.4,8.5v34.1c0,4.7-3.8,8.4-8.4,8.4"/>
  <path class="cls-2" d="M225.1,72.4c-2.6-3.8-7.6-5.1-11.4-3-.8.4-1.6,1.1-2.3,1.7-.3-.8-.8-1.5-1.8-1.7-.4,0-.9-.1-1.3-.1-1.7,0-3.4,0-5,0s-.3,0-.4,0v6.1h2.1c.9,0,.9,0,.9,1v23h6.1v-9.7c.6.3,1.1.6,1.7.8,1.6.8,3.4,1.1,5.2.8,3.3-.6,5.7-2.5,7.2-5.5,1.1-2.3,1.4-4.7,1.2-7.2-.2-2.2-.7-4.3-2-6.2h0ZM221.7,79.6c0,1.8-.4,3.2-1.2,4.5-1.6,2.3-6.1,2.7-7.7-.7-1.1-2.3-1.2-4.7,0-7.1.8-1.8,2.3-2.5,4.2-2.5,1.9,0,3.2.9,4.1,2.6.5,1.1.8,2.2.8,3.1h0Z"/>
  <path class="cls-2" d="M166,126.7h5.8c1.8,0,3.2.5,4.1,1.5.9,1,1.4,2.2,1.4,3.7s-.5,2.7-1.4,3.7c-1,1-2.4,1.4-4.3,1.4h-2.4v5.4h-3.1v-15.7h0ZM169.1,134.2h2.5c.8,0,1.4-.2,1.8-.6s.6-1,.6-1.6-.2-1.2-.6-1.6-1-.6-1.7-.6h-2.7v4.5h0Z"/>
  <path class="cls-2" d="M182.6,127.7c0,.5-.2,1-.5,1.3-.4.4-.8.5-1.3.5s-1-.2-1.3-.5c-.4-.4-.5-.8-.5-1.3s.2-.9.5-1.3.8-.5,1.3-.5,1,.2,1.3.5c.4.3.5.8.5,1.3ZM182.2,130.8v11.6h-3v-11.6h3Z"/>
  <path class="cls-2" d="M191.6,130.5c1.6,0,3,.6,4.1,1.8,1.1,1.2,1.6,2.6,1.6,4.3s-.5,3.1-1.6,4.3c-1.1,1.2-2.4,1.8-4.1,1.8s-2.6-.5-3.6-1.6v6.1h-3v-16.3h3v1.4c1-1.1,2.2-1.7,3.7-1.7h0ZM191,140c.9,0,1.7-.3,2.3-.9.6-.6.9-1.4.9-2.4s-.3-1.7-.9-2.4c-.6-.6-1.4-.9-2.3-.9s-1.7.3-2.3.9c-.6.6-.9,1.4-.9,2.4s.3,1.7.9,2.4c.6.6,1.4.9,2.3.9Z"/>
  <path class="cls-2" d="M210.6,136.4c0,.4,0,.8-.1,1.3h-8.7c.4,1.6,1.6,2.5,3.4,2.5s2.6-.4,3.7-1.2l1.2,2.1c-1.5,1.1-3.2,1.6-5.1,1.6s-3.6-.6-4.7-1.8c-1.1-1.2-1.6-2.6-1.6-4.3s.6-3.2,1.7-4.4c1.1-1.1,2.6-1.7,4.4-1.7s3.1.5,4.2,1.6c1.1,1.1,1.6,2.5,1.6,4.2h0ZM204.8,133c-.8,0-1.4.2-1.9.6s-.9,1-1.1,1.8h5.9c-.1-.8-.5-1.3-1-1.8s-1.1-.6-1.9-.6Z"/>
  <path class="cls-2" d="M221.3,132.2v-5.9h3v16.1h-2.9v-1.4c-.9,1.1-2.1,1.7-3.6,1.7s-3-.6-4.1-1.7c-1.1-1.2-1.6-2.6-1.6-4.4s.5-3.2,1.6-4.3c1.1-1.2,2.5-1.7,4.1-1.7s2.6.5,3.5,1.6h0ZM221.5,136.6c0-.9-.3-1.7-.9-2.4-.6-.6-1.4-1-2.3-1s-1.7.3-2.3,1c-.6.6-.9,1.4-.9,2.4s.3,1.8.9,2.4c.6.6,1.4.9,2.3.9s1.7-.3,2.3-.9c.6-.6.9-1.4.9-2.4Z"/>
  <path class="cls-2" d="M230,142.4h-3v-11.6h2.9v1.6c.7-1.2,1.8-1.9,3.2-1.9s.9,0,1.4.3l-.3,2.9c-.5-.1-1-.2-1.4-.2-.9,0-1.6.3-2.1.9-.5.6-.8,1.5-.8,2.6v5.5h0s0,0,0,0Z"/>
  <path class="cls-2" d="M239.4,127.7c0,.5-.2,1-.5,1.3-.4.4-.8.5-1.3.5s-1-.2-1.3-.5c-.4-.4-.5-.8-.5-1.3s.2-.9.5-1.3.8-.5,1.3-.5,1,.2,1.3.5c.4.3.5.8.5,1.3ZM239,130.8v11.6h-3v-11.6h3Z"/>
  <path class="cls-2" d="M246.7,138.3l2.9-7.5h3.3l-5,11.6h-2.3l-5-11.6h3.3l2.9,7.5h0Z"/>
  <path class="cls-2" d="M265,136.4c0,.4,0,.8-.1,1.3h-8.7c.4,1.6,1.5,2.5,3.4,2.5s2.6-.4,3.7-1.2l1.2,2.1c-1.5,1.1-3.2,1.6-5.1,1.6s-3.6-.6-4.7-1.8c-1.1-1.2-1.6-2.6-1.6-4.3s.6-3.2,1.7-4.4c1.1-1.1,2.6-1.7,4.4-1.7s3.1.5,4.2,1.6c1.1,1.1,1.6,2.5,1.6,4.2h0ZM259.2,133c-.8,0-1.4.2-1.9.6s-.9,1-1.1,1.8h5.9c-.1-.8-.5-1.3-1-1.8-.5-.4-1.1-.6-1.9-.6h0Z"/>
  <path class="cls-2" d="M206.2,158.7c-1.3,0-2.3-.4-3.2-1.3-.9-.9-1.3-1.9-1.3-3.2s.4-2.4,1.3-3.3c.9-.9,2-1.3,3.2-1.3s1.5.2,2.2.5c.7.3,1.2.8,1.6,1.4l-.9.7c-.8-1-1.7-1.5-2.9-1.5s-1.7.3-2.4,1c-.6.6-1,1.5-1,2.5s.3,1.8.9,2.4c.6.6,1.4.9,2.4.9s1.1-.1,1.6-.4.9-.6,1.3-1.1l.9.7c-.4.6-1,1.1-1.6,1.4s-1.4.5-2.2.5h0Z"/>
  <path class="cls-2" d="M217.6,158.6h-1.5l-2.3-3.6h-1.2v3.6h-1.2v-8.8h3c.9,0,1.6.3,2,.8.5.5.7,1.1.7,1.8s-.2,1.1-.5,1.6-.9.8-1.5.9l2.4,3.7h0ZM214.4,150.9h-1.8v3h1.6c.6,0,1-.1,1.3-.4s.5-.6.5-1.1-.1-.8-.4-1.1-.6-.4-1.1-.4h0Z"/>
  <path class="cls-2" d="M220.2,158.6h-1.2v-8.8h.6l3.8,5.6,3.8-5.6h.6v8.8h-1.2v-5.9l-3,4.4h-.3l-3-4.4v5.9h0Z"/>
</svg>