<?xml version="1.0" encoding="UTF-8"?>
<svg id="logos_1x1" data-name="logos 1x1" xmlns="http://www.w3.org/2000/svg" version="1.1" viewBox="0 0 430 215">
  <defs>
    <style>
      .cls-1 {
        fill: #e6f0fa;
      }

      .cls-1, .cls-2, .cls-3, .cls-4 {
        stroke-width: 0px;
      }

      .cls-2 {
        fill: #000;
      }

      .cls-3 {
        fill: #fff;
      }

      .cls-4 {
        fill: #19a1dc;
        fill-rule: evenodd;
      }
    </style>
  </defs>
  <rect class="cls-1" width="430" height="215"/>
  <path class="cls-3" d="M232.2,109.3h-34.1c-4.7,0-8.4-3.8-8.4-8.4v-34.1c0-4.7,3.8-8.5,8.4-8.5h34.1c4.7,0,8.4,3.8,8.4,8.5v34.1c0,4.7-3.8,8.4-8.4,8.4"/>
  <path class="cls-4" d="M220.2,81.8c-.3,0-.5,0-.6.3s-.2.5-.2.9,0,.7.2.9c.1.2.4.3.6.3s.5,0,.6-.3.2-.5.2-.9,0-.7-.2-.9c-.1-.2-.4-.3-.6-.3ZM229.2,81.7c-.3,0-.5.1-.6.3,0,.1-.1.3-.2.5h1.6c0-.2,0-.4-.1-.5-.1-.2-.3-.3-.6-.3h0ZM211,81.7c-.3,0-.5.1-.6.3,0,.1-.1.3-.2.5h1.6c0-.2,0-.4-.1-.5-.1-.2-.3-.3-.6-.3h0ZM205.3,83.2c-.1,0-.2.2-.2.4s0,.2,0,.3c0,0,0,0,.1.1,0,0,.2.2.7.1.3,0,.6,0,.6,0v-1s-.3,0-.6,0c-.5,0-.7.2-.7.2h0,0ZM226.3,73.8c-1.2,0-2.4.3-3.4.7-1.2-2.1-3.5-3.6-6.1-3.6s-3.7.8-5,2.1c-1.4-1.8-3.6-3-6.1-3-4.2,0-7.6,3.4-7.6,7.6s.2,2.1.6,3c-2,1.2-3.3,3.3-3.3,5.7,0,3.7,2.9,6.6,6.5,6.6s.9,0,1.3-.1c1,2.7,3.6,4.6,6.6,4.6s5.4-1.8,6.5-4.3c.8.4,1.7.6,2.7.6,2.3,0,4.3-1.3,5.4-3.2.6.1,1.1.2,1.7.2,4.7,0,8.5-3.8,8.5-8.5s-3.8-8.5-8.5-8.5h0ZM203.9,83.7c0,.7-.5,1.1-1.3,1.1s-.8,0-1.2-.3h0c0,0-.1,0-.2-.1h0s0,0,0,0l.2-.4c0,0,0,0,.1,0,0,0,0,0,0,0,0,0,0,0,0,0,.5.3.9.3,1,.3.4,0,.6-.2.6-.4h0c0-.3-.3-.4-.7-.5h0c-.5-.2-1.1-.4-1.1-1.1h0c0-.7.5-1.1,1.2-1.1h0c.4,0,.9.1,1.2.3,0,0,0,0,0,0,0,0-.1.4-.2.4,0,0-.1,0-.1,0-.3-.1-.7-.3-1-.3s-.5.2-.5.4h0c0,.3.3.4.7.5h0c.5.2,1.1.4,1.1,1.1h0s0,0,0,0h0ZM207.2,84.6c0,0-.1,0-.2,0,0,0-.4,0-.6.1-.2,0-.5,0-.7,0s-.4,0-.6,0-.3-.1-.5-.2-.2-.2-.3-.4-.1-.3-.1-.5,0-.4.1-.5c0-.1.2-.3.3-.4.1,0,.3-.2.5-.2s.4,0,.6,0h.4s.2,0,.4,0h0c0-.4,0-.5-.2-.6-.1,0-.3-.1-.6-.1,0,0-.6,0-1,.2,0,0,0,0,0,0,0,0,0,0,0,0l-.2-.4c0,0,0,0,0,0,.2-.2.7-.3.7-.3.2,0,.4,0,.6,0,.4,0,.8,0,1.1.3s.4.5.4,1v2.1s0,0,0,0h0ZM208.8,84.7s0,0,0,0h-.6s0,0,0,0v-4.8s0,0,0,0h.6s0,0,0,0v4.8ZM212.5,83.1h0c0,0,0,0,0,0h-2.3c0,.3,0,.6.3.8s.4.3.8.3.7,0,.9-.2h0s0,0,0,0v.4c.2,0,.1,0,.1.1-.1,0-.5.2-1.1.2-.3,0-.6,0-.8-.1-.2,0-.4-.2-.6-.4-.1-.2-.3-.4-.3-.6s-.1-.5-.1-.7,0-.5.1-.7c0-.2.2-.4.3-.6s.3-.3.5-.4.5-.1.8-.1.5,0,.6.1c.1,0,.3.2.4.3,0,0,.2.3.3.5.1.5,0,.9,0,1h0s0,0,0,0ZM214.4,84.8c-.4,0-.8,0-1.2-.3h0c0,0-.1,0-.2-.1h0s0,0,0,0l.2-.4c0,0,0,0,.1,0h0s0,0,.1,0c.5.3.9.3,1,.3.4,0,.6-.2.6-.4h0c0-.3-.3-.4-.7-.5h0c-.5-.2-1.1-.4-1.1-1.1h0c0-.7.5-1.1,1.2-1.1h0c.4,0,.9.1,1.2.3,0,0,0,0,0,0,0,0-.1.4-.2.4,0,0-.1,0-.1,0-.3-.1-.7-.3-1-.3s-.5.2-.5.4h0c0,.3.3.4.7.5h0c.5.2,1.1.4,1.1,1.1h0c0,.7-.5,1.1-1.3,1.1h0ZM218.5,81.3v.5c-.1,0-.2,0-.2,0h-.8l-.5,2.9c0,.3-.1.6-.2.8,0,.2-.2.4-.3.5-.1.1-.3.2-.4.3-.2,0-.4,0-.6,0s-.2,0-.3,0c0,0-.1,0-.2,0,0,0,0,0,0,0,0,0,.1-.4.2-.5,0,0,0,0,0,0,0,0,0,0,.1,0,0,0,.1,0,.2,0,.1,0,.2,0,.3,0,0,0,.1,0,.2-.2,0,0,.1-.2.2-.3,0-.1,0-.3.1-.6l.5-2.8h-.5c0,0,0,0,0,0v-.5c.1,0,.2,0,.2,0h.5v-.2c.1-.5.3-.8.5-1,.2-.2.6-.3,1-.3s.2,0,.3,0c0,0,.1,0,.2,0,0,0,0,0,0,0l-.2.5s0,0-.1,0c0,0,0,0-.1,0,0,0-.1,0-.2,0s-.2,0-.2,0c0,0-.1,0-.2.1,0,0-.1.1-.2.2,0,.2-.1.4-.1.5h0s.7,0,.7,0c0,0,0,0,0,0h0ZM221.7,83.7c0,.2-.2.4-.3.6-.1.2-.3.3-.5.4s-.4.1-.7.1-.5,0-.7-.1-.4-.2-.5-.4c-.1-.2-.2-.4-.3-.6,0-.2-.1-.5-.1-.7s0-.5.1-.7.2-.4.3-.6c.1-.2.3-.3.5-.4s.4-.1.7-.1.5,0,.7.1.4.2.5.4.2.4.3.6c0,.2.1.5.1.7s0,.5-.1.7ZM224.5,81.3c0,0-.1.4-.2.5,0,0,0,0,0,0,0,0-.1,0-.2,0s-.2,0-.3,0c-.1,0-.2,0-.3.2s-.1.2-.2.3c0,.1,0,.4,0,.6v1.7s0,0,0,0,0,0,0,0h-.6s0,0,0,0v-3.4s0,0,0,0h.6s0,0,0,0v.3c0-.1.2-.2.4-.3.1,0,.3-.1.6,0,.1,0,.3,0,.4,0,0,0,0,0,0,0h0,0ZM227.4,84.7c-.3,0-.6.2-.9.2-.6,0-1-.2-1.3-.5s-.4-.8-.4-1.3,0-.5.1-.7.2-.4.3-.6c.1-.2.3-.3.5-.4.2,0,.5-.1.8-.1s.4,0,.5,0c.1,0,.4,0,.4.1,0,0,0,0,0,0,0,.1,0,.2-.1.3v.2c0,0-.1,0-.1,0-.2,0-.4,0-.7,0s-.6.1-.8.3c-.2.2-.3.5-.3.9s.1.7.3.9c.2.2.4.3.8.3s.3,0,.4,0,.2,0,.3,0c0,0,0,0,0,0l.2.5c0,0,0,0,0,0h0ZM230.8,83.1h0c0,0,0,0,0,0h-2.3c0,.3,0,.6.3.8s.4.3.8.3.7,0,.9-.2h0s0,0,0,0v.4c.2,0,.1,0,.1.1-.1,0-.5.2-1.1.2-.3,0-.6,0-.8-.1-.2,0-.4-.2-.6-.4-.1-.2-.3-.4-.3-.6s-.1-.5-.1-.7,0-.5.1-.7c0-.2.2-.4.3-.6.1-.2.3-.3.5-.4s.5-.1.8-.1.5,0,.6.1c.1,0,.3.2.4.3,0,0,.2.3.3.5.1.5,0,.9,0,1h0s0,0,0,0Z"/>
  <path class="cls-2" d="M164.5,142.7c-1.2,0-2.4-.3-3.4-.8-1.1-.5-1.9-1.2-2.5-2.2l1.8-2.2c1.1,1.5,2.4,2.2,4.2,2.2s1.2-.1,1.6-.5c.4-.3.6-.7.6-1.2s-.5-1.2-1.4-1.6c-.1,0-.6-.3-1.6-.6-.7-.3-1.3-.6-1.8-.9-1.7-.9-2.5-2.2-2.5-3.9s.5-2.4,1.5-3.3c1-.9,2.3-1.3,3.9-1.3s3.8.7,5.2,2.1l-1.7,2.3c-.4-.4-.9-.8-1.6-1.1s-1.2-.4-1.9-.4-1.1.1-1.5.4-.5.6-.5,1.1.4,1.1,1.3,1.6l1.6.7c.9.4,1.5.6,1.9.8,1.8.9,2.7,2.2,2.7,3.9s-.5,2.6-1.6,3.4c-1.1.9-2.4,1.3-4.2,1.3h0Z"/>
  <path class="cls-2" d="M181.2,132.2v-1.4h2.9v11.6h-2.9v-1.3c-1,1.1-2.2,1.6-3.7,1.6s-3-.6-4.1-1.7-1.6-2.6-1.6-4.4.5-3.2,1.6-4.3c1.1-1.1,2.5-1.7,4.1-1.7s2.7.6,3.7,1.7h0ZM181.2,136.6c0-.9-.3-1.7-.9-2.4-.6-.6-1.4-1-2.3-1s-1.7.3-2.3,1c-.6.6-.9,1.4-.9,2.4s.3,1.7.9,2.4,1.4,1,2.3,1,1.7-.3,2.3-1c.6-.7.9-1.5.9-2.4h0Z"/>
  <path class="cls-2" d="M189.8,126.3v16.2h-3v-16.2h3Z"/>
  <path class="cls-2" d="M203.7,136.4c0,.4,0,.8-.1,1.3h-8.7c.4,1.6,1.6,2.5,3.4,2.5s2.6-.4,3.7-1.2l1.2,2.1c-1.5,1.1-3.2,1.6-5.1,1.6s-3.6-.6-4.7-1.8c-1.1-1.2-1.6-2.6-1.6-4.3s.6-3.2,1.7-4.4c1.1-1.1,2.6-1.7,4.4-1.7s3.1.5,4.2,1.6c1.1,1.1,1.6,2.5,1.6,4.2h0ZM197.9,133c-.8,0-1.4.2-1.9.6s-.9,1-1.1,1.8h5.9c-.1-.8-.5-1.3-1-1.8s-1.1-.6-1.9-.6Z"/>
  <path class="cls-2" d="M209.6,142.7c-2,0-3.6-.8-4.8-2.2l1.6-1.9c.4.5.9.9,1.5,1.2.6.3,1.1.4,1.7.4s.8-.1,1.1-.3c.3-.2.5-.5.5-.8s-.3-.8-.8-1c-.2,0-.6-.2-1.4-.5-.7-.2-1.2-.4-1.5-.6-1.3-.6-2-1.6-2-3s.4-1.8,1.2-2.5c.8-.6,1.8-1,3.1-1s3,.6,4.1,1.7l-1.5,1.9c-.8-.8-1.7-1.1-2.6-1.1s-.7,0-.9.3-.4.4-.4.7c0,.5.3.8,1,1.1,1.5.6,2.4.9,2.8,1.1,1.3.7,2,1.7,2,2.9s-.4,2-1.3,2.7c-.8.7-1.9,1.1-3.3,1.1h0s0,0,0,0Z"/>
  <path class="cls-2" d="M222.3,128.4c-.7,0-1.2.2-1.6.5-.4.4-.6.9-.6,1.5v.4h3.6v2.5h-3.6v9.1h-3v-9.1h-1.8v-2.5h1.8v-.5c0-1.5.4-2.6,1.3-3.4.9-.8,2-1.2,3.4-1.2s2.2.3,3.3.8l-1,2.3c-.7-.3-1.4-.5-1.9-.5h0Z"/>
  <path class="cls-2" d="M224.4,136.6c0-1.7.6-3.1,1.7-4.3,1.2-1.2,2.7-1.8,4.5-1.8s3.3.6,4.5,1.8c1.2,1.2,1.7,2.6,1.7,4.3s-.6,3.2-1.7,4.3-2.7,1.8-4.5,1.8-3.3-.6-4.5-1.8c-1.2-1.2-1.7-2.6-1.7-4.3ZM228.3,139c.6.6,1.4.9,2.3.9s1.6-.3,2.3-.9c.6-.7.9-1.4.9-2.4s-.3-1.7-.9-2.3c-.6-.6-1.4-.9-2.3-.9s-1.7.3-2.3.9c-.6.6-.9,1.4-.9,2.3s.3,1.7.9,2.4Z"/>
  <path class="cls-2" d="M241.9,142.4h-3v-11.6h2.9v1.6c.7-1.2,1.8-1.9,3.2-1.9s.9,0,1.4.3l-.3,2.9c-.5-.1-1-.2-1.4-.2-.9,0-1.6.3-2.1.9-.5.6-.8,1.5-.8,2.6v5.5h0s0,0,0,0Z"/>
  <path class="cls-2" d="M252.9,142.7c-1.8,0-3.3-.6-4.4-1.7-1.1-1.1-1.7-2.6-1.7-4.4s.6-3.2,1.7-4.4c1.2-1.1,2.7-1.7,4.5-1.7s2.3.3,3.2.9c1,.6,1.7,1.4,2.2,2.4l-2.4,1.3c-.7-1.2-1.7-1.8-3-1.8s-1.8.3-2.4.9c-.6.6-.9,1.4-.9,2.3s.3,1.8.9,2.4c.6.6,1.4.9,2.3.9s1.2-.2,1.7-.5c.6-.3.9-.8,1.2-1.2l2.4,1.4c-.5.9-1.2,1.7-2.2,2.2s-2.1.8-3.2.8h0Z"/>
  <path class="cls-2" d="M271.4,136.4c0,.4,0,.8-.1,1.3h-8.7c.4,1.6,1.5,2.5,3.4,2.5s2.6-.4,3.7-1.2l1.2,2.1c-1.5,1.1-3.2,1.6-5.1,1.6s-3.6-.6-4.7-1.8c-1.1-1.2-1.6-2.6-1.6-4.3s.6-3.2,1.7-4.4c1.1-1.1,2.6-1.7,4.4-1.7s3.1.5,4.2,1.6c1.1,1.1,1.6,2.5,1.6,4.2h0ZM265.6,133c-.8,0-1.4.2-1.9.6s-.9,1-1.1,1.8h5.9c-.1-.8-.5-1.3-1-1.8s-1.1-.6-1.9-.6h0Z"/>
  <path class="cls-2" d="M206.3,158.7c-1.3,0-2.3-.4-3.2-1.3-.9-.9-1.3-1.9-1.3-3.2s.4-2.4,1.3-3.3c.9-.9,2-1.3,3.2-1.3s1.5.2,2.2.5c.7.3,1.2.8,1.6,1.4l-.9.7c-.8-1-1.7-1.5-2.9-1.5s-1.7.3-2.4,1c-.6.6-1,1.5-1,2.5s.3,1.8.9,2.4c.6.6,1.4.9,2.4.9s1.1-.1,1.6-.4.9-.6,1.3-1.1l.9.7c-.4.6-1,1.1-1.6,1.4s-1.4.5-2.2.5h0Z"/>
  <path class="cls-2" d="M217.7,158.6h-1.5l-2.3-3.6h-1.2v3.6h-1.2v-8.8h3c.9,0,1.6.3,2,.8.5.5.7,1.1.7,1.8s-.2,1.1-.5,1.6-.9.8-1.5.9l2.4,3.7h0ZM214.6,150.9h-1.8v3h1.6c.6,0,1-.1,1.3-.4s.5-.6.5-1.1-.1-.8-.4-1.1-.6-.4-1.1-.4h0Z"/>
  <path class="cls-2" d="M220.4,158.6h-1.2v-8.8h.6l3.8,5.6,3.8-5.6h.6v8.8h-1.2v-5.9l-3,4.4h-.3l-3-4.4v5.9h0Z"/>
</svg>