<?xml version="1.0" encoding="UTF-8"?>
<svg id="logos_1x1" data-name="logos 1x1" xmlns="http://www.w3.org/2000/svg" version="1.1" viewBox="0 0 430 215">
  <defs>
    <style>
      .cls-1 {
        fill: #e6f0fa;
      }

      .cls-1, .cls-2, .cls-3, .cls-4, .cls-5 {
        stroke-width: 0px;
      }

      .cls-2 {
        fill: #07467f;
      }

      .cls-3 {
        fill: #000;
      }

      .cls-4 {
        fill: #f9af36;
      }

      .cls-5 {
        fill: #fff;
      }
    </style>
  </defs>
  <rect class="cls-1" width="430" height="215"/>
  <path class="cls-3" d="M151.4,141.4c-1.2,0-2.4-.3-3.4-.8-1.1-.5-1.9-1.2-2.5-2.2l1.8-2.2c1.1,1.5,2.4,2.2,4.2,2.2s1.2-.1,1.6-.5c.4-.3.6-.7.6-1.2s-.5-1.2-1.4-1.6c-.1,0-.6-.3-1.6-.6-.7-.3-1.3-.6-1.8-.9-1.7-.9-2.5-2.2-2.5-3.9s.5-2.4,1.5-3.3c1-.9,2.3-1.3,3.9-1.3s3.8.7,5.2,2.1l-1.7,2.3c-.4-.4-.9-.8-1.6-1.1s-1.2-.4-1.9-.4-1.1.1-1.5.4-.5.6-.5,1.1.4,1.1,1.3,1.6l1.6.7c.9.4,1.5.6,1.9.8,1.8.9,2.7,2.2,2.7,3.9s-.5,2.6-1.6,3.4-2.4,1.3-4.2,1.3h0s0,0,0,0Z"/>
  <path class="cls-3" d="M170.5,135.1c0,.4,0,.8-.1,1.3h-8.7c.4,1.6,1.6,2.5,3.4,2.5s2.6-.4,3.7-1.2l1.2,2.1c-1.5,1.1-3.2,1.6-5.1,1.6s-3.6-.6-4.7-1.8c-1.1-1.2-1.6-2.6-1.6-4.3s.6-3.2,1.7-4.4c1.1-1.1,2.6-1.7,4.4-1.7s3.1.5,4.2,1.6,1.6,2.5,1.6,4.2h0ZM164.7,131.7c-.8,0-1.4.2-1.9.6s-.9,1-1.1,1.8h5.9c-.1-.8-.5-1.3-1-1.8-.5-.4-1.1-.6-1.9-.6Z"/>
  <path class="cls-3" d="M175.6,141.1h-3v-11.6h2.9v1.6c.7-1.2,1.8-1.9,3.2-1.9s.9,0,1.4.3l-.3,2.9c-.5-.1-1-.2-1.4-.2-.9,0-1.6.3-2.1.9-.5.6-.8,1.5-.8,2.6v5.5h0s0,0,0,0Z"/>
  <path class="cls-3" d="M186.5,137l2.9-7.5h3.3l-5,11.6h-2.3l-5-11.6h3.3l2.9,7.5h0Z"/>
  <path class="cls-3" d="M197.6,126.4c0,.5-.2,1-.5,1.3-.4.4-.8.5-1.3.5s-1-.2-1.3-.5c-.4-.4-.5-.8-.5-1.3s.2-.9.5-1.3.8-.5,1.3-.5,1,.2,1.3.5c.4.3.5.8.5,1.3ZM197.2,129.5v11.6h-3v-11.6h3Z"/>
  <path class="cls-3" d="M205.4,141.4c-1.8,0-3.3-.6-4.4-1.7-1.1-1.1-1.7-2.6-1.7-4.4s.6-3.2,1.7-4.4c1.2-1.1,2.7-1.7,4.5-1.7s2.3.3,3.2.9,1.7,1.4,2.2,2.4l-2.4,1.3c-.7-1.2-1.7-1.8-3-1.8s-1.8.3-2.4.9c-.6.6-.9,1.4-.9,2.3s.3,1.8.9,2.4c.6.6,1.4.9,2.3.9s1.2-.2,1.7-.5c.6-.3.9-.8,1.2-1.3l2.4,1.4c-.5.9-1.2,1.7-2.2,2.2s-2.1.8-3.2.8h0s0,0,0,0Z"/>
  <path class="cls-3" d="M223.9,135.1c0,.4,0,.8-.1,1.3h-8.7c.4,1.6,1.6,2.5,3.4,2.5s2.6-.4,3.7-1.2l1.2,2.1c-1.5,1.1-3.2,1.6-5.1,1.6s-3.6-.6-4.7-1.8c-1.1-1.2-1.6-2.6-1.6-4.3s.6-3.2,1.7-4.4c1.1-1.1,2.6-1.7,4.4-1.7s3.1.5,4.2,1.6,1.6,2.5,1.6,4.2h0ZM218.1,131.7c-.8,0-1.4.2-1.9.6s-.9,1-1.1,1.8h5.9c-.1-.8-.5-1.3-1-1.8s-1.1-.6-1.9-.6Z"/>
  <path class="cls-3" d="M227.7,141.1v-12.7h-4.5v-3h12.1v3h-4.5v12.7h-3.2,0Z"/>
  <path class="cls-3" d="M239.1,141.1h-3v-11.6h2.9v1.6c.7-1.2,1.8-1.9,3.2-1.9s.9,0,1.4.3l-.3,2.9c-.5-.1-1-.2-1.4-.2-.9,0-1.6.3-2.1.9s-.8,1.5-.8,2.6v5.5h0s0,0,0,0Z"/>
  <path class="cls-3" d="M253.4,130.9v-1.4h2.9v11.6h-2.9v-1.3c-1,1.1-2.2,1.6-3.7,1.6s-3-.6-4.1-1.7-1.6-2.6-1.6-4.4.5-3.2,1.6-4.3c1.1-1.1,2.5-1.7,4.1-1.7s2.7.6,3.7,1.7h0ZM253.5,135.3c0-.9-.3-1.7-.9-2.4-.6-.6-1.4-1-2.3-1s-1.7.3-2.3,1c-.6.6-.9,1.4-.9,2.4s.3,1.7.9,2.4,1.4,1,2.3,1,1.7-.3,2.3-1c.6-.7.9-1.5.9-2.4h0Z"/>
  <path class="cls-3" d="M267.6,130.9v-5.9h3v16.1h-2.9v-1.4c-.9,1.1-2.1,1.7-3.6,1.7s-3-.6-4.1-1.7c-1.1-1.2-1.6-2.6-1.6-4.4s.5-3.2,1.6-4.3c1.1-1.2,2.5-1.7,4.1-1.7s2.6.5,3.5,1.6h0ZM267.8,135.3c0-.9-.3-1.7-.9-2.4-.6-.6-1.4-1-2.3-1s-1.7.3-2.3,1c-.6.6-.9,1.4-.9,2.4s.3,1.8.9,2.4c.6.6,1.4.9,2.3.9s1.7-.3,2.3-.9c.6-.6.9-1.4.9-2.4Z"/>
  <path class="cls-3" d="M284.6,135.1c0,.4,0,.8-.1,1.3h-8.7c.4,1.6,1.5,2.5,3.4,2.5s2.6-.4,3.7-1.2l1.2,2.1c-1.5,1.1-3.2,1.6-5.1,1.6s-3.6-.6-4.7-1.8c-1.1-1.2-1.6-2.6-1.6-4.3s.6-3.2,1.7-4.4c1.1-1.1,2.6-1.7,4.4-1.7s3.1.5,4.2,1.6c1.1,1.1,1.6,2.5,1.6,4.2h0ZM278.8,131.7c-.8,0-1.4.2-1.9.6s-.9,1-1.1,1.8h5.9c-.1-.8-.5-1.3-1-1.8-.5-.4-1.1-.6-1.9-.6h0Z"/>
  <path class="cls-3" d="M155.1,157.4c-.6,0-1.2-.1-1.8-.5-.5-.3-.9-.8-1.2-1.3l.9-.7c.5.9,1.2,1.4,2.1,1.4s.9-.1,1.2-.4.4-.6.4-.9-.3-.9-.9-1.2c-.1,0-.4-.2-.9-.4-.4-.2-.7-.4-1-.5-.9-.6-1.3-1.2-1.3-2.1s.2-1.2.7-1.7c.5-.5,1.1-.7,1.9-.7s1.9.4,2.6,1.3l-.8.8c-.5-.6-1.1-.9-1.8-.9s-.7.1-1,.3c-.3.2-.4.5-.4.9s.2.8.8,1.1c.2.1.5.3,1,.5.5.2.9.4,1.1.6.9.5,1.3,1.2,1.3,2.1s-.3,1.4-.8,1.8c-.6.5-1.2.7-2.1.7h0Z"/>
  <path class="cls-3" d="M162.3,157.4c-1,0-1.8-.3-2.4-.9s-.9-1.4-.9-2.4.3-1.8.9-2.4c.6-.6,1.5-.9,2.5-.9s1.2.1,1.7.4c.5.3.9.7,1.2,1.2l-.9.5c-.2-.4-.5-.6-.8-.9-.4-.2-.7-.3-1.1-.3-.6,0-1.2.2-1.6.6-.4.4-.6,1-.6,1.6s.2,1.2.6,1.6c.4.4.9.6,1.6.6s.8-.1,1.1-.3.6-.5.8-.8l.9.5c-.3.5-.7.9-1.2,1.2-.5.3-1.1.4-1.7.4h0s0,0,0,0Z"/>
  <path class="cls-3" d="M167.6,157.3h-1.1v-9h1.1v3.4c.2-.3.5-.5.8-.7s.8-.3,1.2-.3c.7,0,1.3.2,1.8.7s.7,1.1.7,2v3.9h-1.1v-3.5c0-.6-.1-1.1-.4-1.4s-.7-.5-1.2-.5-.9.2-1.3.5-.5.8-.5,1.4v3.5h0Z"/>
  <path class="cls-3" d="M179.7,154c0,0,0,.3,0,.6h-5.1c.1.6.3,1,.7,1.3s.9.5,1.5.5.8,0,1.2-.2c.4-.1.8-.3,1.1-.5l.5.9c-.3.3-.8.5-1.2.6s-1,.3-1.5.3-1.1,0-1.5-.3c-.4-.2-.8-.4-1.1-.8-.3-.3-.5-.7-.6-1.1-.1-.4-.2-.8-.2-1.2,0-.9.3-1.7.9-2.4.6-.6,1.4-.9,2.3-.9s1.6.3,2.2.9c.6.6.9,1.4.9,2.4h0ZM174.6,153.6h3.9c0-.5-.2-1-.6-1.3s-.8-.5-1.3-.5-1,.2-1.3.5c-.4.3-.6.8-.7,1.3h0Z"/>
  <path class="cls-3" d="M186.1,151.8v-3.6h1.1v9h-1.1v-.9c-.6.7-1.3,1.1-2.2,1.1s-1.7-.3-2.3-1c-.6-.6-.9-1.4-.9-2.4s.3-1.7.9-2.4c.6-.6,1.4-1,2.3-1s1.7.4,2.2,1.1h0ZM186.2,154.1c0-.6-.2-1.2-.6-1.6-.4-.4-.9-.7-1.6-.7s-1.2.2-1.6.7-.6,1-.6,1.6.2,1.2.6,1.6c.4.4.9.7,1.6.7s1.2-.2,1.6-.7c.4-.4.6-1,.6-1.6Z"/>
  <path class="cls-3" d="M191.6,157.4c-.8,0-1.5-.2-2-.7-.5-.5-.8-1.2-.8-2v-3.8h1.1v3.8c0,.5.1.9.4,1.2s.7.5,1.2.5.9-.1,1.2-.5.4-.7.4-1.2v-3.8h1.1v3.8c0,.9-.2,1.5-.7,2s-1.2.7-2,.7h0Z"/>
  <path class="cls-3" d="M197.2,148.3v9h-1.1v-9h1.1Z"/>
  <path class="cls-3" d="M199.6,150c-.2,0-.4,0-.6-.2s-.2-.4-.2-.6,0-.4.2-.6c.2-.1.4-.2.6-.2s.4,0,.6.2c.2.1.2.3.2.6s0,.4-.2.6c-.2.1-.4.2-.6.2ZM200.1,150.9v6.4h-1.1v-6.4h1.1Z"/>
  <path class="cls-3" d="M203.1,157.3h-1.1v-6.4h1.1v.9c.4-.7,1.1-1.1,2-1.1s1.3.2,1.8.7.7,1.1.7,2v3.9h-1.1v-3.5c0-.6-.1-1.1-.4-1.4s-.7-.5-1.2-.5-.9.2-1.3.5c-.3.4-.5.8-.5,1.4v3.5h0Z"/>
  <path class="cls-3" d="M214.3,151.7v-.8h1.1v5.7c0,1-.3,1.8-.9,2.4-.6.6-1.4.9-2.5.9s-2-.3-2.8-.9l.5-.9c.7.5,1.4.8,2.3.8s1.3-.2,1.7-.6c.4-.4.6-.9.6-1.5v-.5c-.6.7-1.3,1-2.2,1s-1.7-.3-2.3-.9c-.6-.6-.9-1.4-.9-2.4s.3-1.7.9-2.3c.6-.6,1.4-.9,2.3-.9s1.6.3,2.2,1h0ZM210.7,155.6c.4.4.9.6,1.6.6s1.1-.2,1.6-.6c.4-.4.6-.9.6-1.6s-.2-1.2-.6-1.6-.9-.6-1.6-.6-1.1.2-1.6.6c-.4.4-.6.9-.6,1.6s.2,1.2.6,1.6Z"/>
  <path class="cls-3" d="M226.1,155.4l1.4,1.2-.6.7-1.4-1.3c-.9.9-1.8,1.3-2.8,1.3s-1.5-.2-2.1-.8c-.6-.5-.8-1.1-.8-1.8,0-1.1.5-1.9,1.6-2.6-.4-.5-.5-1.1-.5-1.6s.2-1.1.7-1.6c.5-.4,1-.7,1.6-.7s1,.2,1.4.5c.4.4.6.8.6,1.3s-.2,1.1-.7,1.4c-.4.3-.8.6-1.4.8h-.2c.2.3.4.5.7.7l1.8,1.6c.3-.3.5-.7.9-1.2l.8.6c-.2.4-.5.9-.9,1.3h0ZM222.8,156.4c.7,0,1.3-.3,2-1l-2.1-1.8c-.3-.3-.5-.5-.7-.6-.7.5-1.1,1.1-1.1,1.8s.2.9.5,1.2c.4.3.8.5,1.3.5h0ZM223.1,149.2c-.4,0-.7.1-.9.4s-.4.6-.4,1,.1.9.4,1.2c.8-.4,1.2-.6,1.4-.8.3-.2.5-.5.5-.9s0-.5-.3-.7c-.2-.2-.4-.3-.7-.3h0Z"/>
  <path class="cls-3" d="M236.3,152.5c.5.1.9.4,1.2.8s.4.9.4,1.4-.2,1.3-.7,1.8-1.1.8-2,.8h-3.6v-8.8h3.5c.8,0,1.4.2,1.8.7.4.4.6.9.6,1.5s-.1.8-.3,1.1-.5.6-.9.7h0ZM234.9,149.6h-2.1v2.4h2.1c.4,0,.8-.1,1-.4s.4-.6.4-.9-.1-.6-.4-.8c-.2-.2-.6-.3-1-.3h0ZM232.8,156.2h2.3c.5,0,.9-.1,1.2-.4.3-.3.5-.6.5-1.1s-.1-.8-.5-1.1c-.3-.3-.7-.4-1.3-.4h-2.2v3h0Z"/>
  <path class="cls-3" d="M242.4,157.4c-1,0-1.8-.3-2.4-1-.6-.6-.9-1.4-.9-2.4s.3-1.7.9-2.4c.6-.6,1.4-1,2.4-1s1.8.3,2.4,1c.6.6.9,1.4.9,2.4s-.3,1.7-.9,2.4c-.6.6-1.4,1-2.4,1ZM244.6,154.1c0-.6-.2-1.2-.6-1.6-.4-.4-.9-.7-1.6-.7s-1.1.2-1.6.7c-.4.4-.6,1-.6,1.6s.2,1.2.6,1.6c.4.4.9.7,1.6.7s1.1-.2,1.6-.7.6-1,.6-1.6Z"/>
  <path class="cls-3" d="M250,157.4c-1,0-1.8-.3-2.4-1-.6-.6-.9-1.4-.9-2.4s.3-1.7.9-2.4c.6-.6,1.4-1,2.4-1s1.8.3,2.4,1c.6.6.9,1.4.9,2.4s-.3,1.7-.9,2.4c-.6.6-1.4,1-2.4,1ZM252.2,154.1c0-.6-.2-1.2-.6-1.6-.4-.4-.9-.7-1.6-.7s-1.1.2-1.6.7c-.4.4-.6,1-.6,1.6s.2,1.2.6,1.6c.4.4.9.7,1.6.7s1.1-.2,1.6-.7.6-1,.6-1.6Z"/>
  <path class="cls-3" d="M260.4,157.3h-1.5l-2.4-3-.6.5v2.4h-1.1v-9h1.1v5.2l2.9-2.6h1.5l-3,2.7,3.1,3.7h0Z"/>
  <path class="cls-3" d="M261.8,150c-.2,0-.4,0-.6-.2s-.2-.4-.2-.6,0-.4.2-.6c.2-.1.4-.2.6-.2s.4,0,.6.2c.2.1.2.3.2.6s0,.4-.2.6c-.2.1-.4.2-.6.2ZM262.4,150.9v6.4h-1.1v-6.4h1.1Z"/>
  <path class="cls-3" d="M265.3,157.3h-1.1v-6.4h1.1v.9c.4-.7,1.1-1.1,2-1.1s1.3.2,1.8.7.7,1.1.7,2v3.9h-1.1v-3.5c0-.6-.1-1.1-.5-1.4s-.7-.5-1.2-.5-.9.2-1.3.5c-.3.4-.5.8-.5,1.4v3.5h0Z"/>
  <path class="cls-3" d="M276.5,151.7v-.8h1.1v5.7c0,1-.3,1.8-.9,2.4-.6.6-1.5.9-2.5.9s-2-.3-2.8-.9l.5-.9c.7.5,1.5.8,2.3.8s1.3-.2,1.7-.6c.4-.4.6-.9.6-1.5v-.5c-.6.7-1.3,1-2.2,1s-1.7-.3-2.3-.9c-.6-.6-.9-1.4-.9-2.4s.3-1.7.9-2.3c.6-.6,1.4-.9,2.3-.9s1.6.3,2.2,1h0ZM272.9,155.6c.4.4.9.6,1.6.6s1.1-.2,1.6-.6c.4-.4.6-.9.6-1.6s-.2-1.2-.6-1.6c-.4-.4-.9-.6-1.6-.6s-1.1.2-1.6.6c-.4.4-.6.9-.6,1.6s.2,1.2.6,1.6Z"/>
  <path class="cls-5" d="M232.2,108h-34.1c-4.7,0-8.4-3.8-8.4-8.4v-34.1c0-4.7,3.8-8.5,8.4-8.5h34.1c4.7,0,8.4,3.8,8.4,8.5v34.1c0,4.7-3.8,8.4-8.4,8.4"/>
  <path class="cls-4" d="M212.5,73.1c.2,0,.5,0,.7,0,1.8,0,3.5,0,5.2,0,.6,0,.8-.2.8-.8,0-1.7,0-3.4,0-5.2,0-.6.2-.8.8-.8,1.9,0,3.7,0,5.6,0,.6,0,.8.2.8.8,0,1.7,0,3.4,0,5.2,0,.6.2.8.8.8,1.5,0,3,0,4.5,0,.6,0,.8.2.8.8,0,1.4,0,2.8,0,4.2,0,.6-.2.8-.8.8-1.5,0-3,0-4.5,0-.6,0-.8.2-.8.8,0,2.6,0,5.3,0,7.9,0,2.1,1,3.1,3.1,3.1,1,0,1.9-.2,3-.3,0,0,0,.2,0,.3v4.8c0,.4-.1.7-.6.8-2.9.7-5.9.8-8.7-.2-2.6-1-4.1-3.1-4.1-5.9,0-3.4,0-6.8,0-10.3s0-1.1-1-1c-1,0-1.5-.2-1.9-1.2-.8-1.7-2-3-3.4-4.1-.2-.1-.4-.3-.5-.4,0,0,0,0,0-.2h0Z"/>
  <path class="cls-2" d="M206.1,96.8c-2.5,0-4.9-.5-6.9-2.2-.5-.4-.9-1-1.4-1.5-.3-.3-.2-.6.1-.9.7-.6,1.4-1.1,2.2-1.7.1,0,.5,0,.7,0,.4.3.7.7,1,1,2,1.8,5.3,2.2,7.6.8,1.4-.8,1.9-2.2,1.3-3.6-.3-.8-1-1.3-1.8-1.6-1.6-.5-3.1-.8-4.7-1.3-1-.3-2-.6-2.9-1.1-3.8-1.8-3.6-7.3-.7-9.6,2.1-1.6,4.5-2.2,7.1-2,2,.1,3.8.8,5.2,2.2.4.4.8.9,1.1,1.4.3.3.2.6-.2.9-.7.4-1.4.9-2.1,1.4-.4.3-.6.3-1-.2-1.7-2.2-4.4-2.8-6.9-1.6-1.5.8-2.2,2.3-1.3,3.5.4.4.9.8,1.4,1,1.5.5,3.1.8,4.6,1.3,1.3.4,2.6.8,3.8,1.5,1.9,1.1,2.6,2.9,2.6,5.1,0,4.1-3.1,6.2-6.6,6.8-.8.1-1.6.1-2.4.2h0Z"/>
</svg>