<?xml version="1.0" encoding="UTF-8"?>
<svg id="logos_1x1" data-name="logos 1x1" xmlns="http://www.w3.org/2000/svg" version="1.1" viewBox="0 0 430 215">
  <defs>
    <style>
      .cls-1 {
        fill: #44c0eb;
      }

      .cls-1, .cls-2, .cls-3, .cls-4, .cls-5, .cls-6, .cls-7 {
        stroke-width: 0px;
      }

      .cls-1, .cls-4, .cls-5, .cls-6 {
        fill-rule: evenodd;
      }

      .cls-2 {
        fill: #e6f0fa;
      }

      .cls-3 {
        fill: #000;
      }

      .cls-4 {
        fill: #e11f5b;
      }

      .cls-5 {
        fill: #ecb22c;
      }

      .cls-6 {
        fill: #3ab07c;
      }

      .cls-7 {
        fill: #fff;
      }
    </style>
  </defs>
  <rect class="cls-2" width="430" height="215"/>
  <path class="cls-7" d="M232,109.3h-34.1c-4.7,0-8.4-3.8-8.4-8.4v-34.1c0-4.7,3.8-8.5,8.4-8.5h34.1c4.7,0,8.4,3.8,8.4,8.5v34.1c0,4.7-3.8,8.4-8.4,8.4"/>
  <g id="_1935826086000" data-name=" 1935826086000">
    <g id="_1935826084528" data-name=" 1935826084528">
      <path class="cls-4" d="M205.9,87.9c0,1.8-1.5,3.3-3.3,3.3s-3.3-1.5-3.3-3.3,1.5-3.3,3.3-3.3h3.3v3.3ZM207.6,87.9c0-1.8,1.5-3.3,3.3-3.3s3.3,1.5,3.3,3.3v8.2c0,1.8-1.5,3.3-3.3,3.3s-3.3-1.5-3.3-3.3v-8.2Z"/>
      <path class="cls-1" d="M210.8,74.8c-1.8,0-3.3-1.5-3.3-3.3s1.5-3.3,3.3-3.3,3.3,1.5,3.3,3.3v3.3h-3.3ZM210.8,76.5c1.8,0,3.3,1.5,3.3,3.3s-1.5,3.3-3.3,3.3h-8.2c-1.8,0-3.3-1.5-3.3-3.3s1.5-3.3,3.3-3.3h8.2Z"/>
      <path class="cls-6" d="M223.9,79.7c0-1.8,1.5-3.3,3.3-3.3s3.3,1.5,3.3,3.3-1.5,3.3-3.3,3.3h-3.3v-3.3ZM222.3,79.7c0,1.8-1.5,3.3-3.3,3.3s-3.3-1.5-3.3-3.3v-8.2c0-1.8,1.5-3.3,3.3-3.3s3.3,1.5,3.3,3.3v8.2Z"/>
      <path class="cls-5" d="M219,92.8c1.8,0,3.3,1.5,3.3,3.3s-1.5,3.3-3.3,3.3-3.3-1.5-3.3-3.3v-3.3h3.3ZM219,91.2c-1.8,0-3.3-1.5-3.3-3.3s1.5-3.3,3.3-3.3h8.2c1.8,0,3.3,1.5,3.3,3.3s-1.5,3.3-3.3,3.3h-8.2Z"/>
    </g>
  </g>
  <path class="cls-3" d="M192.4,142.6c-1.2,0-2.4-.3-3.4-.8-1.1-.5-1.9-1.2-2.5-2.2l1.8-2.2c1.1,1.5,2.4,2.2,4.2,2.2s1.2-.1,1.6-.5c.4-.3.6-.7.6-1.2s-.5-1.2-1.4-1.6c-.1,0-.6-.3-1.6-.6-.7-.3-1.3-.6-1.8-.9-1.7-.9-2.5-2.2-2.5-3.9s.5-2.4,1.5-3.3c1-.9,2.3-1.3,3.9-1.3s3.8.7,5.2,2.1l-1.7,2.3c-.4-.4-.9-.8-1.6-1.1s-1.2-.4-1.9-.4-1.1.1-1.5.4-.5.6-.5,1.1.4,1.1,1.3,1.6l1.6.7c.9.4,1.5.6,1.9.8,1.8.9,2.7,2.2,2.7,3.9s-.5,2.6-1.6,3.4-2.4,1.3-4.2,1.3h0s0,0,0,0Z"/>
  <path class="cls-3" d="M203.3,126.2v16.1h-3v-16.2s3,0,3,0Z"/>
  <path class="cls-3" d="M214.8,132.2v-1.4h2.9v11.6h-2.9v-1.3c-1,1.1-2.2,1.6-3.7,1.6s-3-.6-4.1-1.7-1.6-2.6-1.6-4.4.5-3.2,1.6-4.3c1.1-1.1,2.5-1.7,4.1-1.7s2.7.6,3.7,1.7h0ZM214.8,136.6c0-.9-.3-1.7-.9-2.4-.6-.6-1.4-1-2.3-1s-1.7.3-2.3,1c-.6.6-.9,1.4-.9,2.4s.3,1.7.9,2.4,1.4,1,2.3,1,1.7-.3,2.3-1c.6-.7.9-1.5.9-2.4h0Z"/>
  <path class="cls-3" d="M225.9,142.6c-1.8,0-3.3-.6-4.4-1.7-1.1-1.1-1.7-2.6-1.7-4.4s.6-3.2,1.7-4.4c1.2-1.1,2.7-1.7,4.5-1.7s2.3.3,3.2.9,1.7,1.4,2.2,2.4l-2.4,1.3c-.7-1.2-1.7-1.8-3-1.8s-1.8.3-2.4.9c-.6.6-.9,1.4-.9,2.3s.3,1.8.9,2.4c.6.6,1.4.9,2.3.9s1.2-.2,1.7-.5.9-.8,1.2-1.3l2.4,1.4c-.5.9-1.2,1.7-2.2,2.2s-2.1.8-3.2.8h0s0,0,0,0Z"/>
  <path class="cls-3" d="M244.4,142.4h-3.7l-3.8-5-.8.7v4.2h-3v-16.2h3v8.5l4.2-3.9h3.8l-5.2,4.7,5.5,6.8h0Z"/>
  <path class="cls-3" d="M185.2,158.6v-7.6h-2.6v-1.2h6.4v1.2h-2.6v7.6h-1.2,0Z"/>
  <path class="cls-3" d="M195,155.2c0,0,0,.3,0,.6h-5.1c.1.6.3,1,.7,1.3.4.3.9.5,1.5.5s.8,0,1.2-.2c.4-.1.8-.3,1.1-.5l.5.9c-.3.3-.8.5-1.2.6s-1,.3-1.5.3-1.1,0-1.5-.3c-.4-.2-.8-.4-1.1-.8s-.5-.7-.6-1.1c-.1-.4-.2-.8-.2-1.2,0-.9.3-1.7.9-2.4.6-.6,1.4-.9,2.3-.9s1.6.3,2.2.9c.6.6.9,1.4.9,2.4h0ZM189.9,154.8h3.9c0-.5-.2-1-.6-1.3s-.8-.5-1.3-.5-1,.2-1.3.5c-.4.3-.6.8-.7,1.3h0Z"/>
  <path class="cls-3" d="M201.4,153.1v-.9h1.1v6.4h-1.1v-.9c-.6.7-1.3,1.1-2.2,1.1s-1.7-.3-2.3-1c-.6-.6-.9-1.4-.9-2.4s.3-1.7.9-2.4c.6-.6,1.4-.9,2.3-.9s1.7.4,2.2,1.1h0ZM201.5,155.4c0-.6-.2-1.2-.6-1.6-.4-.4-.9-.7-1.6-.7s-1.2.2-1.6.7-.6,1-.6,1.6.2,1.2.6,1.6.9.7,1.6.7,1.2-.2,1.6-.7c.4-.4.6-1,.6-1.6h0Z"/>
  <path class="cls-3" d="M211.6,152c.8,0,1.4.2,1.9.8.5.5.7,1.1.7,2v3.8h-1.1v-3.6c0-.6-.1-1.1-.4-1.4-.3-.3-.6-.5-1.1-.5s-.9.2-1.2.5-.5.8-.5,1.4v3.6h-1.1v-3.6c0-.6-.1-1.1-.4-1.4s-.6-.5-1.1-.5-.9.2-1.2.5c-.3.4-.5.8-.5,1.4v3.6h-1.1v-6.4h1.1v.9c.2-.4.4-.6.8-.8s.7-.3,1.1-.3c.4,0,.8.1,1.2.3s.6.5.8.9c.2-.4.5-.6.9-.9s.9-.3,1.4-.3h0Z"/>
  <path class="cls-3" d="M223,158.7c-1.3,0-2.3-.4-3.2-1.3-.9-.9-1.3-1.9-1.3-3.2s.4-2.4,1.3-3.3c.9-.9,2-1.3,3.2-1.3s1.5.2,2.2.5c.7.3,1.2.8,1.6,1.4l-.9.7c-.8-1-1.7-1.5-2.9-1.5s-1.7.3-2.4,1c-.6.6-1,1.5-1,2.5s.3,1.8.9,2.4c.6.6,1.4.9,2.4.9s1.1-.1,1.6-.4.9-.6,1.3-1.1l.9.7c-.4.6-1,1.1-1.6,1.4s-1.4.5-2.2.5h0Z"/>
  <path class="cls-3" d="M229.2,158.6h-1.1v-9h1.1v3.4c.2-.3.5-.5.8-.7s.8-.3,1.2-.3c.7,0,1.3.2,1.8.7s.7,1.1.7,2v3.9h-1.1v-3.5c0-.6-.1-1.1-.4-1.4s-.7-.5-1.2-.5-.9.2-1.3.5c-.3.4-.5.8-.5,1.4v3.5h0Z"/>
  <path class="cls-3" d="M240.4,153.1v-.9h1.1v6.4h-1.1v-.9c-.6.7-1.3,1.1-2.2,1.1s-1.7-.3-2.3-1c-.6-.6-.9-1.4-.9-2.4s.3-1.7.9-2.4c.6-.6,1.4-.9,2.3-.9s1.7.4,2.2,1.1h0ZM240.5,155.4c0-.6-.2-1.2-.6-1.6-.4-.4-.9-.7-1.6-.7s-1.2.2-1.6.7-.6,1-.6,1.6.2,1.2.6,1.6.9.7,1.6.7,1.2-.2,1.6-.7c.4-.4.6-1,.6-1.6h0Z"/>
  <path class="cls-3" d="M247,157.3l.4.9c-.5.4-1,.5-1.7.5s-1.2-.2-1.5-.6-.5-1-.5-1.8v-3.2h-1.1v-1h1.1v-2.3h1.1v2.3h2.3v1h-2.3v3.2c0,.8.4,1.3,1,1.3s.8-.1,1.1-.4h0Z"/>
</svg>