<?xml version="1.0" encoding="UTF-8"?>
<svg id="logos_1x1" data-name="logos 1x1" xmlns="http://www.w3.org/2000/svg" version="1.1" viewBox="0 0 430 215">
  <defs>
    <style>
      .cls-1 {
        fill: #e6f0fa;
      }

      .cls-1, .cls-2, .cls-3, .cls-4 {
        stroke-width: 0px;
      }

      .cls-2 {
        fill: #000;
      }

      .cls-3 {
        fill: #fff;
      }

      .cls-4 {
        fill: #0a7bc0;
      }
    </style>
  </defs>
  <rect class="cls-1" width="430" height="215"/>
  <path class="cls-2" d="M189.8,141.1v-12.7h-4.5v-3h12.2v3h-4.5v12.7h-3.2Z"/>
  <path class="cls-2" d="M201.2,141.1h-3v-11.6h2.9v1.6c.7-1.2,1.8-1.9,3.2-1.9s.9,0,1.4.3l-.3,2.9c-.5-.1-1-.2-1.4-.2-.9,0-1.6.3-2.1.9-.5.6-.8,1.5-.8,2.6v5.5h0s0,0,0,0Z"/>
  <path class="cls-2" d="M217.9,135.1c0,.4,0,.8-.1,1.3h-8.7c.4,1.6,1.6,2.5,3.4,2.5s2.6-.4,3.7-1.2l1.2,2.1c-1.5,1.1-3.2,1.6-5.1,1.6s-3.6-.6-4.7-1.8c-1.1-1.2-1.6-2.6-1.6-4.3s.6-3.2,1.7-4.4c1.1-1.1,2.6-1.7,4.4-1.7s3.1.5,4.2,1.6c1.1,1.1,1.6,2.5,1.6,4.2h0ZM212.1,131.7c-.8,0-1.4.2-1.9.6s-.9,1-1.1,1.8h5.9c-.1-.8-.5-1.3-1-1.8s-1.1-.6-1.9-.6Z"/>
  <path class="cls-2" d="M223,125v16.2h-3v-16.2h3Z"/>
  <path class="cls-2" d="M228.7,125v16.2h-3v-16.2h3Z"/>
  <path class="cls-2" d="M230.8,135.3c0-1.7.6-3.1,1.7-4.3,1.2-1.2,2.7-1.8,4.5-1.8s3.3.6,4.5,1.8c1.2,1.2,1.7,2.6,1.7,4.3s-.6,3.2-1.7,4.3-2.7,1.8-4.5,1.8-3.3-.6-4.5-1.8c-1.2-1.2-1.7-2.6-1.7-4.3ZM234.7,137.7c.6.6,1.4.9,2.3.9s1.6-.3,2.3-.9c.6-.7.9-1.4.9-2.4s-.3-1.7-.9-2.3c-.6-.6-1.4-.9-2.3-.9s-1.7.3-2.3.9c-.6.6-.9,1.4-.9,2.3s.3,1.7.9,2.4Z"/>
  <path class="cls-2" d="M152.9,148.5h2.9c.9,0,1.6.3,2.1.8.5.5.7,1.2.7,1.9s-.2,1.4-.8,1.9c-.5.5-1.2.8-2.2.8h-1.6v3.4h-1.2v-8.8h0ZM154.1,152.8h1.7c.5,0,1-.1,1.3-.5s.5-.7.5-1.2-.1-.8-.4-1.1c-.3-.3-.7-.4-1.2-.4h-1.8v3.2h0Z"/>
  <path class="cls-2" d="M161.1,157.3h-1.1v-6.4h1.1v.9c.4-.7,1-1.1,1.8-1.1s.5,0,.8,0v1.1c-.3,0-.6-.1-.8-.1-.5,0-.9.2-1.3.5s-.5.9-.5,1.5v3.4h0Z"/>
  <path class="cls-2" d="M167.2,157.4c-1,0-1.8-.3-2.4-1-.6-.6-.9-1.4-.9-2.4s.3-1.7.9-2.4c.6-.6,1.4-1,2.4-1s1.8.3,2.4,1c.6.6.9,1.4.9,2.4s-.3,1.7-.9,2.4c-.6.6-1.4,1-2.4,1ZM169.4,154.1c0-.6-.2-1.2-.6-1.6-.4-.4-.9-.7-1.6-.7s-1.1.2-1.6.7c-.4.4-.6,1-.6,1.6s.2,1.2.6,1.6.9.7,1.6.7,1.1-.2,1.6-.7.6-1,.6-1.6Z"/>
  <path class="cls-2" d="M171.2,160c-.5,0-.9,0-1.1-.3l.2-.9c.3.1.6.2.8.2.7,0,1.1-.4,1.1-1.3v-6.8h1.1v6.7c0,.8-.2,1.4-.6,1.8-.4.4-.9.6-1.6.6h0ZM172.8,150c-.2,0-.4,0-.6-.2s-.2-.4-.2-.6,0-.4.2-.6.4-.2.6-.2.4,0,.6.2.2.3.2.6,0,.4-.2.6c-.2.1-.4.2-.6.2Z"/>
  <path class="cls-2" d="M181,154c0,0,0,.3,0,.6h-5.1c.1.6.3,1,.7,1.3s.9.5,1.5.5.8,0,1.2-.2.8-.3,1.1-.5l.5.9c-.3.3-.8.5-1.2.6s-1,.3-1.5.3-1.1,0-1.5-.3c-.4-.2-.8-.4-1.1-.8s-.5-.7-.6-1.1c-.1-.4-.2-.8-.2-1.2,0-.9.3-1.7.9-2.4.6-.6,1.4-.9,2.3-.9s1.6.3,2.2.9c.6.6.9,1.4.9,2.4h0ZM175.9,153.6h3.9c0-.5-.2-1-.6-1.3s-.8-.5-1.3-.5-1,.2-1.3.5-.6.8-.7,1.3h0Z"/>
  <path class="cls-2" d="M185.4,157.4c-1,0-1.8-.3-2.4-.9s-.9-1.4-.9-2.4.3-1.8.9-2.4c.6-.6,1.5-.9,2.5-.9s1.2.1,1.7.4.9.7,1.2,1.2l-.9.5c-.2-.4-.5-.6-.8-.9-.4-.2-.7-.3-1.1-.3-.6,0-1.2.2-1.6.6-.4.4-.6,1-.6,1.6s.2,1.2.6,1.6c.4.4.9.6,1.6.6s.8-.1,1.1-.3.6-.5.8-.8l.9.5c-.3.5-.7.9-1.2,1.2-.5.3-1.1.4-1.7.4h0s0,0,0,0Z"/>
  <path class="cls-2" d="M193.3,156l.4.9c-.5.4-1,.5-1.7.5s-1.2-.2-1.5-.6-.5-1-.5-1.8v-3.2h-1.1v-1h1.1v-2.3h1.1v2.3h2.3v1h-2.3v3.2c0,.8.4,1.3,1,1.3s.8-.1,1.1-.4h0Z"/>
  <path class="cls-2" d="M198.9,157.3h-1.2v-8.8h.6l3.8,5.6,3.8-5.6h.6v8.8h-1.2v-5.9l-3,4.4h-.3l-3-4.4v5.9h0Z"/>
  <path class="cls-2" d="M213.5,151.8v-.9h1.1v6.4h-1.1v-.9c-.6.7-1.3,1.1-2.2,1.1s-1.7-.3-2.3-1c-.6-.6-.9-1.4-.9-2.4s.3-1.7.9-2.4c.6-.6,1.4-.9,2.3-.9s1.7.4,2.2,1.1h0ZM213.5,154.1c0-.6-.2-1.2-.6-1.6-.4-.4-.9-.7-1.6-.7s-1.2.2-1.6.7-.6,1-.6,1.6.2,1.2.6,1.6c.4.4.9.7,1.6.7s1.2-.2,1.6-.7c.4-.4.6-1,.6-1.6h0Z"/>
  <path class="cls-2" d="M217.5,157.3h-1.1v-6.4h1.1v.9c.4-.7,1.1-1.1,2-1.1s1.3.2,1.8.7.7,1.1.7,2v3.9h-1.1v-3.5c0-.6-.1-1.1-.4-1.4-.3-.3-.7-.5-1.2-.5s-.9.2-1.3.5c-.3.4-.5.8-.5,1.4v3.5h0Z"/>
  <path class="cls-2" d="M228.7,151.8v-.9h1.1v6.4h-1.1v-.9c-.6.7-1.3,1.1-2.2,1.1s-1.7-.3-2.3-1c-.6-.6-.9-1.4-.9-2.4s.3-1.7.9-2.4c.6-.6,1.4-.9,2.3-.9s1.7.4,2.2,1.1h0ZM228.8,154.1c0-.6-.2-1.2-.6-1.6-.4-.4-.9-.7-1.6-.7s-1.2.2-1.6.7-.6,1-.6,1.6.2,1.2.6,1.6c.4.4.9.7,1.6.7s1.2-.2,1.6-.7c.4-.4.6-1,.6-1.6h0Z"/>
  <path class="cls-2" d="M236.6,151.7v-.8h1.1v5.7c0,1-.3,1.8-.9,2.4-.6.6-1.4.9-2.5.9s-2-.3-2.8-.9l.5-.9c.7.5,1.4.8,2.3.8s1.3-.2,1.7-.6c.4-.4.6-.9.6-1.5v-.5c-.6.7-1.3,1-2.2,1s-1.7-.3-2.3-.9c-.6-.6-.9-1.4-.9-2.4s.3-1.7.9-2.3c.6-.6,1.4-.9,2.3-.9s1.6.3,2.2,1h0ZM233,155.6c.4.4.9.6,1.6.6s1.1-.2,1.6-.6c.4-.4.6-.9.6-1.6s-.2-1.2-.6-1.6c-.4-.4-.9-.6-1.6-.6s-1.1.2-1.6.6c-.4.4-.6.9-.6,1.6s.2,1.2.6,1.6Z"/>
  <path class="cls-2" d="M245.5,154c0,0,0,.3,0,.6h-5.1c.1.6.3,1,.7,1.3s.9.5,1.5.5.8,0,1.2-.2.8-.3,1.1-.5l.5.9c-.3.3-.8.5-1.2.6s-1,.3-1.5.3-1.1,0-1.5-.3c-.4-.2-.8-.4-1.1-.8s-.5-.7-.6-1.1c-.1-.4-.2-.8-.2-1.2,0-.9.3-1.7.9-2.4.6-.6,1.4-.9,2.3-.9s1.6.3,2.2.9c.6.6.9,1.4.9,2.4h0ZM240.3,153.6h3.9c0-.5-.2-1-.6-1.3s-.8-.5-1.3-.5-1,.2-1.3.5-.6.8-.7,1.3h0Z"/>
  <path class="cls-2" d="M254.2,150.7c.8,0,1.4.2,1.8.8.5.5.7,1.1.7,2v3.8h-1.1v-3.6c0-.6-.1-1.1-.4-1.4-.3-.3-.6-.5-1.1-.5s-.9.2-1.2.5-.5.8-.5,1.4v3.6h-1.1v-3.6c0-.6-.1-1.1-.4-1.4s-.6-.5-1.1-.5-.9.2-1.2.5c-.3.4-.5.8-.5,1.4v3.6h-1.1v-6.4h1.1v.9c.2-.4.4-.6.8-.8s.7-.3,1.1-.3c.4,0,.8.1,1.2.3.4.2.6.5.8.9.2-.4.5-.6.9-.9s.9-.3,1.4-.3h0Z"/>
  <path class="cls-2" d="M264.3,154c0,0,0,.3,0,.6h-5.1c.1.6.3,1,.7,1.3s.9.5,1.5.5.8,0,1.2-.2.8-.3,1-.5l.5.9c-.3.3-.8.5-1.2.6s-1,.3-1.5.3-1.1,0-1.5-.3c-.5-.2-.8-.4-1.1-.8s-.5-.7-.6-1.1c-.1-.4-.2-.8-.2-1.2,0-.9.3-1.7.9-2.4.6-.6,1.4-.9,2.3-.9s1.6.3,2.2.9c.6.6.9,1.4.9,2.4h0ZM259.2,153.6h3.9c0-.5-.2-1-.6-1.3s-.8-.5-1.3-.5-1,.2-1.3.5-.6.8-.7,1.3h0Z"/>
  <path class="cls-2" d="M266.8,157.3h-1.1v-6.4h1.1v.9c.4-.7,1.1-1.1,2-1.1s1.3.2,1.8.7.7,1.1.7,2v3.9h-1.1v-3.5c0-.6-.1-1.1-.4-1.4-.3-.3-.7-.5-1.2-.5s-.9.2-1.3.5c-.3.4-.5.8-.5,1.4v3.5h0Z"/>
  <path class="cls-2" d="M276.7,156l.4.9c-.5.4-1,.5-1.7.5s-1.2-.2-1.5-.6c-.4-.4-.5-1-.5-1.8v-3.2h-1.1v-1h1.1v-2.3h1.1v2.3h2.3v1h-2.3v3.2c0,.8.4,1.3,1,1.3s.8-.1,1.1-.4h0Z"/>
  <path class="cls-3" d="M231.5,108h-34.1c-4.7,0-8.4-3.8-8.4-8.4v-34.1c0-4.7,3.8-8.5,8.4-8.5h34.1c4.7,0,8.4,3.8,8.4,8.5v34.1c0,4.7-3.8,8.4-8.4,8.4"/>
  <g id="xN2bW2.tif">
    <path class="cls-4" d="M196.1,97v-28.8c0-.1,0-.2.1-.4.5-2.1,2.3-3.5,4.5-3.5h27.5c2.6,0,4.6,2,4.6,4.6v27.5c0,1.2-.5,2.3-1.3,3.2-.7.8-1.6,1.1-2.6,1.4h-28.8c-.1,0-.3,0-.5-.1-1.2-.3-2.2-1-2.8-2.2-.3-.5-.4-1.1-.6-1.6h0ZM212.2,81.6v-10.3c0-1.2-.9-2.2-2.1-2.2-2.3,0-4.6,0-6.9,0-1.1,0-1.9.8-2.1,1.8,0,.2,0,.5,0,.8v20c0,.3,0,.6,0,.9.2.9,1,1.6,1.9,1.6,2.4,0,4.7,0,7.1,0,.9,0,1.5-.5,1.9-1.3.1-.3.2-.7.2-1.1v-10.1h0ZM228,77v-5.7c0-1.5-.9-2.3-2.4-2.3h-6.2c-1.5,0-2.4.9-2.4,2.3,0,3.8,0,7.6,0,11.3,0,1.4.9,2.3,2.4,2.3h6.2c1.4,0,2.3-.9,2.3-2.3v-5.6h0Z"/>
  </g>
</svg>