<?xml version="1.0" encoding="UTF-8"?>
<svg id="logos_1x1" data-name="logos 1x1" xmlns="http://www.w3.org/2000/svg" version="1.1" viewBox="0 0 430 215">
  <defs>
    <style>
      .cls-1 {
        fill: #e6f0fa;
      }

      .cls-1, .cls-2, .cls-3, .cls-4 {
        stroke-width: 0px;
      }

      .cls-2 {
        fill: #04363d;
      }

      .cls-3 {
        fill: #000;
      }

      .cls-4 {
        fill: #fff;
      }
    </style>
  </defs>
  <rect class="cls-1" width="430" height="215"/>
  <path class="cls-4" d="M232.3,109.3h-34.1c-4.7,0-8.4-3.8-8.4-8.4v-34.1c0-4.7,3.8-8.5,8.4-8.5h34.1c4.7,0,8.4,3.8,8.4,8.5v34.1c0,4.7-3.8,8.4-8.4,8.4"/>
  <path class="cls-2" d="M213.9,77.4v20.3c-.2,0-16.6,0-16.9,0,5.6-6.8,11.2-13.6,16.9-20.3,0,0,0,0,0,0Z"/>
  <path class="cls-2" d="M233.6,70c-5.6,6.8-11.2,13.6-16.8,20.3t0,0s0,0,0,0v-20.3h0s0,0,0,0c0,0,.1,0,.2,0h16.5s0,0,0,0h0Z"/>
  <path class="cls-2" d="M233.6,97.7h-16.9c0-1,.1-1.9.5-2.8.6-1.6,1.6-3,2.9-4,2.8-2.1,6.6-2.2,9.5-.4,3.1,1.9,4.1,5.1,4,7.2Z"/>
  <path class="cls-2" d="M197,69.9h16.9c.1,1.8-.8,4.8-3.3,6.7-2.8,2.1-6.6,2.3-9.5.5-1.5-.9-2.6-2.2-3.3-3.7-.5-1.1-.8-2.3-.8-3.5h0Z"/>
  <path class="cls-3" d="M161.6,142.4h-12.3v-2.2l7.8-10.5h-7.5v-2.9h11.8v2.3l-7.6,10.5h7.9v2.9h0Z"/>
  <path class="cls-3" d="M174.7,136.4c0,.4,0,.8-.1,1.3h-8.7c.4,1.6,1.6,2.5,3.4,2.5s2.6-.4,3.7-1.2l1.2,2.1c-1.5,1.1-3.2,1.6-5.1,1.6s-3.6-.6-4.7-1.8c-1.1-1.2-1.6-2.6-1.6-4.3s.6-3.2,1.7-4.4c1.1-1.1,2.6-1.7,4.4-1.7s3.1.5,4.2,1.6,1.6,2.5,1.6,4.2h0ZM168.9,133c-.8,0-1.4.2-1.9.6s-.9,1-1.1,1.8h5.9c-.1-.8-.5-1.3-1-1.8-.5-.4-1.1-.6-1.9-.6Z"/>
  <path class="cls-3" d="M179.7,142.4h-3v-11.6h2.9v1.6c.3-.6.8-1.1,1.4-1.4s1.4-.5,2.2-.5c1.3,0,2.3.4,3.2,1.2s1.3,2,1.3,3.6v7.1h-3v-6.3c0-.9-.2-1.6-.7-2.1s-1-.8-1.8-.8-1.4.3-1.9.8c-.5.5-.7,1.2-.7,2.1v6.2h0Z"/>
  <path class="cls-3" d="M199.1,132.2v-5.9h3v16.1h-2.9v-1.4c-.9,1.1-2.1,1.7-3.6,1.7s-3-.6-4.1-1.7c-1.1-1.2-1.6-2.6-1.6-4.4s.5-3.2,1.6-4.3c1.1-1.2,2.5-1.7,4.1-1.7s2.6.5,3.5,1.6h0ZM199.2,136.6c0-.9-.3-1.7-.9-2.4-.6-.6-1.4-1-2.3-1s-1.7.3-2.3,1c-.6.6-.9,1.4-.9,2.4s.3,1.8.9,2.4c.6.6,1.4.9,2.3.9s1.7-.3,2.3-.9c.6-.6.9-1.4.9-2.4Z"/>
  <path class="cls-3" d="M216,136.4c0,.4,0,.8-.1,1.3h-8.7c.4,1.6,1.6,2.5,3.4,2.5s2.6-.4,3.7-1.2l1.2,2.1c-1.5,1.1-3.2,1.6-5.1,1.6s-3.6-.6-4.7-1.8c-1.1-1.2-1.6-2.6-1.6-4.3s.6-3.2,1.7-4.4c1.1-1.1,2.6-1.7,4.4-1.7s3.1.5,4.2,1.6,1.6,2.5,1.6,4.2h0ZM210.2,133c-.8,0-1.4.2-1.9.6s-.9,1-1.1,1.8h5.9c-.1-.8-.5-1.3-1-1.8s-1.1-.6-1.9-.6Z"/>
  <path class="cls-3" d="M221.9,142.7c-2,0-3.6-.8-4.8-2.2l1.6-1.9c.4.5.9.9,1.5,1.2.6.3,1.1.4,1.7.4s.8-.1,1.1-.3c.3-.2.5-.5.5-.8s-.3-.8-.8-1c-.2,0-.6-.2-1.4-.5-.7-.2-1.2-.4-1.5-.6-1.3-.6-2-1.6-2-3s.4-1.8,1.2-2.5c.8-.6,1.8-1,3.1-1s3,.6,4.1,1.7l-1.5,1.9c-.8-.8-1.7-1.1-2.6-1.1s-.7,0-.9.3c-.2.2-.4.4-.4.7,0,.5.3.8,1,1.1,1.5.6,2.4.9,2.8,1.1,1.3.7,2,1.7,2,2.9s-.4,2-1.3,2.7c-.8.7-1.9,1-3.3,1h0Z"/>
  <path class="cls-3" d="M239.8,142.4h-3.7l-3.8-5-.8.7v4.2h-3v-16.2h3v8.5l4.2-3.9h3.8l-5.2,4.7,5.5,6.8h0Z"/>
  <path class="cls-3" d="M250.8,142.7c-1.2,0-2.4-.3-3.4-.8-1.1-.5-1.9-1.2-2.5-2.2l1.8-2.2c1.1,1.5,2.4,2.2,4.2,2.2s1.2-.1,1.6-.5c.4-.3.6-.7.6-1.2s-.5-1.2-1.4-1.6c-.1,0-.6-.3-1.6-.6-.7-.3-1.3-.6-1.8-.9-1.7-.9-2.5-2.2-2.5-3.9s.5-2.4,1.5-3.3c1-.9,2.3-1.3,3.9-1.3s3.8.7,5.2,2.1l-1.7,2.3c-.4-.4-.9-.8-1.6-1.1s-1.2-.4-1.9-.4-1.1.1-1.5.4-.5.6-.5,1.1.4,1.1,1.3,1.6l1.6.7c.9.4,1.5.6,1.9.8,1.8.9,2.7,2.2,2.7,3.9s-.5,2.6-1.6,3.4-2.4,1.3-4.2,1.3h0s0,0,0,0Z"/>
  <path class="cls-3" d="M269.9,136.4c0,.4,0,.8-.1,1.3h-8.7c.4,1.6,1.6,2.5,3.4,2.5s2.6-.4,3.7-1.2l1.2,2.1c-1.5,1.1-3.2,1.6-5.1,1.6s-3.6-.6-4.7-1.8c-1.1-1.2-1.6-2.6-1.6-4.3s.6-3.2,1.7-4.4c1.1-1.1,2.6-1.7,4.4-1.7s3.1.5,4.2,1.6,1.6,2.5,1.6,4.2h0ZM264.1,133c-.8,0-1.4.2-1.9.6s-.9,1-1.1,1.8h5.9c-.1-.8-.5-1.3-1-1.8-.5-.4-1.1-.6-1.9-.6h0Z"/>
  <path class="cls-3" d="M275,126.3v16.2h-3v-16.2h3Z"/>
  <path class="cls-3" d="M280.7,126.3v16.2h-3v-16.2h3Z"/>
  <path class="cls-3" d="M206.5,158.7c-1.3,0-2.3-.4-3.2-1.3-.9-.9-1.3-1.9-1.3-3.2s.4-2.4,1.3-3.3c.9-.9,2-1.3,3.2-1.3s1.5.2,2.2.5c.7.3,1.2.8,1.6,1.4l-.9.7c-.8-1-1.7-1.5-2.9-1.5s-1.7.3-2.4,1c-.6.6-1,1.5-1,2.5s.3,1.8.9,2.4c.6.6,1.4.9,2.4.9s1.1-.1,1.6-.4.9-.6,1.3-1.1l.9.7c-.4.6-1,1.1-1.6,1.4s-1.4.5-2.2.5h0Z"/>
  <path class="cls-3" d="M217.9,158.6h-1.5l-2.3-3.6h-1.2v3.6h-1.2v-8.8h3c.9,0,1.6.3,2,.8.5.5.7,1.1.7,1.8s-.2,1.1-.5,1.6-.9.8-1.5.9l2.4,3.7h0ZM214.7,150.9h-1.8v3h1.6c.6,0,1-.1,1.3-.4s.5-.6.5-1.1-.1-.8-.4-1.1-.6-.4-1.1-.4h0Z"/>
  <path class="cls-3" d="M220.5,158.6h-1.2v-8.8h.6l3.8,5.6,3.8-5.6h.6v8.8h-1.2v-5.9l-3,4.4h-.3l-3-4.4v5.9h0Z"/>
</svg>