<?xml version="1.0" encoding="UTF-8"?>
<svg id="logos_1x1" data-name="logos 1x1" xmlns="http://www.w3.org/2000/svg" version="1.1" viewBox="0 0 430 215">
  <defs>
    <style>
      .cls-1 {
        fill: #e6f0fa;
      }

      .cls-1, .cls-2, .cls-3, .cls-4 {
        stroke-width: 0px;
      }

      .cls-2 {
        fill: #000;
      }

      .cls-3 {
        fill: #fff;
      }

      .cls-4 {
        fill: #216db5;
      }
    </style>
  </defs>
  <rect class="cls-1" width="430" height="215"/>
  <path class="cls-3" d="M232.5,108.3h-34.1c-4.7,0-8.4-3.8-8.4-8.4v-34.1c0-4.7,3.8-8.5,8.4-8.5h34.1c4.7,0,8.4,3.8,8.4,8.5v34.1c0,4.7-3.8,8.4-8.4,8.4"/>
  <g id="RI4k1U.tif">
    <path class="cls-4" d="M233.9,82.9c.3,4.6-3.9,9.8-8,10.9-1,.3-2,.6-3.1.7-1,0-2,0-3-.3-2-.5-3.9-1.4-5.4-2.9-2.3-2.2-4.5-4.5-6.7-6.7-2.3-2.3-.9-5.9,1.8-6.6,1.7-.4,3.1,0,4.4,1.2,1.8,1.8,3.6,3.6,5.4,5.4.4.4.9.7,1.5.6,1.3-.3,1.7-1.6.8-2.6-.6-.7-1.3-1.3-2-2-1.2-1.2-2.5-2.4-3.7-3.7-2.1-2.2-4.5-3.3-7.6-3.2-1.8,0-3.5.6-4.9,1.6-3.8,2.9-4.8,8-2.5,11.9,1.4,2.4,3.4,3.8,6,4.4,1.2.3,2.5,0,3.8,0,.4,0,.7-.1,1.1-.1.7,0,1.1.3,1.2.9.1.7-.1,1.2-.9,1.4-1.9.6-3.9.7-5.9.2-2.7-.7-4.9-2.2-6.6-4.3-1.4-1.8-2.2-3.9-2.4-6.3-.1-2.6.5-5,1.9-7.2,1.4-2.2,3.4-3.7,5.8-4.6,3.9-1.4,7.4-.7,10.8,1.6.2.1.4.3.6.5,2.4,2.3,4.7,4.7,7.1,7.1.9.9,1.5,2,1.2,3.4-.4,1.7-1.4,2.8-3,3.3-1.6.5-3,0-4.1-1.2-1.8-1.7-3.5-3.4-5.2-5.2-.2-.2-.4-.4-.6-.6-.6-.5-1.4-.4-2,.2-.5.5-.6,1.3,0,1.9,1.2,1.3,2.4,2.5,3.7,3.7.3.3.7.7,1,1.1,1.3,1.7,2.9,3.1,4.9,3.8,2.5.9,5,.8,7.4-.4,2.1-1.1,3.5-2.8,4.3-4.9,1.2-3.3.6-6.3-1.6-9-1.8-2.2-4.2-3.1-6.9-3.3-.8,0-1.7.2-2.5.4-1.1.2-1.8-.5-1.6-1.5,0-.5.4-.8.9-.9,1.4-.4,2.8-.6,4.2-.4,1.5.2,3,.6,4.3,1.3,1.3.7,2.6,1.6,3.6,2.9,1.3,1.6,2.1,3.4,2.5,5.3.2.8.1,1.5.2,2.3h0s0,0,0,0Z"/>
  </g>
  <path class="cls-2" d="M173.2,141.4h-12.3v-2.2l7.8-10.5h-7.5v-2.9h11.8v2.3l-7.6,10.5h7.9v2.9h0Z"/>
  <path class="cls-2" d="M174.4,135.6c0-1.7.6-3.1,1.7-4.3,1.2-1.2,2.7-1.8,4.5-1.8s3.3.6,4.5,1.8c1.2,1.2,1.7,2.6,1.7,4.3s-.6,3.2-1.7,4.3c-1.2,1.2-2.7,1.8-4.5,1.8s-3.3-.6-4.5-1.8c-1.2-1.2-1.7-2.6-1.7-4.3ZM178.3,137.9c.6.6,1.4.9,2.3.9s1.6-.3,2.3-.9c.6-.7.9-1.4.9-2.4s-.3-1.7-.9-2.3c-.6-.6-1.4-.9-2.3-.9s-1.7.3-2.3.9c-.6.6-.9,1.4-.9,2.3s.3,1.7.9,2.4Z"/>
  <path class="cls-2" d="M191.9,141.4h-3v-16.2h2.9v6.1c.3-.5.8-1,1.5-1.3.7-.3,1.4-.5,2.2-.5,1.2,0,2.3.4,3.2,1.3.9.8,1.3,2,1.3,3.6v7.1h-3v-6.3c0-.9-.2-1.6-.6-2.1s-1-.8-1.8-.8-1.4.3-1.9.8-.7,1.2-.7,2.1v6.2h0Z"/>
  <path class="cls-2" d="M201.9,135.6c0-1.7.6-3.1,1.7-4.3,1.2-1.2,2.7-1.8,4.5-1.8s3.3.6,4.5,1.8c1.2,1.2,1.7,2.6,1.7,4.3s-.6,3.2-1.7,4.3c-1.2,1.2-2.7,1.8-4.5,1.8s-3.3-.6-4.5-1.8c-1.2-1.2-1.7-2.6-1.7-4.3ZM205.8,137.9c.6.6,1.4.9,2.3.9s1.6-.3,2.3-.9c.6-.7.9-1.4.9-2.4s-.3-1.7-.9-2.3c-.6-.6-1.4-.9-2.3-.9s-1.7.3-2.3.9c-.6.6-.9,1.4-.9,2.3s.3,1.7.9,2.4Z"/>
  <path class="cls-2" d="M229.2,141.6c-2.3,0-4.2-.8-5.8-2.2-1.6-1.5-2.3-3.4-2.3-5.8s.8-4.3,2.4-5.9c1.6-1.6,3.5-2.3,5.8-2.3s2.7.3,3.9.9c1.2.6,2.1,1.4,2.9,2.4l-2.1,2.1c-1.2-1.5-2.7-2.3-4.5-2.3s-2.6.5-3.6,1.5c-1,1-1.4,2.2-1.4,3.7s.5,2.6,1.4,3.6c.9.9,2.1,1.4,3.6,1.4s3.4-.8,4.6-2.3l2.2,2c-.7,1-1.7,1.8-2.9,2.4s-2.6.9-4,.9h0s0,0,0,0Z"/>
  <path class="cls-2" d="M250.3,141.4h-3.7l-3.3-5.7h-1.9v5.7h-3.1v-15.7h6c1.7,0,3.1.5,4,1.4.9,1,1.4,2.1,1.4,3.5s-.3,2-.8,2.8-1.3,1.4-2.4,1.8l3.8,6.1h0ZM244.3,128.6h-2.9v4.2h2.6c.8,0,1.4-.2,1.8-.6s.6-.9.6-1.6-.2-1.1-.6-1.5-.9-.6-1.6-.6h0Z"/>
  <path class="cls-2" d="M255.8,141.4h-3.1v-15.7h2.1l6.2,8.9,6.1-8.9h2.1v15.7h-3.1v-8.9l-4.6,6.6h-1.1l-4.6-6.6v8.9h0Z"/>
  <path class="cls-2" d="M206.7,157.7c-1.3,0-2.3-.4-3.2-1.3-.9-.9-1.3-1.9-1.3-3.2s.4-2.4,1.3-3.3c.9-.9,2-1.3,3.2-1.3s1.5.2,2.2.5c.7.3,1.2.8,1.6,1.4l-.9.7c-.8-1-1.7-1.5-2.9-1.5s-1.7.3-2.4,1c-.6.6-1,1.5-1,2.5s.3,1.8.9,2.4c.6.6,1.4.9,2.4.9s1.1-.1,1.6-.4.9-.6,1.3-1.1l.9.7c-.4.6-1,1.1-1.6,1.4s-1.4.5-2.2.5h0Z"/>
  <path class="cls-2" d="M218.1,157.5h-1.5l-2.3-3.6h-1.2v3.6h-1.2v-8.8h3c.9,0,1.6.3,2,.8.5.5.7,1.1.7,1.8s-.2,1.1-.5,1.6-.9.8-1.5.9l2.4,3.7h0ZM215,149.9h-1.8v3h1.6c.6,0,1-.1,1.3-.4s.5-.6.5-1.1-.1-.8-.4-1.1-.6-.4-1.1-.4h0Z"/>
  <path class="cls-2" d="M220.8,157.5h-1.2v-8.8h.6l3.8,5.6,3.8-5.6h.6v8.8h-1.2v-5.9l-3,4.4h-.3l-3-4.4v5.9h0Z"/>
</svg>