<svg width="116" height="30" viewBox="0 0 116 30" fill="none" xmlns="http://www.w3.org/2000/svg">
<path d="M45.0288 24.4806C46.4312 24.4806 47.5268 24.0865 48.3156 23.2982C49.1045 22.5099 49.4989 21.5173 49.4989 20.3202C49.4989 19.0356 49.1045 18.1014 48.3156 17.5174C47.556 16.9335 46.4896 16.6416 45.1165 16.6416L37.3158 16.6416L37.3158 24.4806L45.0288 24.4806ZM37.3158 5.38661L37.3158 11.6929L44.985 11.6929C47.4391 11.6929 48.6662 10.6418 48.6662 8.53975C48.6662 7.43032 48.3448 6.62743 47.7021 6.13111C47.0885 5.63478 46.066 5.38661 44.6344 5.38661L37.3158 5.38661ZM31.4434 29.4293L31.4434 0.35035L45.7738 0.35035C48.637 0.35035 50.8136 1.06565 52.3036 2.49624C53.7936 3.89763 54.5386 5.82455 54.5386 8.27699C54.5386 9.53241 54.2027 10.6564 53.5307 11.6491C52.8587 12.6126 52.0114 13.2987 50.9889 13.7074C51.6024 13.941 52.1721 14.2475 52.698 14.6271C53.2531 14.9774 53.7206 15.4445 54.1004 16.0285C54.5094 16.5832 54.8308 17.2547 55.0645 18.043C55.2983 18.8021 55.4151 19.7071 55.4151 20.7582C55.4151 23.415 54.524 25.5317 52.7419 27.1082C50.9597 28.6556 48.228 29.4293 44.5468 29.4293L31.4434 29.4293Z" fill="#292626"/>
<path d="M56.6997 29.4293L56.6997 7.88285L62.3968 7.88285L62.3968 29.4293L56.6997 29.4293ZM56.6997 5.29903L56.6997 0L62.3968 0L62.3968 5.29903L56.6997 5.29903Z" fill="#292626"/>
<path d="M64.828 29.4293L64.828 0L70.5252 0L70.5252 29.4293L64.828 29.4293Z" fill="#292626"/>
<path d="M72.7455 29.4293L72.7455 0L78.4426 0L78.4426 29.4293L72.7455 29.4293Z" fill="#292626"/>
<path d="M90.8739 25.3565C92.2471 25.3565 93.3865 24.7872 94.2922 23.6486C95.2271 22.5099 95.6946 21.0209 95.6946 19.1816C95.6946 14.5103 94.1023 12.1746 90.9177 12.1746C87.6455 12.1746 86.0094 14.3935 86.0094 18.8313C86.0094 20.7582 86.4623 22.3347 87.368 23.561C88.2737 24.758 89.4423 25.3565 90.8739 25.3565ZM95.6069 29.4293L95.5631 26.8017C94.2484 28.933 92.2471 29.9986 89.5592 29.9986C88.186 29.9986 86.9298 29.7359 85.7903 29.2103C84.6509 28.6848 83.6722 27.9257 82.8541 26.9331C82.0361 25.9404 81.3933 24.7288 80.9259 23.2982C80.4584 21.8676 80.2247 20.2472 80.2247 18.4371C80.2247 16.8022 80.4146 15.3132 80.7944 13.9702C81.2034 12.598 81.7877 11.4155 82.5473 10.4229C83.307 9.43023 84.2273 8.67114 85.3083 8.14561C86.4185 7.59089 87.6748 7.31354 89.0771 7.31354C91.7358 7.31354 93.8686 8.43757 95.4754 10.6856L95.4754 0L101.085 0L101.085 29.4293L95.6069 29.4293Z" fill="#292626"/>
<path d="M103.345 29.4293L103.345 7.88285L108.692 7.88285V10.4667C109.159 9.73678 109.641 9.16746 110.138 8.75872C110.664 8.34998 111.19 8.04343 111.716 7.83906C112.271 7.60549 112.826 7.45951 113.381 7.40112C113.936 7.34273 114.506 7.31354 115.09 7.31354L115.835 7.31354L115.835 13.1381C115.309 13.0505 114.783 13.0067 114.257 13.0067C110.781 13.0067 109.042 14.7438 109.042 18.2181L109.042 29.4293L103.345 29.4293Z" fill="#292626"/>
<path d="M1.5 28.499L1.5 13.1953L16.886 13.1665C16.8864 13.1665 16.8869 13.1665 16.8873 13.1665C21.1251 13.1672 24.5586 16.6002 24.5586 20.8327C24.5586 25.0657 21.1244 28.499 16.886 28.499L1.5 28.499Z" stroke="#292626" stroke-width="3"/>
<path d="M22.7231 1.50195C22.9142 1.50195 23.0856 1.59384 23.1927 1.73717C23.1921 1.73802 23.1915 1.73888 23.1908 1.73973L3.07027 28.5006H2.08469C1.76079 28.5006 1.5 28.2385 1.5 27.9173L1.5 2.08519C1.5 1.76406 1.76079 1.50195 2.08469 1.50195L22.7231 1.50195ZM2.92026 28.7001C2.92041 28.6999 2.92056 28.6997 2.92071 28.6995L2.92026 28.7001Z" stroke="#292626" stroke-width="3"/>
<path d="M1.5 13.1665L14.6092 13.1665L3.0473 28.499H2.08469C1.76079 28.499 1.5 28.2369 1.5 27.9158L1.5 13.1665ZM2.89727 28.698C2.89739 28.6978 2.89751 28.6976 2.89764 28.6975L2.89727 28.698Z" stroke="#292626" stroke-width="3"/>
</svg>
