<?xml version="1.0" encoding="UTF-8"?><svg id="Layer_1" xmlns="http://www.w3.org/2000/svg" xmlns:xlink="http://www.w3.org/1999/xlink" viewBox="0 0 850.39 850.39"><defs><style>.cls-1{fill:none;}.cls-2{fill:#09e;}.cls-3{fill:#fff;}.cls-4{clip-path:url(#clippath);}</style><clipPath id="clippath"><circle class="cls-1" cx="425.2" cy="425.2" r="400"/></clipPath></defs><g class="cls-4"><rect class="cls-2" x="-54.8" y="-54.8" width="960" height="960"/></g><path class="cls-3" d="M441.63,495.06c-89.67,0-144.95,61.42-144.95,106.57,0,13.51,10.75,22.11,27.95,22.11h233.7c17.81,0,28.56-8.6,28.56-22.11,0-45.15-56.2-106.57-145.26-106.57ZM652.91,318.17h-62.03c-19.96,0-29.79,9.83-29.79,28.87v122.23c0,19.35,9.83,29.79,29.79,29.79h62.03c19.65,0,29.79-10.44,29.79-29.79v-122.23c0-19.04-10.14-28.87-29.79-28.87ZM241.09,435.18h-42.69c-19.35,0-29.79,9.83-29.79,29.48v43.3c0,19.65,10.44,29.79,29.79,29.79h42.69c19.35,0,29.79-10.13,29.79-29.79v-43.3c0-19.65-10.44-29.48-29.79-29.48ZM372.84,388.19c0,42.99,31.63,75.85,69.1,75.85s68.48-32.86,68.48-75.85-31.63-74.32-68.48-74.32-69.1,32.86-69.1,74.32ZM252.76,387.27h93.05c.31-52.52,39-96.12,89.06-100.12v-30.71c0-19.35-10.13-29.79-29.79-29.79h-152.32c-19.65,0-29.79,10.44-29.79,29.79v102.27c0,18.73,10.13,28.56,29.79,28.56Z"/></svg>