<?xml version="1.0" encoding="utf-8"?>
<!-- Generator: Adobe Illustrator 28.2.0, SVG Export Plug-In . SVG Version: 6.00 Build 0)  -->
<svg version="1.1" id="Layer_1" xmlns="http://www.w3.org/2000/svg" xmlns:xlink="http://www.w3.org/1999/xlink" x="0px" y="0px"
	 viewBox="0 0 300 75" style="enable-background:new 0 0 300 75;" xml:space="preserve">
<style type="text/css">
	.st0{fill:#3A3A3C;}
</style>
<path class="st0" d="M197.4,39.9c1.4-6.5,4.8-11.1,10.7-13.6c4.2-1.8,8.5-1.8,12.7-0.2c7.9,3,12.7,11.4,10.8,19.9H206
	c1.3,3.3,3.4,5.6,6.6,6.3c4,0.9,7.4-0.2,10-3.7h8.3c-0.4,1.9-1.3,3.5-2.5,5c-3.6,4.4-8.2,6.2-13.9,6.3C207.2,60,201,55,198.6,49.1
	c-0.5-1.2-0.8-2.4-1.1-3.4c-0.7,0.1-1.3,0.3-1.9,0.3c-7.4,0-14.7,0-22.1,0c-0.6,0-1.3,0-1.9,0c0.2,2.5,2.9,5.3,5.9,6.2
	c3.9,1.2,7.7-0.1,10.4-3.7h8.3c-0.4,2-1.3,3.5-2.4,5c-3.3,4.2-7.7,6.2-13.1,6.4c-4.1,0.1-7.9-0.9-11.1-3.4
	c-5.7-4.5-7.9-10.4-6.6-17.4c1.3-7,5.6-11.7,12.5-13.5c11.7-3,20.2,5.4,21.5,13.6C197.2,39.4,197.3,39.5,197.4,39.9L197.4,39.9z
	 M188.9,39.6c-0.8-4.3-4.8-7.4-9.2-7.2c-4.7,0.1-8.2,4.2-8.4,7.2H188.9z M223.6,39.6c-1-4.4-4.7-7.2-9-7.2c-4.6,0-8.1,3.7-8.7,7.2
	H223.6z"/>
<path class="st0" d="M70.8,58.8v-3.4c-0.4,0.3-0.6,0.5-0.8,0.7c-4.8,4.1-10.4,4.9-16.2,2.7c-5.6-2.2-9-6.6-10.2-12.4
	c-1.2-5.8,0.1-11,4-15.6c5.6-6.5,15.5-7.5,21.6-2.8c0.2,0.2,0.5,0.3,0.9,0.6V15.3h7.7c0.3,1.1,0.5,40.8,0.1,43.5L70.8,58.8
	L70.8,58.8z M70.6,42.2c0-0.2,0-0.7-0.1-1.2c-0.4-3.6-2.2-6.3-5.5-7.8c-3.3-1.5-6.6-1.3-9.6,0.9c-3.5,2.6-4.6,6.2-3.9,10.4
	c0.5,3.3,2.3,5.8,5.4,7.2C63.4,54.6,70.7,50,70.6,42.2L70.6,42.2z"/>
<path class="st0" d="M147.1,37h-8.8c-0.1-0.1-0.2-0.3-0.3-0.5c-2.1-3.6-6.1-4.7-9.9-3.9c-3.4,0.8-6.4,4.2-6.9,7.8
	c-0.5,3.7,0.3,6.9,3.1,9.5c3.7,3.5,10.2,3.9,13.9-1.7h8.6c-0.5,4.7-6.6,11-14.5,11.6c-11.5,0.9-18.4-7.5-19.2-14.9
	c-1.1-9.8,5-18.2,14.6-19.7C138.1,23.7,145.4,30.3,147.1,37L147.1,37z"/>
<path class="st0" d="M112.2,35.1h-7.8c-0.2-0.5-0.4-0.9-0.6-1.3c-1-1.7-3.6-1.9-5-0.5c-1.1,1.1-0.9,2.8,0.5,3.7
	c0.8,0.5,1.8,0.8,2.8,1.2c1.7,0.7,3.5,1.1,5.2,1.9c6.4,3,7.8,11.3,2.9,16.4c-2.2,2.3-4.9,3.3-8.1,3.4c-3,0.1-5.8-0.4-8.3-2.1
	c-3.1-2.2-4.6-5.3-4.8-9.1h8.1c0.2,0.4,0.3,0.9,0.5,1.3c0.9,2.2,3.2,3.2,5.5,2.3c1.1-0.5,1.9-1.2,2-2.5c0.1-1.3-0.3-2.4-1.6-3
	c-1-0.5-2.1-0.8-3.1-1.2c-2-0.9-4.2-1.5-6.1-2.7c-4.6-2.8-5.7-9.2-2.4-13.5c2.2-2.8,5.1-4.1,8.6-4.3c3.6-0.2,6.6,1,9,3.7
	C111.3,30.5,112,32.6,112.2,35.1L112.2,35.1z"/>
<path class="st0" d="M243.3,58.8h-8V33.1c-1.3-0.1-2.5-0.1-3.7-0.2v-6.9h3.7V15h8v11h4.7v7h-4.6L243.3,58.8L243.3,58.8z"/>
<path class="st0" d="M156.5,26.5c0.1,0.5,0.1,1,0.1,1.5c1.2-0.8,2.3-1.6,3.5-2.3c1.3-0.7,2.7-0.8,4.2-0.5v7.3
	c-0.4,0.1-0.7,0.2-1.1,0.3c-4.4,0.6-6.1,3.2-6.1,7.4c0,5.3,0,10.5,0,15.8c0,0.9,0,1.8,0,2.7h-7.8V26.5H156.5L156.5,26.5z"/>
<path class="st0" d="M80.5,26.4H88c0.4,1.1,0.5,29.9,0.1,32.4h-7.7C80.5,58.8,80.5,26.4,80.5,26.4z"/>
<path class="st0" d="M256.8,51.2v7.6H249v-7.6H256.8z"/>
<path class="st0" d="M88.1,22.4h-7.7v-6.8h7.7V22.4z"/>
</svg>
