<?xml version="1.0" encoding="UTF-8"?><svg id="Layer_1" xmlns="http://www.w3.org/2000/svg" xmlns:xlink="http://www.w3.org/1999/xlink" viewBox="0 0 850.39 850.39"><defs><style>.cls-1{fill:none;}.cls-2{fill:#09e;}.cls-3{fill:#fff;}.cls-4{clip-path:url(#clippath);}</style><clipPath id="clippath"><circle class="cls-1" cx="425.2" cy="425.2" r="400"/></clipPath></defs><g class="cls-4"><rect class="cls-2" x="-54.8" y="-54.8" width="960" height="960"/></g><path class="cls-3" d="M433.57,192.06c-103.76,0-173.29,70.13-173.29,174.95,0,6.34.15,11.46.75,16.44l-23.83,43.13c-6.48,11.31-9.5,22.17-9.5,32.43,0,19.46,12.22,35.59,32.88,40.27v37.4c0,30.38,19.27,46.98,46.19,46.98,2.34,0,4.75-.13,7.2-.38l22.02-2.36c.14,41.5,42.64,66.45,111.45,66.45s112.51-24.73,112.51-66.66v-95.32c30.16-25.94,47.81-68.02,47.81-114.32,0-107.38-69.83-179.02-174.2-179.02ZM533.11,472.28v103.76c0,27.3-32.73,44.64-85.66,44.64s-85.82-17.34-85.82-44.64v-21.27c0-2.55-1.33-3.63-3.48-3.63-.14,0-.29,0-.44.01l-47.21,5.43c-1.31.13-2.57.2-3.78.2-12.43,0-19.44-7.1-19.44-22.22v-55.05c0-1.81-1.21-3.02-3.47-3.02h-7.24c-13.57,0-21.72-6.94-21.72-18.1,0-5.28,1.96-12.07,5.58-18.55l28.35-50.98c-1.21-7.54-1.81-14.93-1.81-22.32,0-88.53,58.67-147.8,146.6-147.8s147.5,60.78,147.5,152.33c0,43.28-17.95,81.44-47.96,101.2ZM519.23,294.47c0-21.87-17.19-38.76-38.76-38.76-7.39,0-10.1.3-12.82.91-7.69-9.5-19.46-15.23-30.77-15.23-19.91,0-34.24,11.91-34.69,31.07,0,4.83-3.32,8.14-8.14,8.14s-8.29-3.77-7.99-8.6c.15-8.14,2.56-14.33,4.98-19.61-3.32-.75-6.79-1.06-10.26-1.06-23.23,0-41.02,14.93-41.02,34.24,0,12.82,9.2,22.17,21.27,22.17,4.83,0,8.45,3.62,8.45,8.14s-3.77,8.14-8.45,8.14c-16.14,0-28.81-7.99-34.09-20.36-7.09,9.65-11.01,21.57-11.01,33.63,0,31.67,20.81,55.8,51.88,55.8,23.83,0,40.57-15.23,40.57-36.65,0-7.54-2.56-14.18-6.94-18.55-2.87-2.71-3.92-5.58-3.92-7.69,0-4.22,3.62-7.54,8.14-7.54,1.81,0,4.37.45,6.34,2.41,1.96,1.51,3.47,4.98,4.07,6.94,15.23-2.72,22.77-11.91,22.77-27,0-4.37,3.47-8.14,7.84-8.14s8.29,3.92,8.29,8.14c0,22.02-10.86,35.89-31.82,41.02,1.06,3.32,1.36,7.09,1.36,10.71,0,19.15-9.95,34.39-26.09,42.68,9.35,5.43,20.51,8.45,32.73,8.45,4.83,0,10.41-.6,15.69-1.51-1.21-3.17-1.66-6.34-1.66-9.5,0-48.86,74.05-57.76,74.05-102.41ZM459.66,396.42c0,12.07,8.6,20.51,22.47,20.51h3.77c2.87,18.4,14.18,30.77,28.81,30.77,20.36,0,34.39-23.83,34.39-58.37,0-3.02,0-6.18-.15-9.35-6.73,3.23-14.66,4.9-23.58,4.9-1.07,0-2.16-.02-3.26-.07-4.37-.45-7.84-3.92-7.84-8.29s3.5-8.01,7.67-8.01c.16,0,.32,0,.47.02.88.04,1.74.06,2.59.06,20.41,0,33.75-12.01,33.75-30.83s-9.35-33.03-24.58-40.72c-4.53,53.54-74.51,60.78-74.51,99.39Z"/></svg>