<svg xmlns="http://www.w3.org/2000/svg" xmlns:xlink="http://www.w3.org/1999/xlink" width="800" zoomAndPan="magnify" viewBox="0 0 600 599.999999" height="800" preserveAspectRatio="xMidYMid meet" version="1.0"><defs><clipPath id="99172fcd1c"><path d="M 300 0 C 134.316406 0 0 134.316406 0 300 C 0 465.683594 134.316406 600 300 600 C 465.683594 600 600 465.683594 600 300 C 600 134.316406 465.683594 0 300 0 Z M 300 0 " clip-rule="nonzero"/></clipPath><clipPath id="78f91eab61"><path d="M 173 144.328125 L 455.578125 144.328125 L 455.578125 242 L 173 242 Z M 173 144.328125 " clip-rule="nonzero"/></clipPath><clipPath id="92c0030895"><path d="M 144.328125 251 L 427 251 L 427 349 L 144.328125 349 Z M 144.328125 251 " clip-rule="nonzero"/></clipPath><clipPath id="24910656e3"><path d="M 173 358 L 455.578125 358 L 455.578125 455.578125 L 173 455.578125 Z M 173 358 " clip-rule="nonzero"/></clipPath></defs><rect x="-60" width="720" fill="#ffffff" y="-60" height="719.999999" fill-opacity="1"/><rect x="-60" width="720" fill="#ffffff" y="-60" height="719.999999" fill-opacity="1"/><g clip-path="url(#99172fcd1c)"><rect x="-60" width="720" fill="#0099ee" y="-60" height="719.999999" fill-opacity="1"/></g><path fill="#ffffff" d="M 295.128906 183.246094 L 334.046875 183.246094 C 336.734375 183.246094 338.910156 181.066406 338.910156 178.382812 C 338.910156 175.695312 336.734375 173.515625 334.046875 173.515625 L 295.128906 173.515625 C 292.445312 173.515625 290.265625 175.695312 290.265625 178.382812 C 290.265625 181.066406 292.445312 183.246094 295.128906 183.246094 Z M 295.128906 183.246094 " fill-opacity="1" fill-rule="nonzero"/><path fill="#ffffff" d="M 431.339844 202.703125 L 295.128906 202.703125 C 292.445312 202.703125 290.265625 204.882812 290.265625 207.570312 C 290.265625 210.253906 292.445312 212.433594 295.128906 212.433594 L 431.339844 212.433594 C 434.023438 212.433594 436.203125 210.253906 436.203125 207.570312 C 436.203125 204.882812 434.023438 202.703125 431.339844 202.703125 Z M 431.339844 202.703125 " fill-opacity="1" fill-rule="nonzero"/><path fill="#ffffff" d="M 265.941406 290.265625 L 304.859375 290.265625 C 307.546875 290.265625 309.722656 288.085938 309.722656 285.402344 C 309.722656 282.714844 307.546875 280.535156 304.859375 280.535156 L 265.941406 280.535156 C 263.257812 280.535156 261.078125 282.714844 261.078125 285.402344 C 261.078125 288.085938 263.257812 290.265625 265.941406 290.265625 Z M 265.941406 290.265625 " fill-opacity="1" fill-rule="nonzero"/><path fill="#ffffff" d="M 265.941406 319.453125 L 402.152344 319.453125 C 404.835938 319.453125 407.015625 317.273438 407.015625 314.589844 C 407.015625 311.902344 404.835938 309.722656 402.152344 309.722656 L 265.941406 309.722656 C 263.257812 309.722656 261.078125 311.902344 261.078125 314.589844 C 261.078125 317.273438 263.257812 319.453125 265.941406 319.453125 Z M 265.941406 319.453125 " fill-opacity="1" fill-rule="nonzero"/><g clip-path="url(#78f91eab61)"><path fill="#ffffff" d="M 431.339844 144.328125 L 197.839844 144.328125 C 184.414062 144.328125 173.515625 155.226562 173.515625 168.652344 L 173.515625 217.296875 C 173.515625 230.722656 184.414062 241.621094 197.839844 241.621094 L 431.339844 241.621094 C 444.765625 241.621094 455.660156 230.722656 455.660156 217.296875 L 455.660156 168.652344 C 455.660156 155.226562 444.765625 144.328125 431.339844 144.328125 Z M 260.019531 171.699219 L 221.101562 220.34375 C 220.234375 221.414062 218.941406 222.074219 217.570312 222.152344 C 217.484375 222.164062 217.386719 222.164062 217.296875 222.164062 C 216.011719 222.164062 214.769531 221.65625 213.855469 220.742188 L 194.394531 201.285156 C 192.5 199.386719 192.5 196.300781 194.394531 194.40625 C 196.292969 192.507812 199.375 192.507812 201.273438 194.40625 L 216.890625 210.019531 L 252.410156 165.617188 C 254.09375 163.535156 257.15625 163.183594 259.25 164.859375 C 261.351562 166.53125 261.691406 169.597656 260.019531 171.699219 Z M 445.933594 217.296875 C 445.933594 225.371094 439.414062 231.890625 431.339844 231.890625 L 280.535156 231.890625 L 280.535156 154.058594 L 431.339844 154.058594 C 439.414062 154.058594 445.933594 160.578125 445.933594 168.652344 Z M 445.933594 217.296875 " fill-opacity="1" fill-rule="nonzero"/></g><g clip-path="url(#92c0030895)"><path fill="#ffffff" d="M 426.472656 324.316406 L 426.472656 275.671875 C 426.472656 262.246094 415.578125 251.351562 402.152344 251.351562 L 168.652344 251.351562 C 155.226562 251.351562 144.328125 262.246094 144.328125 275.671875 L 144.328125 324.316406 C 144.328125 337.746094 155.226562 348.640625 168.652344 348.640625 L 402.152344 348.640625 C 415.578125 348.640625 426.472656 337.746094 426.472656 324.316406 Z M 230.832031 278.71875 L 191.914062 327.363281 C 191.046875 328.441406 189.765625 329.105469 188.382812 329.183594 C 188.296875 329.183594 188.199219 329.183594 188.109375 329.183594 C 186.824219 329.183594 185.582031 328.675781 184.667969 327.761719 L 165.207031 308.304688 C 163.3125 306.40625 163.3125 303.324219 165.207031 301.425781 C 167.105469 299.527344 170.1875 299.527344 172.085938 301.425781 L 187.703125 317.039062 L 223.222656 272.636719 C 224.90625 270.554688 227.960938 270.203125 230.0625 271.878906 C 232.164062 273.550781 232.503906 276.617188 230.832031 278.71875 Z M 251.351562 261.078125 L 402.152344 261.078125 C 410.226562 261.078125 416.746094 267.597656 416.746094 275.671875 L 416.746094 324.316406 C 416.746094 332.394531 410.226562 338.910156 402.152344 338.910156 L 251.351562 338.910156 Z M 251.351562 261.078125 " fill-opacity="1" fill-rule="nonzero"/></g><g clip-path="url(#24910656e3)"><path fill="#ffffff" d="M 431.339844 358.371094 L 197.839844 358.371094 C 184.414062 358.371094 173.515625 369.265625 173.515625 382.691406 L 173.515625 431.339844 C 173.515625 444.765625 184.414062 455.660156 197.839844 455.660156 L 431.339844 455.660156 C 444.765625 455.660156 455.660156 444.765625 455.660156 431.339844 L 455.660156 382.691406 C 455.660156 369.265625 444.765625 358.371094 431.339844 358.371094 Z M 260.019531 385.738281 L 221.101562 434.382812 C 220.234375 435.464844 218.953125 436.125 217.570312 436.203125 C 217.484375 436.203125 217.386719 436.203125 217.296875 436.203125 C 216.011719 436.203125 214.769531 435.695312 213.855469 434.78125 L 194.394531 415.324219 C 192.5 413.425781 192.5 410.34375 194.394531 408.445312 C 196.292969 406.546875 199.375 406.546875 201.273438 408.445312 L 216.890625 424.0625 L 252.410156 379.65625 C 254.09375 377.574219 257.15625 377.226562 259.25 378.898438 C 261.351562 380.570312 261.691406 383.636719 260.019531 385.738281 Z M 445.933594 431.339844 C 445.933594 439.414062 439.414062 445.933594 431.339844 445.933594 L 280.535156 445.933594 L 280.535156 368.097656 L 431.339844 368.097656 C 439.414062 368.097656 445.933594 374.617188 445.933594 382.691406 Z M 445.933594 431.339844 " fill-opacity="1" fill-rule="nonzero"/></g><path fill="#ffffff" d="M 295.128906 397.285156 L 334.046875 397.285156 C 336.734375 397.285156 338.910156 395.105469 338.910156 392.421875 C 338.910156 389.738281 336.734375 387.558594 334.046875 387.558594 L 295.128906 387.558594 C 292.445312 387.558594 290.265625 389.738281 290.265625 392.421875 C 290.265625 395.105469 292.445312 397.285156 295.128906 397.285156 Z M 295.128906 397.285156 " fill-opacity="1" fill-rule="nonzero"/><path fill="#ffffff" d="M 431.339844 416.746094 L 295.128906 416.746094 C 292.445312 416.746094 290.265625 418.925781 290.265625 421.609375 C 290.265625 424.292969 292.445312 426.472656 295.128906 426.472656 L 431.339844 426.472656 C 434.023438 426.472656 436.203125 424.292969 436.203125 421.609375 C 436.203125 418.925781 434.023438 416.746094 431.339844 416.746094 Z M 431.339844 416.746094 " fill-opacity="1" fill-rule="nonzero"/></svg>