<?xml version="1.0" encoding="UTF-8"?><svg id="Layer_1" xmlns="http://www.w3.org/2000/svg" xmlns:xlink="http://www.w3.org/1999/xlink" viewBox="0 0 850.39 850.39"><defs><style>.cls-1{fill:none;}.cls-2{fill:#09e;}.cls-3{fill:#fff;}.cls-4{clip-path:url(#clippath);}</style><clipPath id="clippath"><circle class="cls-1" cx="425.2" cy="425.2" r="400"/></clipPath></defs><g class="cls-4"><rect class="cls-2" x="-54.8" y="-54.8" width="960" height="960"/></g><path class="cls-3" d="M676.87,304.66c-3.38,0-6.14.92-9.52,1.54-30.1,5.22-92.44,9.83-137.58,12.59-36.85.61-78,1.84-103.8,1.84s-68.79-1.23-106.56-1.84c-44.53-2.46-107.49-6.45-137.89-12.59-2.76-.61-5.53-1.54-8.91-1.54-8.91,0-16.28,7.98-16.28,18.43,0,9.21,5.53,16.89,13.82,18.12,10.44,2.76,81.38,11.37,90.59,13.51,8.29,1.53,13.51,9.21,13.82,19.65,0,15.66,0,67.87-4.3,91.52-3.99,23.64-30.71,137.58-32.25,141.88-3.69,12.28,4.3,23.65,16.58,23.65,9.83,0,15.66-4.91,19.35-16.58,5.83-23.03,24.88-102.27,31.63-120.38,4.3-13.82,7.37-18.12,13.82-18.12,7.06,0,10.75,3.99,15.05,17.81,5.53,18.12,25.8,97.35,31.02,120.69,2.46,11.36,8.6,16.58,18.73,16.58,12.28,0,20.27-11.05,16.28-23.34-1.23-4.92-28.25-118.54-32.25-142.19-3.38-23.65-3.38-75.85-3.07-90.6.31-11.67,5.22-18.12,16.59-19.96,8.62-1.77,22.05-2.92,35.11-2.92,2.76,0,5.51.05,8.19.16,19.04,0,34.09.92,42.99,2.76,11.37,1.84,16.59,8.29,16.59,19.96.3,14.74,0,66.95-3.69,90.6-3.99,23.64-30.71,137.58-32.25,141.88-3.99,12.59,3.99,23.65,16.28,23.65,9.83,0,16.28-5.22,19.04-16.58,6.14-23.03,25.18-102.27,31.32-120.38,4.92-14.13,7.98-18.12,14.43-18.12s10.14,3.99,14.74,18.12c6.14,17.81,26.1,97.04,31.32,120.38,2.76,11.67,8.91,16.58,18.73,16.58,11.98,0,19.96-11.36,16.58-23.34-1.23-4.92-28.25-118.54-32.55-142.19-3.38-23.65-3.38-75.85-3.38-91.52,0-10.44,4.92-18.12,13.21-19.65,9.52-2.76,80.77-9.52,91.21-13.51,8.29-2.76,13.51-9.52,13.51-18.12,0-10.13-7.68-18.43-16.27-18.43ZM529.76,298.52c22.73,0,41.77-18.43,41.77-41.46s-18.73-40.84-41.77-40.84-40.84,18.43-40.84,40.84,18.12,41.46,40.84,41.46ZM319.4,298.52c22.72,0,41.46-18.12,41.46-41.46s-18.43-40.84-41.46-40.84-41.15,18.43-41.15,40.84,18.12,41.46,41.15,41.46Z"/></svg>