<svg xmlns="http://www.w3.org/2000/svg" xmlns:xlink="http://www.w3.org/1999/xlink" width="800" zoomAndPan="magnify" viewBox="0 0 600 599.999999" height="800" preserveAspectRatio="xMidYMid meet" version="1.0"><defs><clipPath id="15cf83be79"><path d="M 300 0 C 134.316406 0 0 134.316406 0 300 C 0 465.683594 134.316406 600 300 600 C 465.683594 600 600 465.683594 600 300 C 600 134.316406 465.683594 0 300 0 Z M 300 0 " clip-rule="nonzero"/></clipPath><clipPath id="9986332a8d"><path d="M 149.363281 141 L 450 141 L 450 459.347656 L 149.363281 459.347656 Z M 149.363281 141 " clip-rule="nonzero"/></clipPath></defs><rect x="-60" width="720" fill="#ffffff" y="-60" height="719.999999" fill-opacity="1"/><rect x="-60" width="720" fill="#ffffff" y="-60" height="719.999999" fill-opacity="1"/><g clip-path="url(#15cf83be79)"><rect x="-60" width="720" fill="#0099ee" y="-60" height="719.999999" fill-opacity="1"/></g><path fill="#ffffff" d="M 307.863281 403.578125 L 250.382812 414.816406 C 247.734375 415.332031 246.011719 417.894531 246.527344 420.539062 C 246.984375 422.871094 249.023438 424.484375 251.3125 424.484375 C 251.621094 424.484375 251.9375 424.457031 252.253906 424.394531 L 309.738281 413.15625 C 312.382812 412.640625 314.105469 410.074219 313.589844 407.429688 C 313.074219 404.785156 310.511719 403.0625 307.863281 403.578125 Z M 307.863281 403.578125 " fill-opacity="1" fill-rule="nonzero"/><g clip-path="url(#9986332a8d)"><path fill="#ffffff" d="M 449.484375 411.304688 C 448.347656 400.667969 442.703125 391.003906 433.996094 384.792969 L 403.03125 362.695312 C 403.160156 341.257812 396.4375 325.84375 383.023438 316.835938 C 382.699219 316.511719 382.332031 316.230469 381.921875 316.003906 L 336.851562 291.074219 L 314.195312 164.042969 C 312.914062 156.855469 308.910156 150.601562 302.917969 146.433594 C 296.925781 142.265625 289.667969 140.683594 282.488281 141.980469 L 182.910156 159.945312 C 168.132812 162.613281 158.253906 176.808594 160.890625 191.589844 L 174.152344 265.945312 L 167.730469 265.460938 C 158.925781 264.855469 151.265625 271.53125 150.660156 280.335938 L 149.945312 290.78125 C 149.339844 299.589844 156.011719 307.246094 164.785156 307.851562 L 181.855469 309.136719 L 182.074219 310.367188 C 179.609375 310.960938 177.308594 312.140625 175.339844 313.855469 C 172.117188 316.664062 170.179688 320.5625 169.886719 324.828125 L 169.167969 335.273438 C 168.707031 341.988281 172.480469 348.035156 178.199219 350.796875 C 176.847656 352.980469 176.035156 355.476562 175.855469 358.113281 L 175.136719 368.558594 C 174.671875 375.316406 178.5 381.398438 184.28125 384.132812 C 182.882812 386.347656 182.042969 388.890625 181.859375 391.578125 L 181.140625 402.023438 C 180.535156 410.832031 187.207031 418.488281 196.070312 419.097656 L 201.523438 419.410156 L 202.214844 423.285156 C 203.496094 430.46875 207.5 436.722656 213.492188 440.890625 C 218.117188 444.113281 223.5 445.789062 229.019531 445.789062 C 230.644531 445.789062 232.285156 445.640625 233.921875 445.347656 L 305.507812 432.429688 C 305.671875 432.46875 305.835938 432.5 306.007812 432.519531 L 348.371094 437.734375 L 365.257812 449.257812 C 374.820312 455.78125 386.085938 459.230469 397.558594 459.226562 C 399.78125 459.226562 402.011719 459.097656 404.242188 458.835938 C 417.964844 457.226562 430.644531 450.710938 439.945312 440.488281 C 447.144531 432.578125 450.621094 421.941406 449.484375 411.304688 Z M 165.488281 298.117188 C 162.050781 297.878906 159.445312 294.890625 159.679688 291.449219 L 160.398438 281.003906 C 160.632812 277.566406 163.617188 274.957031 167.03125 275.195312 L 175.921875 275.867188 L 180.085938 299.214844 Z M 178.90625 335.941406 L 179.621094 325.5 C 179.738281 323.832031 180.492188 322.3125 181.75 321.214844 C 183.011719 320.117188 184.625 319.578125 186.285156 319.691406 L 207.472656 321.148438 C 210.914062 321.382812 213.519531 324.375 213.28125 327.8125 L 212.5625 338.257812 C 212.328125 341.695312 209.339844 344.308594 205.898438 344.0625 L 184.710938 342.609375 C 181.273438 342.371094 178.667969 339.382812 178.90625 335.941406 Z M 184.875 369.226562 L 185.59375 358.78125 C 185.707031 357.117188 186.464844 355.59375 187.722656 354.5 C 188.980469 353.402344 190.589844 352.859375 192.257812 352.976562 L 208.492188 354.09375 C 210.160156 354.207031 211.679688 354.964844 212.777344 356.222656 C 213.875 357.480469 214.417969 359.09375 214.300781 360.757812 L 213.585938 371.203125 C 213.347656 374.640625 210.367188 377.253906 206.921875 377.011719 L 190.683594 375.890625 C 187.242188 375.65625 184.636719 372.664062 184.875 369.226562 Z M 190.878906 402.691406 L 191.597656 392.246094 C 191.710938 390.582031 192.464844 389.058594 193.726562 387.964844 C 194.871094 386.964844 196.308594 386.429688 197.851562 386.429688 C 198.007812 386.429688 198.160156 386.433594 198.316406 386.445312 L 206.042969 386.886719 C 209.484375 387.125 212.089844 390.113281 211.851562 393.554688 L 211.132812 403.996094 C 210.898438 407.4375 207.90625 410.046875 204.46875 409.804688 C 204.449219 409.804688 204.433594 409.804688 204.414062 409.800781 L 196.6875 409.359375 C 193.246094 409.121094 190.640625 406.132812 190.878906 402.691406 Z M 232.1875 435.742188 C 227.574219 436.574219 222.914062 435.558594 219.066406 432.878906 C 215.21875 430.203125 212.644531 426.1875 211.824219 421.570312 L 211.234375 418.265625 C 216.554688 415.960938 220.445312 410.839844 220.871094 404.667969 L 221.589844 394.222656 C 221.886719 389.921875 220.441406 385.902344 217.863281 382.835938 C 220.953125 380.140625 223.019531 376.273438 223.320312 371.871094 L 224.039062 361.429688 C 224.332031 357.160156 222.945312 353.035156 220.136719 349.8125 C 219.628906 349.230469 219.085938 348.691406 218.515625 348.195312 C 220.664062 345.675781 222.054688 342.476562 222.300781 338.925781 L 223.019531 328.480469 C 223.625 319.671875 216.949219 312.015625 208.144531 311.410156 L 191.976562 310.296875 L 170.5 189.878906 C 168.804688 180.382812 175.152344 171.265625 184.644531 169.550781 L 184.839844 169.515625 L 188.550781 175.25 C 191.9375 180.480469 198.132812 183.167969 204.265625 182.066406 L 270.007812 170.277344 C 276.140625 169.179688 281.011719 164.507812 282.371094 158.425781 L 283.886719 151.644531 L 284.222656 151.585938 C 288.832031 150.75 293.492188 151.769531 297.34375 154.445312 C 301.191406 157.125 303.765625 161.140625 304.585938 165.757812 L 326.261719 287.289062 C 323.617188 286.921875 320.914062 286.9375 318.257812 287.367188 L 279.21875 293.640625 C 275.691406 294.207031 272.695312 296.335938 271 299.480469 C 269.304688 302.625 269.171875 306.292969 270.632812 309.554688 L 273.039062 314.914062 C 277.328125 324.464844 287.574219 330.179688 297.953125 328.808594 L 310.425781 327.164062 C 311.273438 327.050781 312.144531 327.351562 312.742188 327.96875 L 338.207031 354.246094 L 345.910156 397.449219 C 347.605469 406.945312 341.257812 416.0625 331.765625 417.773438 Z M 432.726562 433.921875 C 425.007812 442.402344 414.488281 447.808594 403.101562 449.144531 C 391.714844 450.480469 380.230469 447.65625 370.757812 441.195312 L 352.890625 429.003906 C 352.25 428.5625 351.511719 428.285156 350.738281 428.191406 L 337 426.5 C 349.796875 422.394531 357.941406 409.316406 355.519531 395.734375 L 349.828125 363.828125 C 350.964844 363.765625 352.082031 363.316406 352.960938 362.464844 C 354.898438 360.589844 354.945312 357.5 353.070312 355.5625 L 346.257812 348.535156 C 346.253906 348.527344 346.25 348.523438 346.246094 348.519531 L 319.75 321.175781 C 317.011719 318.351562 313.046875 316.972656 309.148438 317.488281 L 296.675781 319.132812 C 290.53125 319.945312 284.480469 316.566406 281.945312 310.917969 L 279.539062 305.554688 C 279.25 304.917969 279.449219 304.378906 279.589844 304.113281 C 279.734375 303.851562 280.074219 303.390625 280.765625 303.277344 L 319.808594 297.003906 C 322.867188 296.511719 326.019531 296.878906 328.890625 298.007812 C 329.726562 298.960938 330.914062 299.566406 332.207031 299.660156 L 376.308594 324.050781 C 376.488281 324.207031 376.679688 324.351562 376.882812 324.480469 C 388.5 331.875 393.847656 345.136719 393.226562 365.023438 C 393.175781 366.652344 393.941406 368.199219 395.269531 369.148438 L 428.328125 392.738281 C 434.765625 397.332031 438.941406 404.476562 439.78125 412.339844 C 440.621094 420.203125 438.046875 428.070312 432.726562 433.921875 Z M 432.726562 433.921875 " fill-opacity="1" fill-rule="nonzero"/></g></svg>