<svg xmlns="http://www.w3.org/2000/svg" xmlns:xlink="http://www.w3.org/1999/xlink" width="800" zoomAndPan="magnify" viewBox="0 0 600 599.999999" height="800" preserveAspectRatio="xMidYMid meet" version="1.0"><defs><clipPath id="cd560054fa"><path d="M 300 0 C 134.316406 0 0 134.316406 0 300 C 0 465.683594 134.316406 600 300 600 C 465.683594 600 600 465.683594 600 300 C 600 134.316406 465.683594 0 300 0 Z M 300 0 " clip-rule="nonzero"/></clipPath><clipPath id="1fcb7fe5f0"><path d="M 144.328125 144.328125 L 455.578125 144.328125 L 455.578125 455.578125 L 144.328125 455.578125 Z M 144.328125 144.328125 " clip-rule="nonzero"/></clipPath></defs><rect x="-60" width="720" fill="#ffffff" y="-60" height="719.999999" fill-opacity="1"/><rect x="-60" width="720" fill="#ffffff" y="-60" height="719.999999" fill-opacity="1"/><g clip-path="url(#cd560054fa)"><rect x="-60" width="720" fill="#0099ee" y="-60" height="719.999999" fill-opacity="1"/></g><g clip-path="url(#1fcb7fe5f0)"><path fill="#ffffff" d="M 299.996094 455.660156 C 258.414062 455.660156 219.324219 439.46875 189.921875 410.070312 C 160.523438 380.664062 144.328125 341.574219 144.328125 299.996094 C 144.328125 258.414062 160.523438 219.324219 189.921875 189.921875 C 219.324219 160.523438 258.414062 144.328125 299.996094 144.328125 C 341.574219 144.328125 380.664062 160.523438 410.070312 189.921875 C 439.46875 219.324219 455.660156 258.414062 455.660156 299.996094 C 455.660156 341.574219 439.46875 380.664062 410.070312 410.070312 C 380.667969 439.472656 341.574219 455.660156 299.996094 455.660156 Z M 299.996094 168.085938 C 227.257812 168.085938 168.085938 227.261719 168.085938 299.996094 C 168.085938 372.730469 227.261719 431.902344 299.996094 431.902344 C 372.730469 431.902344 431.902344 372.726562 431.902344 299.996094 C 431.902344 227.257812 372.730469 168.085938 299.996094 168.085938 Z M 299.996094 168.085938 " fill-opacity="1" fill-rule="nonzero"/></g><path fill="#ffffff" d="M 351.664062 360.101562 C 349.351562 360.101562 347.011719 359.425781 344.957031 358.019531 L 287.089844 318.335938 C 283.851562 316.117188 281.921875 312.445312 281.929688 308.519531 L 282.078125 211.410156 C 282.085938 204.859375 287.40625 199.550781 293.953125 199.550781 C 293.960938 199.550781 293.96875 199.550781 293.972656 199.550781 C 300.53125 199.5625 305.839844 204.890625 305.832031 211.445312 L 305.691406 302.289062 L 358.390625 338.425781 C 363.800781 342.136719 365.179688 349.53125 361.46875 354.941406 C 359.167969 358.296875 355.445312 360.101562 351.664062 360.101562 Z M 351.664062 360.101562 " fill-opacity="1" fill-rule="nonzero"/></svg>