<svg width="80" height="160" viewBox="0 0 80 160" fill="none" xmlns="http://www.w3.org/2000/svg">
<g clip-path="url(#clip0_2_378)">
<circle cx="41" cy="80" r="26" fill="white"/>
</g>
<path d="M40 40C17.9107 40 0 57.9107 0 80C0 102.089 17.9107 120 40 120C62.0893 120 80 102.089 80 80C80 57.9107 62.0893 40 40 40ZM55.7589 92.2946L53.2054 95.7768C53.1498 95.8526 53.0798 95.9167 52.9994 95.9654C52.9191 96.0141 52.8298 96.0464 52.7369 96.0605C52.644 96.0746 52.5492 96.0702 52.458 96.0476C52.3667 96.0249 52.2809 95.9845 52.2054 95.9286L37.4375 85.1607C37.3455 85.0946 37.2707 85.0074 37.2194 84.9064C37.1682 84.8055 37.1419 84.6936 37.1429 84.5804V60C37.1429 59.6071 37.4643 59.2857 37.8571 59.2857H42.1518C42.5446 59.2857 42.8661 59.6071 42.8661 60V82.0982L55.5982 91.3036C55.9196 91.5268 55.9911 91.9732 55.7589 92.2946Z" fill="#0099EE"/>
<defs>
<clipPath id="clip0_2_378">
<rect width="50" height="50" fill="white" transform="translate(15 55)"/>
</clipPath>
</defs>
</svg>
