<svg width="81" height="160" viewBox="0 0 81 160" fill="none" xmlns="http://www.w3.org/2000/svg">
<circle cx="40.0778" cy="80.0778" r="40.0778" fill="#0099EE"/>
<path d="M37.8838 93.3326L30.4736 85.9224L33.5003 82.8957L37.8838 87.2792L46.6508 78.5122L49.6775 81.5389L37.8838 93.3326ZM25.4638 100.952C24.3158 100.952 23.3326 100.543 22.5144 99.7263C21.6975 98.908 21.2891 97.9248 21.2891 96.7768V67.5534C21.2891 66.4053 21.6975 65.4229 22.5144 64.606C23.3326 63.7878 24.3158 63.3786 25.4638 63.3786H27.5512V59.2039H31.726V63.3786H48.4251V59.2039H52.5998V63.3786H54.6872C55.8353 63.3786 56.8184 63.7878 57.6367 64.606C58.4536 65.4229 58.862 66.4053 58.862 67.5534V96.7768C58.862 97.9248 58.4536 98.908 57.6367 99.7263C56.8184 100.543 55.8353 100.952 54.6872 100.952H25.4638ZM25.4638 96.7768H54.6872V75.9029H25.4638V96.7768Z" fill="white"/>
</svg>
