<svg width="80" height="160" viewBox="0 0 80 160" fill="none" xmlns="http://www.w3.org/2000/svg">
<circle cx="40" cy="80" r="40" fill="#0099EE"/>
<g clip-path="url(#clip0_2_374)">
<path d="M42.5 80L22.6844 72.0844L23.9062 101.25H18.5938L19.8688 70.9422L15.9375 69.375L42.5 58.75L69.0625 69.375L42.5 80ZM42.5 66.7188C41.0391 66.7188 39.8438 67.3031 39.8438 68.0469C39.8438 68.7906 41.0391 69.375 42.5 69.375C43.9609 69.375 45.1562 68.7906 45.1562 68.0469C45.1562 67.3031 43.9609 66.7188 42.5 66.7188ZM42.5 82.6562L57.2953 76.7328C59.1812 79.2297 60.4828 82.2312 60.9078 85.4984C60.1109 85.3922 59.2875 85.3125 58.4375 85.3125C51.6641 85.3125 45.7406 88.9516 42.5 94.3703C40.8551 91.6098 38.5216 89.3238 35.7278 87.736C32.9341 86.1482 29.7759 85.3131 26.5625 85.3125C25.7125 85.3125 24.8891 85.3922 24.0922 85.4984C24.5172 82.2312 25.8187 79.2297 27.7047 76.7328L42.5 82.6562Z" fill="white"/>
</g>
<defs>
<clipPath id="clip0_2_374">
<rect width="45" height="45" fill="white" transform="translate(19.5781 57.5)"/>
</clipPath>
</defs>
</svg>
