<svg width="81" height="160" viewBox="0 0 81 160" fill="none" xmlns="http://www.w3.org/2000/svg">
<circle cx="40.5781" cy="80" r="40" fill="#0099EE"/>
<path d="M56.7471 88.4774C55.5347 87.264 54.1181 86.2737 52.5621 85.5518C54.7563 83.7741 56.1562 81.0616 56.1562 78.0198C56.1562 72.6529 51.6806 68.25 46.3137 68.3323C41.0292 68.4147 36.7716 72.7207 36.7716 78.0198C36.7716 81.0616 38.1763 83.7741 40.3656 85.5518C38.8094 86.2731 37.3927 87.2635 36.1807 88.4774C33.536 91.1269 32.0344 94.624 31.9376 98.3537C31.9363 98.4054 31.9453 98.4568 31.9642 98.505C31.9831 98.5531 32.0115 98.597 32.0476 98.634C32.0837 98.671 32.1268 98.7004 32.1745 98.7205C32.2222 98.7406 32.2733 98.7509 32.3251 98.7509H35.0375C35.2458 98.7509 35.4202 98.5862 35.425 98.3779C35.5171 95.5686 36.6553 92.9384 38.6558 90.9428C39.6795 89.9137 40.8971 89.0978 42.2382 88.5424C43.5793 87.9871 45.0172 87.7032 46.4687 87.7072C49.4185 87.7072 52.194 88.8552 54.2816 90.9428C56.2773 92.9384 57.4155 95.5686 57.5124 98.3779C57.5172 98.5862 57.6916 98.7509 57.8999 98.7509H60.6124C60.6641 98.7509 60.7153 98.7406 60.7629 98.7205C60.8106 98.7004 60.8538 98.671 60.8899 98.634C60.926 98.597 60.9543 98.5531 60.9732 98.505C60.9921 98.4568 61.0012 98.4054 60.9999 98.3537C60.903 94.624 59.4015 91.1269 56.7471 88.4774ZM46.4687 84.2197C44.8122 84.2197 43.2525 83.5755 42.0852 82.4033C41.4993 81.8221 41.0366 81.1289 40.7245 80.3649C40.4124 79.601 40.2574 78.782 40.2688 77.9568C40.2833 76.3681 40.9178 74.8326 42.027 73.6943C43.1895 72.5028 44.7444 71.8392 46.4058 71.8198C48.0478 71.8053 49.6414 72.4447 50.8135 73.5926C52.0148 74.7696 52.6735 76.3438 52.6735 78.0198C52.6735 79.6763 52.0293 81.2312 50.8571 82.4033C50.282 82.9812 49.5981 83.4392 48.8448 83.751C48.0916 84.0628 47.284 84.2221 46.4687 84.2197ZM34.3352 79.2985C34.2916 78.8771 34.2674 78.4509 34.2674 78.0198C34.2674 77.2496 34.34 76.4988 34.4757 75.7674C34.5096 75.5931 34.4175 75.4139 34.2577 75.3412C33.599 75.0457 32.9935 74.6389 32.4704 74.1254C31.854 73.5277 31.3689 72.8081 31.0461 72.0125C30.7234 71.2169 30.57 70.3627 30.5958 69.5045C30.6394 67.9497 31.2643 66.4723 32.3541 65.3583C33.5505 64.1328 35.1586 63.4644 36.8685 63.4838C38.4136 63.4983 39.9055 64.0941 41.0341 65.15C41.4167 65.5084 41.7461 65.9056 42.0222 66.3319C42.1191 66.482 42.308 66.545 42.4727 66.4869C43.3251 66.1914 44.2261 65.9831 45.1512 65.8863C45.4225 65.8572 45.5775 65.5666 45.4564 65.3244C43.8822 62.2099 40.6659 60.0593 36.946 60.0011C31.5743 59.9188 27.0987 64.3217 27.0987 69.6837C27.0987 72.7256 28.4985 75.4381 30.6927 77.2157C29.1524 77.9277 27.7332 78.911 26.5029 80.1413C23.8485 82.7908 22.347 86.288 22.2501 90.0225C22.2488 90.0742 22.2579 90.1256 22.2768 90.1738C22.2957 90.2219 22.324 90.2658 22.3601 90.3028C22.3962 90.3398 22.4394 90.3692 22.4871 90.3893C22.5347 90.4094 22.5859 90.4197 22.6376 90.4197H25.3549C25.5632 90.4197 25.7376 90.255 25.7424 90.0467C25.8345 87.2374 26.9727 84.6072 28.9732 82.6116C30.3973 81.1876 32.141 80.1994 34.0446 79.7199C34.2335 79.6715 34.3594 79.4923 34.3352 79.2985V79.2985Z" fill="white"/>
</svg>
