<svg width="81" height="160" viewBox="0 0 81 160" fill="none" xmlns="http://www.w3.org/2000/svg">
<circle cx="40.5781" cy="80" r="40" fill="#0099EE"/>
<path d="M63.6856 74.825L63.1456 74.285C63.495 73.5591 63.6147 72.744 63.489 71.9483C63.3633 71.1526 62.998 70.4141 62.4419 69.8312C62.0625 69.4536 61.6068 69.1613 61.1055 68.9738C60.6041 68.7863 60.0685 68.7078 59.5344 68.7437C59.0324 68.7731 58.5395 68.8903 58.0781 69.09V60H23.0781V100H58.0781V79.775L61.9406 75.9125L62.2706 76.2413C62.3137 76.2843 62.348 76.3355 62.3713 76.3918C62.3946 76.4481 62.4067 76.5084 62.4067 76.5694C62.4067 76.6303 62.3946 76.6907 62.3713 76.747C62.348 76.8033 62.3137 76.8544 62.2706 76.8975L59.3294 79.84C59.1417 80.0275 59.0363 80.2818 59.0361 80.5471C59.036 80.8123 59.1413 81.0667 59.3287 81.2544C59.5162 81.442 59.7706 81.5475 60.0358 81.5476C60.3011 81.5477 60.5555 81.4425 60.7431 81.255L63.6856 78.3125C64.1477 77.8498 64.4073 77.2227 64.4073 76.5688C64.4073 75.9148 64.1477 75.2877 63.6856 74.825V74.825ZM30.5781 67.75H50.5806V69.75H30.5781V67.75ZM30.5781 72.75H50.5806V74.75H30.5781V72.75ZM30.5781 77.75H43.7031V79.75H30.5781V77.75ZM49.0669 94.87H39.3131C38.1856 94.87 37.1306 94.7625 36.5706 93.84C35.9969 92.8963 36.5669 91.8 36.9831 90.9975C37.0569 90.8563 36.8931 90.6813 36.7056 90.875C36.1556 91.44 35.2806 92.4575 34.5769 93.275C33.8331 94.14 33.5381 94.4788 33.3806 94.6213C33.214 94.8148 32.9877 94.9474 32.7373 94.9981C32.487 95.0488 32.2269 95.0147 31.9981 94.9012C31.7927 94.7826 31.6318 94.6 31.5399 94.3813C31.448 94.1625 31.4303 93.9198 31.4894 93.69C31.5419 93.3775 32.4344 89.9 33.2431 86.7738C32.1681 88.6825 28.7556 94.3987 28.5956 94.6675C28.4766 94.8669 28.2833 95.0109 28.0581 95.0677C27.8329 95.1246 27.5944 95.0896 27.395 94.9706C27.1956 94.8516 27.0516 94.6583 26.9948 94.4331C26.9379 94.2079 26.9729 93.9694 27.0919 93.77C27.1356 93.6988 31.4106 86.535 31.9494 85.495C32.125 85.0793 32.4519 84.7457 32.864 84.5617C33.276 84.3777 33.7426 84.357 34.1694 84.5038C34.5546 84.6603 34.8662 84.9571 35.0413 85.3343C35.2164 85.7114 35.2421 86.1409 35.1131 86.5363C34.6631 88.2713 34.2044 90.0513 33.8506 91.4363C34.4219 90.7763 35.0194 90.0988 35.4506 89.655C35.7825 89.256 36.236 88.9768 36.7417 88.86C37.2474 88.7433 37.7774 88.7956 38.2506 89.0088C38.5447 89.1585 38.7802 89.4022 38.9197 89.7012C39.0592 90.0002 39.0948 90.3372 39.0206 90.6588C38.9012 91.057 38.7386 91.4409 38.5356 91.8038C38.2019 92.4975 38.3606 93.1188 39.3131 93.1188H49.0669C49.2989 93.1188 49.5215 93.2109 49.6856 93.375C49.8497 93.5391 49.9419 93.7617 49.9419 93.9937C49.9419 94.2258 49.8497 94.4484 49.6856 94.6125C49.5215 94.7766 49.2989 94.8688 49.0669 94.8688V94.87ZM46.4669 88.5575L43.2119 89.4163C43.1645 89.4297 43.1144 89.43 43.0669 89.4173C43.0193 89.4045 42.9761 89.3791 42.9419 89.3438C42.906 89.3099 42.8801 89.2667 42.8671 89.2191C42.8541 89.1715 42.8544 89.1212 42.8681 89.0738L43.6981 85.825L51.9356 77.5875L54.6856 80.3375L46.4669 88.5575ZM60.7994 74.2237L56.0994 78.9237L53.3494 76.1738L58.0494 71.4737C58.4697 71.0416 59.0353 70.7806 59.6369 70.7413L59.7494 70.7375C59.9854 70.7333 60.2199 70.7761 60.4393 70.8634C60.6586 70.9508 60.8584 71.0809 61.0269 71.2462C61.3882 71.6727 61.5669 72.2244 61.5243 72.7817C61.4817 73.339 61.2213 73.8571 60.7994 74.2237V74.2237Z" fill="white"/>
</svg>
